%TF.GenerationSoftware,KiCad,Pcbnew,8.0.3*%
%TF.CreationDate,2024-09-02T20:30:28+10:00*%
%TF.ProjectId,Top_plate,546f705f-706c-4617-9465-2e6b69636164,rev?*%
%TF.SameCoordinates,Original*%
%TF.FileFunction,Soldermask,Bot*%
%TF.FilePolarity,Negative*%
%FSLAX46Y46*%
G04 Gerber Fmt 4.6, Leading zero omitted, Abs format (unit mm)*
G04 Created by KiCad (PCBNEW 8.0.3) date 2024-09-02 20:30:28*
%MOMM*%
%LPD*%
G01*
G04 APERTURE LIST*
%ADD10C,0.010000*%
G04 APERTURE END LIST*
D10*
%TO.C,G\u002A\u002A\u002A*%
X73734402Y-45595109D02*
X73845821Y-45730213D01*
X73832973Y-45903194D01*
X73832741Y-45903644D01*
X73816585Y-46034266D01*
X73890757Y-46226019D01*
X74067465Y-46510196D01*
X74071901Y-46516703D01*
X74247197Y-46765568D01*
X74366192Y-46901641D01*
X74463936Y-46954714D01*
X74575470Y-46954578D01*
X74585441Y-46953242D01*
X74733836Y-46918038D01*
X74864008Y-46838081D01*
X75014286Y-46681298D01*
X75214440Y-46426901D01*
X75362536Y-46192298D01*
X75388023Y-46027938D01*
X75366765Y-45974972D01*
X75335098Y-45852518D01*
X75439833Y-45761746D01*
X75475566Y-45744427D01*
X75691148Y-45705166D01*
X75838683Y-45783286D01*
X75880925Y-45943524D01*
X75830855Y-46080802D01*
X75727471Y-46281529D01*
X75602465Y-46562454D01*
X75533328Y-46733379D01*
X75438706Y-47032638D01*
X75433122Y-47237101D01*
X75486380Y-47358191D01*
X75564051Y-47449933D01*
X75657262Y-47474711D01*
X75807583Y-47426896D01*
X76056585Y-47300858D01*
X76106090Y-47274280D01*
X76376552Y-47112832D01*
X76590916Y-46956159D01*
X76694273Y-46849171D01*
X76835686Y-46727979D01*
X76997972Y-46732037D01*
X77126407Y-46835075D01*
X77166266Y-47010824D01*
X77153988Y-47069859D01*
X77063970Y-47209421D01*
X76927704Y-47227895D01*
X76832917Y-47238213D01*
X76722135Y-47301156D01*
X76570334Y-47438194D01*
X76352493Y-47670791D01*
X76163671Y-47883342D01*
X75943718Y-48136353D01*
X75775701Y-48348175D01*
X75649680Y-48548386D01*
X75555713Y-48766561D01*
X75483858Y-49032281D01*
X75424175Y-49375123D01*
X75366720Y-49824662D01*
X75301554Y-50410479D01*
X75295457Y-50466439D01*
X75264802Y-50795828D01*
X75239949Y-51048949D01*
X75200466Y-51234768D01*
X75125918Y-51362255D01*
X74995873Y-51440379D01*
X74789895Y-51478106D01*
X74487554Y-51484408D01*
X74068412Y-51468251D01*
X73512038Y-51438604D01*
X73125000Y-51419076D01*
X71538377Y-51343542D01*
X71569281Y-52303186D01*
X71584699Y-52687868D01*
X71603156Y-53005573D01*
X71622218Y-53220976D01*
X71637821Y-53298119D01*
X71730811Y-53295114D01*
X71952048Y-53259065D01*
X72265135Y-53196490D01*
X72523560Y-53139459D01*
X73193563Y-53026264D01*
X73961789Y-52961843D01*
X74763862Y-52947697D01*
X75535404Y-52985324D01*
X76101468Y-53056093D01*
X76639434Y-53175455D01*
X77246738Y-53354617D01*
X77863713Y-53572547D01*
X78430688Y-53808217D01*
X78877183Y-54034307D01*
X79369007Y-54350916D01*
X79892043Y-54740806D01*
X80395130Y-55162175D01*
X80827106Y-55573220D01*
X81021526Y-55786427D01*
X81619703Y-56620333D01*
X82080598Y-57541162D01*
X82401001Y-58532401D01*
X82577701Y-59577537D01*
X82607488Y-60660060D01*
X82487152Y-61763457D01*
X82325045Y-62490981D01*
X82223564Y-62868446D01*
X82267000Y-62492804D01*
X82299068Y-62055350D01*
X82310165Y-61522715D01*
X82301937Y-60946270D01*
X82276027Y-60377388D01*
X82234079Y-59867443D01*
X82177737Y-59467807D01*
X82168798Y-59423607D01*
X81897763Y-58502698D01*
X81497605Y-57647535D01*
X80983121Y-56879048D01*
X80369106Y-56218168D01*
X79670354Y-55685825D01*
X79425660Y-55542993D01*
X78915225Y-55301343D01*
X78300719Y-55064798D01*
X77646548Y-54855437D01*
X77017122Y-54695342D01*
X76860270Y-54663521D01*
X76302505Y-54575847D01*
X75765740Y-54534476D01*
X75218527Y-54542171D01*
X74629420Y-54601699D01*
X73966972Y-54715823D01*
X73199738Y-54887307D01*
X72603381Y-55037763D01*
X71658916Y-55284113D01*
X71699327Y-56372014D01*
X71720698Y-56772795D01*
X71750531Y-57098377D01*
X71785163Y-57319246D01*
X71820933Y-57405892D01*
X71827510Y-57404774D01*
X71922995Y-57332408D01*
X72121076Y-57174136D01*
X72394119Y-56952280D01*
X72714486Y-56689165D01*
X72761777Y-56650112D01*
X73608271Y-55950590D01*
X73642530Y-57837787D01*
X73656379Y-58474599D01*
X73673638Y-58966842D01*
X73696937Y-59339279D01*
X73728907Y-59616672D01*
X73772181Y-59823785D01*
X73829388Y-59985378D01*
X73881787Y-60089411D01*
X74059052Y-60342548D01*
X74310425Y-60624243D01*
X74600875Y-60903418D01*
X74895376Y-61148997D01*
X75158898Y-61329901D01*
X75356412Y-61415053D01*
X75378935Y-61417685D01*
X75535613Y-61455543D01*
X75596535Y-61587674D01*
X75600743Y-61612721D01*
X75570543Y-61810037D01*
X75442393Y-61911691D01*
X75269594Y-61888390D01*
X75196899Y-61834654D01*
X75030909Y-61719146D01*
X74780376Y-61590344D01*
X74500962Y-61471554D01*
X74248332Y-61386082D01*
X74078147Y-61357233D01*
X74062022Y-61359492D01*
X73894956Y-61475907D01*
X73838362Y-61718993D01*
X73892464Y-62086883D01*
X73949163Y-62280969D01*
X74052402Y-62585851D01*
X74145280Y-62838764D01*
X74207509Y-62984570D01*
X74216696Y-63147101D01*
X74103852Y-63283811D01*
X73918174Y-63339760D01*
X73729364Y-63286662D01*
X73671416Y-63147389D01*
X73703922Y-63043527D01*
X73714305Y-62885311D01*
X73617960Y-62635750D01*
X73502835Y-62428321D01*
X73347396Y-62175141D01*
X73239375Y-62035305D01*
X73142091Y-61975187D01*
X73018855Y-61961162D01*
X72992919Y-61960945D01*
X72764830Y-62031131D01*
X72524854Y-62210324D01*
X72318933Y-62449273D01*
X72193008Y-62698736D01*
X72175283Y-62837377D01*
X72139823Y-63080421D01*
X71993893Y-63206194D01*
X71896499Y-63220023D01*
X71748022Y-63156062D01*
X71660528Y-63012786D01*
X71671957Y-62863110D01*
X71695067Y-62832884D01*
X71774631Y-62707470D01*
X71887570Y-62474579D01*
X72004038Y-62197927D01*
X72112146Y-61900887D01*
X72150989Y-61712157D01*
X72124058Y-61587143D01*
X72058411Y-61503944D01*
X71954771Y-61425696D01*
X71834823Y-61417215D01*
X71652379Y-61485259D01*
X71439399Y-61594506D01*
X71177271Y-61751758D01*
X70972053Y-61905544D01*
X70884922Y-61999490D01*
X70744521Y-62113438D01*
X70579567Y-62102242D01*
X70452721Y-61985908D01*
X70420150Y-61851094D01*
X70453408Y-61691070D01*
X70592121Y-61618314D01*
X70611772Y-61613572D01*
X70774927Y-61525290D01*
X71027670Y-61322586D01*
X71351023Y-61020996D01*
X71423180Y-60949494D01*
X72042966Y-60329708D01*
X72222061Y-59225166D01*
X72289593Y-58820063D01*
X72332871Y-58524041D01*
X72336696Y-58335874D01*
X72285870Y-58254335D01*
X72165196Y-58278202D01*
X71959478Y-58406246D01*
X71653516Y-58637243D01*
X71232114Y-58969967D01*
X71030592Y-59129087D01*
X70676674Y-59403771D01*
X70371309Y-59633250D01*
X70138027Y-59800433D01*
X70000363Y-59888231D01*
X69973911Y-59896468D01*
X69959172Y-59804481D01*
X69938427Y-59569333D01*
X69913484Y-59217016D01*
X69886158Y-58773521D01*
X69858258Y-58264838D01*
X69852850Y-58159186D01*
X69825452Y-57643805D01*
X69798858Y-57191389D01*
X69774760Y-56827155D01*
X69754852Y-56576327D01*
X69740827Y-56464124D01*
X69738786Y-56460534D01*
X69675884Y-56521099D01*
X69522386Y-56686286D01*
X69299122Y-56933215D01*
X69026923Y-57239004D01*
X68925812Y-57353583D01*
X68619899Y-57693062D01*
X68319952Y-58006279D01*
X67998192Y-58319362D01*
X67626840Y-58658446D01*
X67178116Y-59049662D01*
X66624238Y-59519141D01*
X66619234Y-59523345D01*
X66190064Y-59885398D01*
X65807768Y-60210793D01*
X65490332Y-60483983D01*
X65255739Y-60689422D01*
X65121975Y-60811565D01*
X65097567Y-60838663D01*
X65174019Y-60874388D01*
X65382640Y-60945056D01*
X65692320Y-61040718D01*
X66071951Y-61151428D01*
X66105351Y-61160904D01*
X66488716Y-61272215D01*
X66804067Y-61369096D01*
X67020524Y-61441669D01*
X67107206Y-61480061D01*
X67107600Y-61481429D01*
X67081844Y-61698473D01*
X67052786Y-62028539D01*
X67022315Y-62438501D01*
X66992322Y-62895232D01*
X66964695Y-63365607D01*
X66941324Y-63816498D01*
X66924098Y-64214780D01*
X66914905Y-64527327D01*
X66915636Y-64721012D01*
X66920427Y-64763313D01*
X67031020Y-65061017D01*
X67182892Y-65384260D01*
X67352470Y-65691668D01*
X67516177Y-65941867D01*
X67650440Y-66093481D01*
X67692162Y-66117743D01*
X67820099Y-66225308D01*
X67837001Y-66386310D01*
X67740143Y-66524021D01*
X67707219Y-66541866D01*
X67620739Y-66543847D01*
X67501932Y-66465176D01*
X67324342Y-66284666D01*
X67177962Y-66117960D01*
X66965839Y-65875626D01*
X66828973Y-65741735D01*
X66733781Y-65695012D01*
X66646681Y-65714176D01*
X66589734Y-65745283D01*
X66452670Y-65873677D01*
X66367780Y-66085169D01*
X66326469Y-66410774D01*
X66318881Y-66723131D01*
X66287782Y-67025904D01*
X66201601Y-67194522D01*
X66071019Y-67216744D01*
X65957559Y-67137294D01*
X65896971Y-66993244D01*
X65940606Y-66910802D01*
X65989130Y-66760924D01*
X65975890Y-66520369D01*
X65915130Y-66249777D01*
X65821094Y-66009786D01*
X65708023Y-65861038D01*
X65691688Y-65851051D01*
X65513589Y-65839348D01*
X65273488Y-65916066D01*
X65029770Y-66050545D01*
X64840817Y-66212124D01*
X64769468Y-66335359D01*
X64682404Y-66479137D01*
X64589744Y-66500811D01*
X64436729Y-66438040D01*
X64385277Y-66293969D01*
X64454073Y-66134961D01*
X64479882Y-66110534D01*
X64624386Y-65976249D01*
X64823599Y-65776322D01*
X64925279Y-65669967D01*
X65101264Y-65464759D01*
X65166700Y-65326303D01*
X65140911Y-65212685D01*
X65138236Y-65208030D01*
X65005145Y-65128467D01*
X64767142Y-65100547D01*
X64479989Y-65122457D01*
X64199448Y-65192384D01*
X64083803Y-65242320D01*
X63904355Y-65275671D01*
X63792398Y-65188652D01*
X63736218Y-65024050D01*
X63790869Y-64895214D01*
X63921630Y-64856649D01*
X63989272Y-64879633D01*
X64129322Y-64876714D01*
X64371662Y-64802840D01*
X64675291Y-64677289D01*
X64999210Y-64519340D01*
X65302420Y-64348273D01*
X65543923Y-64183365D01*
X65629720Y-64108248D01*
X65742923Y-63920557D01*
X65863166Y-63587467D01*
X65982216Y-63132219D01*
X65994054Y-63079442D01*
X66182597Y-62226924D01*
X65206855Y-61921417D01*
X64821642Y-61802364D01*
X64493701Y-61703928D01*
X64257711Y-61636319D01*
X64148354Y-61609749D01*
X64148283Y-61609743D01*
X64062844Y-61667934D01*
X63895229Y-61830319D01*
X63671219Y-62070630D01*
X63463070Y-62307949D01*
X63183228Y-62629380D01*
X62977192Y-62846679D01*
X62812942Y-62987908D01*
X62658462Y-63081131D01*
X62508677Y-63144428D01*
X62239044Y-63272838D01*
X62007868Y-63427196D01*
X61965170Y-63465402D01*
X61778732Y-63591976D01*
X61659891Y-63579201D01*
X61536904Y-63576431D01*
X61290503Y-63628537D01*
X60954304Y-63727042D01*
X60624961Y-63840220D01*
X60075671Y-64024723D01*
X59666880Y-64119097D01*
X59391090Y-64115497D01*
X59240806Y-64006083D01*
X59208533Y-63783015D01*
X59286773Y-63438450D01*
X59468031Y-62964546D01*
X59568549Y-62735124D01*
X59727010Y-62363910D01*
X59846754Y-62047153D01*
X59916762Y-61816881D01*
X59926011Y-61705121D01*
X59923920Y-61702381D01*
X59924689Y-61594238D01*
X60049777Y-61426926D01*
X60057434Y-61419197D01*
X60231015Y-61198498D01*
X60386222Y-60927584D01*
X60405055Y-60885758D01*
X60479638Y-60732250D01*
X60575291Y-60595616D01*
X60720228Y-60447361D01*
X60942662Y-60258992D01*
X61270807Y-60002017D01*
X61310049Y-59971813D01*
X62075751Y-59382979D01*
X62284020Y-57845597D01*
X62350468Y-57355041D01*
X62408756Y-56924629D01*
X62455200Y-56581554D01*
X62486121Y-56353013D01*
X62497780Y-56266629D01*
X62431615Y-56200518D01*
X62248904Y-56082478D01*
X61986654Y-55931959D01*
X61681873Y-55768410D01*
X61371569Y-55611281D01*
X61092750Y-55480020D01*
X60882424Y-55394079D01*
X60793908Y-55371163D01*
X60575494Y-55394169D01*
X60266164Y-55470182D01*
X59919996Y-55580670D01*
X59591074Y-55707099D01*
X59333477Y-55830936D01*
X59220103Y-55910479D01*
X59047840Y-56005797D01*
X58891741Y-55979198D01*
X58809798Y-55844906D01*
X58807396Y-55809256D01*
X58854951Y-55685323D01*
X58998162Y-55626537D01*
X59170450Y-55541617D01*
X59387175Y-55377386D01*
X59485049Y-55286323D01*
X59673928Y-55062118D01*
X59726787Y-54889010D01*
X59635201Y-54754024D01*
X59390742Y-54644185D01*
X59007524Y-54550970D01*
X58659015Y-54477991D01*
X58449438Y-54419282D01*
X58350940Y-54359852D01*
X58335666Y-54284712D01*
X58364010Y-54204655D01*
X58486791Y-54065081D01*
X58644634Y-54088914D01*
X58710109Y-54142481D01*
X58863865Y-54200802D01*
X59111959Y-54211192D01*
X59388584Y-54180744D01*
X59627934Y-54116546D01*
X59761979Y-54029133D01*
X59786787Y-53877958D01*
X59748610Y-53650121D01*
X59667604Y-53404897D01*
X59563931Y-53201560D01*
X59457744Y-53099388D01*
X59444853Y-53096632D01*
X59314321Y-53020943D01*
X59242660Y-52878763D01*
X59269222Y-52750114D01*
X59272712Y-52746550D01*
X59452807Y-52645348D01*
X59601217Y-52695210D01*
X59664132Y-52809143D01*
X59767060Y-53007996D01*
X59939630Y-53219942D01*
X60140581Y-53406615D01*
X60328652Y-53529648D01*
X60461918Y-53550976D01*
X60533120Y-53440405D01*
X60580450Y-53221770D01*
X60600580Y-52955086D01*
X60590175Y-52700374D01*
X60545908Y-52517648D01*
X60521278Y-52481283D01*
X60502868Y-52380042D01*
X60593740Y-52284748D01*
X60736560Y-52231556D01*
X60873994Y-52256625D01*
X60875707Y-52257772D01*
X60950855Y-52391935D01*
X60918809Y-52494095D01*
X60908544Y-52637529D01*
X60954414Y-52892035D01*
X61042188Y-53214663D01*
X61157633Y-53562465D01*
X61286518Y-53892491D01*
X61414614Y-54161791D01*
X61525594Y-54325328D01*
X61645494Y-54428379D01*
X61872987Y-54608537D01*
X62178830Y-54843170D01*
X62533774Y-55109642D01*
X62657145Y-55201038D01*
X63005867Y-55461445D01*
X63299504Y-55686332D01*
X63514045Y-55856872D01*
X63625482Y-55954233D01*
X63635799Y-55968582D01*
X63615645Y-56061633D01*
X63563777Y-56288415D01*
X63487375Y-56617855D01*
X63393618Y-57018876D01*
X63362268Y-57152382D01*
X63268335Y-57564527D01*
X63195092Y-57910559D01*
X63148358Y-58160923D01*
X63133954Y-58286070D01*
X63137288Y-58294852D01*
X63202823Y-58234009D01*
X63364607Y-58062757D01*
X63607254Y-57798008D01*
X63915377Y-57456677D01*
X64273588Y-57055676D01*
X64608005Y-56678223D01*
X66035141Y-55061596D01*
X67797290Y-54506796D01*
X68314150Y-54339614D01*
X68773652Y-54182482D01*
X69152035Y-54044229D01*
X69425536Y-53933678D01*
X69570397Y-53859656D01*
X69587074Y-53841976D01*
X69607753Y-53729509D01*
X69650439Y-53475129D01*
X69711003Y-53104231D01*
X69785315Y-52642206D01*
X69869249Y-52114448D01*
X69912914Y-51837789D01*
X70000185Y-51290353D01*
X70080525Y-50799370D01*
X70149739Y-50389443D01*
X70203633Y-50085174D01*
X70238012Y-49911164D01*
X70246655Y-49880545D01*
X70336882Y-49874624D01*
X70569990Y-49892929D01*
X70921707Y-49932601D01*
X71367758Y-49990777D01*
X71883872Y-50064599D01*
X72150062Y-50104857D01*
X72693040Y-50186885D01*
X73179121Y-50257432D01*
X73583629Y-50313153D01*
X73881887Y-50350704D01*
X74049219Y-50366739D01*
X74075658Y-50365873D01*
X74104010Y-50269202D01*
X74092507Y-50057170D01*
X74049642Y-49776702D01*
X73983905Y-49474724D01*
X73903790Y-49198159D01*
X73832329Y-49021274D01*
X73658834Y-48762145D01*
X73368168Y-48430008D01*
X73057039Y-48120249D01*
X72757171Y-47843522D01*
X72542922Y-47667741D01*
X72382964Y-47571385D01*
X72245973Y-47532935D01*
X72196550Y-47529134D01*
X72021472Y-47510123D01*
X71958709Y-47438380D01*
X71951070Y-47318716D01*
X71996361Y-47141203D01*
X72071427Y-47063451D01*
X72193039Y-47001580D01*
X72216822Y-46984811D01*
X72286517Y-47019466D01*
X72419897Y-47137820D01*
X72423455Y-47141368D01*
X72607666Y-47271114D01*
X72880653Y-47404730D01*
X73058654Y-47471461D01*
X73328530Y-47549198D01*
X73493443Y-47558510D01*
X73604423Y-47496840D01*
X73653194Y-47441689D01*
X73724235Y-47293663D01*
X73725580Y-47086801D01*
X73656835Y-46775610D01*
X73647103Y-46740601D01*
X73551003Y-46432256D01*
X73451757Y-46165915D01*
X73385936Y-46027148D01*
X73319636Y-45808586D01*
X73377848Y-45633520D01*
X73542915Y-45551576D01*
X73734402Y-45595109D01*
G36*
X73734402Y-45595109D02*
G01*
X73845821Y-45730213D01*
X73832973Y-45903194D01*
X73832741Y-45903644D01*
X73816585Y-46034266D01*
X73890757Y-46226019D01*
X74067465Y-46510196D01*
X74071901Y-46516703D01*
X74247197Y-46765568D01*
X74366192Y-46901641D01*
X74463936Y-46954714D01*
X74575470Y-46954578D01*
X74585441Y-46953242D01*
X74733836Y-46918038D01*
X74864008Y-46838081D01*
X75014286Y-46681298D01*
X75214440Y-46426901D01*
X75362536Y-46192298D01*
X75388023Y-46027938D01*
X75366765Y-45974972D01*
X75335098Y-45852518D01*
X75439833Y-45761746D01*
X75475566Y-45744427D01*
X75691148Y-45705166D01*
X75838683Y-45783286D01*
X75880925Y-45943524D01*
X75830855Y-46080802D01*
X75727471Y-46281529D01*
X75602465Y-46562454D01*
X75533328Y-46733379D01*
X75438706Y-47032638D01*
X75433122Y-47237101D01*
X75486380Y-47358191D01*
X75564051Y-47449933D01*
X75657262Y-47474711D01*
X75807583Y-47426896D01*
X76056585Y-47300858D01*
X76106090Y-47274280D01*
X76376552Y-47112832D01*
X76590916Y-46956159D01*
X76694273Y-46849171D01*
X76835686Y-46727979D01*
X76997972Y-46732037D01*
X77126407Y-46835075D01*
X77166266Y-47010824D01*
X77153988Y-47069859D01*
X77063970Y-47209421D01*
X76927704Y-47227895D01*
X76832917Y-47238213D01*
X76722135Y-47301156D01*
X76570334Y-47438194D01*
X76352493Y-47670791D01*
X76163671Y-47883342D01*
X75943718Y-48136353D01*
X75775701Y-48348175D01*
X75649680Y-48548386D01*
X75555713Y-48766561D01*
X75483858Y-49032281D01*
X75424175Y-49375123D01*
X75366720Y-49824662D01*
X75301554Y-50410479D01*
X75295457Y-50466439D01*
X75264802Y-50795828D01*
X75239949Y-51048949D01*
X75200466Y-51234768D01*
X75125918Y-51362255D01*
X74995873Y-51440379D01*
X74789895Y-51478106D01*
X74487554Y-51484408D01*
X74068412Y-51468251D01*
X73512038Y-51438604D01*
X73125000Y-51419076D01*
X71538377Y-51343542D01*
X71569281Y-52303186D01*
X71584699Y-52687868D01*
X71603156Y-53005573D01*
X71622218Y-53220976D01*
X71637821Y-53298119D01*
X71730811Y-53295114D01*
X71952048Y-53259065D01*
X72265135Y-53196490D01*
X72523560Y-53139459D01*
X73193563Y-53026264D01*
X73961789Y-52961843D01*
X74763862Y-52947697D01*
X75535404Y-52985324D01*
X76101468Y-53056093D01*
X76639434Y-53175455D01*
X77246738Y-53354617D01*
X77863713Y-53572547D01*
X78430688Y-53808217D01*
X78877183Y-54034307D01*
X79369007Y-54350916D01*
X79892043Y-54740806D01*
X80395130Y-55162175D01*
X80827106Y-55573220D01*
X81021526Y-55786427D01*
X81619703Y-56620333D01*
X82080598Y-57541162D01*
X82401001Y-58532401D01*
X82577701Y-59577537D01*
X82607488Y-60660060D01*
X82487152Y-61763457D01*
X82325045Y-62490981D01*
X82223564Y-62868446D01*
X82267000Y-62492804D01*
X82299068Y-62055350D01*
X82310165Y-61522715D01*
X82301937Y-60946270D01*
X82276027Y-60377388D01*
X82234079Y-59867443D01*
X82177737Y-59467807D01*
X82168798Y-59423607D01*
X81897763Y-58502698D01*
X81497605Y-57647535D01*
X80983121Y-56879048D01*
X80369106Y-56218168D01*
X79670354Y-55685825D01*
X79425660Y-55542993D01*
X78915225Y-55301343D01*
X78300719Y-55064798D01*
X77646548Y-54855437D01*
X77017122Y-54695342D01*
X76860270Y-54663521D01*
X76302505Y-54575847D01*
X75765740Y-54534476D01*
X75218527Y-54542171D01*
X74629420Y-54601699D01*
X73966972Y-54715823D01*
X73199738Y-54887307D01*
X72603381Y-55037763D01*
X71658916Y-55284113D01*
X71699327Y-56372014D01*
X71720698Y-56772795D01*
X71750531Y-57098377D01*
X71785163Y-57319246D01*
X71820933Y-57405892D01*
X71827510Y-57404774D01*
X71922995Y-57332408D01*
X72121076Y-57174136D01*
X72394119Y-56952280D01*
X72714486Y-56689165D01*
X72761777Y-56650112D01*
X73608271Y-55950590D01*
X73642530Y-57837787D01*
X73656379Y-58474599D01*
X73673638Y-58966842D01*
X73696937Y-59339279D01*
X73728907Y-59616672D01*
X73772181Y-59823785D01*
X73829388Y-59985378D01*
X73881787Y-60089411D01*
X74059052Y-60342548D01*
X74310425Y-60624243D01*
X74600875Y-60903418D01*
X74895376Y-61148997D01*
X75158898Y-61329901D01*
X75356412Y-61415053D01*
X75378935Y-61417685D01*
X75535613Y-61455543D01*
X75596535Y-61587674D01*
X75600743Y-61612721D01*
X75570543Y-61810037D01*
X75442393Y-61911691D01*
X75269594Y-61888390D01*
X75196899Y-61834654D01*
X75030909Y-61719146D01*
X74780376Y-61590344D01*
X74500962Y-61471554D01*
X74248332Y-61386082D01*
X74078147Y-61357233D01*
X74062022Y-61359492D01*
X73894956Y-61475907D01*
X73838362Y-61718993D01*
X73892464Y-62086883D01*
X73949163Y-62280969D01*
X74052402Y-62585851D01*
X74145280Y-62838764D01*
X74207509Y-62984570D01*
X74216696Y-63147101D01*
X74103852Y-63283811D01*
X73918174Y-63339760D01*
X73729364Y-63286662D01*
X73671416Y-63147389D01*
X73703922Y-63043527D01*
X73714305Y-62885311D01*
X73617960Y-62635750D01*
X73502835Y-62428321D01*
X73347396Y-62175141D01*
X73239375Y-62035305D01*
X73142091Y-61975187D01*
X73018855Y-61961162D01*
X72992919Y-61960945D01*
X72764830Y-62031131D01*
X72524854Y-62210324D01*
X72318933Y-62449273D01*
X72193008Y-62698736D01*
X72175283Y-62837377D01*
X72139823Y-63080421D01*
X71993893Y-63206194D01*
X71896499Y-63220023D01*
X71748022Y-63156062D01*
X71660528Y-63012786D01*
X71671957Y-62863110D01*
X71695067Y-62832884D01*
X71774631Y-62707470D01*
X71887570Y-62474579D01*
X72004038Y-62197927D01*
X72112146Y-61900887D01*
X72150989Y-61712157D01*
X72124058Y-61587143D01*
X72058411Y-61503944D01*
X71954771Y-61425696D01*
X71834823Y-61417215D01*
X71652379Y-61485259D01*
X71439399Y-61594506D01*
X71177271Y-61751758D01*
X70972053Y-61905544D01*
X70884922Y-61999490D01*
X70744521Y-62113438D01*
X70579567Y-62102242D01*
X70452721Y-61985908D01*
X70420150Y-61851094D01*
X70453408Y-61691070D01*
X70592121Y-61618314D01*
X70611772Y-61613572D01*
X70774927Y-61525290D01*
X71027670Y-61322586D01*
X71351023Y-61020996D01*
X71423180Y-60949494D01*
X72042966Y-60329708D01*
X72222061Y-59225166D01*
X72289593Y-58820063D01*
X72332871Y-58524041D01*
X72336696Y-58335874D01*
X72285870Y-58254335D01*
X72165196Y-58278202D01*
X71959478Y-58406246D01*
X71653516Y-58637243D01*
X71232114Y-58969967D01*
X71030592Y-59129087D01*
X70676674Y-59403771D01*
X70371309Y-59633250D01*
X70138027Y-59800433D01*
X70000363Y-59888231D01*
X69973911Y-59896468D01*
X69959172Y-59804481D01*
X69938427Y-59569333D01*
X69913484Y-59217016D01*
X69886158Y-58773521D01*
X69858258Y-58264838D01*
X69852850Y-58159186D01*
X69825452Y-57643805D01*
X69798858Y-57191389D01*
X69774760Y-56827155D01*
X69754852Y-56576327D01*
X69740827Y-56464124D01*
X69738786Y-56460534D01*
X69675884Y-56521099D01*
X69522386Y-56686286D01*
X69299122Y-56933215D01*
X69026923Y-57239004D01*
X68925812Y-57353583D01*
X68619899Y-57693062D01*
X68319952Y-58006279D01*
X67998192Y-58319362D01*
X67626840Y-58658446D01*
X67178116Y-59049662D01*
X66624238Y-59519141D01*
X66619234Y-59523345D01*
X66190064Y-59885398D01*
X65807768Y-60210793D01*
X65490332Y-60483983D01*
X65255739Y-60689422D01*
X65121975Y-60811565D01*
X65097567Y-60838663D01*
X65174019Y-60874388D01*
X65382640Y-60945056D01*
X65692320Y-61040718D01*
X66071951Y-61151428D01*
X66105351Y-61160904D01*
X66488716Y-61272215D01*
X66804067Y-61369096D01*
X67020524Y-61441669D01*
X67107206Y-61480061D01*
X67107600Y-61481429D01*
X67081844Y-61698473D01*
X67052786Y-62028539D01*
X67022315Y-62438501D01*
X66992322Y-62895232D01*
X66964695Y-63365607D01*
X66941324Y-63816498D01*
X66924098Y-64214780D01*
X66914905Y-64527327D01*
X66915636Y-64721012D01*
X66920427Y-64763313D01*
X67031020Y-65061017D01*
X67182892Y-65384260D01*
X67352470Y-65691668D01*
X67516177Y-65941867D01*
X67650440Y-66093481D01*
X67692162Y-66117743D01*
X67820099Y-66225308D01*
X67837001Y-66386310D01*
X67740143Y-66524021D01*
X67707219Y-66541866D01*
X67620739Y-66543847D01*
X67501932Y-66465176D01*
X67324342Y-66284666D01*
X67177962Y-66117960D01*
X66965839Y-65875626D01*
X66828973Y-65741735D01*
X66733781Y-65695012D01*
X66646681Y-65714176D01*
X66589734Y-65745283D01*
X66452670Y-65873677D01*
X66367780Y-66085169D01*
X66326469Y-66410774D01*
X66318881Y-66723131D01*
X66287782Y-67025904D01*
X66201601Y-67194522D01*
X66071019Y-67216744D01*
X65957559Y-67137294D01*
X65896971Y-66993244D01*
X65940606Y-66910802D01*
X65989130Y-66760924D01*
X65975890Y-66520369D01*
X65915130Y-66249777D01*
X65821094Y-66009786D01*
X65708023Y-65861038D01*
X65691688Y-65851051D01*
X65513589Y-65839348D01*
X65273488Y-65916066D01*
X65029770Y-66050545D01*
X64840817Y-66212124D01*
X64769468Y-66335359D01*
X64682404Y-66479137D01*
X64589744Y-66500811D01*
X64436729Y-66438040D01*
X64385277Y-66293969D01*
X64454073Y-66134961D01*
X64479882Y-66110534D01*
X64624386Y-65976249D01*
X64823599Y-65776322D01*
X64925279Y-65669967D01*
X65101264Y-65464759D01*
X65166700Y-65326303D01*
X65140911Y-65212685D01*
X65138236Y-65208030D01*
X65005145Y-65128467D01*
X64767142Y-65100547D01*
X64479989Y-65122457D01*
X64199448Y-65192384D01*
X64083803Y-65242320D01*
X63904355Y-65275671D01*
X63792398Y-65188652D01*
X63736218Y-65024050D01*
X63790869Y-64895214D01*
X63921630Y-64856649D01*
X63989272Y-64879633D01*
X64129322Y-64876714D01*
X64371662Y-64802840D01*
X64675291Y-64677289D01*
X64999210Y-64519340D01*
X65302420Y-64348273D01*
X65543923Y-64183365D01*
X65629720Y-64108248D01*
X65742923Y-63920557D01*
X65863166Y-63587467D01*
X65982216Y-63132219D01*
X65994054Y-63079442D01*
X66182597Y-62226924D01*
X65206855Y-61921417D01*
X64821642Y-61802364D01*
X64493701Y-61703928D01*
X64257711Y-61636319D01*
X64148354Y-61609749D01*
X64148283Y-61609743D01*
X64062844Y-61667934D01*
X63895229Y-61830319D01*
X63671219Y-62070630D01*
X63463070Y-62307949D01*
X63183228Y-62629380D01*
X62977192Y-62846679D01*
X62812942Y-62987908D01*
X62658462Y-63081131D01*
X62508677Y-63144428D01*
X62239044Y-63272838D01*
X62007868Y-63427196D01*
X61965170Y-63465402D01*
X61778732Y-63591976D01*
X61659891Y-63579201D01*
X61536904Y-63576431D01*
X61290503Y-63628537D01*
X60954304Y-63727042D01*
X60624961Y-63840220D01*
X60075671Y-64024723D01*
X59666880Y-64119097D01*
X59391090Y-64115497D01*
X59240806Y-64006083D01*
X59208533Y-63783015D01*
X59286773Y-63438450D01*
X59468031Y-62964546D01*
X59568549Y-62735124D01*
X59727010Y-62363910D01*
X59846754Y-62047153D01*
X59916762Y-61816881D01*
X59926011Y-61705121D01*
X59923920Y-61702381D01*
X59924689Y-61594238D01*
X60049777Y-61426926D01*
X60057434Y-61419197D01*
X60231015Y-61198498D01*
X60386222Y-60927584D01*
X60405055Y-60885758D01*
X60479638Y-60732250D01*
X60575291Y-60595616D01*
X60720228Y-60447361D01*
X60942662Y-60258992D01*
X61270807Y-60002017D01*
X61310049Y-59971813D01*
X62075751Y-59382979D01*
X62284020Y-57845597D01*
X62350468Y-57355041D01*
X62408756Y-56924629D01*
X62455200Y-56581554D01*
X62486121Y-56353013D01*
X62497780Y-56266629D01*
X62431615Y-56200518D01*
X62248904Y-56082478D01*
X61986654Y-55931959D01*
X61681873Y-55768410D01*
X61371569Y-55611281D01*
X61092750Y-55480020D01*
X60882424Y-55394079D01*
X60793908Y-55371163D01*
X60575494Y-55394169D01*
X60266164Y-55470182D01*
X59919996Y-55580670D01*
X59591074Y-55707099D01*
X59333477Y-55830936D01*
X59220103Y-55910479D01*
X59047840Y-56005797D01*
X58891741Y-55979198D01*
X58809798Y-55844906D01*
X58807396Y-55809256D01*
X58854951Y-55685323D01*
X58998162Y-55626537D01*
X59170450Y-55541617D01*
X59387175Y-55377386D01*
X59485049Y-55286323D01*
X59673928Y-55062118D01*
X59726787Y-54889010D01*
X59635201Y-54754024D01*
X59390742Y-54644185D01*
X59007524Y-54550970D01*
X58659015Y-54477991D01*
X58449438Y-54419282D01*
X58350940Y-54359852D01*
X58335666Y-54284712D01*
X58364010Y-54204655D01*
X58486791Y-54065081D01*
X58644634Y-54088914D01*
X58710109Y-54142481D01*
X58863865Y-54200802D01*
X59111959Y-54211192D01*
X59388584Y-54180744D01*
X59627934Y-54116546D01*
X59761979Y-54029133D01*
X59786787Y-53877958D01*
X59748610Y-53650121D01*
X59667604Y-53404897D01*
X59563931Y-53201560D01*
X59457744Y-53099388D01*
X59444853Y-53096632D01*
X59314321Y-53020943D01*
X59242660Y-52878763D01*
X59269222Y-52750114D01*
X59272712Y-52746550D01*
X59452807Y-52645348D01*
X59601217Y-52695210D01*
X59664132Y-52809143D01*
X59767060Y-53007996D01*
X59939630Y-53219942D01*
X60140581Y-53406615D01*
X60328652Y-53529648D01*
X60461918Y-53550976D01*
X60533120Y-53440405D01*
X60580450Y-53221770D01*
X60600580Y-52955086D01*
X60590175Y-52700374D01*
X60545908Y-52517648D01*
X60521278Y-52481283D01*
X60502868Y-52380042D01*
X60593740Y-52284748D01*
X60736560Y-52231556D01*
X60873994Y-52256625D01*
X60875707Y-52257772D01*
X60950855Y-52391935D01*
X60918809Y-52494095D01*
X60908544Y-52637529D01*
X60954414Y-52892035D01*
X61042188Y-53214663D01*
X61157633Y-53562465D01*
X61286518Y-53892491D01*
X61414614Y-54161791D01*
X61525594Y-54325328D01*
X61645494Y-54428379D01*
X61872987Y-54608537D01*
X62178830Y-54843170D01*
X62533774Y-55109642D01*
X62657145Y-55201038D01*
X63005867Y-55461445D01*
X63299504Y-55686332D01*
X63514045Y-55856872D01*
X63625482Y-55954233D01*
X63635799Y-55968582D01*
X63615645Y-56061633D01*
X63563777Y-56288415D01*
X63487375Y-56617855D01*
X63393618Y-57018876D01*
X63362268Y-57152382D01*
X63268335Y-57564527D01*
X63195092Y-57910559D01*
X63148358Y-58160923D01*
X63133954Y-58286070D01*
X63137288Y-58294852D01*
X63202823Y-58234009D01*
X63364607Y-58062757D01*
X63607254Y-57798008D01*
X63915377Y-57456677D01*
X64273588Y-57055676D01*
X64608005Y-56678223D01*
X66035141Y-55061596D01*
X67797290Y-54506796D01*
X68314150Y-54339614D01*
X68773652Y-54182482D01*
X69152035Y-54044229D01*
X69425536Y-53933678D01*
X69570397Y-53859656D01*
X69587074Y-53841976D01*
X69607753Y-53729509D01*
X69650439Y-53475129D01*
X69711003Y-53104231D01*
X69785315Y-52642206D01*
X69869249Y-52114448D01*
X69912914Y-51837789D01*
X70000185Y-51290353D01*
X70080525Y-50799370D01*
X70149739Y-50389443D01*
X70203633Y-50085174D01*
X70238012Y-49911164D01*
X70246655Y-49880545D01*
X70336882Y-49874624D01*
X70569990Y-49892929D01*
X70921707Y-49932601D01*
X71367758Y-49990777D01*
X71883872Y-50064599D01*
X72150062Y-50104857D01*
X72693040Y-50186885D01*
X73179121Y-50257432D01*
X73583629Y-50313153D01*
X73881887Y-50350704D01*
X74049219Y-50366739D01*
X74075658Y-50365873D01*
X74104010Y-50269202D01*
X74092507Y-50057170D01*
X74049642Y-49776702D01*
X73983905Y-49474724D01*
X73903790Y-49198159D01*
X73832329Y-49021274D01*
X73658834Y-48762145D01*
X73368168Y-48430008D01*
X73057039Y-48120249D01*
X72757171Y-47843522D01*
X72542922Y-47667741D01*
X72382964Y-47571385D01*
X72245973Y-47532935D01*
X72196550Y-47529134D01*
X72021472Y-47510123D01*
X71958709Y-47438380D01*
X71951070Y-47318716D01*
X71996361Y-47141203D01*
X72071427Y-47063451D01*
X72193039Y-47001580D01*
X72216822Y-46984811D01*
X72286517Y-47019466D01*
X72419897Y-47137820D01*
X72423455Y-47141368D01*
X72607666Y-47271114D01*
X72880653Y-47404730D01*
X73058654Y-47471461D01*
X73328530Y-47549198D01*
X73493443Y-47558510D01*
X73604423Y-47496840D01*
X73653194Y-47441689D01*
X73724235Y-47293663D01*
X73725580Y-47086801D01*
X73656835Y-46775610D01*
X73647103Y-46740601D01*
X73551003Y-46432256D01*
X73451757Y-46165915D01*
X73385936Y-46027148D01*
X73319636Y-45808586D01*
X73377848Y-45633520D01*
X73542915Y-45551576D01*
X73734402Y-45595109D01*
G37*
X134009762Y-111281128D02*
X134027405Y-111297911D01*
X134029550Y-111325765D01*
X134029165Y-111348075D01*
X134035284Y-111387429D01*
X134046846Y-111433240D01*
X134049278Y-111441310D01*
X134062321Y-111481089D01*
X134073193Y-111502105D01*
X134085707Y-111509363D01*
X134103676Y-111507871D01*
X134122169Y-111500676D01*
X134143263Y-111478397D01*
X134164968Y-111436620D01*
X134175765Y-111411157D01*
X134192302Y-111368102D01*
X134202627Y-111335846D01*
X134211877Y-111315975D01*
X134233353Y-111303459D01*
X134257287Y-111310822D01*
X134275989Y-111337852D01*
X134277942Y-111343479D01*
X134279423Y-111364216D01*
X134263076Y-111373845D01*
X134255203Y-111377208D01*
X134240474Y-111397345D01*
X134231298Y-111437936D01*
X134225545Y-111486148D01*
X134224855Y-111518717D01*
X134230181Y-111541005D01*
X134242187Y-111560478D01*
X134243103Y-111561678D01*
X134254918Y-111573522D01*
X134270915Y-111578260D01*
X134297969Y-111576449D01*
X134342958Y-111568646D01*
X134344119Y-111568426D01*
X134393003Y-111557027D01*
X134421208Y-111544556D01*
X134433349Y-111528988D01*
X134433373Y-111528915D01*
X134450357Y-111509205D01*
X134476505Y-111506693D01*
X134501433Y-111522386D01*
X134510249Y-111548585D01*
X134497855Y-111573328D01*
X134467641Y-111589478D01*
X134445941Y-111597215D01*
X134407164Y-111614938D01*
X134364267Y-111637450D01*
X134359521Y-111640131D01*
X134319223Y-111665846D01*
X134297424Y-111687930D01*
X134289259Y-111711166D01*
X134288582Y-111722188D01*
X134293812Y-111740501D01*
X134312292Y-111757005D01*
X134349162Y-111777384D01*
X134375119Y-111789186D01*
X134418246Y-111803968D01*
X134451546Y-111809745D01*
X134452300Y-111809747D01*
X134479000Y-111811340D01*
X134490069Y-111815057D01*
X134490812Y-111819358D01*
X134497149Y-111838819D01*
X134496864Y-111855028D01*
X134482840Y-111878660D01*
X134469337Y-111890542D01*
X134455071Y-111891495D01*
X134434484Y-111874941D01*
X134428839Y-111870102D01*
X134410231Y-111859650D01*
X134383045Y-111852904D01*
X134341676Y-111848824D01*
X134280519Y-111846370D01*
X134214663Y-111846224D01*
X134148605Y-111850623D01*
X134102719Y-111859706D01*
X134076377Y-111870888D01*
X134038546Y-111891724D01*
X133999544Y-111916782D01*
X133965249Y-111941983D01*
X133941540Y-111963253D01*
X133934293Y-111976513D01*
X133937006Y-111979409D01*
X133956455Y-111995457D01*
X133992073Y-112023109D01*
X134040887Y-112060103D01*
X134099927Y-112104177D01*
X134166219Y-112153069D01*
X134198722Y-112177032D01*
X134261294Y-112223944D01*
X134314776Y-112265085D01*
X134356289Y-112298182D01*
X134382955Y-112320965D01*
X134391897Y-112331164D01*
X134389566Y-112335328D01*
X134374756Y-112357431D01*
X134348200Y-112395420D01*
X134312062Y-112446240D01*
X134268507Y-112506838D01*
X134219699Y-112574159D01*
X134194986Y-112608135D01*
X134147911Y-112673014D01*
X134106788Y-112729902D01*
X134073872Y-112775665D01*
X134051419Y-112807174D01*
X134041683Y-112821296D01*
X134041577Y-112824940D01*
X134049090Y-112848156D01*
X134066374Y-112888891D01*
X134091843Y-112943688D01*
X134123915Y-113009092D01*
X134161004Y-113081646D01*
X134289062Y-113327395D01*
X134268964Y-113650235D01*
X134264399Y-113725740D01*
X134259861Y-113806267D01*
X134256338Y-113875152D01*
X134253994Y-113928970D01*
X134252990Y-113964293D01*
X134253487Y-113977698D01*
X134254773Y-113977120D01*
X134266519Y-113962318D01*
X134288117Y-113930806D01*
X134317050Y-113886336D01*
X134350802Y-113832658D01*
X134361637Y-113815172D01*
X134394228Y-113762693D01*
X134421066Y-113719647D01*
X134439619Y-113690092D01*
X134447351Y-113678084D01*
X134449967Y-113677657D01*
X134472113Y-113679150D01*
X134512957Y-113683817D01*
X134567955Y-113691109D01*
X134632563Y-113700476D01*
X134655342Y-113703868D01*
X134721254Y-113713251D01*
X134778580Y-113720804D01*
X134821818Y-113725825D01*
X134845465Y-113727612D01*
X134874582Y-113722038D01*
X134916732Y-113707061D01*
X134965407Y-113685726D01*
X135014542Y-113661081D01*
X135058071Y-113636171D01*
X135089931Y-113614042D01*
X135104056Y-113597740D01*
X135111493Y-113583505D01*
X135133693Y-113577246D01*
X135133997Y-113577306D01*
X135151233Y-113589224D01*
X135160739Y-113610014D01*
X135160270Y-113629760D01*
X135147579Y-113638545D01*
X135141110Y-113639790D01*
X135117034Y-113654476D01*
X135088914Y-113680389D01*
X135062763Y-113710810D01*
X135044593Y-113739020D01*
X135040417Y-113758300D01*
X135056814Y-113770172D01*
X135089812Y-113777071D01*
X135130926Y-113778585D01*
X135171710Y-113774409D01*
X135203719Y-113764234D01*
X135222476Y-113758823D01*
X135243506Y-113769276D01*
X135251874Y-113799112D01*
X135251866Y-113799860D01*
X135241038Y-113816322D01*
X135218357Y-113823802D01*
X135196484Y-113817985D01*
X135194824Y-113816910D01*
X135172724Y-113816484D01*
X135140161Y-113827055D01*
X135105559Y-113844473D01*
X135077344Y-113864590D01*
X135063941Y-113883256D01*
X135068887Y-113906745D01*
X135087465Y-113938941D01*
X135113576Y-113971511D01*
X135140992Y-113996723D01*
X135163486Y-114006845D01*
X135176112Y-114008109D01*
X135195382Y-114022322D01*
X135193601Y-114050149D01*
X135188116Y-114061647D01*
X135178526Y-114067997D01*
X135161775Y-114063853D01*
X135133319Y-114047851D01*
X135088614Y-114018627D01*
X135038080Y-113987867D01*
X135000501Y-113973589D01*
X134976470Y-113978192D01*
X134963715Y-114002159D01*
X134959969Y-114045974D01*
X134960691Y-114066013D01*
X134966259Y-114106420D01*
X134975525Y-114133701D01*
X134984480Y-114155126D01*
X134976379Y-114173315D01*
X134972343Y-114176841D01*
X134949408Y-114182394D01*
X134930030Y-114168658D01*
X134921869Y-114140277D01*
X134918280Y-114119815D01*
X134904093Y-114079358D01*
X134882615Y-114031061D01*
X134857618Y-113982625D01*
X134832871Y-113941753D01*
X134812145Y-113916147D01*
X134800325Y-113909189D01*
X134768901Y-113895996D01*
X134725406Y-113880345D01*
X134675827Y-113864098D01*
X134626153Y-113849118D01*
X134582373Y-113837267D01*
X134550473Y-113830408D01*
X134536443Y-113830402D01*
X134528517Y-113840801D01*
X134507556Y-113868321D01*
X134476094Y-113909636D01*
X134436624Y-113961471D01*
X134391641Y-114020550D01*
X134250667Y-114205704D01*
X134269427Y-114349374D01*
X134270385Y-114356740D01*
X134277934Y-114418802D01*
X134281547Y-114462374D01*
X134281195Y-114493471D01*
X134276849Y-114518109D01*
X134268477Y-114542302D01*
X134266039Y-114548736D01*
X134253766Y-114593933D01*
X134248769Y-114635753D01*
X134248761Y-114637385D01*
X134244282Y-114668398D01*
X134232894Y-114679950D01*
X134232381Y-114680019D01*
X134221508Y-114692854D01*
X134204510Y-114724703D01*
X134183613Y-114771001D01*
X134161047Y-114827182D01*
X134147375Y-114862177D01*
X134116335Y-114931667D01*
X134088087Y-114976513D01*
X134061004Y-114996750D01*
X134033459Y-114992415D01*
X134003825Y-114963545D01*
X133970476Y-114910176D01*
X133931785Y-114832345D01*
X133908857Y-114785409D01*
X133883646Y-114739302D01*
X133863038Y-114707640D01*
X133849699Y-114694889D01*
X133835739Y-114683639D01*
X133829390Y-114650439D01*
X133828913Y-114641858D01*
X133820765Y-114600966D01*
X133805787Y-114558747D01*
X133796613Y-114536147D01*
X133790116Y-114509874D01*
X133787674Y-114477473D01*
X133788869Y-114432571D01*
X133793280Y-114368797D01*
X133796374Y-114321548D01*
X133798103Y-114272299D01*
X133797548Y-114237297D01*
X133794658Y-114222063D01*
X133794650Y-114222056D01*
X133780233Y-114213275D01*
X133748031Y-114195416D01*
X133702807Y-114171073D01*
X133649321Y-114142842D01*
X133513424Y-114071753D01*
X133442999Y-114182174D01*
X133438657Y-114189028D01*
X133402998Y-114249941D01*
X133380422Y-114298025D01*
X133372521Y-114329939D01*
X133373654Y-114347007D01*
X133381778Y-114390113D01*
X133395794Y-114440418D01*
X133413398Y-114491528D01*
X133432286Y-114537049D01*
X133450154Y-114570589D01*
X133464699Y-114585753D01*
X133474312Y-114590489D01*
X133484090Y-114608449D01*
X133476222Y-114627911D01*
X133452805Y-114639411D01*
X133431700Y-114636766D01*
X133416204Y-114614195D01*
X133409235Y-114596632D01*
X133386896Y-114559460D01*
X133358762Y-114526679D01*
X133330557Y-114504396D01*
X133308002Y-114498719D01*
X133307224Y-114498928D01*
X133292438Y-114508244D01*
X133284693Y-114529870D01*
X133281593Y-114570302D01*
X133281097Y-114592367D01*
X133281022Y-114634702D01*
X133282106Y-114664272D01*
X133282252Y-114669601D01*
X133272684Y-114693763D01*
X133251945Y-114703587D01*
X133229058Y-114694015D01*
X133221529Y-114681888D01*
X133227544Y-114657404D01*
X133233047Y-114636765D01*
X133230144Y-114599585D01*
X133218557Y-114559471D01*
X133201228Y-114525868D01*
X133181096Y-114508219D01*
X133178305Y-114507545D01*
X133150534Y-114511330D01*
X133115106Y-114526810D01*
X133079960Y-114549066D01*
X133053041Y-114573177D01*
X133042291Y-114594220D01*
X133038175Y-114607593D01*
X133016470Y-114616445D01*
X132996009Y-114612838D01*
X132984515Y-114596631D01*
X132993259Y-114569605D01*
X133022075Y-114534193D01*
X133054400Y-114500258D01*
X133084554Y-114461340D01*
X133097982Y-114429904D01*
X133097063Y-114401748D01*
X133094322Y-114392409D01*
X133087116Y-114381138D01*
X133072064Y-114375997D01*
X133043346Y-114375681D01*
X132995143Y-114378885D01*
X132961936Y-114381041D01*
X132923953Y-114381351D01*
X132903008Y-114377094D01*
X132894045Y-114367711D01*
X132892446Y-114362327D01*
X132896779Y-114337447D01*
X132915648Y-114322162D01*
X132940627Y-114324323D01*
X132947626Y-114326175D01*
X132977948Y-114324335D01*
X133021849Y-114315161D01*
X133072441Y-114300542D01*
X133122835Y-114282365D01*
X133166141Y-114262519D01*
X133171136Y-114258541D01*
X133191757Y-114238075D01*
X133223932Y-114203949D01*
X133264349Y-114159878D01*
X133309695Y-114109575D01*
X133356655Y-114056754D01*
X133401918Y-114005129D01*
X133442169Y-113958414D01*
X133474096Y-113920323D01*
X133494385Y-113894570D01*
X133494572Y-113894467D01*
X133507838Y-113899589D01*
X133538494Y-113914850D01*
X133582218Y-113938022D01*
X133634686Y-113966878D01*
X133639234Y-113969415D01*
X133691242Y-113997939D01*
X133734235Y-114020639D01*
X133763858Y-114035271D01*
X133775757Y-114039591D01*
X133776042Y-114034128D01*
X133774809Y-114006985D01*
X133771717Y-113960312D01*
X133767024Y-113897667D01*
X133760989Y-113822605D01*
X133753870Y-113738683D01*
X133753785Y-113737706D01*
X133744833Y-113629163D01*
X133738734Y-113540074D01*
X133735311Y-113464721D01*
X133734391Y-113397385D01*
X133735798Y-113332350D01*
X133739358Y-113263895D01*
X133740787Y-113241018D01*
X133744350Y-113179713D01*
X133746860Y-113129842D01*
X133748100Y-113096040D01*
X133747852Y-113082944D01*
X133747254Y-113083109D01*
X133733866Y-113093522D01*
X133705150Y-113118015D01*
X133663961Y-113154092D01*
X133613154Y-113199257D01*
X133555584Y-113251015D01*
X133543804Y-113261648D01*
X133486891Y-113312642D01*
X133436953Y-113356784D01*
X133396939Y-113391507D01*
X133369797Y-113414248D01*
X133358477Y-113422441D01*
X133356545Y-113418762D01*
X133351256Y-113394848D01*
X133344245Y-113352373D01*
X133336196Y-113295644D01*
X133327792Y-113228970D01*
X133323295Y-113190719D01*
X133313889Y-113110731D01*
X133305938Y-113053778D01*
X133297699Y-113018377D01*
X133287431Y-113003047D01*
X133273392Y-113006304D01*
X133253839Y-113026668D01*
X133227032Y-113062656D01*
X133191227Y-113112787D01*
X133093069Y-113248937D01*
X133093069Y-113380414D01*
X133093138Y-113395651D01*
X133095446Y-113461936D01*
X133100754Y-113510244D01*
X133108695Y-113536913D01*
X133110277Y-113539500D01*
X133117272Y-113561929D01*
X133103827Y-113582430D01*
X133086073Y-113593275D01*
X133060280Y-113592160D01*
X133041596Y-113575851D01*
X133038791Y-113548873D01*
X133039514Y-113529667D01*
X133034058Y-113491589D01*
X133022934Y-113447107D01*
X133011932Y-113412930D01*
X132999798Y-113386362D01*
X132986176Y-113374539D01*
X132966884Y-113371845D01*
X132951096Y-113373707D01*
X132934980Y-113384110D01*
X132919082Y-113408248D01*
X132899043Y-113451220D01*
X132882053Y-113492917D01*
X132869330Y-113529598D01*
X132864467Y-113551339D01*
X132863712Y-113556996D01*
X132849049Y-113574084D01*
X132824572Y-113580001D01*
X132802039Y-113571036D01*
X132793176Y-113559239D01*
X132791038Y-113530421D01*
X132813056Y-113500881D01*
X132825881Y-113484296D01*
X132838984Y-113444480D01*
X132842487Y-113397295D01*
X132836040Y-113352835D01*
X132819292Y-113321198D01*
X132816518Y-113318470D01*
X132801959Y-113306887D01*
X132785264Y-113302945D01*
X132758975Y-113306319D01*
X132715635Y-113316686D01*
X132681423Y-113326476D01*
X132644734Y-113342727D01*
X132629054Y-113360610D01*
X132621485Y-113375074D01*
X132600567Y-113383700D01*
X132574909Y-113369306D01*
X132561149Y-113343677D01*
X132563680Y-113317208D01*
X132581894Y-113300943D01*
X132603959Y-113292079D01*
X132640636Y-113275104D01*
X132683923Y-113253717D01*
X132710523Y-113239145D01*
X132755282Y-113205862D01*
X132775063Y-113174077D01*
X132769690Y-113144009D01*
X132768220Y-113142059D01*
X132747109Y-113127068D01*
X132711248Y-113109338D01*
X132669012Y-113092302D01*
X132628777Y-113079390D01*
X132598920Y-113074036D01*
X132585510Y-113072025D01*
X132564710Y-113056168D01*
X132561900Y-113031794D01*
X132579625Y-113007662D01*
X132582728Y-113005452D01*
X132603205Y-112997899D01*
X132623838Y-113010502D01*
X132626506Y-113012611D01*
X132656488Y-113024529D01*
X132703626Y-113033292D01*
X132760910Y-113038481D01*
X132821328Y-113039677D01*
X132877869Y-113036461D01*
X132923520Y-113028413D01*
X132940112Y-113022937D01*
X132963319Y-113011865D01*
X132989876Y-112994487D01*
X133022689Y-112968456D01*
X133064663Y-112931424D01*
X133118704Y-112881045D01*
X133187717Y-112814969D01*
X133391519Y-112618436D01*
X133407107Y-112782416D01*
X133407981Y-112791574D01*
X133414053Y-112853461D01*
X133419483Y-112905953D01*
X133423705Y-112943750D01*
X133426157Y-112961554D01*
X133426736Y-112962370D01*
X133439720Y-112956973D01*
X133466820Y-112937220D01*
X133504518Y-112905851D01*
X133549294Y-112865609D01*
X133668969Y-112754506D01*
X133594923Y-112628201D01*
X133547628Y-112548989D01*
X133484439Y-112449423D01*
X133426281Y-112367055D01*
X133370110Y-112298257D01*
X133312886Y-112239400D01*
X133251565Y-112186856D01*
X133183106Y-112136995D01*
X133163094Y-112123733D01*
X133079353Y-112073953D01*
X132987762Y-112026774D01*
X132897494Y-111986685D01*
X132817724Y-111958176D01*
X132776620Y-111947372D01*
X132646043Y-111929722D01*
X132510820Y-111934693D01*
X132374740Y-111961634D01*
X132241593Y-112009894D01*
X132115169Y-112078824D01*
X132109532Y-112082564D01*
X132061168Y-112118976D01*
X132002631Y-112168614D01*
X131939544Y-112226205D01*
X131877530Y-112286474D01*
X131822213Y-112344145D01*
X131779215Y-112393945D01*
X131743979Y-112438395D01*
X131773252Y-112387595D01*
X131833223Y-112293236D01*
X131937493Y-112163439D01*
X132055471Y-112051780D01*
X132185066Y-111959668D01*
X132324187Y-111888515D01*
X132470741Y-111839732D01*
X132622636Y-111814729D01*
X132665872Y-111812737D01*
X132755287Y-111814957D01*
X132853341Y-111823624D01*
X132950171Y-111837746D01*
X133035919Y-111856331D01*
X133107257Y-111879708D01*
X133192390Y-111914848D01*
X133280945Y-111957174D01*
X133364363Y-112002585D01*
X133434083Y-112046985D01*
X133501629Y-112099519D01*
X133587455Y-112177362D01*
X133671027Y-112263935D01*
X133745677Y-112352251D01*
X133804735Y-112435321D01*
X133826096Y-112468781D01*
X133852667Y-112508625D01*
X133872309Y-112535915D01*
X133881853Y-112546097D01*
X133891691Y-112539569D01*
X133916559Y-112518744D01*
X133952215Y-112487004D01*
X133994652Y-112447838D01*
X134099715Y-112349330D01*
X133923417Y-112189055D01*
X133880294Y-112150074D01*
X133818137Y-112094207D01*
X133771967Y-112051464D01*
X133740567Y-112018727D01*
X133722721Y-111992878D01*
X133717214Y-111970799D01*
X133722829Y-111949370D01*
X133738350Y-111925473D01*
X133762562Y-111895989D01*
X133794247Y-111857801D01*
X133799536Y-111851218D01*
X133854760Y-111782171D01*
X133896347Y-111728396D01*
X133926380Y-111685702D01*
X133946942Y-111649897D01*
X133960117Y-111616789D01*
X133967986Y-111582187D01*
X133972632Y-111541899D01*
X133976138Y-111491734D01*
X133978655Y-111449162D01*
X133980220Y-111401386D01*
X133978654Y-111370750D01*
X133973580Y-111352323D01*
X133964621Y-111341175D01*
X133952127Y-111324763D01*
X133957382Y-111300412D01*
X133962342Y-111292848D01*
X133985210Y-111278435D01*
X134009762Y-111281128D01*
G36*
X134009762Y-111281128D02*
G01*
X134027405Y-111297911D01*
X134029550Y-111325765D01*
X134029165Y-111348075D01*
X134035284Y-111387429D01*
X134046846Y-111433240D01*
X134049278Y-111441310D01*
X134062321Y-111481089D01*
X134073193Y-111502105D01*
X134085707Y-111509363D01*
X134103676Y-111507871D01*
X134122169Y-111500676D01*
X134143263Y-111478397D01*
X134164968Y-111436620D01*
X134175765Y-111411157D01*
X134192302Y-111368102D01*
X134202627Y-111335846D01*
X134211877Y-111315975D01*
X134233353Y-111303459D01*
X134257287Y-111310822D01*
X134275989Y-111337852D01*
X134277942Y-111343479D01*
X134279423Y-111364216D01*
X134263076Y-111373845D01*
X134255203Y-111377208D01*
X134240474Y-111397345D01*
X134231298Y-111437936D01*
X134225545Y-111486148D01*
X134224855Y-111518717D01*
X134230181Y-111541005D01*
X134242187Y-111560478D01*
X134243103Y-111561678D01*
X134254918Y-111573522D01*
X134270915Y-111578260D01*
X134297969Y-111576449D01*
X134342958Y-111568646D01*
X134344119Y-111568426D01*
X134393003Y-111557027D01*
X134421208Y-111544556D01*
X134433349Y-111528988D01*
X134433373Y-111528915D01*
X134450357Y-111509205D01*
X134476505Y-111506693D01*
X134501433Y-111522386D01*
X134510249Y-111548585D01*
X134497855Y-111573328D01*
X134467641Y-111589478D01*
X134445941Y-111597215D01*
X134407164Y-111614938D01*
X134364267Y-111637450D01*
X134359521Y-111640131D01*
X134319223Y-111665846D01*
X134297424Y-111687930D01*
X134289259Y-111711166D01*
X134288582Y-111722188D01*
X134293812Y-111740501D01*
X134312292Y-111757005D01*
X134349162Y-111777384D01*
X134375119Y-111789186D01*
X134418246Y-111803968D01*
X134451546Y-111809745D01*
X134452300Y-111809747D01*
X134479000Y-111811340D01*
X134490069Y-111815057D01*
X134490812Y-111819358D01*
X134497149Y-111838819D01*
X134496864Y-111855028D01*
X134482840Y-111878660D01*
X134469337Y-111890542D01*
X134455071Y-111891495D01*
X134434484Y-111874941D01*
X134428839Y-111870102D01*
X134410231Y-111859650D01*
X134383045Y-111852904D01*
X134341676Y-111848824D01*
X134280519Y-111846370D01*
X134214663Y-111846224D01*
X134148605Y-111850623D01*
X134102719Y-111859706D01*
X134076377Y-111870888D01*
X134038546Y-111891724D01*
X133999544Y-111916782D01*
X133965249Y-111941983D01*
X133941540Y-111963253D01*
X133934293Y-111976513D01*
X133937006Y-111979409D01*
X133956455Y-111995457D01*
X133992073Y-112023109D01*
X134040887Y-112060103D01*
X134099927Y-112104177D01*
X134166219Y-112153069D01*
X134198722Y-112177032D01*
X134261294Y-112223944D01*
X134314776Y-112265085D01*
X134356289Y-112298182D01*
X134382955Y-112320965D01*
X134391897Y-112331164D01*
X134389566Y-112335328D01*
X134374756Y-112357431D01*
X134348200Y-112395420D01*
X134312062Y-112446240D01*
X134268507Y-112506838D01*
X134219699Y-112574159D01*
X134194986Y-112608135D01*
X134147911Y-112673014D01*
X134106788Y-112729902D01*
X134073872Y-112775665D01*
X134051419Y-112807174D01*
X134041683Y-112821296D01*
X134041577Y-112824940D01*
X134049090Y-112848156D01*
X134066374Y-112888891D01*
X134091843Y-112943688D01*
X134123915Y-113009092D01*
X134161004Y-113081646D01*
X134289062Y-113327395D01*
X134268964Y-113650235D01*
X134264399Y-113725740D01*
X134259861Y-113806267D01*
X134256338Y-113875152D01*
X134253994Y-113928970D01*
X134252990Y-113964293D01*
X134253487Y-113977698D01*
X134254773Y-113977120D01*
X134266519Y-113962318D01*
X134288117Y-113930806D01*
X134317050Y-113886336D01*
X134350802Y-113832658D01*
X134361637Y-113815172D01*
X134394228Y-113762693D01*
X134421066Y-113719647D01*
X134439619Y-113690092D01*
X134447351Y-113678084D01*
X134449967Y-113677657D01*
X134472113Y-113679150D01*
X134512957Y-113683817D01*
X134567955Y-113691109D01*
X134632563Y-113700476D01*
X134655342Y-113703868D01*
X134721254Y-113713251D01*
X134778580Y-113720804D01*
X134821818Y-113725825D01*
X134845465Y-113727612D01*
X134874582Y-113722038D01*
X134916732Y-113707061D01*
X134965407Y-113685726D01*
X135014542Y-113661081D01*
X135058071Y-113636171D01*
X135089931Y-113614042D01*
X135104056Y-113597740D01*
X135111493Y-113583505D01*
X135133693Y-113577246D01*
X135133997Y-113577306D01*
X135151233Y-113589224D01*
X135160739Y-113610014D01*
X135160270Y-113629760D01*
X135147579Y-113638545D01*
X135141110Y-113639790D01*
X135117034Y-113654476D01*
X135088914Y-113680389D01*
X135062763Y-113710810D01*
X135044593Y-113739020D01*
X135040417Y-113758300D01*
X135056814Y-113770172D01*
X135089812Y-113777071D01*
X135130926Y-113778585D01*
X135171710Y-113774409D01*
X135203719Y-113764234D01*
X135222476Y-113758823D01*
X135243506Y-113769276D01*
X135251874Y-113799112D01*
X135251866Y-113799860D01*
X135241038Y-113816322D01*
X135218357Y-113823802D01*
X135196484Y-113817985D01*
X135194824Y-113816910D01*
X135172724Y-113816484D01*
X135140161Y-113827055D01*
X135105559Y-113844473D01*
X135077344Y-113864590D01*
X135063941Y-113883256D01*
X135068887Y-113906745D01*
X135087465Y-113938941D01*
X135113576Y-113971511D01*
X135140992Y-113996723D01*
X135163486Y-114006845D01*
X135176112Y-114008109D01*
X135195382Y-114022322D01*
X135193601Y-114050149D01*
X135188116Y-114061647D01*
X135178526Y-114067997D01*
X135161775Y-114063853D01*
X135133319Y-114047851D01*
X135088614Y-114018627D01*
X135038080Y-113987867D01*
X135000501Y-113973589D01*
X134976470Y-113978192D01*
X134963715Y-114002159D01*
X134959969Y-114045974D01*
X134960691Y-114066013D01*
X134966259Y-114106420D01*
X134975525Y-114133701D01*
X134984480Y-114155126D01*
X134976379Y-114173315D01*
X134972343Y-114176841D01*
X134949408Y-114182394D01*
X134930030Y-114168658D01*
X134921869Y-114140277D01*
X134918280Y-114119815D01*
X134904093Y-114079358D01*
X134882615Y-114031061D01*
X134857618Y-113982625D01*
X134832871Y-113941753D01*
X134812145Y-113916147D01*
X134800325Y-113909189D01*
X134768901Y-113895996D01*
X134725406Y-113880345D01*
X134675827Y-113864098D01*
X134626153Y-113849118D01*
X134582373Y-113837267D01*
X134550473Y-113830408D01*
X134536443Y-113830402D01*
X134528517Y-113840801D01*
X134507556Y-113868321D01*
X134476094Y-113909636D01*
X134436624Y-113961471D01*
X134391641Y-114020550D01*
X134250667Y-114205704D01*
X134269427Y-114349374D01*
X134270385Y-114356740D01*
X134277934Y-114418802D01*
X134281547Y-114462374D01*
X134281195Y-114493471D01*
X134276849Y-114518109D01*
X134268477Y-114542302D01*
X134266039Y-114548736D01*
X134253766Y-114593933D01*
X134248769Y-114635753D01*
X134248761Y-114637385D01*
X134244282Y-114668398D01*
X134232894Y-114679950D01*
X134232381Y-114680019D01*
X134221508Y-114692854D01*
X134204510Y-114724703D01*
X134183613Y-114771001D01*
X134161047Y-114827182D01*
X134147375Y-114862177D01*
X134116335Y-114931667D01*
X134088087Y-114976513D01*
X134061004Y-114996750D01*
X134033459Y-114992415D01*
X134003825Y-114963545D01*
X133970476Y-114910176D01*
X133931785Y-114832345D01*
X133908857Y-114785409D01*
X133883646Y-114739302D01*
X133863038Y-114707640D01*
X133849699Y-114694889D01*
X133835739Y-114683639D01*
X133829390Y-114650439D01*
X133828913Y-114641858D01*
X133820765Y-114600966D01*
X133805787Y-114558747D01*
X133796613Y-114536147D01*
X133790116Y-114509874D01*
X133787674Y-114477473D01*
X133788869Y-114432571D01*
X133793280Y-114368797D01*
X133796374Y-114321548D01*
X133798103Y-114272299D01*
X133797548Y-114237297D01*
X133794658Y-114222063D01*
X133794650Y-114222056D01*
X133780233Y-114213275D01*
X133748031Y-114195416D01*
X133702807Y-114171073D01*
X133649321Y-114142842D01*
X133513424Y-114071753D01*
X133442999Y-114182174D01*
X133438657Y-114189028D01*
X133402998Y-114249941D01*
X133380422Y-114298025D01*
X133372521Y-114329939D01*
X133373654Y-114347007D01*
X133381778Y-114390113D01*
X133395794Y-114440418D01*
X133413398Y-114491528D01*
X133432286Y-114537049D01*
X133450154Y-114570589D01*
X133464699Y-114585753D01*
X133474312Y-114590489D01*
X133484090Y-114608449D01*
X133476222Y-114627911D01*
X133452805Y-114639411D01*
X133431700Y-114636766D01*
X133416204Y-114614195D01*
X133409235Y-114596632D01*
X133386896Y-114559460D01*
X133358762Y-114526679D01*
X133330557Y-114504396D01*
X133308002Y-114498719D01*
X133307224Y-114498928D01*
X133292438Y-114508244D01*
X133284693Y-114529870D01*
X133281593Y-114570302D01*
X133281097Y-114592367D01*
X133281022Y-114634702D01*
X133282106Y-114664272D01*
X133282252Y-114669601D01*
X133272684Y-114693763D01*
X133251945Y-114703587D01*
X133229058Y-114694015D01*
X133221529Y-114681888D01*
X133227544Y-114657404D01*
X133233047Y-114636765D01*
X133230144Y-114599585D01*
X133218557Y-114559471D01*
X133201228Y-114525868D01*
X133181096Y-114508219D01*
X133178305Y-114507545D01*
X133150534Y-114511330D01*
X133115106Y-114526810D01*
X133079960Y-114549066D01*
X133053041Y-114573177D01*
X133042291Y-114594220D01*
X133038175Y-114607593D01*
X133016470Y-114616445D01*
X132996009Y-114612838D01*
X132984515Y-114596631D01*
X132993259Y-114569605D01*
X133022075Y-114534193D01*
X133054400Y-114500258D01*
X133084554Y-114461340D01*
X133097982Y-114429904D01*
X133097063Y-114401748D01*
X133094322Y-114392409D01*
X133087116Y-114381138D01*
X133072064Y-114375997D01*
X133043346Y-114375681D01*
X132995143Y-114378885D01*
X132961936Y-114381041D01*
X132923953Y-114381351D01*
X132903008Y-114377094D01*
X132894045Y-114367711D01*
X132892446Y-114362327D01*
X132896779Y-114337447D01*
X132915648Y-114322162D01*
X132940627Y-114324323D01*
X132947626Y-114326175D01*
X132977948Y-114324335D01*
X133021849Y-114315161D01*
X133072441Y-114300542D01*
X133122835Y-114282365D01*
X133166141Y-114262519D01*
X133171136Y-114258541D01*
X133191757Y-114238075D01*
X133223932Y-114203949D01*
X133264349Y-114159878D01*
X133309695Y-114109575D01*
X133356655Y-114056754D01*
X133401918Y-114005129D01*
X133442169Y-113958414D01*
X133474096Y-113920323D01*
X133494385Y-113894570D01*
X133494572Y-113894467D01*
X133507838Y-113899589D01*
X133538494Y-113914850D01*
X133582218Y-113938022D01*
X133634686Y-113966878D01*
X133639234Y-113969415D01*
X133691242Y-113997939D01*
X133734235Y-114020639D01*
X133763858Y-114035271D01*
X133775757Y-114039591D01*
X133776042Y-114034128D01*
X133774809Y-114006985D01*
X133771717Y-113960312D01*
X133767024Y-113897667D01*
X133760989Y-113822605D01*
X133753870Y-113738683D01*
X133753785Y-113737706D01*
X133744833Y-113629163D01*
X133738734Y-113540074D01*
X133735311Y-113464721D01*
X133734391Y-113397385D01*
X133735798Y-113332350D01*
X133739358Y-113263895D01*
X133740787Y-113241018D01*
X133744350Y-113179713D01*
X133746860Y-113129842D01*
X133748100Y-113096040D01*
X133747852Y-113082944D01*
X133747254Y-113083109D01*
X133733866Y-113093522D01*
X133705150Y-113118015D01*
X133663961Y-113154092D01*
X133613154Y-113199257D01*
X133555584Y-113251015D01*
X133543804Y-113261648D01*
X133486891Y-113312642D01*
X133436953Y-113356784D01*
X133396939Y-113391507D01*
X133369797Y-113414248D01*
X133358477Y-113422441D01*
X133356545Y-113418762D01*
X133351256Y-113394848D01*
X133344245Y-113352373D01*
X133336196Y-113295644D01*
X133327792Y-113228970D01*
X133323295Y-113190719D01*
X133313889Y-113110731D01*
X133305938Y-113053778D01*
X133297699Y-113018377D01*
X133287431Y-113003047D01*
X133273392Y-113006304D01*
X133253839Y-113026668D01*
X133227032Y-113062656D01*
X133191227Y-113112787D01*
X133093069Y-113248937D01*
X133093069Y-113380414D01*
X133093138Y-113395651D01*
X133095446Y-113461936D01*
X133100754Y-113510244D01*
X133108695Y-113536913D01*
X133110277Y-113539500D01*
X133117272Y-113561929D01*
X133103827Y-113582430D01*
X133086073Y-113593275D01*
X133060280Y-113592160D01*
X133041596Y-113575851D01*
X133038791Y-113548873D01*
X133039514Y-113529667D01*
X133034058Y-113491589D01*
X133022934Y-113447107D01*
X133011932Y-113412930D01*
X132999798Y-113386362D01*
X132986176Y-113374539D01*
X132966884Y-113371845D01*
X132951096Y-113373707D01*
X132934980Y-113384110D01*
X132919082Y-113408248D01*
X132899043Y-113451220D01*
X132882053Y-113492917D01*
X132869330Y-113529598D01*
X132864467Y-113551339D01*
X132863712Y-113556996D01*
X132849049Y-113574084D01*
X132824572Y-113580001D01*
X132802039Y-113571036D01*
X132793176Y-113559239D01*
X132791038Y-113530421D01*
X132813056Y-113500881D01*
X132825881Y-113484296D01*
X132838984Y-113444480D01*
X132842487Y-113397295D01*
X132836040Y-113352835D01*
X132819292Y-113321198D01*
X132816518Y-113318470D01*
X132801959Y-113306887D01*
X132785264Y-113302945D01*
X132758975Y-113306319D01*
X132715635Y-113316686D01*
X132681423Y-113326476D01*
X132644734Y-113342727D01*
X132629054Y-113360610D01*
X132621485Y-113375074D01*
X132600567Y-113383700D01*
X132574909Y-113369306D01*
X132561149Y-113343677D01*
X132563680Y-113317208D01*
X132581894Y-113300943D01*
X132603959Y-113292079D01*
X132640636Y-113275104D01*
X132683923Y-113253717D01*
X132710523Y-113239145D01*
X132755282Y-113205862D01*
X132775063Y-113174077D01*
X132769690Y-113144009D01*
X132768220Y-113142059D01*
X132747109Y-113127068D01*
X132711248Y-113109338D01*
X132669012Y-113092302D01*
X132628777Y-113079390D01*
X132598920Y-113074036D01*
X132585510Y-113072025D01*
X132564710Y-113056168D01*
X132561900Y-113031794D01*
X132579625Y-113007662D01*
X132582728Y-113005452D01*
X132603205Y-112997899D01*
X132623838Y-113010502D01*
X132626506Y-113012611D01*
X132656488Y-113024529D01*
X132703626Y-113033292D01*
X132760910Y-113038481D01*
X132821328Y-113039677D01*
X132877869Y-113036461D01*
X132923520Y-113028413D01*
X132940112Y-113022937D01*
X132963319Y-113011865D01*
X132989876Y-112994487D01*
X133022689Y-112968456D01*
X133064663Y-112931424D01*
X133118704Y-112881045D01*
X133187717Y-112814969D01*
X133391519Y-112618436D01*
X133407107Y-112782416D01*
X133407981Y-112791574D01*
X133414053Y-112853461D01*
X133419483Y-112905953D01*
X133423705Y-112943750D01*
X133426157Y-112961554D01*
X133426736Y-112962370D01*
X133439720Y-112956973D01*
X133466820Y-112937220D01*
X133504518Y-112905851D01*
X133549294Y-112865609D01*
X133668969Y-112754506D01*
X133594923Y-112628201D01*
X133547628Y-112548989D01*
X133484439Y-112449423D01*
X133426281Y-112367055D01*
X133370110Y-112298257D01*
X133312886Y-112239400D01*
X133251565Y-112186856D01*
X133183106Y-112136995D01*
X133163094Y-112123733D01*
X133079353Y-112073953D01*
X132987762Y-112026774D01*
X132897494Y-111986685D01*
X132817724Y-111958176D01*
X132776620Y-111947372D01*
X132646043Y-111929722D01*
X132510820Y-111934693D01*
X132374740Y-111961634D01*
X132241593Y-112009894D01*
X132115169Y-112078824D01*
X132109532Y-112082564D01*
X132061168Y-112118976D01*
X132002631Y-112168614D01*
X131939544Y-112226205D01*
X131877530Y-112286474D01*
X131822213Y-112344145D01*
X131779215Y-112393945D01*
X131743979Y-112438395D01*
X131773252Y-112387595D01*
X131833223Y-112293236D01*
X131937493Y-112163439D01*
X132055471Y-112051780D01*
X132185066Y-111959668D01*
X132324187Y-111888515D01*
X132470741Y-111839732D01*
X132622636Y-111814729D01*
X132665872Y-111812737D01*
X132755287Y-111814957D01*
X132853341Y-111823624D01*
X132950171Y-111837746D01*
X133035919Y-111856331D01*
X133107257Y-111879708D01*
X133192390Y-111914848D01*
X133280945Y-111957174D01*
X133364363Y-112002585D01*
X133434083Y-112046985D01*
X133501629Y-112099519D01*
X133587455Y-112177362D01*
X133671027Y-112263935D01*
X133745677Y-112352251D01*
X133804735Y-112435321D01*
X133826096Y-112468781D01*
X133852667Y-112508625D01*
X133872309Y-112535915D01*
X133881853Y-112546097D01*
X133891691Y-112539569D01*
X133916559Y-112518744D01*
X133952215Y-112487004D01*
X133994652Y-112447838D01*
X134099715Y-112349330D01*
X133923417Y-112189055D01*
X133880294Y-112150074D01*
X133818137Y-112094207D01*
X133771967Y-112051464D01*
X133740567Y-112018727D01*
X133722721Y-111992878D01*
X133717214Y-111970799D01*
X133722829Y-111949370D01*
X133738350Y-111925473D01*
X133762562Y-111895989D01*
X133794247Y-111857801D01*
X133799536Y-111851218D01*
X133854760Y-111782171D01*
X133896347Y-111728396D01*
X133926380Y-111685702D01*
X133946942Y-111649897D01*
X133960117Y-111616789D01*
X133967986Y-111582187D01*
X133972632Y-111541899D01*
X133976138Y-111491734D01*
X133978655Y-111449162D01*
X133980220Y-111401386D01*
X133978654Y-111370750D01*
X133973580Y-111352323D01*
X133964621Y-111341175D01*
X133952127Y-111324763D01*
X133957382Y-111300412D01*
X133962342Y-111292848D01*
X133985210Y-111278435D01*
X134009762Y-111281128D01*
G37*
X124545505Y-111407820D02*
X124575139Y-111436690D01*
X124608488Y-111490059D01*
X124647179Y-111567890D01*
X124670107Y-111614826D01*
X124695318Y-111660933D01*
X124715926Y-111692595D01*
X124729265Y-111705346D01*
X124743225Y-111716596D01*
X124749574Y-111749796D01*
X124750051Y-111758377D01*
X124758199Y-111799269D01*
X124773177Y-111841488D01*
X124782351Y-111864088D01*
X124788848Y-111890361D01*
X124791290Y-111922762D01*
X124790095Y-111967664D01*
X124785684Y-112031438D01*
X124782590Y-112078687D01*
X124780861Y-112127936D01*
X124781416Y-112162938D01*
X124784306Y-112178172D01*
X124784314Y-112178179D01*
X124798731Y-112186960D01*
X124830933Y-112204819D01*
X124876157Y-112229162D01*
X124929643Y-112257393D01*
X125065540Y-112328482D01*
X125135965Y-112218061D01*
X125140307Y-112211207D01*
X125175966Y-112150294D01*
X125198542Y-112102210D01*
X125206443Y-112070296D01*
X125205310Y-112053228D01*
X125197186Y-112010122D01*
X125183170Y-111959817D01*
X125165566Y-111908707D01*
X125146678Y-111863186D01*
X125128810Y-111829646D01*
X125114265Y-111814482D01*
X125104652Y-111809746D01*
X125094874Y-111791786D01*
X125102742Y-111772324D01*
X125126159Y-111760824D01*
X125147264Y-111763469D01*
X125162760Y-111786040D01*
X125169729Y-111803603D01*
X125192068Y-111840775D01*
X125220202Y-111873556D01*
X125248407Y-111895839D01*
X125270962Y-111901516D01*
X125271740Y-111901307D01*
X125286526Y-111891991D01*
X125294271Y-111870365D01*
X125297371Y-111829933D01*
X125297867Y-111807868D01*
X125297942Y-111765533D01*
X125296858Y-111735963D01*
X125296712Y-111730634D01*
X125306280Y-111706472D01*
X125327019Y-111696648D01*
X125349906Y-111706220D01*
X125357435Y-111718347D01*
X125351420Y-111742831D01*
X125345917Y-111763470D01*
X125348820Y-111800650D01*
X125360407Y-111840764D01*
X125377736Y-111874367D01*
X125397868Y-111892016D01*
X125400659Y-111892690D01*
X125428430Y-111888905D01*
X125463858Y-111873425D01*
X125499004Y-111851169D01*
X125525923Y-111827058D01*
X125536673Y-111806015D01*
X125540789Y-111792642D01*
X125562494Y-111783790D01*
X125582955Y-111787397D01*
X125594449Y-111803604D01*
X125585705Y-111830630D01*
X125556889Y-111866042D01*
X125524564Y-111899977D01*
X125494410Y-111938895D01*
X125480982Y-111970331D01*
X125481901Y-111998487D01*
X125484642Y-112007826D01*
X125491848Y-112019097D01*
X125506900Y-112024238D01*
X125535618Y-112024554D01*
X125583821Y-112021350D01*
X125617028Y-112019194D01*
X125655011Y-112018884D01*
X125675956Y-112023141D01*
X125684919Y-112032524D01*
X125686518Y-112037908D01*
X125682185Y-112062788D01*
X125663316Y-112078073D01*
X125638337Y-112075912D01*
X125631338Y-112074060D01*
X125601016Y-112075900D01*
X125557115Y-112085074D01*
X125506523Y-112099693D01*
X125456129Y-112117870D01*
X125412823Y-112137716D01*
X125407828Y-112141694D01*
X125387207Y-112162160D01*
X125355032Y-112196286D01*
X125314615Y-112240357D01*
X125269269Y-112290660D01*
X125222309Y-112343481D01*
X125177046Y-112395106D01*
X125136795Y-112441821D01*
X125104868Y-112479912D01*
X125084579Y-112505665D01*
X125084392Y-112505768D01*
X125071126Y-112500646D01*
X125040470Y-112485385D01*
X124996746Y-112462213D01*
X124944278Y-112433357D01*
X124939730Y-112430820D01*
X124887722Y-112402296D01*
X124844729Y-112379596D01*
X124815106Y-112364964D01*
X124803207Y-112360644D01*
X124802922Y-112366107D01*
X124804155Y-112393250D01*
X124807247Y-112439923D01*
X124811940Y-112502568D01*
X124817975Y-112577630D01*
X124825094Y-112661552D01*
X124825179Y-112662529D01*
X124834131Y-112771072D01*
X124840230Y-112860161D01*
X124843653Y-112935514D01*
X124844573Y-113002850D01*
X124843166Y-113067885D01*
X124839606Y-113136340D01*
X124838177Y-113159217D01*
X124834614Y-113220522D01*
X124832104Y-113270393D01*
X124830864Y-113304195D01*
X124831112Y-113317291D01*
X124831710Y-113317126D01*
X124845098Y-113306713D01*
X124873814Y-113282220D01*
X124915003Y-113246143D01*
X124965810Y-113200978D01*
X125023380Y-113149220D01*
X125035160Y-113138587D01*
X125092073Y-113087593D01*
X125142011Y-113043451D01*
X125182025Y-113008728D01*
X125209167Y-112985987D01*
X125220487Y-112977794D01*
X125222419Y-112981473D01*
X125227708Y-113005387D01*
X125234719Y-113047862D01*
X125242768Y-113104591D01*
X125251172Y-113171265D01*
X125255669Y-113209516D01*
X125265075Y-113289504D01*
X125273026Y-113346457D01*
X125281265Y-113381858D01*
X125291533Y-113397188D01*
X125305572Y-113393931D01*
X125325125Y-113373567D01*
X125351932Y-113337579D01*
X125387737Y-113287448D01*
X125485895Y-113151298D01*
X125485895Y-113019821D01*
X125485826Y-113004584D01*
X125483518Y-112938299D01*
X125478210Y-112889991D01*
X125470269Y-112863322D01*
X125468687Y-112860735D01*
X125461692Y-112838306D01*
X125475137Y-112817805D01*
X125492891Y-112806960D01*
X125518684Y-112808075D01*
X125537368Y-112824384D01*
X125540173Y-112851362D01*
X125539450Y-112870568D01*
X125544906Y-112908646D01*
X125556030Y-112953128D01*
X125567032Y-112987305D01*
X125579166Y-113013873D01*
X125592788Y-113025696D01*
X125612080Y-113028390D01*
X125627868Y-113026528D01*
X125643984Y-113016125D01*
X125659882Y-112991987D01*
X125679921Y-112949015D01*
X125696911Y-112907318D01*
X125709634Y-112870637D01*
X125714497Y-112848896D01*
X125715252Y-112843239D01*
X125729915Y-112826151D01*
X125754392Y-112820234D01*
X125776925Y-112829199D01*
X125785788Y-112840996D01*
X125787926Y-112869814D01*
X125765908Y-112899354D01*
X125753083Y-112915939D01*
X125739980Y-112955755D01*
X125736477Y-113002940D01*
X125742924Y-113047400D01*
X125759672Y-113079037D01*
X125762446Y-113081765D01*
X125777005Y-113093348D01*
X125793700Y-113097290D01*
X125819989Y-113093916D01*
X125863329Y-113083549D01*
X125897541Y-113073759D01*
X125934230Y-113057508D01*
X125949910Y-113039625D01*
X125957479Y-113025161D01*
X125978397Y-113016535D01*
X126004055Y-113030929D01*
X126017815Y-113056558D01*
X126015284Y-113083027D01*
X125997070Y-113099292D01*
X125975005Y-113108156D01*
X125938328Y-113125131D01*
X125895041Y-113146518D01*
X125868441Y-113161090D01*
X125823682Y-113194373D01*
X125803901Y-113226158D01*
X125809274Y-113256226D01*
X125810744Y-113258176D01*
X125831855Y-113273167D01*
X125867716Y-113290897D01*
X125909952Y-113307933D01*
X125950187Y-113320845D01*
X125980044Y-113326199D01*
X125993454Y-113328210D01*
X126014254Y-113344067D01*
X126017064Y-113368441D01*
X125999339Y-113392573D01*
X125996236Y-113394783D01*
X125975759Y-113402336D01*
X125955126Y-113389733D01*
X125952458Y-113387624D01*
X125922476Y-113375706D01*
X125875338Y-113366943D01*
X125818054Y-113361754D01*
X125757636Y-113360558D01*
X125701095Y-113363774D01*
X125655444Y-113371822D01*
X125638852Y-113377298D01*
X125615645Y-113388370D01*
X125589088Y-113405748D01*
X125556275Y-113431779D01*
X125514301Y-113468811D01*
X125460260Y-113519190D01*
X125391247Y-113585266D01*
X125187445Y-113781799D01*
X125171857Y-113617819D01*
X125170983Y-113608661D01*
X125164911Y-113546774D01*
X125159481Y-113494282D01*
X125155259Y-113456485D01*
X125152807Y-113438681D01*
X125152228Y-113437865D01*
X125139244Y-113443262D01*
X125112144Y-113463015D01*
X125074446Y-113494384D01*
X125029670Y-113534626D01*
X124909995Y-113645729D01*
X124984041Y-113772034D01*
X125031336Y-113851246D01*
X125094525Y-113950812D01*
X125152683Y-114033180D01*
X125208854Y-114101978D01*
X125266078Y-114160835D01*
X125327399Y-114213379D01*
X125395858Y-114263240D01*
X125415870Y-114276502D01*
X125499611Y-114326282D01*
X125591202Y-114373461D01*
X125681470Y-114413550D01*
X125761240Y-114442059D01*
X125802344Y-114452863D01*
X125932921Y-114470513D01*
X126068144Y-114465542D01*
X126204224Y-114438601D01*
X126337371Y-114390341D01*
X126463795Y-114321411D01*
X126469432Y-114317671D01*
X126517796Y-114281259D01*
X126576333Y-114231621D01*
X126639420Y-114174030D01*
X126701434Y-114113761D01*
X126756751Y-114056090D01*
X126799749Y-114006290D01*
X126834985Y-113961840D01*
X126805712Y-114012640D01*
X126745741Y-114106999D01*
X126641471Y-114236796D01*
X126523493Y-114348455D01*
X126393898Y-114440567D01*
X126254777Y-114511720D01*
X126108223Y-114560503D01*
X125956328Y-114585506D01*
X125913092Y-114587498D01*
X125823677Y-114585278D01*
X125725623Y-114576611D01*
X125628793Y-114562489D01*
X125543045Y-114543904D01*
X125471707Y-114520527D01*
X125386574Y-114485387D01*
X125298019Y-114443061D01*
X125214601Y-114397650D01*
X125144881Y-114353250D01*
X125077335Y-114300716D01*
X124991509Y-114222873D01*
X124907937Y-114136300D01*
X124833287Y-114047984D01*
X124774229Y-113964914D01*
X124752868Y-113931454D01*
X124726297Y-113891610D01*
X124706655Y-113864320D01*
X124697111Y-113854138D01*
X124687273Y-113860666D01*
X124662405Y-113881491D01*
X124626749Y-113913231D01*
X124584312Y-113952397D01*
X124479249Y-114050905D01*
X124655547Y-114211180D01*
X124698670Y-114250161D01*
X124760827Y-114306028D01*
X124806997Y-114348771D01*
X124838397Y-114381508D01*
X124856243Y-114407357D01*
X124861750Y-114429436D01*
X124856135Y-114450865D01*
X124840614Y-114474762D01*
X124816402Y-114504246D01*
X124784717Y-114542434D01*
X124779428Y-114549017D01*
X124724204Y-114618064D01*
X124682617Y-114671839D01*
X124652584Y-114714533D01*
X124632022Y-114750338D01*
X124618847Y-114783446D01*
X124610978Y-114818048D01*
X124606332Y-114858336D01*
X124602826Y-114908501D01*
X124600309Y-114951073D01*
X124598744Y-114998849D01*
X124600310Y-115029485D01*
X124605384Y-115047912D01*
X124614343Y-115059060D01*
X124626837Y-115075472D01*
X124621582Y-115099823D01*
X124616622Y-115107387D01*
X124593754Y-115121800D01*
X124569202Y-115119107D01*
X124551559Y-115102324D01*
X124549414Y-115074470D01*
X124549799Y-115052160D01*
X124543680Y-115012806D01*
X124532118Y-114966995D01*
X124529686Y-114958925D01*
X124516643Y-114919146D01*
X124505771Y-114898130D01*
X124493257Y-114890872D01*
X124475288Y-114892364D01*
X124456795Y-114899559D01*
X124435701Y-114921838D01*
X124413996Y-114963615D01*
X124403199Y-114989078D01*
X124386662Y-115032133D01*
X124376337Y-115064389D01*
X124367087Y-115084260D01*
X124345611Y-115096776D01*
X124321677Y-115089413D01*
X124302975Y-115062383D01*
X124301022Y-115056756D01*
X124299541Y-115036019D01*
X124315888Y-115026390D01*
X124323761Y-115023027D01*
X124338490Y-115002890D01*
X124347666Y-114962299D01*
X124353419Y-114914087D01*
X124354109Y-114881518D01*
X124348783Y-114859230D01*
X124336777Y-114839757D01*
X124335861Y-114838557D01*
X124324046Y-114826713D01*
X124308049Y-114821975D01*
X124280995Y-114823786D01*
X124236006Y-114831589D01*
X124234845Y-114831809D01*
X124185961Y-114843208D01*
X124157756Y-114855679D01*
X124145615Y-114871247D01*
X124145591Y-114871320D01*
X124128607Y-114891030D01*
X124102459Y-114893542D01*
X124077531Y-114877849D01*
X124068715Y-114851650D01*
X124081109Y-114826907D01*
X124111323Y-114810757D01*
X124133023Y-114803020D01*
X124171800Y-114785297D01*
X124214697Y-114762785D01*
X124219443Y-114760104D01*
X124259741Y-114734389D01*
X124281540Y-114712305D01*
X124289705Y-114689069D01*
X124290382Y-114678047D01*
X124285152Y-114659734D01*
X124266672Y-114643230D01*
X124229802Y-114622851D01*
X124203845Y-114611049D01*
X124160718Y-114596267D01*
X124127418Y-114590490D01*
X124126664Y-114590488D01*
X124099964Y-114588895D01*
X124088895Y-114585178D01*
X124088152Y-114580877D01*
X124081815Y-114561416D01*
X124082100Y-114545207D01*
X124096124Y-114521575D01*
X124109627Y-114509693D01*
X124123893Y-114508740D01*
X124144480Y-114525294D01*
X124150125Y-114530133D01*
X124168733Y-114540585D01*
X124195919Y-114547331D01*
X124237288Y-114551411D01*
X124298445Y-114553865D01*
X124364301Y-114554011D01*
X124430359Y-114549612D01*
X124476245Y-114540529D01*
X124502587Y-114529347D01*
X124540418Y-114508511D01*
X124579420Y-114483453D01*
X124613715Y-114458252D01*
X124637424Y-114436982D01*
X124644671Y-114423722D01*
X124641958Y-114420826D01*
X124622509Y-114404778D01*
X124586891Y-114377126D01*
X124538077Y-114340132D01*
X124479037Y-114296058D01*
X124412745Y-114247166D01*
X124380242Y-114223203D01*
X124317670Y-114176291D01*
X124264188Y-114135150D01*
X124222675Y-114102053D01*
X124196009Y-114079270D01*
X124187067Y-114069071D01*
X124189398Y-114064907D01*
X124204208Y-114042804D01*
X124230764Y-114004815D01*
X124266902Y-113953995D01*
X124310457Y-113893397D01*
X124359265Y-113826076D01*
X124383978Y-113792100D01*
X124431053Y-113727221D01*
X124472176Y-113670333D01*
X124505092Y-113624570D01*
X124527545Y-113593061D01*
X124537281Y-113578939D01*
X124537387Y-113575295D01*
X124529874Y-113552079D01*
X124512590Y-113511344D01*
X124487121Y-113456547D01*
X124455049Y-113391143D01*
X124417960Y-113318589D01*
X124289902Y-113072840D01*
X124310000Y-112750000D01*
X124314565Y-112674495D01*
X124319103Y-112593968D01*
X124322626Y-112525083D01*
X124324970Y-112471265D01*
X124325974Y-112435942D01*
X124325477Y-112422537D01*
X124324191Y-112423115D01*
X124312445Y-112437917D01*
X124290847Y-112469429D01*
X124261914Y-112513899D01*
X124228162Y-112567577D01*
X124217327Y-112585063D01*
X124184736Y-112637542D01*
X124157898Y-112680588D01*
X124139345Y-112710143D01*
X124131613Y-112722151D01*
X124128997Y-112722578D01*
X124106851Y-112721085D01*
X124066007Y-112716418D01*
X124011009Y-112709126D01*
X123946401Y-112699759D01*
X123923622Y-112696367D01*
X123857710Y-112686984D01*
X123800384Y-112679431D01*
X123757146Y-112674410D01*
X123733499Y-112672623D01*
X123704382Y-112678197D01*
X123662232Y-112693174D01*
X123613557Y-112714509D01*
X123564422Y-112739154D01*
X123520893Y-112764064D01*
X123489033Y-112786193D01*
X123474908Y-112802495D01*
X123467471Y-112816730D01*
X123445271Y-112822989D01*
X123444967Y-112822929D01*
X123427731Y-112811011D01*
X123418225Y-112790221D01*
X123418694Y-112770475D01*
X123431385Y-112761690D01*
X123437854Y-112760445D01*
X123461930Y-112745759D01*
X123490050Y-112719846D01*
X123516201Y-112689425D01*
X123534371Y-112661215D01*
X123538547Y-112641935D01*
X123522150Y-112630063D01*
X123489152Y-112623164D01*
X123448038Y-112621650D01*
X123407254Y-112625826D01*
X123375245Y-112636001D01*
X123356488Y-112641412D01*
X123335458Y-112630959D01*
X123327090Y-112601123D01*
X123327098Y-112600375D01*
X123337926Y-112583913D01*
X123360607Y-112576433D01*
X123382480Y-112582250D01*
X123384140Y-112583325D01*
X123406240Y-112583751D01*
X123438803Y-112573180D01*
X123473405Y-112555762D01*
X123501620Y-112535645D01*
X123515023Y-112516979D01*
X123510077Y-112493490D01*
X123491499Y-112461294D01*
X123465388Y-112428724D01*
X123437972Y-112403512D01*
X123415478Y-112393390D01*
X123402852Y-112392126D01*
X123383582Y-112377913D01*
X123385363Y-112350086D01*
X123390848Y-112338588D01*
X123400438Y-112332238D01*
X123417189Y-112336382D01*
X123445645Y-112352384D01*
X123490350Y-112381608D01*
X123540884Y-112412368D01*
X123578463Y-112426646D01*
X123602494Y-112422043D01*
X123615249Y-112398076D01*
X123618995Y-112354261D01*
X123618273Y-112334222D01*
X123612705Y-112293815D01*
X123603439Y-112266534D01*
X123594484Y-112245109D01*
X123602585Y-112226920D01*
X123606621Y-112223394D01*
X123629556Y-112217841D01*
X123648934Y-112231577D01*
X123657095Y-112259958D01*
X123660684Y-112280420D01*
X123674871Y-112320877D01*
X123696349Y-112369174D01*
X123721346Y-112417610D01*
X123746093Y-112458482D01*
X123766819Y-112484088D01*
X123778639Y-112491046D01*
X123810063Y-112504239D01*
X123853558Y-112519890D01*
X123903137Y-112536137D01*
X123952811Y-112551117D01*
X123996591Y-112562968D01*
X124028491Y-112569827D01*
X124042521Y-112569833D01*
X124050447Y-112559434D01*
X124071408Y-112531914D01*
X124102870Y-112490599D01*
X124142340Y-112438764D01*
X124187323Y-112379685D01*
X124328297Y-112194531D01*
X124309537Y-112050861D01*
X124308579Y-112043495D01*
X124301030Y-111981433D01*
X124297417Y-111937861D01*
X124297769Y-111906764D01*
X124302115Y-111882126D01*
X124310487Y-111857933D01*
X124312925Y-111851499D01*
X124325198Y-111806302D01*
X124330195Y-111764482D01*
X124330203Y-111762850D01*
X124334682Y-111731837D01*
X124346070Y-111720285D01*
X124346583Y-111720216D01*
X124357456Y-111707381D01*
X124374454Y-111675532D01*
X124395351Y-111629234D01*
X124417917Y-111573053D01*
X124431589Y-111538058D01*
X124462629Y-111468568D01*
X124490877Y-111423722D01*
X124517960Y-111403485D01*
X124545505Y-111407820D01*
G36*
X124545505Y-111407820D02*
G01*
X124575139Y-111436690D01*
X124608488Y-111490059D01*
X124647179Y-111567890D01*
X124670107Y-111614826D01*
X124695318Y-111660933D01*
X124715926Y-111692595D01*
X124729265Y-111705346D01*
X124743225Y-111716596D01*
X124749574Y-111749796D01*
X124750051Y-111758377D01*
X124758199Y-111799269D01*
X124773177Y-111841488D01*
X124782351Y-111864088D01*
X124788848Y-111890361D01*
X124791290Y-111922762D01*
X124790095Y-111967664D01*
X124785684Y-112031438D01*
X124782590Y-112078687D01*
X124780861Y-112127936D01*
X124781416Y-112162938D01*
X124784306Y-112178172D01*
X124784314Y-112178179D01*
X124798731Y-112186960D01*
X124830933Y-112204819D01*
X124876157Y-112229162D01*
X124929643Y-112257393D01*
X125065540Y-112328482D01*
X125135965Y-112218061D01*
X125140307Y-112211207D01*
X125175966Y-112150294D01*
X125198542Y-112102210D01*
X125206443Y-112070296D01*
X125205310Y-112053228D01*
X125197186Y-112010122D01*
X125183170Y-111959817D01*
X125165566Y-111908707D01*
X125146678Y-111863186D01*
X125128810Y-111829646D01*
X125114265Y-111814482D01*
X125104652Y-111809746D01*
X125094874Y-111791786D01*
X125102742Y-111772324D01*
X125126159Y-111760824D01*
X125147264Y-111763469D01*
X125162760Y-111786040D01*
X125169729Y-111803603D01*
X125192068Y-111840775D01*
X125220202Y-111873556D01*
X125248407Y-111895839D01*
X125270962Y-111901516D01*
X125271740Y-111901307D01*
X125286526Y-111891991D01*
X125294271Y-111870365D01*
X125297371Y-111829933D01*
X125297867Y-111807868D01*
X125297942Y-111765533D01*
X125296858Y-111735963D01*
X125296712Y-111730634D01*
X125306280Y-111706472D01*
X125327019Y-111696648D01*
X125349906Y-111706220D01*
X125357435Y-111718347D01*
X125351420Y-111742831D01*
X125345917Y-111763470D01*
X125348820Y-111800650D01*
X125360407Y-111840764D01*
X125377736Y-111874367D01*
X125397868Y-111892016D01*
X125400659Y-111892690D01*
X125428430Y-111888905D01*
X125463858Y-111873425D01*
X125499004Y-111851169D01*
X125525923Y-111827058D01*
X125536673Y-111806015D01*
X125540789Y-111792642D01*
X125562494Y-111783790D01*
X125582955Y-111787397D01*
X125594449Y-111803604D01*
X125585705Y-111830630D01*
X125556889Y-111866042D01*
X125524564Y-111899977D01*
X125494410Y-111938895D01*
X125480982Y-111970331D01*
X125481901Y-111998487D01*
X125484642Y-112007826D01*
X125491848Y-112019097D01*
X125506900Y-112024238D01*
X125535618Y-112024554D01*
X125583821Y-112021350D01*
X125617028Y-112019194D01*
X125655011Y-112018884D01*
X125675956Y-112023141D01*
X125684919Y-112032524D01*
X125686518Y-112037908D01*
X125682185Y-112062788D01*
X125663316Y-112078073D01*
X125638337Y-112075912D01*
X125631338Y-112074060D01*
X125601016Y-112075900D01*
X125557115Y-112085074D01*
X125506523Y-112099693D01*
X125456129Y-112117870D01*
X125412823Y-112137716D01*
X125407828Y-112141694D01*
X125387207Y-112162160D01*
X125355032Y-112196286D01*
X125314615Y-112240357D01*
X125269269Y-112290660D01*
X125222309Y-112343481D01*
X125177046Y-112395106D01*
X125136795Y-112441821D01*
X125104868Y-112479912D01*
X125084579Y-112505665D01*
X125084392Y-112505768D01*
X125071126Y-112500646D01*
X125040470Y-112485385D01*
X124996746Y-112462213D01*
X124944278Y-112433357D01*
X124939730Y-112430820D01*
X124887722Y-112402296D01*
X124844729Y-112379596D01*
X124815106Y-112364964D01*
X124803207Y-112360644D01*
X124802922Y-112366107D01*
X124804155Y-112393250D01*
X124807247Y-112439923D01*
X124811940Y-112502568D01*
X124817975Y-112577630D01*
X124825094Y-112661552D01*
X124825179Y-112662529D01*
X124834131Y-112771072D01*
X124840230Y-112860161D01*
X124843653Y-112935514D01*
X124844573Y-113002850D01*
X124843166Y-113067885D01*
X124839606Y-113136340D01*
X124838177Y-113159217D01*
X124834614Y-113220522D01*
X124832104Y-113270393D01*
X124830864Y-113304195D01*
X124831112Y-113317291D01*
X124831710Y-113317126D01*
X124845098Y-113306713D01*
X124873814Y-113282220D01*
X124915003Y-113246143D01*
X124965810Y-113200978D01*
X125023380Y-113149220D01*
X125035160Y-113138587D01*
X125092073Y-113087593D01*
X125142011Y-113043451D01*
X125182025Y-113008728D01*
X125209167Y-112985987D01*
X125220487Y-112977794D01*
X125222419Y-112981473D01*
X125227708Y-113005387D01*
X125234719Y-113047862D01*
X125242768Y-113104591D01*
X125251172Y-113171265D01*
X125255669Y-113209516D01*
X125265075Y-113289504D01*
X125273026Y-113346457D01*
X125281265Y-113381858D01*
X125291533Y-113397188D01*
X125305572Y-113393931D01*
X125325125Y-113373567D01*
X125351932Y-113337579D01*
X125387737Y-113287448D01*
X125485895Y-113151298D01*
X125485895Y-113019821D01*
X125485826Y-113004584D01*
X125483518Y-112938299D01*
X125478210Y-112889991D01*
X125470269Y-112863322D01*
X125468687Y-112860735D01*
X125461692Y-112838306D01*
X125475137Y-112817805D01*
X125492891Y-112806960D01*
X125518684Y-112808075D01*
X125537368Y-112824384D01*
X125540173Y-112851362D01*
X125539450Y-112870568D01*
X125544906Y-112908646D01*
X125556030Y-112953128D01*
X125567032Y-112987305D01*
X125579166Y-113013873D01*
X125592788Y-113025696D01*
X125612080Y-113028390D01*
X125627868Y-113026528D01*
X125643984Y-113016125D01*
X125659882Y-112991987D01*
X125679921Y-112949015D01*
X125696911Y-112907318D01*
X125709634Y-112870637D01*
X125714497Y-112848896D01*
X125715252Y-112843239D01*
X125729915Y-112826151D01*
X125754392Y-112820234D01*
X125776925Y-112829199D01*
X125785788Y-112840996D01*
X125787926Y-112869814D01*
X125765908Y-112899354D01*
X125753083Y-112915939D01*
X125739980Y-112955755D01*
X125736477Y-113002940D01*
X125742924Y-113047400D01*
X125759672Y-113079037D01*
X125762446Y-113081765D01*
X125777005Y-113093348D01*
X125793700Y-113097290D01*
X125819989Y-113093916D01*
X125863329Y-113083549D01*
X125897541Y-113073759D01*
X125934230Y-113057508D01*
X125949910Y-113039625D01*
X125957479Y-113025161D01*
X125978397Y-113016535D01*
X126004055Y-113030929D01*
X126017815Y-113056558D01*
X126015284Y-113083027D01*
X125997070Y-113099292D01*
X125975005Y-113108156D01*
X125938328Y-113125131D01*
X125895041Y-113146518D01*
X125868441Y-113161090D01*
X125823682Y-113194373D01*
X125803901Y-113226158D01*
X125809274Y-113256226D01*
X125810744Y-113258176D01*
X125831855Y-113273167D01*
X125867716Y-113290897D01*
X125909952Y-113307933D01*
X125950187Y-113320845D01*
X125980044Y-113326199D01*
X125993454Y-113328210D01*
X126014254Y-113344067D01*
X126017064Y-113368441D01*
X125999339Y-113392573D01*
X125996236Y-113394783D01*
X125975759Y-113402336D01*
X125955126Y-113389733D01*
X125952458Y-113387624D01*
X125922476Y-113375706D01*
X125875338Y-113366943D01*
X125818054Y-113361754D01*
X125757636Y-113360558D01*
X125701095Y-113363774D01*
X125655444Y-113371822D01*
X125638852Y-113377298D01*
X125615645Y-113388370D01*
X125589088Y-113405748D01*
X125556275Y-113431779D01*
X125514301Y-113468811D01*
X125460260Y-113519190D01*
X125391247Y-113585266D01*
X125187445Y-113781799D01*
X125171857Y-113617819D01*
X125170983Y-113608661D01*
X125164911Y-113546774D01*
X125159481Y-113494282D01*
X125155259Y-113456485D01*
X125152807Y-113438681D01*
X125152228Y-113437865D01*
X125139244Y-113443262D01*
X125112144Y-113463015D01*
X125074446Y-113494384D01*
X125029670Y-113534626D01*
X124909995Y-113645729D01*
X124984041Y-113772034D01*
X125031336Y-113851246D01*
X125094525Y-113950812D01*
X125152683Y-114033180D01*
X125208854Y-114101978D01*
X125266078Y-114160835D01*
X125327399Y-114213379D01*
X125395858Y-114263240D01*
X125415870Y-114276502D01*
X125499611Y-114326282D01*
X125591202Y-114373461D01*
X125681470Y-114413550D01*
X125761240Y-114442059D01*
X125802344Y-114452863D01*
X125932921Y-114470513D01*
X126068144Y-114465542D01*
X126204224Y-114438601D01*
X126337371Y-114390341D01*
X126463795Y-114321411D01*
X126469432Y-114317671D01*
X126517796Y-114281259D01*
X126576333Y-114231621D01*
X126639420Y-114174030D01*
X126701434Y-114113761D01*
X126756751Y-114056090D01*
X126799749Y-114006290D01*
X126834985Y-113961840D01*
X126805712Y-114012640D01*
X126745741Y-114106999D01*
X126641471Y-114236796D01*
X126523493Y-114348455D01*
X126393898Y-114440567D01*
X126254777Y-114511720D01*
X126108223Y-114560503D01*
X125956328Y-114585506D01*
X125913092Y-114587498D01*
X125823677Y-114585278D01*
X125725623Y-114576611D01*
X125628793Y-114562489D01*
X125543045Y-114543904D01*
X125471707Y-114520527D01*
X125386574Y-114485387D01*
X125298019Y-114443061D01*
X125214601Y-114397650D01*
X125144881Y-114353250D01*
X125077335Y-114300716D01*
X124991509Y-114222873D01*
X124907937Y-114136300D01*
X124833287Y-114047984D01*
X124774229Y-113964914D01*
X124752868Y-113931454D01*
X124726297Y-113891610D01*
X124706655Y-113864320D01*
X124697111Y-113854138D01*
X124687273Y-113860666D01*
X124662405Y-113881491D01*
X124626749Y-113913231D01*
X124584312Y-113952397D01*
X124479249Y-114050905D01*
X124655547Y-114211180D01*
X124698670Y-114250161D01*
X124760827Y-114306028D01*
X124806997Y-114348771D01*
X124838397Y-114381508D01*
X124856243Y-114407357D01*
X124861750Y-114429436D01*
X124856135Y-114450865D01*
X124840614Y-114474762D01*
X124816402Y-114504246D01*
X124784717Y-114542434D01*
X124779428Y-114549017D01*
X124724204Y-114618064D01*
X124682617Y-114671839D01*
X124652584Y-114714533D01*
X124632022Y-114750338D01*
X124618847Y-114783446D01*
X124610978Y-114818048D01*
X124606332Y-114858336D01*
X124602826Y-114908501D01*
X124600309Y-114951073D01*
X124598744Y-114998849D01*
X124600310Y-115029485D01*
X124605384Y-115047912D01*
X124614343Y-115059060D01*
X124626837Y-115075472D01*
X124621582Y-115099823D01*
X124616622Y-115107387D01*
X124593754Y-115121800D01*
X124569202Y-115119107D01*
X124551559Y-115102324D01*
X124549414Y-115074470D01*
X124549799Y-115052160D01*
X124543680Y-115012806D01*
X124532118Y-114966995D01*
X124529686Y-114958925D01*
X124516643Y-114919146D01*
X124505771Y-114898130D01*
X124493257Y-114890872D01*
X124475288Y-114892364D01*
X124456795Y-114899559D01*
X124435701Y-114921838D01*
X124413996Y-114963615D01*
X124403199Y-114989078D01*
X124386662Y-115032133D01*
X124376337Y-115064389D01*
X124367087Y-115084260D01*
X124345611Y-115096776D01*
X124321677Y-115089413D01*
X124302975Y-115062383D01*
X124301022Y-115056756D01*
X124299541Y-115036019D01*
X124315888Y-115026390D01*
X124323761Y-115023027D01*
X124338490Y-115002890D01*
X124347666Y-114962299D01*
X124353419Y-114914087D01*
X124354109Y-114881518D01*
X124348783Y-114859230D01*
X124336777Y-114839757D01*
X124335861Y-114838557D01*
X124324046Y-114826713D01*
X124308049Y-114821975D01*
X124280995Y-114823786D01*
X124236006Y-114831589D01*
X124234845Y-114831809D01*
X124185961Y-114843208D01*
X124157756Y-114855679D01*
X124145615Y-114871247D01*
X124145591Y-114871320D01*
X124128607Y-114891030D01*
X124102459Y-114893542D01*
X124077531Y-114877849D01*
X124068715Y-114851650D01*
X124081109Y-114826907D01*
X124111323Y-114810757D01*
X124133023Y-114803020D01*
X124171800Y-114785297D01*
X124214697Y-114762785D01*
X124219443Y-114760104D01*
X124259741Y-114734389D01*
X124281540Y-114712305D01*
X124289705Y-114689069D01*
X124290382Y-114678047D01*
X124285152Y-114659734D01*
X124266672Y-114643230D01*
X124229802Y-114622851D01*
X124203845Y-114611049D01*
X124160718Y-114596267D01*
X124127418Y-114590490D01*
X124126664Y-114590488D01*
X124099964Y-114588895D01*
X124088895Y-114585178D01*
X124088152Y-114580877D01*
X124081815Y-114561416D01*
X124082100Y-114545207D01*
X124096124Y-114521575D01*
X124109627Y-114509693D01*
X124123893Y-114508740D01*
X124144480Y-114525294D01*
X124150125Y-114530133D01*
X124168733Y-114540585D01*
X124195919Y-114547331D01*
X124237288Y-114551411D01*
X124298445Y-114553865D01*
X124364301Y-114554011D01*
X124430359Y-114549612D01*
X124476245Y-114540529D01*
X124502587Y-114529347D01*
X124540418Y-114508511D01*
X124579420Y-114483453D01*
X124613715Y-114458252D01*
X124637424Y-114436982D01*
X124644671Y-114423722D01*
X124641958Y-114420826D01*
X124622509Y-114404778D01*
X124586891Y-114377126D01*
X124538077Y-114340132D01*
X124479037Y-114296058D01*
X124412745Y-114247166D01*
X124380242Y-114223203D01*
X124317670Y-114176291D01*
X124264188Y-114135150D01*
X124222675Y-114102053D01*
X124196009Y-114079270D01*
X124187067Y-114069071D01*
X124189398Y-114064907D01*
X124204208Y-114042804D01*
X124230764Y-114004815D01*
X124266902Y-113953995D01*
X124310457Y-113893397D01*
X124359265Y-113826076D01*
X124383978Y-113792100D01*
X124431053Y-113727221D01*
X124472176Y-113670333D01*
X124505092Y-113624570D01*
X124527545Y-113593061D01*
X124537281Y-113578939D01*
X124537387Y-113575295D01*
X124529874Y-113552079D01*
X124512590Y-113511344D01*
X124487121Y-113456547D01*
X124455049Y-113391143D01*
X124417960Y-113318589D01*
X124289902Y-113072840D01*
X124310000Y-112750000D01*
X124314565Y-112674495D01*
X124319103Y-112593968D01*
X124322626Y-112525083D01*
X124324970Y-112471265D01*
X124325974Y-112435942D01*
X124325477Y-112422537D01*
X124324191Y-112423115D01*
X124312445Y-112437917D01*
X124290847Y-112469429D01*
X124261914Y-112513899D01*
X124228162Y-112567577D01*
X124217327Y-112585063D01*
X124184736Y-112637542D01*
X124157898Y-112680588D01*
X124139345Y-112710143D01*
X124131613Y-112722151D01*
X124128997Y-112722578D01*
X124106851Y-112721085D01*
X124066007Y-112716418D01*
X124011009Y-112709126D01*
X123946401Y-112699759D01*
X123923622Y-112696367D01*
X123857710Y-112686984D01*
X123800384Y-112679431D01*
X123757146Y-112674410D01*
X123733499Y-112672623D01*
X123704382Y-112678197D01*
X123662232Y-112693174D01*
X123613557Y-112714509D01*
X123564422Y-112739154D01*
X123520893Y-112764064D01*
X123489033Y-112786193D01*
X123474908Y-112802495D01*
X123467471Y-112816730D01*
X123445271Y-112822989D01*
X123444967Y-112822929D01*
X123427731Y-112811011D01*
X123418225Y-112790221D01*
X123418694Y-112770475D01*
X123431385Y-112761690D01*
X123437854Y-112760445D01*
X123461930Y-112745759D01*
X123490050Y-112719846D01*
X123516201Y-112689425D01*
X123534371Y-112661215D01*
X123538547Y-112641935D01*
X123522150Y-112630063D01*
X123489152Y-112623164D01*
X123448038Y-112621650D01*
X123407254Y-112625826D01*
X123375245Y-112636001D01*
X123356488Y-112641412D01*
X123335458Y-112630959D01*
X123327090Y-112601123D01*
X123327098Y-112600375D01*
X123337926Y-112583913D01*
X123360607Y-112576433D01*
X123382480Y-112582250D01*
X123384140Y-112583325D01*
X123406240Y-112583751D01*
X123438803Y-112573180D01*
X123473405Y-112555762D01*
X123501620Y-112535645D01*
X123515023Y-112516979D01*
X123510077Y-112493490D01*
X123491499Y-112461294D01*
X123465388Y-112428724D01*
X123437972Y-112403512D01*
X123415478Y-112393390D01*
X123402852Y-112392126D01*
X123383582Y-112377913D01*
X123385363Y-112350086D01*
X123390848Y-112338588D01*
X123400438Y-112332238D01*
X123417189Y-112336382D01*
X123445645Y-112352384D01*
X123490350Y-112381608D01*
X123540884Y-112412368D01*
X123578463Y-112426646D01*
X123602494Y-112422043D01*
X123615249Y-112398076D01*
X123618995Y-112354261D01*
X123618273Y-112334222D01*
X123612705Y-112293815D01*
X123603439Y-112266534D01*
X123594484Y-112245109D01*
X123602585Y-112226920D01*
X123606621Y-112223394D01*
X123629556Y-112217841D01*
X123648934Y-112231577D01*
X123657095Y-112259958D01*
X123660684Y-112280420D01*
X123674871Y-112320877D01*
X123696349Y-112369174D01*
X123721346Y-112417610D01*
X123746093Y-112458482D01*
X123766819Y-112484088D01*
X123778639Y-112491046D01*
X123810063Y-112504239D01*
X123853558Y-112519890D01*
X123903137Y-112536137D01*
X123952811Y-112551117D01*
X123996591Y-112562968D01*
X124028491Y-112569827D01*
X124042521Y-112569833D01*
X124050447Y-112559434D01*
X124071408Y-112531914D01*
X124102870Y-112490599D01*
X124142340Y-112438764D01*
X124187323Y-112379685D01*
X124328297Y-112194531D01*
X124309537Y-112050861D01*
X124308579Y-112043495D01*
X124301030Y-111981433D01*
X124297417Y-111937861D01*
X124297769Y-111906764D01*
X124302115Y-111882126D01*
X124310487Y-111857933D01*
X124312925Y-111851499D01*
X124325198Y-111806302D01*
X124330195Y-111764482D01*
X124330203Y-111762850D01*
X124334682Y-111731837D01*
X124346070Y-111720285D01*
X124346583Y-111720216D01*
X124357456Y-111707381D01*
X124374454Y-111675532D01*
X124395351Y-111629234D01*
X124417917Y-111573053D01*
X124431589Y-111538058D01*
X124462629Y-111468568D01*
X124490877Y-111423722D01*
X124517960Y-111403485D01*
X124545505Y-111407820D01*
G37*
%TD*%
M02*
