%TF.GenerationSoftware,KiCad,Pcbnew,8.0.3*%
%TF.CreationDate,2024-09-02T20:30:28+10:00*%
%TF.ProjectId,Top_plate,546f705f-706c-4617-9465-2e6b69636164,rev?*%
%TF.SameCoordinates,Original*%
%TF.FileFunction,Profile,NP*%
%FSLAX46Y46*%
G04 Gerber Fmt 4.6, Leading zero omitted, Abs format (unit mm)*
G04 Created by KiCad (PCBNEW 8.0.3) date 2024-09-02 20:30:28*
%MOMM*%
%LPD*%
G01*
G04 APERTURE LIST*
%ADD10C,0.200000*%
%ADD11C,0.100000*%
%TA.AperFunction,Profile*%
%ADD12C,0.100000*%
%TD*%
%TA.AperFunction,Profile*%
%ADD13C,0.200000*%
%TD*%
%TA.AperFunction,Profile*%
%ADD14C,0.050000*%
%TD*%
G04 APERTURE END LIST*
D10*
X169581566Y-65007210D02*
X169559764Y-65202499D01*
X150492756Y-107367543D02*
X150500000Y-107500000D01*
X117704116Y-63463005D02*
X117833216Y-63421100D01*
X79388810Y-100858691D02*
X79381566Y-100726234D01*
X169558428Y-89975154D02*
X169565673Y-90107611D01*
D11*
X96009424Y-43761729D02*
X95912841Y-43798753D01*
X95821746Y-43847622D01*
X95735693Y-43908485D01*
X95719049Y-43922110D01*
D12*
X76350004Y-48480625D02*
X76350004Y-47099375D01*
X115450004Y-41336875D02*
X133500004Y-41336875D01*
X172294099Y-125698172D02*
X171250000Y-125700000D01*
D13*
X174615674Y-84057605D02*
X174615674Y-71057605D01*
D10*
X131416524Y-63652297D02*
X131458429Y-63781398D01*
X93076855Y-87248036D02*
X93222043Y-87328226D01*
X174622919Y-84190062D02*
X174615674Y-84057605D01*
X169065673Y-89607611D02*
X169260962Y-89629413D01*
X155933221Y-70564854D02*
X156065678Y-70557609D01*
X79526246Y-82074883D02*
X79415874Y-81938433D01*
D13*
X112431566Y-47243410D02*
X112431566Y-60243410D01*
D10*
X112369288Y-66028071D02*
X112411193Y-66157171D01*
X155630716Y-65268767D02*
X155588810Y-65139667D01*
X136820382Y-98823307D02*
X136675195Y-98743117D01*
X136633558Y-46904389D02*
X136770008Y-46794017D01*
X155886276Y-65485408D02*
X155741088Y-65405217D01*
D13*
X169075000Y-122686875D02*
X156075006Y-122686875D01*
D10*
X85932866Y-110541786D02*
X85913793Y-110346211D01*
X93344922Y-81872166D02*
X93264731Y-82017353D01*
D12*
X103050002Y-43718125D02*
X114450004Y-43718125D01*
D10*
X136537474Y-85149819D02*
X136617665Y-85004632D01*
X130965674Y-82463855D02*
X131160963Y-82485657D01*
X188513680Y-103448086D02*
X188377230Y-103558459D01*
X174920383Y-103585807D02*
X174775195Y-103505616D01*
D13*
X117465674Y-76913855D02*
X117465674Y-63913855D01*
D10*
X131243123Y-58314445D02*
X131114023Y-58356351D01*
X112256212Y-84947096D02*
X112366585Y-85083546D01*
D13*
X188115673Y-103607609D02*
X175115678Y-103607609D01*
D10*
X150531566Y-60244867D02*
X150509764Y-60440157D01*
X98517727Y-85004626D02*
X98654177Y-84894253D01*
X188310969Y-51529230D02*
X188456157Y-51609420D01*
X169565678Y-84057609D02*
X169543877Y-84252899D01*
D13*
X112415735Y-85345103D02*
X112415735Y-98345103D01*
D10*
X63252171Y-114424345D02*
X63193048Y-114236948D01*
D11*
X58300004Y-48480625D02*
X58195484Y-48481595D01*
X58086867Y-48488385D01*
X57986762Y-48504013D01*
X57909424Y-48524229D01*
D10*
X131443872Y-77109145D02*
X131363681Y-77254333D01*
X150277232Y-79745955D02*
X150148132Y-79787861D01*
X130965674Y-63413855D02*
X131160964Y-63435657D01*
D12*
X77350004Y-46099375D02*
X95400004Y-46099375D01*
D10*
X108308277Y-106283479D02*
X108440735Y-106276234D01*
X79881566Y-63127871D02*
X79686276Y-63106069D01*
X136754116Y-65844255D02*
X136883217Y-65802350D01*
D11*
X191040583Y-106587021D02*
X191137166Y-106549996D01*
X191228261Y-106501127D01*
X191314314Y-106440264D01*
X191330959Y-106426640D01*
D10*
X174854121Y-51556578D02*
X174983222Y-51514673D01*
D13*
X97000004Y-103749375D02*
G75*
G02*
X94800004Y-103749375I-1100000J0D01*
G01*
X94800004Y-103749375D02*
G75*
G02*
X97000004Y-103749375I1100000J0D01*
G01*
D10*
X79403368Y-87530944D02*
X79483558Y-87385757D01*
X81179848Y-121243198D02*
X81061663Y-121303445D01*
X69174563Y-126566226D02*
X68987165Y-126625350D01*
X137015674Y-79795105D02*
X136820384Y-79773303D01*
D13*
X136531566Y-60244867D02*
X136531566Y-47244867D01*
D10*
X169406146Y-70659592D02*
X169516519Y-70796042D01*
D13*
X188615674Y-71057604D02*
X188615674Y-84057605D01*
D10*
X169214023Y-65499965D02*
X169081566Y-65507210D01*
X98736276Y-60721608D02*
X98591088Y-60641418D01*
X93332416Y-87464676D02*
X93374321Y-87593777D01*
X150210962Y-84866911D02*
X150356150Y-84947102D01*
X130981566Y-44363595D02*
X131176855Y-44385397D01*
D13*
X117981566Y-44363595D02*
X130981566Y-44363595D01*
D12*
X149525000Y-124000000D02*
X102475000Y-124000000D01*
D10*
X150356150Y-84947102D02*
X150466522Y-85083551D01*
X156081566Y-65507210D02*
X155886276Y-65485408D01*
D13*
X111931566Y-60743410D02*
X98931566Y-60743410D01*
D10*
X155820008Y-51556360D02*
X155949108Y-51514454D01*
X98431566Y-47243410D02*
X98453368Y-47048120D01*
D13*
X137000006Y-107000000D02*
X149999998Y-106999992D01*
D10*
X93014023Y-101218989D02*
X92881566Y-101226234D01*
X131306151Y-82565847D02*
X131416523Y-82702297D01*
X99037341Y-107259602D02*
X99232916Y-107240528D01*
X169567756Y-109054418D02*
X169575000Y-109186875D01*
X117833217Y-82471100D02*
X117965674Y-82463855D01*
X112415735Y-98345103D02*
X112393933Y-98540393D01*
X98575257Y-98743111D02*
X98464885Y-98606661D01*
X136883215Y-84852354D02*
X137015672Y-84845109D01*
D12*
X96400004Y-43718125D02*
X103050002Y-43718125D01*
D10*
X136538810Y-60377324D02*
X136531566Y-60244867D01*
D11*
X190650004Y-106630625D02*
X190754522Y-106629654D01*
X190863140Y-106622864D01*
X190963244Y-106607236D01*
X191040583Y-106587021D01*
D10*
X99391553Y-107288946D02*
X99527767Y-107399609D01*
X188248130Y-103600364D02*
X188115673Y-103607609D01*
D12*
X95400004Y-46099375D02*
X95400004Y-44718125D01*
D11*
X57398304Y-48961875D02*
X57353731Y-49060870D01*
X57324187Y-49163697D01*
X57314493Y-49215710D01*
D13*
X173200002Y-87080625D02*
G75*
G02*
X171000002Y-87080625I-1100000J0D01*
G01*
X171000002Y-87080625D02*
G75*
G02*
X173200002Y-87080625I1100000J0D01*
G01*
D10*
X121636025Y-106298036D02*
X121781212Y-106378226D01*
X79541088Y-101124242D02*
X79430716Y-100987792D01*
X136675195Y-98743117D02*
X136564822Y-98606667D01*
X169343123Y-65458060D02*
X169214023Y-65499965D01*
X117487476Y-63718565D02*
X117567666Y-63573378D01*
X121933490Y-106643777D02*
X121940735Y-106776234D01*
D12*
X153550004Y-44718125D02*
X153550004Y-48480624D01*
D11*
X69779482Y-134801336D02*
X69877213Y-134770044D01*
X69976221Y-134729913D01*
X70027584Y-134707339D01*
D10*
X131306151Y-63515848D02*
X131416524Y-63652297D01*
X98425682Y-79422086D02*
X98418438Y-79289628D01*
D12*
X57343635Y-108522088D02*
X76543635Y-100032088D01*
D13*
X137015674Y-65795105D02*
X150015674Y-65795105D01*
D10*
X79483558Y-49287394D02*
X79620008Y-49177021D01*
D13*
X112418438Y-66289628D02*
X112418438Y-79289628D01*
X155581566Y-65007210D02*
X155581566Y-52007210D01*
D10*
X93317574Y-68415318D02*
X93359479Y-68544418D01*
X131160963Y-82485657D02*
X131306151Y-82565847D01*
D11*
X76448304Y-46576260D02*
X76406747Y-46670236D01*
X76377674Y-46766993D01*
X76364493Y-46834460D01*
D10*
X112366585Y-85083546D02*
X112408490Y-85212646D01*
X86190511Y-109983651D02*
X86318604Y-109949159D01*
X112179996Y-79740478D02*
X112050895Y-79782384D01*
X88656915Y-123388616D02*
X88622424Y-123260523D01*
X107947979Y-119908691D02*
X107940735Y-119776234D01*
X117981566Y-58363595D02*
X117786276Y-58341793D01*
D13*
X156065678Y-89607609D02*
X169065673Y-89607611D01*
D10*
X169532416Y-51745652D02*
X169574321Y-51874752D01*
X93076855Y-49149673D02*
X93222043Y-49229864D01*
X188608428Y-89975151D02*
X188615673Y-90107609D01*
X174664824Y-84319162D02*
X174622919Y-84190062D01*
D13*
X79381566Y-100726234D02*
X79381566Y-87726234D01*
D10*
X188566523Y-70796046D02*
X188608429Y-70925146D01*
D11*
X57314493Y-49215710D02*
X57303541Y-49317742D01*
X57300155Y-49424521D01*
X57300004Y-49480625D01*
D10*
X131458429Y-82831397D02*
X131465674Y-82963855D01*
X174854116Y-70606755D02*
X174983217Y-70564849D01*
X112313742Y-98685581D02*
X112177292Y-98795953D01*
D12*
X153550004Y-48480624D02*
X190650002Y-48480617D01*
D11*
X76959424Y-46142979D02*
X76862841Y-46180003D01*
X76771746Y-46228872D01*
X76685693Y-46289735D01*
X76669049Y-46303360D01*
D10*
X112193123Y-60694260D02*
X112064023Y-60736166D01*
D13*
X93366724Y-68676876D02*
X93366724Y-81676876D01*
D10*
X188377237Y-65458278D02*
X188248137Y-65500183D01*
D13*
X136500006Y-120500000D02*
X136500006Y-107500000D01*
D10*
X117625197Y-96361863D02*
X117514824Y-96225413D01*
X136500000Y-107500000D02*
X136521802Y-107304710D01*
X131098132Y-96456611D02*
X130965674Y-96463855D01*
X131432416Y-44602038D02*
X131474321Y-44731138D01*
X117530716Y-58125153D02*
X117488810Y-57996053D01*
D13*
X137015678Y-84845109D02*
X150015670Y-84845101D01*
D14*
X134335185Y-118638595D02*
G75*
G02*
X134133319Y-118838792I-201885J1695D01*
G01*
D13*
X169581566Y-52007210D02*
X169581566Y-65007210D01*
D10*
X79415874Y-81938433D02*
X79373968Y-81809333D01*
D11*
X190914917Y-48495106D02*
X190812884Y-48484154D01*
X190706105Y-48480768D01*
X190650002Y-48480617D01*
X114548304Y-41813760D02*
X114506747Y-41907736D01*
X114477674Y-42004493D01*
X114464493Y-42071960D01*
D10*
X117514824Y-96225413D02*
X117472919Y-96096313D01*
X136522919Y-79427563D02*
X136515674Y-79295105D01*
D14*
X123948127Y-118636877D02*
X123948134Y-117160155D01*
D10*
X79388810Y-62760329D02*
X79381566Y-62627871D01*
D13*
X98915735Y-84845103D02*
X111915735Y-84845103D01*
D10*
X93143123Y-63078721D02*
X93014023Y-63120627D01*
X150000000Y-107000000D02*
X150195290Y-107021802D01*
X81280931Y-121152617D02*
X81179848Y-121243198D01*
X131481566Y-57863595D02*
X131459764Y-58058885D01*
D13*
X136515674Y-79295105D02*
X136515674Y-66295105D01*
D10*
X136691088Y-60642874D02*
X136580716Y-60506424D01*
X98422979Y-98477561D02*
X98415735Y-98345103D01*
X169543871Y-103302901D02*
X169463680Y-103448089D01*
D11*
X115450004Y-41336875D02*
X115345484Y-41337845D01*
X115236867Y-41344635D01*
X115136762Y-41360263D01*
X115059424Y-41380479D01*
D10*
X188608435Y-51874971D02*
X188615679Y-52007428D01*
X136675197Y-79693113D02*
X136564824Y-79556663D01*
D13*
X121440735Y-120276234D02*
X108440735Y-120276234D01*
D10*
X117583558Y-44523118D02*
X117720008Y-44412745D01*
X93264731Y-82017353D02*
X93128281Y-82127726D01*
D11*
X68906352Y-134537266D02*
X68979306Y-134610592D01*
X69060869Y-134674105D01*
X69151358Y-134728152D01*
X69170555Y-134737856D01*
D13*
X188115679Y-65507428D02*
X175115679Y-65507428D01*
D10*
X93359479Y-68544418D02*
X93366724Y-68676876D01*
X117465674Y-63913855D02*
X117487476Y-63718565D01*
X169516522Y-89846054D02*
X169558428Y-89975154D01*
X93359764Y-62823161D02*
X93279573Y-62968349D01*
X131098131Y-77406611D02*
X130965674Y-77413855D01*
X112431566Y-60243410D02*
X112409764Y-60438700D01*
X63287684Y-113915563D02*
X63388767Y-113824982D01*
X188115673Y-89607609D02*
X188310963Y-89629411D01*
X75394052Y-108501954D02*
X75581450Y-108442830D01*
X93207201Y-68278868D02*
X93317574Y-68415318D01*
X98480716Y-60504968D02*
X98438810Y-60375868D01*
D11*
X115059424Y-41380479D02*
X114962841Y-41417503D01*
X114871746Y-41466372D01*
X114785693Y-41527235D01*
X114769049Y-41540860D01*
D10*
X155933215Y-89614856D02*
X156065673Y-89607611D01*
D13*
X98415735Y-98345103D02*
X98415735Y-85345103D01*
D10*
X93374321Y-49495414D02*
X93381566Y-49627871D01*
D12*
X171250000Y-125700000D02*
X153200000Y-125700000D01*
D10*
X188566529Y-51745870D02*
X188608435Y-51874971D01*
D11*
X76364493Y-46834460D02*
X76353541Y-46936492D01*
X76350155Y-47043271D01*
X76350004Y-47099375D01*
D10*
X117720008Y-44412745D02*
X117849108Y-44370840D01*
X155667671Y-70717132D02*
X155804121Y-70606759D01*
X150398008Y-120840478D02*
X150261558Y-120950850D01*
X174637476Y-70862315D02*
X174717667Y-70717127D01*
D13*
X97000002Y-64458750D02*
G75*
G02*
X94800002Y-64458750I-1100000J0D01*
G01*
X94800002Y-64458750D02*
G75*
G02*
X97000002Y-64458750I1100000J0D01*
G01*
X131465674Y-82963855D02*
X131465674Y-95963855D01*
X150531566Y-47244867D02*
X150531566Y-60244867D01*
D10*
X169516519Y-70796042D02*
X169558425Y-70925142D01*
X112272043Y-46845403D02*
X112382416Y-46981852D01*
X79686276Y-63106069D02*
X79541088Y-63025879D01*
X188115679Y-51507428D02*
X188310969Y-51529230D01*
D11*
X76669049Y-46303360D02*
X76593698Y-46374007D01*
X76522567Y-46458107D01*
X76465399Y-46544991D01*
X76448304Y-46576260D01*
D13*
X117965674Y-82463855D02*
X130965674Y-82463855D01*
D10*
X169565673Y-103107611D02*
X169543871Y-103302901D01*
D11*
X68708363Y-134197775D02*
X68751562Y-134292953D01*
X68801743Y-134389523D01*
X68856558Y-134474732D01*
X68906352Y-134537266D01*
D10*
X117770384Y-96442053D02*
X117625197Y-96361863D01*
X155565673Y-90107611D02*
X155587475Y-89912321D01*
X98670008Y-46792560D02*
X98799108Y-46750655D01*
D13*
X98931566Y-46743410D02*
X111931566Y-46743410D01*
D10*
X102179518Y-120854503D02*
X102061880Y-120922211D01*
D13*
X79881566Y-87226234D02*
X92881566Y-87226234D01*
D14*
X57500000Y-67779999D02*
G75*
G02*
X57305396Y-67510000I90000J269999D01*
G01*
D10*
X188593877Y-65202718D02*
X188513687Y-65347905D01*
X98785980Y-65796873D02*
X98918438Y-65789628D01*
X155614829Y-84319167D02*
X155572923Y-84190067D01*
X107940735Y-106776234D02*
X107962537Y-106580944D01*
X79381566Y-49627871D02*
X79403368Y-49432581D01*
X136770008Y-46794017D02*
X136899108Y-46752111D01*
X112050895Y-79782384D02*
X111918438Y-79789628D01*
D11*
X191446017Y-48799662D02*
X191375369Y-48724311D01*
X191291269Y-48653180D01*
X191204386Y-48596012D01*
X191173118Y-48578917D01*
D10*
X150466523Y-66033547D02*
X150508429Y-66162647D01*
D13*
X169065678Y-103607609D02*
X156065678Y-103607609D01*
D10*
X150450850Y-107238442D02*
X150492756Y-107367543D01*
D13*
X68514952Y-126311445D02*
X63252171Y-114424345D01*
D10*
X117641088Y-58261603D02*
X117530716Y-58125153D01*
X150277230Y-98795959D02*
X150148130Y-98837865D01*
X108179177Y-106325384D02*
X108308277Y-106283479D01*
X117481566Y-44863595D02*
X117503368Y-44668306D01*
X117704116Y-82513005D02*
X117833217Y-82471100D01*
X117567666Y-63573378D02*
X117704116Y-63463005D01*
X93359764Y-100921524D02*
X93279573Y-101066711D01*
D11*
X191551704Y-106153740D02*
X191593260Y-106059763D01*
X191622333Y-105963006D01*
X191635515Y-105895540D01*
D10*
X150261558Y-120950850D02*
X150132458Y-120992756D01*
X169525850Y-108925317D02*
X169567756Y-109054418D01*
D11*
X134456400Y-41946295D02*
X134419375Y-41849712D01*
X134370506Y-41758617D01*
X134309643Y-41672564D01*
X134296019Y-41655920D01*
D13*
X79881566Y-49127871D02*
X92881566Y-49127871D01*
D10*
X188377230Y-103558459D02*
X188248130Y-103600364D01*
X98918438Y-79789628D02*
X98723148Y-79767826D01*
X93222043Y-87328226D02*
X93332416Y-87464676D01*
X79381566Y-87726234D02*
X79403368Y-87530944D01*
X79483558Y-87385757D02*
X79620008Y-87275384D01*
X155596802Y-108991585D02*
X155676993Y-108846398D01*
X79866724Y-82176876D02*
X79671434Y-82155074D01*
X92866724Y-68176876D02*
X93062013Y-68198678D01*
D11*
X153073119Y-43816425D02*
X152979142Y-43774868D01*
X152882385Y-43745795D01*
X152814919Y-43732614D01*
D10*
X136553368Y-47049577D02*
X136633558Y-46904389D01*
X155572923Y-84190067D02*
X155565679Y-84057610D01*
X188456157Y-51609420D02*
X188566529Y-51745870D01*
X169075000Y-108686875D02*
X169270290Y-108708677D01*
X155870389Y-84535808D02*
X155725201Y-84455617D01*
X136738442Y-107049150D02*
X136867543Y-107007245D01*
X150148130Y-98837865D02*
X150015672Y-98845109D01*
X98783277Y-84852348D02*
X98915735Y-84845103D01*
X169543877Y-84252899D02*
X169463686Y-84398087D01*
X98799108Y-46750655D02*
X98931566Y-46743410D01*
X169559764Y-65202499D02*
X169479573Y-65347687D01*
X112048192Y-98837859D02*
X111915735Y-98845103D01*
D11*
X114464493Y-42071960D02*
X114453541Y-42173992D01*
X114450155Y-42280771D01*
X114450004Y-42336875D01*
D10*
X92999181Y-82169631D02*
X92866724Y-82176876D01*
D13*
X92866724Y-82176876D02*
X79866724Y-82176876D01*
D12*
X153200000Y-125700000D02*
X149525000Y-124000000D01*
D10*
X131227232Y-77364705D02*
X131098131Y-77406611D01*
D11*
X96400004Y-43718125D02*
X96295484Y-43719095D01*
X96186867Y-43725885D01*
X96086762Y-43741513D01*
X96009424Y-43761729D01*
X191635515Y-105895540D02*
X191646466Y-105793507D01*
X191649852Y-105686728D01*
X191650004Y-105630625D01*
D10*
X93374321Y-87593777D02*
X93381566Y-87726234D01*
X150132458Y-120992756D02*
X150000000Y-121000000D01*
X175115673Y-103607609D02*
X174920383Y-103585807D01*
X112393933Y-98540393D02*
X112313742Y-98685581D01*
D13*
X174615679Y-65007428D02*
X174615679Y-52007428D01*
D10*
X155725195Y-103505619D02*
X155614823Y-103369169D01*
X98438810Y-60375868D02*
X98431566Y-60243410D01*
X169558425Y-70925142D02*
X169565669Y-71057600D01*
X93279573Y-101066711D02*
X93143123Y-101177084D01*
X156075000Y-122686875D02*
X155879710Y-122665073D01*
X155870383Y-103585809D02*
X155725195Y-103505619D01*
X79734266Y-68184120D02*
X79866724Y-68176876D01*
X117625196Y-77311863D02*
X117514824Y-77175413D01*
X169553198Y-122382165D02*
X169473008Y-122527353D01*
X88860838Y-123616916D02*
X88724624Y-123506253D01*
X136522917Y-98477567D02*
X136515672Y-98345109D01*
X79686276Y-101204432D02*
X79541088Y-101124242D01*
X155725201Y-84455617D02*
X155614829Y-84319167D01*
X112316445Y-79630106D02*
X112179996Y-79740478D01*
X63388767Y-113824982D02*
X63506953Y-113764735D01*
X131363682Y-96304333D02*
X131227232Y-96414705D01*
D11*
X57909424Y-48524229D02*
X57812841Y-48561253D01*
X57721746Y-48610122D01*
X57635693Y-48670985D01*
X57619049Y-48684610D01*
D10*
X98591088Y-60641418D02*
X98480716Y-60504968D01*
D13*
X79381566Y-62627871D02*
X79381566Y-49627871D01*
D12*
X191650002Y-49480617D02*
X191650004Y-105630625D01*
D10*
X188513687Y-65347905D02*
X188377237Y-65458278D01*
X98720445Y-98823301D02*
X98575257Y-98743111D01*
X79749108Y-49135116D02*
X79881566Y-49127871D01*
X121440735Y-106276234D02*
X121636025Y-106298036D01*
X169574321Y-51874752D02*
X169581566Y-52007210D01*
X79620008Y-87275384D02*
X79749108Y-87233479D01*
X131363681Y-77254333D02*
X131227232Y-77364705D01*
X79403368Y-49432581D02*
X79483558Y-49287394D01*
X117567667Y-82623378D02*
X117704116Y-82513005D01*
X174920384Y-84535803D02*
X174775197Y-84455612D01*
D13*
X117965674Y-63413855D02*
X130965674Y-63413855D01*
D10*
X79373968Y-81809333D02*
X79366724Y-81676876D01*
D12*
X76543635Y-67782088D02*
X57500000Y-67779999D01*
D10*
X107962537Y-106580944D02*
X108042727Y-106435757D01*
D14*
X124150000Y-116960000D02*
X134135037Y-116960007D01*
D13*
X111918438Y-79789628D02*
X98918438Y-79789628D01*
D12*
X57300004Y-49480625D02*
X57310000Y-60380000D01*
D10*
X188248132Y-84550360D02*
X188115674Y-84557605D01*
X117849108Y-44370840D02*
X117981566Y-44363595D01*
D11*
X134023119Y-41435175D02*
X133929142Y-41393618D01*
X133832385Y-41364545D01*
X133764919Y-41351364D01*
D10*
X98577960Y-79687636D02*
X98467588Y-79551186D01*
X63207597Y-114071726D02*
X63287684Y-113915563D01*
X117488810Y-57996053D02*
X117481566Y-57863595D01*
D13*
X107940735Y-119776234D02*
X107940735Y-106776234D01*
X137031566Y-46744867D02*
X150031566Y-46744867D01*
X98418438Y-79289628D02*
X98418438Y-66289628D01*
D10*
X188615674Y-84057605D02*
X188593872Y-84252894D01*
D13*
X150515674Y-66295105D02*
X150515674Y-79295105D01*
D10*
X155949108Y-51514454D02*
X156081566Y-51507210D01*
D13*
X169565669Y-71057600D02*
X169565678Y-84057609D01*
D10*
X68821944Y-126610801D02*
X68665781Y-126530714D01*
X150164023Y-60737622D02*
X150031566Y-60744867D01*
X68665781Y-126530714D02*
X68575199Y-126429630D01*
X79671434Y-82155074D02*
X79526246Y-82074883D01*
X136531566Y-47244867D02*
X136553368Y-47049577D01*
D13*
X155565679Y-84057610D02*
X155565679Y-71057609D01*
X99629968Y-107645339D02*
X102319525Y-120364077D01*
X150031566Y-60744867D02*
X137031566Y-60744867D01*
D10*
X98440240Y-66094339D02*
X98520430Y-65949151D01*
D11*
X191650002Y-49480617D02*
X191649031Y-49376098D01*
X191642241Y-49267480D01*
X191626613Y-49167376D01*
X191606398Y-49090038D01*
X57619049Y-48684610D02*
X57543698Y-48755257D01*
X57472567Y-48839357D01*
X57415399Y-48926241D01*
X57398304Y-48957510D01*
D13*
X130965674Y-77413855D02*
X117965674Y-77413855D01*
D10*
X169327230Y-103558461D02*
X169198130Y-103600367D01*
D13*
X131465674Y-63913855D02*
X131465674Y-76913855D01*
D10*
X117965674Y-96463855D02*
X117770384Y-96442053D01*
X175115674Y-84557605D02*
X174920384Y-84535803D01*
X117503368Y-44668306D02*
X117583558Y-44523118D01*
X150031566Y-46744867D02*
X150226855Y-46766669D01*
D13*
X98918438Y-65789628D02*
X111918438Y-65789628D01*
D10*
X137000000Y-121000000D02*
X136804710Y-120978198D01*
D12*
X179152296Y-106942240D02*
X172745970Y-125409733D01*
D10*
X150413680Y-98685587D02*
X150277230Y-98795959D01*
X136754114Y-84894259D02*
X136883215Y-84852354D01*
X131458429Y-63781398D02*
X131465674Y-63913855D01*
D13*
X136515678Y-98345109D02*
X136515678Y-85345109D01*
D10*
X169463686Y-84398087D02*
X169327236Y-84508459D01*
D13*
X169565673Y-90107611D02*
X169565678Y-103107609D01*
D10*
X102290181Y-120718289D02*
X102179518Y-120854503D01*
X93143123Y-101177084D02*
X93014023Y-101218989D01*
X108440735Y-120276234D02*
X108245445Y-120254432D01*
X174664823Y-103369166D02*
X174622917Y-103240066D01*
X188248137Y-65500183D02*
X188115679Y-65507428D01*
X150148132Y-79787861D02*
X150015674Y-79795105D01*
X75993416Y-108638550D02*
X76053663Y-108756735D01*
D13*
X155575006Y-122186875D02*
X155575006Y-109186875D01*
D10*
X150372043Y-46846859D02*
X150482416Y-46983309D01*
X98437537Y-85149814D02*
X98517727Y-85004626D01*
X121891585Y-106514676D02*
X121933490Y-106643777D01*
X155813442Y-108736025D02*
X155942543Y-108694120D01*
X169463680Y-103448089D02*
X169327230Y-103558461D01*
X150340478Y-107101993D02*
X150450850Y-107238442D01*
X188115673Y-70557604D02*
X188310963Y-70579406D01*
X150493872Y-79490395D02*
X150413682Y-79635583D01*
X155603368Y-51811920D02*
X155683558Y-51666732D01*
X169415478Y-108788868D02*
X169525850Y-108925317D01*
X150482416Y-46983309D02*
X150524321Y-47112409D01*
X88724624Y-123506253D02*
X88656915Y-123388616D01*
X75581450Y-108442830D02*
X75746672Y-108457379D01*
X150515672Y-98345109D02*
X150493870Y-98540399D01*
D11*
X95414493Y-44453210D02*
X95403541Y-44555242D01*
X95400155Y-44662021D01*
X95400004Y-44718125D01*
D10*
X155804121Y-70606759D02*
X155933221Y-70564854D01*
D13*
X121940735Y-106776234D02*
X121940735Y-119776234D01*
D10*
X188310963Y-70579406D02*
X188456151Y-70659596D01*
X136564822Y-98606667D02*
X136522917Y-98477567D01*
X131379573Y-58204073D02*
X131243123Y-58314445D01*
X98520430Y-65949151D02*
X98656880Y-65838778D01*
X81316444Y-120643835D02*
X81375567Y-120831232D01*
X79620008Y-49177021D02*
X79749108Y-49135116D01*
X188456151Y-70659596D02*
X188566523Y-70796046D01*
X155565679Y-71057609D02*
X155587481Y-70862319D01*
X93381566Y-62627871D02*
X93359764Y-62823161D01*
X79366724Y-68676876D02*
X79388526Y-68481586D01*
X79468716Y-68336398D02*
X79605166Y-68226026D01*
X150210963Y-65816907D02*
X150356151Y-65897097D01*
X89215050Y-123646261D02*
X89019475Y-123665334D01*
X174615674Y-71057605D02*
X174637476Y-70862315D01*
D13*
X175115679Y-51507428D02*
X188115679Y-51507428D01*
D11*
X153550004Y-44718125D02*
X153549033Y-44613605D01*
X153542243Y-44504988D01*
X153526615Y-44404883D01*
X153506400Y-44327545D01*
D10*
X150356151Y-65897097D02*
X150466523Y-66033547D01*
X150015674Y-65795105D02*
X150210963Y-65816907D01*
X131322043Y-44465588D02*
X131432416Y-44602038D01*
D11*
X191330959Y-106426640D02*
X191406309Y-106355992D01*
X191477440Y-106271892D01*
X191534608Y-106185008D01*
X191551704Y-106153740D01*
D10*
X63193048Y-114236948D02*
X63207597Y-114071726D01*
X112126855Y-46765212D02*
X112272043Y-46845403D01*
X155572917Y-103240069D02*
X155565673Y-103107611D01*
X136899108Y-46752111D02*
X137031566Y-46744867D01*
X112411193Y-66157171D02*
X112418438Y-66289628D01*
D11*
X77350004Y-46099375D02*
X77245484Y-46100345D01*
X77136867Y-46107135D01*
X77036762Y-46122763D01*
X76959424Y-46142979D01*
D12*
X76543635Y-100032088D02*
X76543635Y-67782088D01*
D10*
X68575199Y-126429630D02*
X68514952Y-126311445D01*
X175115679Y-65507428D02*
X174920389Y-65485626D01*
X174854115Y-89656759D02*
X174983215Y-89614853D01*
X136507245Y-120632458D02*
X136500000Y-120500000D01*
X188566523Y-89846051D02*
X188608428Y-89975151D01*
X93332416Y-49366314D02*
X93374321Y-49495414D01*
X136537476Y-66099816D02*
X136617667Y-65954628D01*
X131176855Y-44385397D02*
X131322043Y-44465588D01*
X169065669Y-70557600D02*
X169260959Y-70579402D01*
X155942543Y-108694120D02*
X156075000Y-108686875D01*
X131459764Y-58058885D02*
X131379573Y-58204073D01*
D11*
X191173118Y-48578917D02*
X191079140Y-48537360D01*
X190982383Y-48508287D01*
X190914917Y-48495106D01*
D10*
X188608429Y-70925146D02*
X188615674Y-71057604D01*
X102061880Y-120922211D02*
X101933788Y-120956703D01*
X174775195Y-103505616D02*
X174664823Y-103369166D01*
X169336558Y-122637725D02*
X169207458Y-122679631D01*
X89019475Y-123665334D02*
X88860838Y-123616916D01*
X150500000Y-120500000D02*
X150478198Y-120695290D01*
X92881566Y-49127871D02*
X93076855Y-49149673D01*
X155683558Y-51666732D02*
X155820008Y-51556360D01*
D13*
X93381566Y-87726234D02*
X93381566Y-100726234D01*
D14*
X123948134Y-117160155D02*
G75*
G02*
X124150000Y-116960026I201866J-1745D01*
G01*
D10*
X112113728Y-65811430D02*
X112258915Y-65891621D01*
X174983215Y-89614853D02*
X175115673Y-89607609D01*
X79749108Y-87233479D02*
X79881566Y-87226234D01*
X85962211Y-110187574D02*
X86072873Y-110051359D01*
X150293123Y-60695717D02*
X150164023Y-60737622D01*
X75902834Y-108537466D02*
X75993416Y-108638550D01*
X174622924Y-65139885D02*
X174615679Y-65007428D01*
X117465674Y-82963855D02*
X117487476Y-82768566D01*
X98931566Y-60743410D02*
X98736276Y-60721608D01*
D12*
X134500004Y-43718125D02*
X141150000Y-43718125D01*
D10*
X93062013Y-68198678D02*
X93207201Y-68278868D01*
X150515674Y-79295105D02*
X150493872Y-79490395D01*
X136564824Y-79556663D02*
X136522919Y-79427563D01*
X85913793Y-110346211D02*
X85962211Y-110187574D01*
D13*
X175115674Y-70557605D02*
X188115673Y-70557604D01*
D10*
X79430716Y-100987792D02*
X79388810Y-100858691D01*
X121940735Y-119776234D02*
X121918933Y-119971524D01*
X121838742Y-120116711D02*
X121702292Y-120227084D01*
D13*
X79366724Y-81676876D02*
X79366724Y-68676876D01*
X79866724Y-68176876D02*
X92866724Y-68176876D01*
D10*
X136867543Y-107007245D02*
X137000000Y-107000000D01*
D12*
X60705002Y-48480625D02*
X76350004Y-48480625D01*
D10*
X131227232Y-96414705D02*
X131098132Y-96456611D01*
X131443872Y-96159145D02*
X131363682Y-96304333D01*
X174717672Y-51666951D02*
X174854121Y-51556578D01*
X117514824Y-77175413D02*
X117472918Y-77046313D01*
X98533558Y-46902933D02*
X98670008Y-46792560D01*
X169081566Y-51507210D02*
X169276855Y-51529012D01*
X112396636Y-79484918D02*
X112316445Y-79630106D01*
X121573192Y-120268989D02*
X121440735Y-120276234D01*
D13*
X111915735Y-98845103D02*
X98915735Y-98845103D01*
D10*
X93381566Y-100726234D02*
X93359764Y-100921524D01*
D13*
X117465674Y-95963855D02*
X117465674Y-82963855D01*
D10*
X112409764Y-60438700D02*
X112329573Y-60583888D01*
X137031566Y-60744867D02*
X136836276Y-60723065D01*
D13*
X150515670Y-85345101D02*
X150515678Y-98345109D01*
D10*
X136580716Y-60506424D02*
X136538810Y-60377324D01*
X112329573Y-60583888D02*
X112193123Y-60694260D01*
D12*
X114450004Y-43718125D02*
X114450004Y-42336875D01*
D10*
X98467588Y-79551186D02*
X98425682Y-79422086D01*
X117472919Y-96096313D02*
X117465674Y-95963855D01*
X174983217Y-70564849D02*
X175115674Y-70557605D01*
X121781212Y-106378226D02*
X121891585Y-106514676D01*
D13*
X98431566Y-60243410D02*
X98431566Y-47243410D01*
D10*
X155879710Y-122665073D02*
X155734523Y-122584883D01*
D13*
X150015672Y-98845109D02*
X137015678Y-98845109D01*
D10*
X150509764Y-60440157D02*
X150429573Y-60585344D01*
X169198130Y-103600367D02*
X169065673Y-103607611D01*
X136601993Y-107159523D02*
X136738442Y-107049150D01*
X155676993Y-108846398D02*
X155813442Y-108736025D01*
X150478198Y-120695290D02*
X150398008Y-120840478D01*
X155588810Y-65139667D02*
X155581566Y-65007210D01*
X136515672Y-85345109D02*
X136537474Y-85149819D01*
X99527767Y-107399609D02*
X99595476Y-107517246D01*
D13*
X156075006Y-108686875D02*
X169074998Y-108686867D01*
D10*
X188593871Y-103302898D02*
X188513680Y-103448086D01*
X137015672Y-98845109D02*
X136820382Y-98823307D01*
X169198136Y-84550365D02*
X169065678Y-84557610D01*
D13*
X130981566Y-58363595D02*
X117981566Y-58363595D01*
X150000000Y-121000000D02*
X137000006Y-121000000D01*
D11*
X133764919Y-41351364D02*
X133662886Y-41340412D01*
X133556107Y-41337026D01*
X133500004Y-41336875D01*
D10*
X112382416Y-46981852D02*
X112424321Y-47110953D01*
D14*
X134135037Y-116960007D02*
G75*
G02*
X134335200Y-117161873I-1737J-201893D01*
G01*
D10*
X155587475Y-89912321D02*
X155667665Y-89767134D01*
D13*
X131481566Y-44863595D02*
X131481566Y-57863595D01*
D10*
X131474321Y-44731138D02*
X131481566Y-44863595D01*
X98453368Y-47048120D02*
X98533558Y-46902933D01*
X188377232Y-84508455D02*
X188248132Y-84550360D01*
D11*
X69509457Y-134829226D02*
X69612212Y-134829181D01*
X69712455Y-134816595D01*
X69779482Y-134801336D01*
D10*
X155575000Y-109186875D02*
X155596802Y-108991585D01*
X174717665Y-89767131D02*
X174854115Y-89656759D01*
X155614823Y-103369169D02*
X155572917Y-103240069D01*
X169260959Y-70579402D02*
X169406146Y-70659592D01*
X111918438Y-65789628D02*
X112113728Y-65811430D01*
X150413682Y-79635583D02*
X150277232Y-79745955D01*
X107989885Y-120037792D02*
X107947979Y-119908691D01*
D14*
X134133319Y-118838750D02*
X124148282Y-118838743D01*
D10*
X108042727Y-106435757D02*
X108179177Y-106325384D01*
D13*
X188615670Y-90107601D02*
X188615677Y-103107609D01*
D10*
X136549150Y-120761558D02*
X136507245Y-120632458D01*
D13*
X92881566Y-63127871D02*
X79881566Y-63127871D01*
D10*
X112418438Y-79289628D02*
X112396636Y-79484918D01*
D11*
X95719049Y-43922110D02*
X95643698Y-43992757D01*
X95572567Y-44076857D01*
X95515399Y-44163741D01*
X95498304Y-44195010D01*
D10*
X102319525Y-120364077D02*
X102338598Y-120559652D01*
X136820384Y-79773303D02*
X136675197Y-79693113D01*
D13*
X173200002Y-68030625D02*
G75*
G02*
X171000002Y-68030625I-1100000J0D01*
G01*
X171000002Y-68030625D02*
G75*
G02*
X173200002Y-68030625I1100000J0D01*
G01*
X156081566Y-51507210D02*
X169081566Y-51507210D01*
D10*
X155581566Y-52007210D02*
X155603368Y-51811920D01*
X111931566Y-46743410D02*
X112126855Y-46765212D01*
X188593872Y-84252894D02*
X188513682Y-84398082D01*
X112258915Y-65891621D02*
X112369288Y-66028071D01*
X188615673Y-103107609D02*
X188593871Y-103302898D01*
X150429573Y-60585344D02*
X150293123Y-60695717D01*
X112408490Y-85212646D02*
X112415735Y-85345103D01*
X169276855Y-51529012D02*
X169422043Y-51609202D01*
D11*
X152814919Y-43732614D02*
X152712886Y-43721662D01*
X152606107Y-43718276D01*
X152550004Y-43718125D01*
D10*
X155667665Y-89767134D02*
X155804115Y-89656761D01*
X108100257Y-120174242D02*
X107989885Y-120037792D01*
X121918933Y-119971524D02*
X121838742Y-120116711D01*
D13*
X150015674Y-79795105D02*
X137015674Y-79795105D01*
D10*
X93014023Y-63120627D02*
X92881566Y-63127871D01*
D11*
X153506400Y-44327545D02*
X153469375Y-44230962D01*
X153420506Y-44139867D01*
X153359643Y-44053814D01*
X153346019Y-44037170D01*
D10*
X131465674Y-95963855D02*
X131443872Y-96159145D01*
X79541088Y-63025879D02*
X79430716Y-62889429D01*
X174615679Y-52007428D02*
X174637481Y-51812138D01*
X68987165Y-126625350D02*
X68821944Y-126610801D01*
X188456150Y-89709601D02*
X188566523Y-89846051D01*
X131465674Y-76913855D02*
X131443872Y-77109145D01*
X150524321Y-47112409D02*
X150531566Y-47244867D01*
X131416523Y-82702297D02*
X131458429Y-82831397D01*
D11*
X134296019Y-41655920D02*
X134225371Y-41580569D01*
X134141271Y-41509438D01*
X134054387Y-41452270D01*
X134023119Y-41435175D01*
D13*
X169574998Y-109186867D02*
X169575006Y-122186875D01*
D10*
X93128281Y-82127726D02*
X92999181Y-82169631D01*
X79430716Y-62889429D02*
X79388810Y-62760329D01*
X99595476Y-107517246D02*
X99629968Y-107645339D01*
D13*
X81061663Y-121303445D02*
X69174563Y-126566226D01*
X86318604Y-109949159D02*
X99037341Y-107259602D01*
D10*
X174664829Y-65268986D02*
X174622924Y-65139885D01*
X112424321Y-47110953D02*
X112431566Y-47243410D01*
X98915735Y-98845103D02*
X98720445Y-98823301D01*
D13*
X155565678Y-103107609D02*
X155565678Y-90107609D01*
D10*
X155587481Y-70862319D02*
X155667671Y-70717132D01*
D11*
X114769049Y-41540860D02*
X114693698Y-41611507D01*
X114622567Y-41695607D01*
X114565399Y-41782491D01*
X114548304Y-41813760D01*
D10*
X117833216Y-63421100D02*
X117965674Y-63413855D01*
D11*
X95498304Y-44195010D02*
X95456747Y-44288986D01*
X95427674Y-44385743D01*
X95414493Y-44453210D01*
D13*
X169081566Y-65507210D02*
X156081566Y-65507210D01*
D12*
X179625000Y-106630625D02*
X190650004Y-106630625D01*
D10*
X86072873Y-110051359D02*
X86190511Y-109983651D01*
X174775197Y-84455612D02*
X174664824Y-84319162D01*
X117487476Y-82768566D02*
X117567667Y-82623378D01*
X112064023Y-60736166D02*
X111931566Y-60743410D01*
X81375567Y-120831232D02*
X81361018Y-120996454D01*
X169260962Y-89629413D02*
X169406150Y-89709604D01*
X174622917Y-103240066D02*
X174615673Y-103107609D01*
D14*
X57310000Y-60380000D02*
X57305396Y-67510000D01*
D10*
X136521802Y-107304710D02*
X136601993Y-107159523D01*
X79881566Y-101226234D02*
X79686276Y-101204432D01*
X117965674Y-77413855D02*
X117770384Y-77392053D01*
X150508429Y-66162647D02*
X150515674Y-66295105D01*
X169575000Y-122186875D02*
X169553198Y-122382165D01*
D12*
X86917523Y-127229671D02*
X102475000Y-124000000D01*
D10*
X99232916Y-107240528D02*
X99391553Y-107288946D01*
X112111025Y-84866905D02*
X112256212Y-84947096D01*
X79605166Y-68226026D02*
X79734266Y-68184120D01*
D11*
X134500004Y-42336875D02*
X134499033Y-42232355D01*
X134492243Y-42123738D01*
X134476615Y-42023633D01*
X134456400Y-41946295D01*
X69170555Y-134737856D02*
X69265659Y-134778155D01*
X69371355Y-134809151D01*
X69473944Y-134826252D01*
X69509457Y-134829226D01*
D10*
X150226855Y-46766669D02*
X150372043Y-46846859D01*
X98415735Y-85345103D02*
X98437537Y-85149814D01*
X117786276Y-58341793D02*
X117641088Y-58261603D01*
D13*
X108440735Y-106276234D02*
X121440735Y-106276234D01*
D10*
X188513682Y-84398082D02*
X188377232Y-84508455D01*
X112177292Y-98795953D02*
X112048192Y-98837859D01*
X174983222Y-51514673D02*
X175115679Y-51507428D01*
X108245445Y-120254432D02*
X108100257Y-120174242D01*
X121702292Y-120227084D02*
X121573192Y-120268989D01*
D12*
X134500004Y-42336875D02*
X134500004Y-43718125D01*
D10*
X98418438Y-66289628D02*
X98440240Y-66094339D01*
D12*
X58300004Y-48480625D02*
X60705002Y-48480625D01*
D10*
X174775202Y-65405436D02*
X174664829Y-65268986D01*
X169270290Y-108708677D02*
X169415478Y-108788868D01*
X150195290Y-107021802D02*
X150340478Y-107101993D01*
X81361018Y-120996454D02*
X81280931Y-121152617D01*
D13*
X188615679Y-52007428D02*
X188615679Y-65007428D01*
D10*
X188615679Y-65007428D02*
X188593877Y-65202718D01*
D13*
X88622424Y-123260523D02*
X85932866Y-110541786D01*
X63506953Y-113764735D02*
X75394052Y-108501954D01*
D10*
X92881566Y-87226234D02*
X93076855Y-87248036D01*
X93366724Y-81676876D02*
X93344922Y-81872166D01*
D13*
X76053663Y-108756735D02*
X81316444Y-120643835D01*
D10*
X155741088Y-65405217D02*
X155630716Y-65268767D01*
X136617667Y-65954628D02*
X136754116Y-65844255D01*
X150015672Y-84845109D02*
X150210962Y-84866911D01*
D14*
X124148282Y-118838743D02*
G75*
G02*
X123948150Y-118636877I1718J201843D01*
G01*
D10*
X169327236Y-84508459D02*
X169198136Y-84550365D01*
D13*
X175115677Y-89607609D02*
X188115669Y-89607601D01*
D10*
X169479573Y-65347687D02*
X169343123Y-65458060D01*
X188310963Y-89629411D02*
X188456150Y-89709601D01*
D12*
X86917523Y-127229671D02*
X70027584Y-134707339D01*
D10*
X136659523Y-120898008D02*
X136549150Y-120761558D01*
X155804115Y-89656761D02*
X155933215Y-89614856D01*
D13*
X92881566Y-101226234D02*
X79881566Y-101226234D01*
D10*
X156065679Y-84557610D02*
X155870389Y-84535808D01*
X174637475Y-89912319D02*
X174717665Y-89767131D01*
X111915735Y-84845103D02*
X112111025Y-84866905D01*
D12*
X141150000Y-43718125D02*
X152550004Y-43718125D01*
D10*
X117472918Y-77046313D02*
X117465674Y-76913855D01*
X150508428Y-85212652D02*
X150515672Y-85345109D01*
X174637481Y-51812138D02*
X174717672Y-51666951D01*
X98654177Y-84894253D02*
X98783277Y-84852348D01*
X79388526Y-68481586D02*
X79468716Y-68336398D01*
X98656880Y-65838778D02*
X98785980Y-65796873D01*
X169473008Y-122527353D02*
X169336558Y-122637725D01*
D12*
X179152296Y-106942240D02*
G75*
G02*
X179625000Y-106621750I472704J-188360D01*
G01*
D10*
X174615673Y-90107609D02*
X174637475Y-89912319D01*
X150493870Y-98540399D02*
X150413680Y-98685587D01*
D13*
X174615678Y-103107609D02*
X174615678Y-90107609D01*
D10*
X93222043Y-49229864D02*
X93332416Y-49366314D01*
X98464885Y-98606661D02*
X98422979Y-98477561D01*
X155624150Y-122448433D02*
X155582245Y-122319333D01*
D14*
X134330000Y-117160000D02*
X134335185Y-118638595D01*
D10*
X155582245Y-122319333D02*
X155575000Y-122186875D01*
X136804710Y-120978198D02*
X136659523Y-120898008D01*
X155734523Y-122584883D02*
X155624150Y-122448433D01*
D13*
X117481566Y-57863595D02*
X117481566Y-44863595D01*
D10*
X136617665Y-85004632D02*
X136754114Y-84894259D01*
X131160964Y-63435657D02*
X131306151Y-63515848D01*
X174717667Y-70717127D02*
X174854116Y-70606755D01*
X131114023Y-58356351D02*
X130981566Y-58363595D01*
X169422043Y-51609202D02*
X169532416Y-51745652D01*
X169207458Y-122679631D02*
X169075000Y-122686875D01*
D13*
X150499998Y-107499992D02*
X150500006Y-120500000D01*
D12*
X172745970Y-125409734D02*
G75*
G02*
X172294099Y-125698172I-451870J209734D01*
G01*
D10*
X102338598Y-120559652D02*
X102290181Y-120718289D01*
X136515674Y-66295105D02*
X136537476Y-66099816D01*
X93279573Y-62968349D02*
X93143123Y-63078721D01*
X136836276Y-60723065D02*
X136691088Y-60642874D01*
D13*
X93381566Y-49627871D02*
X93381566Y-62627871D01*
D10*
X156065673Y-103607611D02*
X155870383Y-103585809D01*
D13*
X156065678Y-70557609D02*
X169065669Y-70557600D01*
X101933788Y-120956703D02*
X89215050Y-123646261D01*
D10*
X117770384Y-77392053D02*
X117625196Y-77311863D01*
D13*
X188115674Y-84557605D02*
X175115674Y-84557605D01*
D12*
X68708363Y-134197775D02*
X57343635Y-108522088D01*
D10*
X98723148Y-79767826D02*
X98577960Y-79687636D01*
D11*
X191606398Y-49090038D02*
X191569373Y-48993454D01*
X191520504Y-48902359D01*
X191459641Y-48816306D01*
X191446017Y-48799662D01*
D10*
X150466522Y-85083551D02*
X150508428Y-85212652D01*
X174920389Y-65485626D02*
X174775202Y-65405436D01*
D13*
X130965674Y-96463855D02*
X117965674Y-96463855D01*
D10*
X136883217Y-65802350D02*
X137015674Y-65795105D01*
X75746672Y-108457379D02*
X75902834Y-108537466D01*
D11*
X153346019Y-44037170D02*
X153275371Y-43961819D01*
X153191271Y-43890688D01*
X153104387Y-43833520D01*
X153073119Y-43816425D01*
D13*
X169065678Y-84557610D02*
X156065679Y-84557610D01*
D10*
X169406150Y-89709604D02*
X169516522Y-89846054D01*
M02*
