%TF.GenerationSoftware,KiCad,Pcbnew,8.0.3*%
%TF.CreationDate,2024-09-02T20:30:28+10:00*%
%TF.ProjectId,Top_plate,546f705f-706c-4617-9465-2e6b69636164,rev?*%
%TF.SameCoordinates,Original*%
%TF.FileFunction,Legend,Top*%
%TF.FilePolarity,Positive*%
%FSLAX46Y46*%
G04 Gerber Fmt 4.6, Leading zero omitted, Abs format (unit mm)*
G04 Created by KiCad (PCBNEW 8.0.3) date 2024-09-02 20:30:28*
%MOMM*%
%LPD*%
G01*
G04 APERTURE LIST*
%ADD10C,0.300000*%
%ADD11C,0.400000*%
G04 APERTURE END LIST*
D10*
X133279171Y-52754510D02*
X134779171Y-52754510D01*
X134779171Y-52754510D02*
X134779171Y-53111653D01*
X134779171Y-53111653D02*
X134707742Y-53325939D01*
X134707742Y-53325939D02*
X134564885Y-53468796D01*
X134564885Y-53468796D02*
X134422028Y-53540225D01*
X134422028Y-53540225D02*
X134136314Y-53611653D01*
X134136314Y-53611653D02*
X133922028Y-53611653D01*
X133922028Y-53611653D02*
X133636314Y-53540225D01*
X133636314Y-53540225D02*
X133493457Y-53468796D01*
X133493457Y-53468796D02*
X133350600Y-53325939D01*
X133350600Y-53325939D02*
X133279171Y-53111653D01*
X133279171Y-53111653D02*
X133279171Y-52754510D01*
X133279171Y-54897368D02*
X134064885Y-54897368D01*
X134064885Y-54897368D02*
X134207742Y-54825939D01*
X134207742Y-54825939D02*
X134279171Y-54683082D01*
X134279171Y-54683082D02*
X134279171Y-54397368D01*
X134279171Y-54397368D02*
X134207742Y-54254510D01*
X133350600Y-54897368D02*
X133279171Y-54754510D01*
X133279171Y-54754510D02*
X133279171Y-54397368D01*
X133279171Y-54397368D02*
X133350600Y-54254510D01*
X133350600Y-54254510D02*
X133493457Y-54183082D01*
X133493457Y-54183082D02*
X133636314Y-54183082D01*
X133636314Y-54183082D02*
X133779171Y-54254510D01*
X133779171Y-54254510D02*
X133850600Y-54397368D01*
X133850600Y-54397368D02*
X133850600Y-54754510D01*
X133850600Y-54754510D02*
X133922028Y-54897368D01*
X134279171Y-55611653D02*
X133279171Y-55611653D01*
X134136314Y-55611653D02*
X134207742Y-55683082D01*
X134207742Y-55683082D02*
X134279171Y-55825939D01*
X134279171Y-55825939D02*
X134279171Y-56040225D01*
X134279171Y-56040225D02*
X134207742Y-56183082D01*
X134207742Y-56183082D02*
X134064885Y-56254511D01*
X134064885Y-56254511D02*
X133279171Y-56254511D01*
X133350600Y-57540225D02*
X133279171Y-57397368D01*
X133279171Y-57397368D02*
X133279171Y-57111654D01*
X133279171Y-57111654D02*
X133350600Y-56968796D01*
X133350600Y-56968796D02*
X133493457Y-56897368D01*
X133493457Y-56897368D02*
X134064885Y-56897368D01*
X134064885Y-56897368D02*
X134207742Y-56968796D01*
X134207742Y-56968796D02*
X134279171Y-57111654D01*
X134279171Y-57111654D02*
X134279171Y-57397368D01*
X134279171Y-57397368D02*
X134207742Y-57540225D01*
X134207742Y-57540225D02*
X134064885Y-57611654D01*
X134064885Y-57611654D02*
X133922028Y-57611654D01*
X133922028Y-57611654D02*
X133779171Y-56897368D01*
X134064885Y-59397367D02*
X134064885Y-59897367D01*
X133279171Y-60111653D02*
X133279171Y-59397367D01*
X133279171Y-59397367D02*
X134779171Y-59397367D01*
X134779171Y-59397367D02*
X134779171Y-60111653D01*
X134279171Y-60611653D02*
X133279171Y-60968796D01*
X133279171Y-60968796D02*
X134279171Y-61325939D01*
X133279171Y-62540225D02*
X134064885Y-62540225D01*
X134064885Y-62540225D02*
X134207742Y-62468796D01*
X134207742Y-62468796D02*
X134279171Y-62325939D01*
X134279171Y-62325939D02*
X134279171Y-62040225D01*
X134279171Y-62040225D02*
X134207742Y-61897367D01*
X133350600Y-62540225D02*
X133279171Y-62397367D01*
X133279171Y-62397367D02*
X133279171Y-62040225D01*
X133279171Y-62040225D02*
X133350600Y-61897367D01*
X133350600Y-61897367D02*
X133493457Y-61825939D01*
X133493457Y-61825939D02*
X133636314Y-61825939D01*
X133636314Y-61825939D02*
X133779171Y-61897367D01*
X133779171Y-61897367D02*
X133850600Y-62040225D01*
X133850600Y-62040225D02*
X133850600Y-62397367D01*
X133850600Y-62397367D02*
X133922028Y-62540225D01*
X134279171Y-63254510D02*
X133279171Y-63254510D01*
X134136314Y-63254510D02*
X134207742Y-63325939D01*
X134207742Y-63325939D02*
X134279171Y-63468796D01*
X134279171Y-63468796D02*
X134279171Y-63683082D01*
X134279171Y-63683082D02*
X134207742Y-63825939D01*
X134207742Y-63825939D02*
X134064885Y-63897368D01*
X134064885Y-63897368D02*
X133279171Y-63897368D01*
X133350600Y-64540225D02*
X133279171Y-64683082D01*
X133279171Y-64683082D02*
X133279171Y-64968796D01*
X133279171Y-64968796D02*
X133350600Y-65111653D01*
X133350600Y-65111653D02*
X133493457Y-65183082D01*
X133493457Y-65183082D02*
X133564885Y-65183082D01*
X133564885Y-65183082D02*
X133707742Y-65111653D01*
X133707742Y-65111653D02*
X133779171Y-64968796D01*
X133779171Y-64968796D02*
X133779171Y-64754511D01*
X133779171Y-64754511D02*
X133850600Y-64611653D01*
X133850600Y-64611653D02*
X133993457Y-64540225D01*
X133993457Y-64540225D02*
X134064885Y-64540225D01*
X134064885Y-64540225D02*
X134207742Y-64611653D01*
X134207742Y-64611653D02*
X134279171Y-64754511D01*
X134279171Y-64754511D02*
X134279171Y-64968796D01*
X134279171Y-64968796D02*
X134207742Y-65111653D01*
X133350600Y-65897368D02*
X133279171Y-65897368D01*
X133279171Y-65897368D02*
X133136314Y-65825939D01*
X133136314Y-65825939D02*
X133064885Y-65754511D01*
X134636314Y-67611654D02*
X134707742Y-67683082D01*
X134707742Y-67683082D02*
X134779171Y-67825940D01*
X134779171Y-67825940D02*
X134779171Y-68183082D01*
X134779171Y-68183082D02*
X134707742Y-68325940D01*
X134707742Y-68325940D02*
X134636314Y-68397368D01*
X134636314Y-68397368D02*
X134493457Y-68468797D01*
X134493457Y-68468797D02*
X134350600Y-68468797D01*
X134350600Y-68468797D02*
X134136314Y-68397368D01*
X134136314Y-68397368D02*
X133279171Y-67540225D01*
X133279171Y-67540225D02*
X133279171Y-68468797D01*
X134779171Y-69397368D02*
X134779171Y-69540225D01*
X134779171Y-69540225D02*
X134707742Y-69683082D01*
X134707742Y-69683082D02*
X134636314Y-69754511D01*
X134636314Y-69754511D02*
X134493457Y-69825939D01*
X134493457Y-69825939D02*
X134207742Y-69897368D01*
X134207742Y-69897368D02*
X133850600Y-69897368D01*
X133850600Y-69897368D02*
X133564885Y-69825939D01*
X133564885Y-69825939D02*
X133422028Y-69754511D01*
X133422028Y-69754511D02*
X133350600Y-69683082D01*
X133350600Y-69683082D02*
X133279171Y-69540225D01*
X133279171Y-69540225D02*
X133279171Y-69397368D01*
X133279171Y-69397368D02*
X133350600Y-69254511D01*
X133350600Y-69254511D02*
X133422028Y-69183082D01*
X133422028Y-69183082D02*
X133564885Y-69111653D01*
X133564885Y-69111653D02*
X133850600Y-69040225D01*
X133850600Y-69040225D02*
X134207742Y-69040225D01*
X134207742Y-69040225D02*
X134493457Y-69111653D01*
X134493457Y-69111653D02*
X134636314Y-69183082D01*
X134636314Y-69183082D02*
X134707742Y-69254511D01*
X134707742Y-69254511D02*
X134779171Y-69397368D01*
X134636314Y-70468796D02*
X134707742Y-70540224D01*
X134707742Y-70540224D02*
X134779171Y-70683082D01*
X134779171Y-70683082D02*
X134779171Y-71040224D01*
X134779171Y-71040224D02*
X134707742Y-71183082D01*
X134707742Y-71183082D02*
X134636314Y-71254510D01*
X134636314Y-71254510D02*
X134493457Y-71325939D01*
X134493457Y-71325939D02*
X134350600Y-71325939D01*
X134350600Y-71325939D02*
X134136314Y-71254510D01*
X134136314Y-71254510D02*
X133279171Y-70397367D01*
X133279171Y-70397367D02*
X133279171Y-71325939D01*
X134279171Y-72611653D02*
X133279171Y-72611653D01*
X134850600Y-72254510D02*
X133779171Y-71897367D01*
X133779171Y-71897367D02*
X133779171Y-72825938D01*
D11*
X125945537Y-107907247D02*
X125726490Y-107797723D01*
X125726490Y-107797723D02*
X125397918Y-107797723D01*
X125397918Y-107797723D02*
X125069347Y-107907247D01*
X125069347Y-107907247D02*
X124850299Y-108126295D01*
X124850299Y-108126295D02*
X124740776Y-108345342D01*
X124740776Y-108345342D02*
X124631252Y-108783438D01*
X124631252Y-108783438D02*
X124631252Y-109112009D01*
X124631252Y-109112009D02*
X124740776Y-109550104D01*
X124740776Y-109550104D02*
X124850299Y-109769152D01*
X124850299Y-109769152D02*
X125069347Y-109988200D01*
X125069347Y-109988200D02*
X125397918Y-110097723D01*
X125397918Y-110097723D02*
X125616966Y-110097723D01*
X125616966Y-110097723D02*
X125945537Y-109988200D01*
X125945537Y-109988200D02*
X126055061Y-109878676D01*
X126055061Y-109878676D02*
X126055061Y-109112009D01*
X126055061Y-109112009D02*
X125616966Y-109112009D01*
X127916966Y-109988200D02*
X127697918Y-110097723D01*
X127697918Y-110097723D02*
X127259823Y-110097723D01*
X127259823Y-110097723D02*
X127040776Y-109988200D01*
X127040776Y-109988200D02*
X126931252Y-109769152D01*
X126931252Y-109769152D02*
X126931252Y-108892961D01*
X126931252Y-108892961D02*
X127040776Y-108673914D01*
X127040776Y-108673914D02*
X127259823Y-108564390D01*
X127259823Y-108564390D02*
X127697918Y-108564390D01*
X127697918Y-108564390D02*
X127916966Y-108673914D01*
X127916966Y-108673914D02*
X128026490Y-108892961D01*
X128026490Y-108892961D02*
X128026490Y-109112009D01*
X128026490Y-109112009D02*
X126931252Y-109331057D01*
X129997919Y-109988200D02*
X129778871Y-110097723D01*
X129778871Y-110097723D02*
X129340776Y-110097723D01*
X129340776Y-110097723D02*
X129121728Y-109988200D01*
X129121728Y-109988200D02*
X129012205Y-109878676D01*
X129012205Y-109878676D02*
X128902681Y-109659628D01*
X128902681Y-109659628D02*
X128902681Y-109002485D01*
X128902681Y-109002485D02*
X129012205Y-108783438D01*
X129012205Y-108783438D02*
X129121728Y-108673914D01*
X129121728Y-108673914D02*
X129340776Y-108564390D01*
X129340776Y-108564390D02*
X129778871Y-108564390D01*
X129778871Y-108564390D02*
X129997919Y-108673914D01*
X130983634Y-110097723D02*
X130983634Y-107797723D01*
X131202681Y-109221533D02*
X131859824Y-110097723D01*
X131859824Y-108564390D02*
X130983634Y-109440580D01*
X133174110Y-110097723D02*
X132955062Y-109988200D01*
X132955062Y-109988200D02*
X132845539Y-109878676D01*
X132845539Y-109878676D02*
X132736015Y-109659628D01*
X132736015Y-109659628D02*
X132736015Y-109002485D01*
X132736015Y-109002485D02*
X132845539Y-108783438D01*
X132845539Y-108783438D02*
X132955062Y-108673914D01*
X132955062Y-108673914D02*
X133174110Y-108564390D01*
X133174110Y-108564390D02*
X133502681Y-108564390D01*
X133502681Y-108564390D02*
X133721729Y-108673914D01*
X133721729Y-108673914D02*
X133831253Y-108783438D01*
X133831253Y-108783438D02*
X133940777Y-109002485D01*
X133940777Y-109002485D02*
X133940777Y-109659628D01*
X133940777Y-109659628D02*
X133831253Y-109878676D01*
X133831253Y-109878676D02*
X133721729Y-109988200D01*
X133721729Y-109988200D02*
X133502681Y-110097723D01*
X133502681Y-110097723D02*
X133174110Y-110097723D01*
D10*
X152549171Y-51724510D02*
X154049171Y-51724510D01*
X153549171Y-52438796D02*
X152549171Y-52438796D01*
X153406314Y-52438796D02*
X153477742Y-52510225D01*
X153477742Y-52510225D02*
X153549171Y-52653082D01*
X153549171Y-52653082D02*
X153549171Y-52867368D01*
X153549171Y-52867368D02*
X153477742Y-53010225D01*
X153477742Y-53010225D02*
X153334885Y-53081654D01*
X153334885Y-53081654D02*
X152549171Y-53081654D01*
X152620600Y-53724511D02*
X152549171Y-53867368D01*
X152549171Y-53867368D02*
X152549171Y-54153082D01*
X152549171Y-54153082D02*
X152620600Y-54295939D01*
X152620600Y-54295939D02*
X152763457Y-54367368D01*
X152763457Y-54367368D02*
X152834885Y-54367368D01*
X152834885Y-54367368D02*
X152977742Y-54295939D01*
X152977742Y-54295939D02*
X153049171Y-54153082D01*
X153049171Y-54153082D02*
X153049171Y-53938797D01*
X153049171Y-53938797D02*
X153120600Y-53795939D01*
X153120600Y-53795939D02*
X153263457Y-53724511D01*
X153263457Y-53724511D02*
X153334885Y-53724511D01*
X153334885Y-53724511D02*
X153477742Y-53795939D01*
X153477742Y-53795939D02*
X153549171Y-53938797D01*
X153549171Y-53938797D02*
X153549171Y-54153082D01*
X153549171Y-54153082D02*
X153477742Y-54295939D01*
X153549171Y-55010225D02*
X152049171Y-55010225D01*
X153477742Y-55010225D02*
X153549171Y-55153083D01*
X153549171Y-55153083D02*
X153549171Y-55438797D01*
X153549171Y-55438797D02*
X153477742Y-55581654D01*
X153477742Y-55581654D02*
X153406314Y-55653083D01*
X153406314Y-55653083D02*
X153263457Y-55724511D01*
X153263457Y-55724511D02*
X152834885Y-55724511D01*
X152834885Y-55724511D02*
X152692028Y-55653083D01*
X152692028Y-55653083D02*
X152620600Y-55581654D01*
X152620600Y-55581654D02*
X152549171Y-55438797D01*
X152549171Y-55438797D02*
X152549171Y-55153083D01*
X152549171Y-55153083D02*
X152620600Y-55010225D01*
X152549171Y-56367368D02*
X153549171Y-56367368D01*
X154049171Y-56367368D02*
X153977742Y-56295940D01*
X153977742Y-56295940D02*
X153906314Y-56367368D01*
X153906314Y-56367368D02*
X153977742Y-56438797D01*
X153977742Y-56438797D02*
X154049171Y-56367368D01*
X154049171Y-56367368D02*
X153906314Y-56367368D01*
X152549171Y-57081654D02*
X153549171Y-57081654D01*
X153263457Y-57081654D02*
X153406314Y-57153083D01*
X153406314Y-57153083D02*
X153477742Y-57224512D01*
X153477742Y-57224512D02*
X153549171Y-57367369D01*
X153549171Y-57367369D02*
X153549171Y-57510226D01*
X152620600Y-58581654D02*
X152549171Y-58438797D01*
X152549171Y-58438797D02*
X152549171Y-58153083D01*
X152549171Y-58153083D02*
X152620600Y-58010225D01*
X152620600Y-58010225D02*
X152763457Y-57938797D01*
X152763457Y-57938797D02*
X153334885Y-57938797D01*
X153334885Y-57938797D02*
X153477742Y-58010225D01*
X153477742Y-58010225D02*
X153549171Y-58153083D01*
X153549171Y-58153083D02*
X153549171Y-58438797D01*
X153549171Y-58438797D02*
X153477742Y-58581654D01*
X153477742Y-58581654D02*
X153334885Y-58653083D01*
X153334885Y-58653083D02*
X153192028Y-58653083D01*
X153192028Y-58653083D02*
X153049171Y-57938797D01*
X152549171Y-59938797D02*
X154049171Y-59938797D01*
X152620600Y-59938797D02*
X152549171Y-59795939D01*
X152549171Y-59795939D02*
X152549171Y-59510225D01*
X152549171Y-59510225D02*
X152620600Y-59367368D01*
X152620600Y-59367368D02*
X152692028Y-59295939D01*
X152692028Y-59295939D02*
X152834885Y-59224511D01*
X152834885Y-59224511D02*
X153263457Y-59224511D01*
X153263457Y-59224511D02*
X153406314Y-59295939D01*
X153406314Y-59295939D02*
X153477742Y-59367368D01*
X153477742Y-59367368D02*
X153549171Y-59510225D01*
X153549171Y-59510225D02*
X153549171Y-59795939D01*
X153549171Y-59795939D02*
X153477742Y-59938797D01*
X152549171Y-61795939D02*
X154049171Y-61795939D01*
X153477742Y-61795939D02*
X153549171Y-61938797D01*
X153549171Y-61938797D02*
X153549171Y-62224511D01*
X153549171Y-62224511D02*
X153477742Y-62367368D01*
X153477742Y-62367368D02*
X153406314Y-62438797D01*
X153406314Y-62438797D02*
X153263457Y-62510225D01*
X153263457Y-62510225D02*
X152834885Y-62510225D01*
X152834885Y-62510225D02*
X152692028Y-62438797D01*
X152692028Y-62438797D02*
X152620600Y-62367368D01*
X152620600Y-62367368D02*
X152549171Y-62224511D01*
X152549171Y-62224511D02*
X152549171Y-61938797D01*
X152549171Y-61938797D02*
X152620600Y-61795939D01*
X153549171Y-63010225D02*
X152549171Y-63367368D01*
X153549171Y-63724511D02*
X152549171Y-63367368D01*
X152549171Y-63367368D02*
X152192028Y-63224511D01*
X152192028Y-63224511D02*
X152120600Y-63153082D01*
X152120600Y-63153082D02*
X152049171Y-63010225D01*
X153334885Y-65938796D02*
X153334885Y-65438796D01*
X152549171Y-65438796D02*
X154049171Y-65438796D01*
X154049171Y-65438796D02*
X154049171Y-66153082D01*
X152549171Y-66938796D02*
X152620600Y-66795939D01*
X152620600Y-66795939D02*
X152692028Y-66724510D01*
X152692028Y-66724510D02*
X152834885Y-66653082D01*
X152834885Y-66653082D02*
X153263457Y-66653082D01*
X153263457Y-66653082D02*
X153406314Y-66724510D01*
X153406314Y-66724510D02*
X153477742Y-66795939D01*
X153477742Y-66795939D02*
X153549171Y-66938796D01*
X153549171Y-66938796D02*
X153549171Y-67153082D01*
X153549171Y-67153082D02*
X153477742Y-67295939D01*
X153477742Y-67295939D02*
X153406314Y-67367368D01*
X153406314Y-67367368D02*
X153263457Y-67438796D01*
X153263457Y-67438796D02*
X152834885Y-67438796D01*
X152834885Y-67438796D02*
X152692028Y-67367368D01*
X152692028Y-67367368D02*
X152620600Y-67295939D01*
X152620600Y-67295939D02*
X152549171Y-67153082D01*
X152549171Y-67153082D02*
X152549171Y-66938796D01*
X152549171Y-68295939D02*
X152620600Y-68153082D01*
X152620600Y-68153082D02*
X152692028Y-68081653D01*
X152692028Y-68081653D02*
X152834885Y-68010225D01*
X152834885Y-68010225D02*
X153263457Y-68010225D01*
X153263457Y-68010225D02*
X153406314Y-68081653D01*
X153406314Y-68081653D02*
X153477742Y-68153082D01*
X153477742Y-68153082D02*
X153549171Y-68295939D01*
X153549171Y-68295939D02*
X153549171Y-68510225D01*
X153549171Y-68510225D02*
X153477742Y-68653082D01*
X153477742Y-68653082D02*
X153406314Y-68724511D01*
X153406314Y-68724511D02*
X153263457Y-68795939D01*
X153263457Y-68795939D02*
X152834885Y-68795939D01*
X152834885Y-68795939D02*
X152692028Y-68724511D01*
X152692028Y-68724511D02*
X152620600Y-68653082D01*
X152620600Y-68653082D02*
X152549171Y-68510225D01*
X152549171Y-68510225D02*
X152549171Y-68295939D01*
X152620600Y-69367368D02*
X152549171Y-69510225D01*
X152549171Y-69510225D02*
X152549171Y-69795939D01*
X152549171Y-69795939D02*
X152620600Y-69938796D01*
X152620600Y-69938796D02*
X152763457Y-70010225D01*
X152763457Y-70010225D02*
X152834885Y-70010225D01*
X152834885Y-70010225D02*
X152977742Y-69938796D01*
X152977742Y-69938796D02*
X153049171Y-69795939D01*
X153049171Y-69795939D02*
X153049171Y-69581654D01*
X153049171Y-69581654D02*
X153120600Y-69438796D01*
X153120600Y-69438796D02*
X153263457Y-69367368D01*
X153263457Y-69367368D02*
X153334885Y-69367368D01*
X153334885Y-69367368D02*
X153477742Y-69438796D01*
X153477742Y-69438796D02*
X153549171Y-69581654D01*
X153549171Y-69581654D02*
X153549171Y-69795939D01*
X153549171Y-69795939D02*
X153477742Y-69938796D01*
X153549171Y-70438797D02*
X153549171Y-71010225D01*
X154049171Y-70653082D02*
X152763457Y-70653082D01*
X152763457Y-70653082D02*
X152620600Y-70724511D01*
X152620600Y-70724511D02*
X152549171Y-70867368D01*
X152549171Y-70867368D02*
X152549171Y-71010225D01*
X152549171Y-72153083D02*
X153334885Y-72153083D01*
X153334885Y-72153083D02*
X153477742Y-72081654D01*
X153477742Y-72081654D02*
X153549171Y-71938797D01*
X153549171Y-71938797D02*
X153549171Y-71653083D01*
X153549171Y-71653083D02*
X153477742Y-71510225D01*
X152620600Y-72153083D02*
X152549171Y-72010225D01*
X152549171Y-72010225D02*
X152549171Y-71653083D01*
X152549171Y-71653083D02*
X152620600Y-71510225D01*
X152620600Y-71510225D02*
X152763457Y-71438797D01*
X152763457Y-71438797D02*
X152906314Y-71438797D01*
X152906314Y-71438797D02*
X153049171Y-71510225D01*
X153049171Y-71510225D02*
X153120600Y-71653083D01*
X153120600Y-71653083D02*
X153120600Y-72010225D01*
X153120600Y-72010225D02*
X153192028Y-72153083D01*
X153549171Y-72867368D02*
X152549171Y-72867368D01*
X153406314Y-72867368D02*
X153477742Y-72938797D01*
X153477742Y-72938797D02*
X153549171Y-73081654D01*
X153549171Y-73081654D02*
X153549171Y-73295940D01*
X153549171Y-73295940D02*
X153477742Y-73438797D01*
X153477742Y-73438797D02*
X153334885Y-73510226D01*
X153334885Y-73510226D02*
X152549171Y-73510226D01*
X153120600Y-75367368D02*
X153120600Y-76510226D01*
X152620600Y-79010226D02*
X152549171Y-78867368D01*
X152549171Y-78867368D02*
X152549171Y-78581654D01*
X152549171Y-78581654D02*
X152620600Y-78438797D01*
X152620600Y-78438797D02*
X152692028Y-78367368D01*
X152692028Y-78367368D02*
X152834885Y-78295940D01*
X152834885Y-78295940D02*
X153263457Y-78295940D01*
X153263457Y-78295940D02*
X153406314Y-78367368D01*
X153406314Y-78367368D02*
X153477742Y-78438797D01*
X153477742Y-78438797D02*
X153549171Y-78581654D01*
X153549171Y-78581654D02*
X153549171Y-78867368D01*
X153549171Y-78867368D02*
X153477742Y-79010226D01*
X152549171Y-79653082D02*
X153549171Y-79653082D01*
X153263457Y-79653082D02*
X153406314Y-79724511D01*
X153406314Y-79724511D02*
X153477742Y-79795940D01*
X153477742Y-79795940D02*
X153549171Y-79938797D01*
X153549171Y-79938797D02*
X153549171Y-80081654D01*
X152549171Y-80581653D02*
X154049171Y-80581653D01*
X153120600Y-80724511D02*
X152549171Y-81153082D01*
X153549171Y-81153082D02*
X152977742Y-80581653D01*
X152549171Y-81795939D02*
X154049171Y-81795939D01*
X153477742Y-81795939D02*
X153549171Y-81938797D01*
X153549171Y-81938797D02*
X153549171Y-82224511D01*
X153549171Y-82224511D02*
X153477742Y-82367368D01*
X153477742Y-82367368D02*
X153406314Y-82438797D01*
X153406314Y-82438797D02*
X153263457Y-82510225D01*
X153263457Y-82510225D02*
X152834885Y-82510225D01*
X152834885Y-82510225D02*
X152692028Y-82438797D01*
X152692028Y-82438797D02*
X152620600Y-82367368D01*
X152620600Y-82367368D02*
X152549171Y-82224511D01*
X152549171Y-82224511D02*
X152549171Y-81938797D01*
X152549171Y-81938797D02*
X152620600Y-81795939D01*
X152549171Y-83795940D02*
X154049171Y-83795940D01*
X152620600Y-83795940D02*
X152549171Y-83653082D01*
X152549171Y-83653082D02*
X152549171Y-83367368D01*
X152549171Y-83367368D02*
X152620600Y-83224511D01*
X152620600Y-83224511D02*
X152692028Y-83153082D01*
X152692028Y-83153082D02*
X152834885Y-83081654D01*
X152834885Y-83081654D02*
X153263457Y-83081654D01*
X153263457Y-83081654D02*
X153406314Y-83153082D01*
X153406314Y-83153082D02*
X153477742Y-83224511D01*
X153477742Y-83224511D02*
X153549171Y-83367368D01*
X153549171Y-83367368D02*
X153549171Y-83653082D01*
X153549171Y-83653082D02*
X153477742Y-83795940D01*
M02*
