%TF.GenerationSoftware,KiCad,Pcbnew,8.0.3*%
%TF.CreationDate,2024-09-02T20:30:28+10:00*%
%TF.ProjectId,Top_plate,546f705f-706c-4617-9465-2e6b69636164,rev?*%
%TF.SameCoordinates,Original*%
%TF.FileFunction,Copper,L1,Top*%
%TF.FilePolarity,Positive*%
%FSLAX46Y46*%
G04 Gerber Fmt 4.6, Leading zero omitted, Abs format (unit mm)*
G04 Created by KiCad (PCBNEW 8.0.3) date 2024-09-02 20:30:28*
%MOMM*%
%LPD*%
G01*
G04 APERTURE LIST*
%ADD10C,0.200000*%
%TA.AperFunction,NonConductor*%
%ADD11C,0.200000*%
%TD*%
%ADD12C,0.350000*%
%TA.AperFunction,NonConductor*%
%ADD13C,0.350000*%
%TD*%
%ADD14C,0.300000*%
%TA.AperFunction,NonConductor*%
%ADD15C,0.300000*%
%TD*%
G04 APERTURE END LIST*
D10*
D11*
X57688720Y-25391112D02*
X57688720Y-23891112D01*
X57688720Y-23891112D02*
X58045863Y-23891112D01*
X58045863Y-23891112D02*
X58260149Y-23962541D01*
X58260149Y-23962541D02*
X58403006Y-24105398D01*
X58403006Y-24105398D02*
X58474435Y-24248255D01*
X58474435Y-24248255D02*
X58545863Y-24533969D01*
X58545863Y-24533969D02*
X58545863Y-24748255D01*
X58545863Y-24748255D02*
X58474435Y-25033969D01*
X58474435Y-25033969D02*
X58403006Y-25176826D01*
X58403006Y-25176826D02*
X58260149Y-25319684D01*
X58260149Y-25319684D02*
X58045863Y-25391112D01*
X58045863Y-25391112D02*
X57688720Y-25391112D01*
X59831578Y-25391112D02*
X59831578Y-24605398D01*
X59831578Y-24605398D02*
X59760149Y-24462541D01*
X59760149Y-24462541D02*
X59617292Y-24391112D01*
X59617292Y-24391112D02*
X59331578Y-24391112D01*
X59331578Y-24391112D02*
X59188720Y-24462541D01*
X59831578Y-25319684D02*
X59688720Y-25391112D01*
X59688720Y-25391112D02*
X59331578Y-25391112D01*
X59331578Y-25391112D02*
X59188720Y-25319684D01*
X59188720Y-25319684D02*
X59117292Y-25176826D01*
X59117292Y-25176826D02*
X59117292Y-25033969D01*
X59117292Y-25033969D02*
X59188720Y-24891112D01*
X59188720Y-24891112D02*
X59331578Y-24819684D01*
X59331578Y-24819684D02*
X59688720Y-24819684D01*
X59688720Y-24819684D02*
X59831578Y-24748255D01*
X60545863Y-24391112D02*
X60545863Y-25391112D01*
X60545863Y-24533969D02*
X60617292Y-24462541D01*
X60617292Y-24462541D02*
X60760149Y-24391112D01*
X60760149Y-24391112D02*
X60974435Y-24391112D01*
X60974435Y-24391112D02*
X61117292Y-24462541D01*
X61117292Y-24462541D02*
X61188721Y-24605398D01*
X61188721Y-24605398D02*
X61188721Y-25391112D01*
X62474435Y-25319684D02*
X62331578Y-25391112D01*
X62331578Y-25391112D02*
X62045864Y-25391112D01*
X62045864Y-25391112D02*
X61903006Y-25319684D01*
X61903006Y-25319684D02*
X61831578Y-25176826D01*
X61831578Y-25176826D02*
X61831578Y-24605398D01*
X61831578Y-24605398D02*
X61903006Y-24462541D01*
X61903006Y-24462541D02*
X62045864Y-24391112D01*
X62045864Y-24391112D02*
X62331578Y-24391112D01*
X62331578Y-24391112D02*
X62474435Y-24462541D01*
X62474435Y-24462541D02*
X62545864Y-24605398D01*
X62545864Y-24605398D02*
X62545864Y-24748255D01*
X62545864Y-24748255D02*
X61831578Y-24891112D01*
X64331577Y-24605398D02*
X64831577Y-24605398D01*
X65045863Y-25391112D02*
X64331577Y-25391112D01*
X64331577Y-25391112D02*
X64331577Y-23891112D01*
X64331577Y-23891112D02*
X65045863Y-23891112D01*
X65545863Y-24391112D02*
X65903006Y-25391112D01*
X65903006Y-25391112D02*
X66260149Y-24391112D01*
X67474435Y-25391112D02*
X67474435Y-24605398D01*
X67474435Y-24605398D02*
X67403006Y-24462541D01*
X67403006Y-24462541D02*
X67260149Y-24391112D01*
X67260149Y-24391112D02*
X66974435Y-24391112D01*
X66974435Y-24391112D02*
X66831577Y-24462541D01*
X67474435Y-25319684D02*
X67331577Y-25391112D01*
X67331577Y-25391112D02*
X66974435Y-25391112D01*
X66974435Y-25391112D02*
X66831577Y-25319684D01*
X66831577Y-25319684D02*
X66760149Y-25176826D01*
X66760149Y-25176826D02*
X66760149Y-25033969D01*
X66760149Y-25033969D02*
X66831577Y-24891112D01*
X66831577Y-24891112D02*
X66974435Y-24819684D01*
X66974435Y-24819684D02*
X67331577Y-24819684D01*
X67331577Y-24819684D02*
X67474435Y-24748255D01*
X68188720Y-24391112D02*
X68188720Y-25391112D01*
X68188720Y-24533969D02*
X68260149Y-24462541D01*
X68260149Y-24462541D02*
X68403006Y-24391112D01*
X68403006Y-24391112D02*
X68617292Y-24391112D01*
X68617292Y-24391112D02*
X68760149Y-24462541D01*
X68760149Y-24462541D02*
X68831578Y-24605398D01*
X68831578Y-24605398D02*
X68831578Y-25391112D01*
X69474435Y-25319684D02*
X69617292Y-25391112D01*
X69617292Y-25391112D02*
X69903006Y-25391112D01*
X69903006Y-25391112D02*
X70045863Y-25319684D01*
X70045863Y-25319684D02*
X70117292Y-25176826D01*
X70117292Y-25176826D02*
X70117292Y-25105398D01*
X70117292Y-25105398D02*
X70045863Y-24962541D01*
X70045863Y-24962541D02*
X69903006Y-24891112D01*
X69903006Y-24891112D02*
X69688721Y-24891112D01*
X69688721Y-24891112D02*
X69545863Y-24819684D01*
X69545863Y-24819684D02*
X69474435Y-24676826D01*
X69474435Y-24676826D02*
X69474435Y-24605398D01*
X69474435Y-24605398D02*
X69545863Y-24462541D01*
X69545863Y-24462541D02*
X69688721Y-24391112D01*
X69688721Y-24391112D02*
X69903006Y-24391112D01*
X69903006Y-24391112D02*
X70045863Y-24462541D01*
X57688720Y-27806028D02*
X57688720Y-26306028D01*
X58331578Y-27806028D02*
X58331578Y-27020314D01*
X58331578Y-27020314D02*
X58260149Y-26877457D01*
X58260149Y-26877457D02*
X58117292Y-26806028D01*
X58117292Y-26806028D02*
X57903006Y-26806028D01*
X57903006Y-26806028D02*
X57760149Y-26877457D01*
X57760149Y-26877457D02*
X57688720Y-26948885D01*
X58831578Y-26806028D02*
X59403006Y-26806028D01*
X59045863Y-26306028D02*
X59045863Y-27591742D01*
X59045863Y-27591742D02*
X59117292Y-27734600D01*
X59117292Y-27734600D02*
X59260149Y-27806028D01*
X59260149Y-27806028D02*
X59403006Y-27806028D01*
X59688721Y-26806028D02*
X60260149Y-26806028D01*
X59903006Y-26306028D02*
X59903006Y-27591742D01*
X59903006Y-27591742D02*
X59974435Y-27734600D01*
X59974435Y-27734600D02*
X60117292Y-27806028D01*
X60117292Y-27806028D02*
X60260149Y-27806028D01*
X60760149Y-26806028D02*
X60760149Y-28306028D01*
X60760149Y-26877457D02*
X60903007Y-26806028D01*
X60903007Y-26806028D02*
X61188721Y-26806028D01*
X61188721Y-26806028D02*
X61331578Y-26877457D01*
X61331578Y-26877457D02*
X61403007Y-26948885D01*
X61403007Y-26948885D02*
X61474435Y-27091742D01*
X61474435Y-27091742D02*
X61474435Y-27520314D01*
X61474435Y-27520314D02*
X61403007Y-27663171D01*
X61403007Y-27663171D02*
X61331578Y-27734600D01*
X61331578Y-27734600D02*
X61188721Y-27806028D01*
X61188721Y-27806028D02*
X60903007Y-27806028D01*
X60903007Y-27806028D02*
X60760149Y-27734600D01*
X62045864Y-27734600D02*
X62188721Y-27806028D01*
X62188721Y-27806028D02*
X62474435Y-27806028D01*
X62474435Y-27806028D02*
X62617292Y-27734600D01*
X62617292Y-27734600D02*
X62688721Y-27591742D01*
X62688721Y-27591742D02*
X62688721Y-27520314D01*
X62688721Y-27520314D02*
X62617292Y-27377457D01*
X62617292Y-27377457D02*
X62474435Y-27306028D01*
X62474435Y-27306028D02*
X62260150Y-27306028D01*
X62260150Y-27306028D02*
X62117292Y-27234600D01*
X62117292Y-27234600D02*
X62045864Y-27091742D01*
X62045864Y-27091742D02*
X62045864Y-27020314D01*
X62045864Y-27020314D02*
X62117292Y-26877457D01*
X62117292Y-26877457D02*
X62260150Y-26806028D01*
X62260150Y-26806028D02*
X62474435Y-26806028D01*
X62474435Y-26806028D02*
X62617292Y-26877457D01*
X63331578Y-27663171D02*
X63403007Y-27734600D01*
X63403007Y-27734600D02*
X63331578Y-27806028D01*
X63331578Y-27806028D02*
X63260150Y-27734600D01*
X63260150Y-27734600D02*
X63331578Y-27663171D01*
X63331578Y-27663171D02*
X63331578Y-27806028D01*
X63331578Y-26877457D02*
X63403007Y-26948885D01*
X63403007Y-26948885D02*
X63331578Y-27020314D01*
X63331578Y-27020314D02*
X63260150Y-26948885D01*
X63260150Y-26948885D02*
X63331578Y-26877457D01*
X63331578Y-26877457D02*
X63331578Y-27020314D01*
X65117293Y-26234600D02*
X63831579Y-28163171D01*
X66688722Y-26234600D02*
X65403008Y-28163171D01*
X67831580Y-26806028D02*
X67831580Y-28020314D01*
X67831580Y-28020314D02*
X67760151Y-28163171D01*
X67760151Y-28163171D02*
X67688722Y-28234600D01*
X67688722Y-28234600D02*
X67545865Y-28306028D01*
X67545865Y-28306028D02*
X67331580Y-28306028D01*
X67331580Y-28306028D02*
X67188722Y-28234600D01*
X67831580Y-27734600D02*
X67688722Y-27806028D01*
X67688722Y-27806028D02*
X67403008Y-27806028D01*
X67403008Y-27806028D02*
X67260151Y-27734600D01*
X67260151Y-27734600D02*
X67188722Y-27663171D01*
X67188722Y-27663171D02*
X67117294Y-27520314D01*
X67117294Y-27520314D02*
X67117294Y-27091742D01*
X67117294Y-27091742D02*
X67188722Y-26948885D01*
X67188722Y-26948885D02*
X67260151Y-26877457D01*
X67260151Y-26877457D02*
X67403008Y-26806028D01*
X67403008Y-26806028D02*
X67688722Y-26806028D01*
X67688722Y-26806028D02*
X67831580Y-26877457D01*
X68545865Y-27806028D02*
X68545865Y-26806028D01*
X68545865Y-26306028D02*
X68474437Y-26377457D01*
X68474437Y-26377457D02*
X68545865Y-26448885D01*
X68545865Y-26448885D02*
X68617294Y-26377457D01*
X68617294Y-26377457D02*
X68545865Y-26306028D01*
X68545865Y-26306028D02*
X68545865Y-26448885D01*
X69045866Y-26806028D02*
X69617294Y-26806028D01*
X69260151Y-26306028D02*
X69260151Y-27591742D01*
X69260151Y-27591742D02*
X69331580Y-27734600D01*
X69331580Y-27734600D02*
X69474437Y-27806028D01*
X69474437Y-27806028D02*
X69617294Y-27806028D01*
X70117294Y-27806028D02*
X70117294Y-26306028D01*
X70760152Y-27806028D02*
X70760152Y-27020314D01*
X70760152Y-27020314D02*
X70688723Y-26877457D01*
X70688723Y-26877457D02*
X70545866Y-26806028D01*
X70545866Y-26806028D02*
X70331580Y-26806028D01*
X70331580Y-26806028D02*
X70188723Y-26877457D01*
X70188723Y-26877457D02*
X70117294Y-26948885D01*
X72117295Y-26806028D02*
X72117295Y-27806028D01*
X71474437Y-26806028D02*
X71474437Y-27591742D01*
X71474437Y-27591742D02*
X71545866Y-27734600D01*
X71545866Y-27734600D02*
X71688723Y-27806028D01*
X71688723Y-27806028D02*
X71903009Y-27806028D01*
X71903009Y-27806028D02*
X72045866Y-27734600D01*
X72045866Y-27734600D02*
X72117295Y-27663171D01*
X72831580Y-27806028D02*
X72831580Y-26306028D01*
X72831580Y-26877457D02*
X72974438Y-26806028D01*
X72974438Y-26806028D02*
X73260152Y-26806028D01*
X73260152Y-26806028D02*
X73403009Y-26877457D01*
X73403009Y-26877457D02*
X73474438Y-26948885D01*
X73474438Y-26948885D02*
X73545866Y-27091742D01*
X73545866Y-27091742D02*
X73545866Y-27520314D01*
X73545866Y-27520314D02*
X73474438Y-27663171D01*
X73474438Y-27663171D02*
X73403009Y-27734600D01*
X73403009Y-27734600D02*
X73260152Y-27806028D01*
X73260152Y-27806028D02*
X72974438Y-27806028D01*
X72974438Y-27806028D02*
X72831580Y-27734600D01*
X74188723Y-27663171D02*
X74260152Y-27734600D01*
X74260152Y-27734600D02*
X74188723Y-27806028D01*
X74188723Y-27806028D02*
X74117295Y-27734600D01*
X74117295Y-27734600D02*
X74188723Y-27663171D01*
X74188723Y-27663171D02*
X74188723Y-27806028D01*
X75545867Y-27734600D02*
X75403009Y-27806028D01*
X75403009Y-27806028D02*
X75117295Y-27806028D01*
X75117295Y-27806028D02*
X74974438Y-27734600D01*
X74974438Y-27734600D02*
X74903009Y-27663171D01*
X74903009Y-27663171D02*
X74831581Y-27520314D01*
X74831581Y-27520314D02*
X74831581Y-27091742D01*
X74831581Y-27091742D02*
X74903009Y-26948885D01*
X74903009Y-26948885D02*
X74974438Y-26877457D01*
X74974438Y-26877457D02*
X75117295Y-26806028D01*
X75117295Y-26806028D02*
X75403009Y-26806028D01*
X75403009Y-26806028D02*
X75545867Y-26877457D01*
X76403009Y-27806028D02*
X76260152Y-27734600D01*
X76260152Y-27734600D02*
X76188723Y-27663171D01*
X76188723Y-27663171D02*
X76117295Y-27520314D01*
X76117295Y-27520314D02*
X76117295Y-27091742D01*
X76117295Y-27091742D02*
X76188723Y-26948885D01*
X76188723Y-26948885D02*
X76260152Y-26877457D01*
X76260152Y-26877457D02*
X76403009Y-26806028D01*
X76403009Y-26806028D02*
X76617295Y-26806028D01*
X76617295Y-26806028D02*
X76760152Y-26877457D01*
X76760152Y-26877457D02*
X76831581Y-26948885D01*
X76831581Y-26948885D02*
X76903009Y-27091742D01*
X76903009Y-27091742D02*
X76903009Y-27520314D01*
X76903009Y-27520314D02*
X76831581Y-27663171D01*
X76831581Y-27663171D02*
X76760152Y-27734600D01*
X76760152Y-27734600D02*
X76617295Y-27806028D01*
X76617295Y-27806028D02*
X76403009Y-27806028D01*
X77545866Y-27806028D02*
X77545866Y-26806028D01*
X77545866Y-26948885D02*
X77617295Y-26877457D01*
X77617295Y-26877457D02*
X77760152Y-26806028D01*
X77760152Y-26806028D02*
X77974438Y-26806028D01*
X77974438Y-26806028D02*
X78117295Y-26877457D01*
X78117295Y-26877457D02*
X78188724Y-27020314D01*
X78188724Y-27020314D02*
X78188724Y-27806028D01*
X78188724Y-27020314D02*
X78260152Y-26877457D01*
X78260152Y-26877457D02*
X78403009Y-26806028D01*
X78403009Y-26806028D02*
X78617295Y-26806028D01*
X78617295Y-26806028D02*
X78760152Y-26877457D01*
X78760152Y-26877457D02*
X78831581Y-27020314D01*
X78831581Y-27020314D02*
X78831581Y-27806028D01*
X80617295Y-26234600D02*
X79331581Y-28163171D01*
X81117295Y-27806028D02*
X81117295Y-26306028D01*
X81117295Y-26306028D02*
X81474438Y-26306028D01*
X81474438Y-26306028D02*
X81688724Y-26377457D01*
X81688724Y-26377457D02*
X81831581Y-26520314D01*
X81831581Y-26520314D02*
X81903010Y-26663171D01*
X81903010Y-26663171D02*
X81974438Y-26948885D01*
X81974438Y-26948885D02*
X81974438Y-27163171D01*
X81974438Y-27163171D02*
X81903010Y-27448885D01*
X81903010Y-27448885D02*
X81831581Y-27591742D01*
X81831581Y-27591742D02*
X81688724Y-27734600D01*
X81688724Y-27734600D02*
X81474438Y-27806028D01*
X81474438Y-27806028D02*
X81117295Y-27806028D01*
X83260153Y-27806028D02*
X83260153Y-27020314D01*
X83260153Y-27020314D02*
X83188724Y-26877457D01*
X83188724Y-26877457D02*
X83045867Y-26806028D01*
X83045867Y-26806028D02*
X82760153Y-26806028D01*
X82760153Y-26806028D02*
X82617295Y-26877457D01*
X83260153Y-27734600D02*
X83117295Y-27806028D01*
X83117295Y-27806028D02*
X82760153Y-27806028D01*
X82760153Y-27806028D02*
X82617295Y-27734600D01*
X82617295Y-27734600D02*
X82545867Y-27591742D01*
X82545867Y-27591742D02*
X82545867Y-27448885D01*
X82545867Y-27448885D02*
X82617295Y-27306028D01*
X82617295Y-27306028D02*
X82760153Y-27234600D01*
X82760153Y-27234600D02*
X83117295Y-27234600D01*
X83117295Y-27234600D02*
X83260153Y-27163171D01*
X83974438Y-26806028D02*
X83974438Y-27806028D01*
X83974438Y-26948885D02*
X84045867Y-26877457D01*
X84045867Y-26877457D02*
X84188724Y-26806028D01*
X84188724Y-26806028D02*
X84403010Y-26806028D01*
X84403010Y-26806028D02*
X84545867Y-26877457D01*
X84545867Y-26877457D02*
X84617296Y-27020314D01*
X84617296Y-27020314D02*
X84617296Y-27806028D01*
X85903010Y-27734600D02*
X85760153Y-27806028D01*
X85760153Y-27806028D02*
X85474439Y-27806028D01*
X85474439Y-27806028D02*
X85331581Y-27734600D01*
X85331581Y-27734600D02*
X85260153Y-27591742D01*
X85260153Y-27591742D02*
X85260153Y-27020314D01*
X85260153Y-27020314D02*
X85331581Y-26877457D01*
X85331581Y-26877457D02*
X85474439Y-26806028D01*
X85474439Y-26806028D02*
X85760153Y-26806028D01*
X85760153Y-26806028D02*
X85903010Y-26877457D01*
X85903010Y-26877457D02*
X85974439Y-27020314D01*
X85974439Y-27020314D02*
X85974439Y-27163171D01*
X85974439Y-27163171D02*
X85260153Y-27306028D01*
X86617295Y-27020314D02*
X87117295Y-27020314D01*
X87331581Y-27806028D02*
X86617295Y-27806028D01*
X86617295Y-27806028D02*
X86617295Y-26306028D01*
X86617295Y-26306028D02*
X87331581Y-26306028D01*
X87831581Y-26806028D02*
X88188724Y-27806028D01*
X88188724Y-27806028D02*
X88545867Y-26806028D01*
X89760153Y-27806028D02*
X89760153Y-27020314D01*
X89760153Y-27020314D02*
X89688724Y-26877457D01*
X89688724Y-26877457D02*
X89545867Y-26806028D01*
X89545867Y-26806028D02*
X89260153Y-26806028D01*
X89260153Y-26806028D02*
X89117295Y-26877457D01*
X89760153Y-27734600D02*
X89617295Y-27806028D01*
X89617295Y-27806028D02*
X89260153Y-27806028D01*
X89260153Y-27806028D02*
X89117295Y-27734600D01*
X89117295Y-27734600D02*
X89045867Y-27591742D01*
X89045867Y-27591742D02*
X89045867Y-27448885D01*
X89045867Y-27448885D02*
X89117295Y-27306028D01*
X89117295Y-27306028D02*
X89260153Y-27234600D01*
X89260153Y-27234600D02*
X89617295Y-27234600D01*
X89617295Y-27234600D02*
X89760153Y-27163171D01*
X90474438Y-26806028D02*
X90474438Y-27806028D01*
X90474438Y-26948885D02*
X90545867Y-26877457D01*
X90545867Y-26877457D02*
X90688724Y-26806028D01*
X90688724Y-26806028D02*
X90903010Y-26806028D01*
X90903010Y-26806028D02*
X91045867Y-26877457D01*
X91045867Y-26877457D02*
X91117296Y-27020314D01*
X91117296Y-27020314D02*
X91117296Y-27806028D01*
X91760153Y-27734600D02*
X91903010Y-27806028D01*
X91903010Y-27806028D02*
X92188724Y-27806028D01*
X92188724Y-27806028D02*
X92331581Y-27734600D01*
X92331581Y-27734600D02*
X92403010Y-27591742D01*
X92403010Y-27591742D02*
X92403010Y-27520314D01*
X92403010Y-27520314D02*
X92331581Y-27377457D01*
X92331581Y-27377457D02*
X92188724Y-27306028D01*
X92188724Y-27306028D02*
X91974439Y-27306028D01*
X91974439Y-27306028D02*
X91831581Y-27234600D01*
X91831581Y-27234600D02*
X91760153Y-27091742D01*
X91760153Y-27091742D02*
X91760153Y-27020314D01*
X91760153Y-27020314D02*
X91831581Y-26877457D01*
X91831581Y-26877457D02*
X91974439Y-26806028D01*
X91974439Y-26806028D02*
X92188724Y-26806028D01*
X92188724Y-26806028D02*
X92331581Y-26877457D01*
X94117296Y-26234600D02*
X92831582Y-28163171D01*
X95260154Y-26806028D02*
X95260154Y-28020314D01*
X95260154Y-28020314D02*
X95188725Y-28163171D01*
X95188725Y-28163171D02*
X95117296Y-28234600D01*
X95117296Y-28234600D02*
X94974439Y-28306028D01*
X94974439Y-28306028D02*
X94760154Y-28306028D01*
X94760154Y-28306028D02*
X94617296Y-28234600D01*
X95260154Y-27734600D02*
X95117296Y-27806028D01*
X95117296Y-27806028D02*
X94831582Y-27806028D01*
X94831582Y-27806028D02*
X94688725Y-27734600D01*
X94688725Y-27734600D02*
X94617296Y-27663171D01*
X94617296Y-27663171D02*
X94545868Y-27520314D01*
X94545868Y-27520314D02*
X94545868Y-27091742D01*
X94545868Y-27091742D02*
X94617296Y-26948885D01*
X94617296Y-26948885D02*
X94688725Y-26877457D01*
X94688725Y-26877457D02*
X94831582Y-26806028D01*
X94831582Y-26806028D02*
X95117296Y-26806028D01*
X95117296Y-26806028D02*
X95260154Y-26877457D01*
X96545868Y-27734600D02*
X96403011Y-27806028D01*
X96403011Y-27806028D02*
X96117297Y-27806028D01*
X96117297Y-27806028D02*
X95974439Y-27734600D01*
X95974439Y-27734600D02*
X95903011Y-27591742D01*
X95903011Y-27591742D02*
X95903011Y-27020314D01*
X95903011Y-27020314D02*
X95974439Y-26877457D01*
X95974439Y-26877457D02*
X96117297Y-26806028D01*
X96117297Y-26806028D02*
X96403011Y-26806028D01*
X96403011Y-26806028D02*
X96545868Y-26877457D01*
X96545868Y-26877457D02*
X96617297Y-27020314D01*
X96617297Y-27020314D02*
X96617297Y-27163171D01*
X96617297Y-27163171D02*
X95903011Y-27306028D01*
X97903011Y-27734600D02*
X97760153Y-27806028D01*
X97760153Y-27806028D02*
X97474439Y-27806028D01*
X97474439Y-27806028D02*
X97331582Y-27734600D01*
X97331582Y-27734600D02*
X97260153Y-27663171D01*
X97260153Y-27663171D02*
X97188725Y-27520314D01*
X97188725Y-27520314D02*
X97188725Y-27091742D01*
X97188725Y-27091742D02*
X97260153Y-26948885D01*
X97260153Y-26948885D02*
X97331582Y-26877457D01*
X97331582Y-26877457D02*
X97474439Y-26806028D01*
X97474439Y-26806028D02*
X97760153Y-26806028D01*
X97760153Y-26806028D02*
X97903011Y-26877457D01*
X98545867Y-27806028D02*
X98545867Y-26306028D01*
X98688725Y-27234600D02*
X99117296Y-27806028D01*
X99117296Y-26806028D02*
X98545867Y-27377457D01*
X99974439Y-27806028D02*
X99831582Y-27734600D01*
X99831582Y-27734600D02*
X99760153Y-27663171D01*
X99760153Y-27663171D02*
X99688725Y-27520314D01*
X99688725Y-27520314D02*
X99688725Y-27091742D01*
X99688725Y-27091742D02*
X99760153Y-26948885D01*
X99760153Y-26948885D02*
X99831582Y-26877457D01*
X99831582Y-26877457D02*
X99974439Y-26806028D01*
X99974439Y-26806028D02*
X100188725Y-26806028D01*
X100188725Y-26806028D02*
X100331582Y-26877457D01*
X100331582Y-26877457D02*
X100403011Y-26948885D01*
X100403011Y-26948885D02*
X100474439Y-27091742D01*
X100474439Y-27091742D02*
X100474439Y-27520314D01*
X100474439Y-27520314D02*
X100403011Y-27663171D01*
X100403011Y-27663171D02*
X100331582Y-27734600D01*
X100331582Y-27734600D02*
X100188725Y-27806028D01*
X100188725Y-27806028D02*
X99974439Y-27806028D01*
D12*
D13*
X58601691Y-21047228D02*
X58430263Y-20961514D01*
X58430263Y-20961514D02*
X58173120Y-20961514D01*
X58173120Y-20961514D02*
X57915977Y-21047228D01*
X57915977Y-21047228D02*
X57744548Y-21218657D01*
X57744548Y-21218657D02*
X57658834Y-21390085D01*
X57658834Y-21390085D02*
X57573120Y-21732942D01*
X57573120Y-21732942D02*
X57573120Y-21990085D01*
X57573120Y-21990085D02*
X57658834Y-22332942D01*
X57658834Y-22332942D02*
X57744548Y-22504371D01*
X57744548Y-22504371D02*
X57915977Y-22675800D01*
X57915977Y-22675800D02*
X58173120Y-22761514D01*
X58173120Y-22761514D02*
X58344548Y-22761514D01*
X58344548Y-22761514D02*
X58601691Y-22675800D01*
X58601691Y-22675800D02*
X58687405Y-22590085D01*
X58687405Y-22590085D02*
X58687405Y-21990085D01*
X58687405Y-21990085D02*
X58344548Y-21990085D01*
X60144548Y-22675800D02*
X59973120Y-22761514D01*
X59973120Y-22761514D02*
X59630263Y-22761514D01*
X59630263Y-22761514D02*
X59458834Y-22675800D01*
X59458834Y-22675800D02*
X59373120Y-22504371D01*
X59373120Y-22504371D02*
X59373120Y-21818657D01*
X59373120Y-21818657D02*
X59458834Y-21647228D01*
X59458834Y-21647228D02*
X59630263Y-21561514D01*
X59630263Y-21561514D02*
X59973120Y-21561514D01*
X59973120Y-21561514D02*
X60144548Y-21647228D01*
X60144548Y-21647228D02*
X60230263Y-21818657D01*
X60230263Y-21818657D02*
X60230263Y-21990085D01*
X60230263Y-21990085D02*
X59373120Y-22161514D01*
X61773120Y-22675800D02*
X61601691Y-22761514D01*
X61601691Y-22761514D02*
X61258834Y-22761514D01*
X61258834Y-22761514D02*
X61087405Y-22675800D01*
X61087405Y-22675800D02*
X61001691Y-22590085D01*
X61001691Y-22590085D02*
X60915977Y-22418657D01*
X60915977Y-22418657D02*
X60915977Y-21904371D01*
X60915977Y-21904371D02*
X61001691Y-21732942D01*
X61001691Y-21732942D02*
X61087405Y-21647228D01*
X61087405Y-21647228D02*
X61258834Y-21561514D01*
X61258834Y-21561514D02*
X61601691Y-21561514D01*
X61601691Y-21561514D02*
X61773120Y-21647228D01*
X62544548Y-22761514D02*
X62544548Y-20961514D01*
X62715977Y-22075800D02*
X63230262Y-22761514D01*
X63230262Y-21561514D02*
X62544548Y-22247228D01*
X64258834Y-22761514D02*
X64087405Y-22675800D01*
X64087405Y-22675800D02*
X64001691Y-22590085D01*
X64001691Y-22590085D02*
X63915977Y-22418657D01*
X63915977Y-22418657D02*
X63915977Y-21904371D01*
X63915977Y-21904371D02*
X64001691Y-21732942D01*
X64001691Y-21732942D02*
X64087405Y-21647228D01*
X64087405Y-21647228D02*
X64258834Y-21561514D01*
X64258834Y-21561514D02*
X64515977Y-21561514D01*
X64515977Y-21561514D02*
X64687405Y-21647228D01*
X64687405Y-21647228D02*
X64773120Y-21732942D01*
X64773120Y-21732942D02*
X64858834Y-21904371D01*
X64858834Y-21904371D02*
X64858834Y-22418657D01*
X64858834Y-22418657D02*
X64773120Y-22590085D01*
X64773120Y-22590085D02*
X64687405Y-22675800D01*
X64687405Y-22675800D02*
X64515977Y-22761514D01*
X64515977Y-22761514D02*
X64258834Y-22761514D01*
X67001691Y-22761514D02*
X67001691Y-20961514D01*
X68030262Y-22761514D02*
X67258834Y-21732942D01*
X68030262Y-20961514D02*
X67001691Y-21990085D01*
X69487405Y-22675800D02*
X69315977Y-22761514D01*
X69315977Y-22761514D02*
X68973120Y-22761514D01*
X68973120Y-22761514D02*
X68801691Y-22675800D01*
X68801691Y-22675800D02*
X68715977Y-22504371D01*
X68715977Y-22504371D02*
X68715977Y-21818657D01*
X68715977Y-21818657D02*
X68801691Y-21647228D01*
X68801691Y-21647228D02*
X68973120Y-21561514D01*
X68973120Y-21561514D02*
X69315977Y-21561514D01*
X69315977Y-21561514D02*
X69487405Y-21647228D01*
X69487405Y-21647228D02*
X69573120Y-21818657D01*
X69573120Y-21818657D02*
X69573120Y-21990085D01*
X69573120Y-21990085D02*
X68715977Y-22161514D01*
X70173119Y-21561514D02*
X70601691Y-22761514D01*
X71030262Y-21561514D02*
X70601691Y-22761514D01*
X70601691Y-22761514D02*
X70430262Y-23190085D01*
X70430262Y-23190085D02*
X70344548Y-23275800D01*
X70344548Y-23275800D02*
X70173119Y-23361514D01*
X71715977Y-22761514D02*
X71715977Y-20961514D01*
X71715977Y-21647228D02*
X71887406Y-21561514D01*
X71887406Y-21561514D02*
X72230263Y-21561514D01*
X72230263Y-21561514D02*
X72401691Y-21647228D01*
X72401691Y-21647228D02*
X72487406Y-21732942D01*
X72487406Y-21732942D02*
X72573120Y-21904371D01*
X72573120Y-21904371D02*
X72573120Y-22418657D01*
X72573120Y-22418657D02*
X72487406Y-22590085D01*
X72487406Y-22590085D02*
X72401691Y-22675800D01*
X72401691Y-22675800D02*
X72230263Y-22761514D01*
X72230263Y-22761514D02*
X71887406Y-22761514D01*
X71887406Y-22761514D02*
X71715977Y-22675800D01*
X73601691Y-22761514D02*
X73430262Y-22675800D01*
X73430262Y-22675800D02*
X73344548Y-22590085D01*
X73344548Y-22590085D02*
X73258834Y-22418657D01*
X73258834Y-22418657D02*
X73258834Y-21904371D01*
X73258834Y-21904371D02*
X73344548Y-21732942D01*
X73344548Y-21732942D02*
X73430262Y-21647228D01*
X73430262Y-21647228D02*
X73601691Y-21561514D01*
X73601691Y-21561514D02*
X73858834Y-21561514D01*
X73858834Y-21561514D02*
X74030262Y-21647228D01*
X74030262Y-21647228D02*
X74115977Y-21732942D01*
X74115977Y-21732942D02*
X74201691Y-21904371D01*
X74201691Y-21904371D02*
X74201691Y-22418657D01*
X74201691Y-22418657D02*
X74115977Y-22590085D01*
X74115977Y-22590085D02*
X74030262Y-22675800D01*
X74030262Y-22675800D02*
X73858834Y-22761514D01*
X73858834Y-22761514D02*
X73601691Y-22761514D01*
X75744548Y-22761514D02*
X75744548Y-21818657D01*
X75744548Y-21818657D02*
X75658833Y-21647228D01*
X75658833Y-21647228D02*
X75487405Y-21561514D01*
X75487405Y-21561514D02*
X75144548Y-21561514D01*
X75144548Y-21561514D02*
X74973119Y-21647228D01*
X75744548Y-22675800D02*
X75573119Y-22761514D01*
X75573119Y-22761514D02*
X75144548Y-22761514D01*
X75144548Y-22761514D02*
X74973119Y-22675800D01*
X74973119Y-22675800D02*
X74887405Y-22504371D01*
X74887405Y-22504371D02*
X74887405Y-22332942D01*
X74887405Y-22332942D02*
X74973119Y-22161514D01*
X74973119Y-22161514D02*
X75144548Y-22075800D01*
X75144548Y-22075800D02*
X75573119Y-22075800D01*
X75573119Y-22075800D02*
X75744548Y-21990085D01*
X76601690Y-22761514D02*
X76601690Y-21561514D01*
X76601690Y-21904371D02*
X76687404Y-21732942D01*
X76687404Y-21732942D02*
X76773119Y-21647228D01*
X76773119Y-21647228D02*
X76944547Y-21561514D01*
X76944547Y-21561514D02*
X77115976Y-21561514D01*
X78487405Y-22761514D02*
X78487405Y-20961514D01*
X78487405Y-22675800D02*
X78315976Y-22761514D01*
X78315976Y-22761514D02*
X77973119Y-22761514D01*
X77973119Y-22761514D02*
X77801690Y-22675800D01*
X77801690Y-22675800D02*
X77715976Y-22590085D01*
X77715976Y-22590085D02*
X77630262Y-22418657D01*
X77630262Y-22418657D02*
X77630262Y-21904371D01*
X77630262Y-21904371D02*
X77715976Y-21732942D01*
X77715976Y-21732942D02*
X77801690Y-21647228D01*
X77801690Y-21647228D02*
X77973119Y-21561514D01*
X77973119Y-21561514D02*
X78315976Y-21561514D01*
X78315976Y-21561514D02*
X78487405Y-21647228D01*
D14*
D15*
X60172135Y-109292293D02*
X60179283Y-109132734D01*
X60179283Y-109132734D02*
X60092125Y-108936975D01*
X60092125Y-108936975D02*
X59939714Y-108770267D01*
X59939714Y-108770267D02*
X59751103Y-108697866D01*
X59751103Y-108697866D02*
X59591543Y-108690718D01*
X59591543Y-108690718D02*
X59301478Y-108741675D01*
X59301478Y-108741675D02*
X59105718Y-108828833D01*
X59105718Y-108828833D02*
X58873758Y-109010297D01*
X58873758Y-109010297D02*
X58772304Y-109133655D01*
X58772304Y-109133655D02*
X58699903Y-109322267D01*
X58699903Y-109322267D02*
X58721807Y-109547080D01*
X58721807Y-109547080D02*
X58779912Y-109677586D01*
X58779912Y-109677586D02*
X58932324Y-109844293D01*
X58932324Y-109844293D02*
X59026629Y-109880494D01*
X59026629Y-109880494D02*
X59483402Y-109677125D01*
X59483402Y-109677125D02*
X59367192Y-109416112D01*
X59455271Y-111018852D02*
X59331912Y-110917398D01*
X59331912Y-110917398D02*
X59215702Y-110656385D01*
X59215702Y-110656385D02*
X59222850Y-110496826D01*
X59222850Y-110496826D02*
X59324304Y-110373467D01*
X59324304Y-110373467D02*
X59846330Y-110141046D01*
X59846330Y-110141046D02*
X60005889Y-110148194D01*
X60005889Y-110148194D02*
X60129247Y-110249648D01*
X60129247Y-110249648D02*
X60245458Y-110510661D01*
X60245458Y-110510661D02*
X60238310Y-110670220D01*
X60238310Y-110670220D02*
X60136856Y-110793579D01*
X60136856Y-110793579D02*
X60006349Y-110851684D01*
X60006349Y-110851684D02*
X59585317Y-110257257D01*
X60007270Y-112258663D02*
X59883912Y-112157209D01*
X59883912Y-112157209D02*
X59767701Y-111896196D01*
X59767701Y-111896196D02*
X59774849Y-111736637D01*
X59774849Y-111736637D02*
X59811050Y-111642331D01*
X59811050Y-111642331D02*
X59912504Y-111518973D01*
X59912504Y-111518973D02*
X60304023Y-111344657D01*
X60304023Y-111344657D02*
X60463582Y-111351805D01*
X60463582Y-111351805D02*
X60557888Y-111388006D01*
X60557888Y-111388006D02*
X60681247Y-111489460D01*
X60681247Y-111489460D02*
X60797457Y-111750473D01*
X60797457Y-111750473D02*
X60790309Y-111910032D01*
X60203490Y-112874995D02*
X61573809Y-112264890D01*
X60783622Y-112773080D02*
X60435911Y-113397021D01*
X61349457Y-112990284D02*
X60595010Y-112700679D01*
X60784543Y-114180060D02*
X60791691Y-114020501D01*
X60791691Y-114020501D02*
X60827892Y-113926195D01*
X60827892Y-113926195D02*
X60929345Y-113802836D01*
X60929345Y-113802836D02*
X61320865Y-113628521D01*
X61320865Y-113628521D02*
X61480424Y-113635669D01*
X61480424Y-113635669D02*
X61574730Y-113671869D01*
X61574730Y-113671869D02*
X61698088Y-113773323D01*
X61698088Y-113773323D02*
X61785246Y-113969083D01*
X61785246Y-113969083D02*
X61778098Y-114128642D01*
X61778098Y-114128642D02*
X61741898Y-114222948D01*
X61741898Y-114222948D02*
X61640444Y-114346306D01*
X61640444Y-114346306D02*
X61248924Y-114520622D01*
X61248924Y-114520622D02*
X61089365Y-114513474D01*
X61089365Y-114513474D02*
X60995059Y-114477273D01*
X60995059Y-114477273D02*
X60871701Y-114375820D01*
X60871701Y-114375820D02*
X60784543Y-114180060D01*
X62569667Y-115730921D02*
X61801385Y-116463923D01*
X61801385Y-116463923D02*
X62860193Y-116383453D01*
X62498647Y-118030001D02*
X62150016Y-117246962D01*
X62324332Y-117638482D02*
X63694650Y-117028377D01*
X63694650Y-117028377D02*
X63440785Y-116985028D01*
X63440785Y-116985028D02*
X63252173Y-116912627D01*
X63252173Y-116912627D02*
X63128815Y-116811173D01*
X62890627Y-118559175D02*
X62854427Y-118653481D01*
X62854427Y-118653481D02*
X62760121Y-118617280D01*
X62760121Y-118617280D02*
X62796321Y-118522974D01*
X62796321Y-118522974D02*
X62890627Y-118559175D01*
X62890627Y-118559175D02*
X62760121Y-118617280D01*
X64537176Y-118920721D02*
X64595281Y-119051227D01*
X64595281Y-119051227D02*
X64588133Y-119210786D01*
X64588133Y-119210786D02*
X64551932Y-119305092D01*
X64551932Y-119305092D02*
X64450478Y-119428451D01*
X64450478Y-119428451D02*
X64218518Y-119609915D01*
X64218518Y-119609915D02*
X63892252Y-119755178D01*
X63892252Y-119755178D02*
X63602186Y-119806135D01*
X63602186Y-119806135D02*
X63442627Y-119798987D01*
X63442627Y-119798987D02*
X63348321Y-119762786D01*
X63348321Y-119762786D02*
X63224963Y-119661332D01*
X63224963Y-119661332D02*
X63166857Y-119530826D01*
X63166857Y-119530826D02*
X63174005Y-119371267D01*
X63174005Y-119371267D02*
X63210206Y-119276961D01*
X63210206Y-119276961D02*
X63311660Y-119153602D01*
X63311660Y-119153602D02*
X63543620Y-118972139D01*
X63543620Y-118972139D02*
X63869887Y-118826876D01*
X63869887Y-118826876D02*
X64159952Y-118775918D01*
X64159952Y-118775918D02*
X64319511Y-118783066D01*
X64319511Y-118783066D02*
X64413817Y-118819267D01*
X64413817Y-118819267D02*
X64537176Y-118920721D01*
X63726005Y-120611078D02*
X63660752Y-120640131D01*
X63660752Y-120640131D02*
X63501193Y-120632983D01*
X63501193Y-120632983D02*
X63406887Y-120596782D01*
X64387067Y-122271462D02*
X65757385Y-121661357D01*
X65757385Y-121661357D02*
X65902649Y-121987623D01*
X65902649Y-121987623D02*
X65924553Y-122212436D01*
X65924553Y-122212436D02*
X65852152Y-122401047D01*
X65852152Y-122401047D02*
X65750698Y-122524406D01*
X65750698Y-122524406D02*
X65518738Y-122705869D01*
X65518738Y-122705869D02*
X65322978Y-122793027D01*
X65322978Y-122793027D02*
X65032912Y-122843985D01*
X65032912Y-122843985D02*
X64873353Y-122836837D01*
X64873353Y-122836837D02*
X64684741Y-122764435D01*
X64684741Y-122764435D02*
X64532330Y-122597728D01*
X64532330Y-122597728D02*
X64387067Y-122271462D01*
X65258646Y-124229059D02*
X65976432Y-123909481D01*
X65976432Y-123909481D02*
X66077885Y-123786122D01*
X66077885Y-123786122D02*
X66085033Y-123626563D01*
X66085033Y-123626563D02*
X65968823Y-123365550D01*
X65968823Y-123365550D02*
X65845464Y-123264096D01*
X65323899Y-124200007D02*
X65200541Y-124098553D01*
X65200541Y-124098553D02*
X65055277Y-123772287D01*
X65055277Y-123772287D02*
X65062425Y-123612727D01*
X65062425Y-123612727D02*
X65163879Y-123489369D01*
X65163879Y-123489369D02*
X65294386Y-123431264D01*
X65294386Y-123431264D02*
X65453945Y-123438412D01*
X65453945Y-123438412D02*
X65577303Y-123539866D01*
X65577303Y-123539866D02*
X65722567Y-123866132D01*
X65722567Y-123866132D02*
X65845925Y-123967586D01*
X66462717Y-124474855D02*
X65549172Y-124881592D01*
X66332211Y-124532961D02*
X66426517Y-124569161D01*
X66426517Y-124569161D02*
X66549875Y-124670615D01*
X66549875Y-124670615D02*
X66637033Y-124866375D01*
X66637033Y-124866375D02*
X66629885Y-125025934D01*
X66629885Y-125025934D02*
X66528431Y-125149292D01*
X66528431Y-125149292D02*
X65810646Y-125468871D01*
X66398846Y-126614377D02*
X66275488Y-126512923D01*
X66275488Y-126512923D02*
X66159277Y-126251910D01*
X66159277Y-126251910D02*
X66166425Y-126092351D01*
X66166425Y-126092351D02*
X66267879Y-125968993D01*
X66267879Y-125968993D02*
X66789905Y-125736572D01*
X66789905Y-125736572D02*
X66949464Y-125743720D01*
X66949464Y-125743720D02*
X67072823Y-125845174D01*
X67072823Y-125845174D02*
X67189033Y-126106187D01*
X67189033Y-126106187D02*
X67181885Y-126265746D01*
X67181885Y-126265746D02*
X67080431Y-126389104D01*
X67080431Y-126389104D02*
X66949925Y-126447209D01*
X66949925Y-126447209D02*
X66528892Y-125852782D01*
X67806746Y-128020435D02*
X68010115Y-128477208D01*
X67379487Y-128992546D02*
X67088961Y-128340014D01*
X67088961Y-128340014D02*
X68459279Y-127729909D01*
X68459279Y-127729909D02*
X68749805Y-128382441D01*
X68496401Y-129042582D02*
X67728118Y-129775585D01*
X67728118Y-129775585D02*
X68786927Y-129695115D01*
X68367276Y-131211157D02*
X69085062Y-130891578D01*
X69085062Y-130891578D02*
X69186515Y-130768219D01*
X69186515Y-130768219D02*
X69193663Y-130608660D01*
X69193663Y-130608660D02*
X69077453Y-130347647D01*
X69077453Y-130347647D02*
X68954094Y-130246193D01*
X68432529Y-131182104D02*
X68309171Y-131080650D01*
X68309171Y-131080650D02*
X68163907Y-130754384D01*
X68163907Y-130754384D02*
X68171055Y-130594825D01*
X68171055Y-130594825D02*
X68272509Y-130471466D01*
X68272509Y-130471466D02*
X68403016Y-130413361D01*
X68403016Y-130413361D02*
X68562575Y-130420509D01*
X68562575Y-130420509D02*
X68685933Y-130521963D01*
X68685933Y-130521963D02*
X68831197Y-130848229D01*
X68831197Y-130848229D02*
X68954555Y-130949683D01*
X69571347Y-131456953D02*
X68657802Y-131863689D01*
X69440841Y-131515058D02*
X69535147Y-131551258D01*
X69535147Y-131551258D02*
X69658505Y-131652712D01*
X69658505Y-131652712D02*
X69745663Y-131848472D01*
X69745663Y-131848472D02*
X69738515Y-132008031D01*
X69738515Y-132008031D02*
X69637061Y-132131390D01*
X69637061Y-132131390D02*
X68919276Y-132450968D01*
X69246002Y-133009195D02*
X69238854Y-133168754D01*
X69238854Y-133168754D02*
X69355065Y-133429767D01*
X69355065Y-133429767D02*
X69478423Y-133531221D01*
X69478423Y-133531221D02*
X69637982Y-133538369D01*
X69637982Y-133538369D02*
X69703236Y-133509317D01*
X69703236Y-133509317D02*
X69804690Y-133385958D01*
X69804690Y-133385958D02*
X69811838Y-133226399D01*
X69811838Y-133226399D02*
X69724680Y-133030639D01*
X69724680Y-133030639D02*
X69731828Y-132871080D01*
X69731828Y-132871080D02*
X69833282Y-132747722D01*
X69833282Y-132747722D02*
X69898535Y-132718669D01*
X69898535Y-132718669D02*
X70058094Y-132725817D01*
X70058094Y-132725817D02*
X70181453Y-132827271D01*
X70181453Y-132827271D02*
X70268610Y-133023031D01*
X70268610Y-133023031D02*
X70261462Y-133182590D01*
%TA.AperFunction,NonConductor*%
G36*
X135918719Y-107019640D02*
G01*
X135985002Y-107041723D01*
X136028828Y-107096139D01*
X136036277Y-107165610D01*
X136033407Y-107175750D01*
X136033650Y-107175811D01*
X136031701Y-107183699D01*
X136028959Y-107208264D01*
X136026088Y-107224316D01*
X136020142Y-107248319D01*
X136020141Y-107248327D01*
X136020619Y-107273524D01*
X136019875Y-107289630D01*
X136007813Y-107397674D01*
X136004356Y-107416003D01*
X135999506Y-107434105D01*
X135999506Y-107465195D01*
X135998740Y-107478953D01*
X135995278Y-107509954D01*
X135998102Y-107528553D01*
X135999506Y-107547162D01*
X135999506Y-116150486D01*
X135979821Y-116217525D01*
X135927017Y-116263280D01*
X135876632Y-116274481D01*
X122566361Y-116395399D01*
X122499146Y-116376324D01*
X122452913Y-116323938D01*
X122441235Y-116271404D01*
X122441235Y-106841153D01*
X122443886Y-106815652D01*
X122444087Y-106814695D01*
X122444087Y-106814694D01*
X122443930Y-106811832D01*
X122441420Y-106765935D01*
X122441235Y-106759162D01*
X122441235Y-106710345D01*
X122441235Y-106710342D01*
X122440982Y-106709399D01*
X122436942Y-106684080D01*
X122436149Y-106669584D01*
X122452145Y-106601572D01*
X122502372Y-106553003D01*
X122564422Y-106538897D01*
X135918719Y-107019640D01*
G37*
%TD.AperFunction*%
M02*
