%TF.GenerationSoftware,KiCad,Pcbnew,8.0.3*%
%TF.CreationDate,2024-09-02T20:30:28+10:00*%
%TF.ProjectId,Top_plate,546f705f-706c-4617-9465-2e6b69636164,rev?*%
%TF.SameCoordinates,Original*%
%TF.FileFunction,Legend,Bot*%
%TF.FilePolarity,Positive*%
%FSLAX46Y46*%
G04 Gerber Fmt 4.6, Leading zero omitted, Abs format (unit mm)*
G04 Created by KiCad (PCBNEW 8.0.3) date 2024-09-02 20:30:28*
%MOMM*%
%LPD*%
G01*
G04 APERTURE LIST*
%ADD10C,0.300000*%
%ADD11C,0.400000*%
G04 APERTURE END LIST*
D10*
X134640828Y-51914510D02*
X133140828Y-51914510D01*
X133140828Y-51914510D02*
X133140828Y-52271653D01*
X133140828Y-52271653D02*
X133212257Y-52485939D01*
X133212257Y-52485939D02*
X133355114Y-52628796D01*
X133355114Y-52628796D02*
X133497971Y-52700225D01*
X133497971Y-52700225D02*
X133783685Y-52771653D01*
X133783685Y-52771653D02*
X133997971Y-52771653D01*
X133997971Y-52771653D02*
X134283685Y-52700225D01*
X134283685Y-52700225D02*
X134426542Y-52628796D01*
X134426542Y-52628796D02*
X134569400Y-52485939D01*
X134569400Y-52485939D02*
X134640828Y-52271653D01*
X134640828Y-52271653D02*
X134640828Y-51914510D01*
X134640828Y-54057368D02*
X133855114Y-54057368D01*
X133855114Y-54057368D02*
X133712257Y-53985939D01*
X133712257Y-53985939D02*
X133640828Y-53843082D01*
X133640828Y-53843082D02*
X133640828Y-53557368D01*
X133640828Y-53557368D02*
X133712257Y-53414510D01*
X134569400Y-54057368D02*
X134640828Y-53914510D01*
X134640828Y-53914510D02*
X134640828Y-53557368D01*
X134640828Y-53557368D02*
X134569400Y-53414510D01*
X134569400Y-53414510D02*
X134426542Y-53343082D01*
X134426542Y-53343082D02*
X134283685Y-53343082D01*
X134283685Y-53343082D02*
X134140828Y-53414510D01*
X134140828Y-53414510D02*
X134069400Y-53557368D01*
X134069400Y-53557368D02*
X134069400Y-53914510D01*
X134069400Y-53914510D02*
X133997971Y-54057368D01*
X133640828Y-54771653D02*
X134640828Y-54771653D01*
X133783685Y-54771653D02*
X133712257Y-54843082D01*
X133712257Y-54843082D02*
X133640828Y-54985939D01*
X133640828Y-54985939D02*
X133640828Y-55200225D01*
X133640828Y-55200225D02*
X133712257Y-55343082D01*
X133712257Y-55343082D02*
X133855114Y-55414511D01*
X133855114Y-55414511D02*
X134640828Y-55414511D01*
X134569400Y-56700225D02*
X134640828Y-56557368D01*
X134640828Y-56557368D02*
X134640828Y-56271654D01*
X134640828Y-56271654D02*
X134569400Y-56128796D01*
X134569400Y-56128796D02*
X134426542Y-56057368D01*
X134426542Y-56057368D02*
X133855114Y-56057368D01*
X133855114Y-56057368D02*
X133712257Y-56128796D01*
X133712257Y-56128796D02*
X133640828Y-56271654D01*
X133640828Y-56271654D02*
X133640828Y-56557368D01*
X133640828Y-56557368D02*
X133712257Y-56700225D01*
X133712257Y-56700225D02*
X133855114Y-56771654D01*
X133855114Y-56771654D02*
X133997971Y-56771654D01*
X133997971Y-56771654D02*
X134140828Y-56057368D01*
X133855114Y-58557367D02*
X133855114Y-59057367D01*
X134640828Y-59271653D02*
X134640828Y-58557367D01*
X134640828Y-58557367D02*
X133140828Y-58557367D01*
X133140828Y-58557367D02*
X133140828Y-59271653D01*
X133640828Y-59771653D02*
X134640828Y-60128796D01*
X134640828Y-60128796D02*
X133640828Y-60485939D01*
X134640828Y-61700225D02*
X133855114Y-61700225D01*
X133855114Y-61700225D02*
X133712257Y-61628796D01*
X133712257Y-61628796D02*
X133640828Y-61485939D01*
X133640828Y-61485939D02*
X133640828Y-61200225D01*
X133640828Y-61200225D02*
X133712257Y-61057367D01*
X134569400Y-61700225D02*
X134640828Y-61557367D01*
X134640828Y-61557367D02*
X134640828Y-61200225D01*
X134640828Y-61200225D02*
X134569400Y-61057367D01*
X134569400Y-61057367D02*
X134426542Y-60985939D01*
X134426542Y-60985939D02*
X134283685Y-60985939D01*
X134283685Y-60985939D02*
X134140828Y-61057367D01*
X134140828Y-61057367D02*
X134069400Y-61200225D01*
X134069400Y-61200225D02*
X134069400Y-61557367D01*
X134069400Y-61557367D02*
X133997971Y-61700225D01*
X133640828Y-62414510D02*
X134640828Y-62414510D01*
X133783685Y-62414510D02*
X133712257Y-62485939D01*
X133712257Y-62485939D02*
X133640828Y-62628796D01*
X133640828Y-62628796D02*
X133640828Y-62843082D01*
X133640828Y-62843082D02*
X133712257Y-62985939D01*
X133712257Y-62985939D02*
X133855114Y-63057368D01*
X133855114Y-63057368D02*
X134640828Y-63057368D01*
X134569400Y-63700225D02*
X134640828Y-63843082D01*
X134640828Y-63843082D02*
X134640828Y-64128796D01*
X134640828Y-64128796D02*
X134569400Y-64271653D01*
X134569400Y-64271653D02*
X134426542Y-64343082D01*
X134426542Y-64343082D02*
X134355114Y-64343082D01*
X134355114Y-64343082D02*
X134212257Y-64271653D01*
X134212257Y-64271653D02*
X134140828Y-64128796D01*
X134140828Y-64128796D02*
X134140828Y-63914511D01*
X134140828Y-63914511D02*
X134069400Y-63771653D01*
X134069400Y-63771653D02*
X133926542Y-63700225D01*
X133926542Y-63700225D02*
X133855114Y-63700225D01*
X133855114Y-63700225D02*
X133712257Y-63771653D01*
X133712257Y-63771653D02*
X133640828Y-63914511D01*
X133640828Y-63914511D02*
X133640828Y-64128796D01*
X133640828Y-64128796D02*
X133712257Y-64271653D01*
X134569400Y-65057368D02*
X134640828Y-65057368D01*
X134640828Y-65057368D02*
X134783685Y-64985939D01*
X134783685Y-64985939D02*
X134855114Y-64914511D01*
X133283685Y-66771654D02*
X133212257Y-66843082D01*
X133212257Y-66843082D02*
X133140828Y-66985940D01*
X133140828Y-66985940D02*
X133140828Y-67343082D01*
X133140828Y-67343082D02*
X133212257Y-67485940D01*
X133212257Y-67485940D02*
X133283685Y-67557368D01*
X133283685Y-67557368D02*
X133426542Y-67628797D01*
X133426542Y-67628797D02*
X133569400Y-67628797D01*
X133569400Y-67628797D02*
X133783685Y-67557368D01*
X133783685Y-67557368D02*
X134640828Y-66700225D01*
X134640828Y-66700225D02*
X134640828Y-67628797D01*
X133140828Y-68557368D02*
X133140828Y-68700225D01*
X133140828Y-68700225D02*
X133212257Y-68843082D01*
X133212257Y-68843082D02*
X133283685Y-68914511D01*
X133283685Y-68914511D02*
X133426542Y-68985939D01*
X133426542Y-68985939D02*
X133712257Y-69057368D01*
X133712257Y-69057368D02*
X134069400Y-69057368D01*
X134069400Y-69057368D02*
X134355114Y-68985939D01*
X134355114Y-68985939D02*
X134497971Y-68914511D01*
X134497971Y-68914511D02*
X134569400Y-68843082D01*
X134569400Y-68843082D02*
X134640828Y-68700225D01*
X134640828Y-68700225D02*
X134640828Y-68557368D01*
X134640828Y-68557368D02*
X134569400Y-68414511D01*
X134569400Y-68414511D02*
X134497971Y-68343082D01*
X134497971Y-68343082D02*
X134355114Y-68271653D01*
X134355114Y-68271653D02*
X134069400Y-68200225D01*
X134069400Y-68200225D02*
X133712257Y-68200225D01*
X133712257Y-68200225D02*
X133426542Y-68271653D01*
X133426542Y-68271653D02*
X133283685Y-68343082D01*
X133283685Y-68343082D02*
X133212257Y-68414511D01*
X133212257Y-68414511D02*
X133140828Y-68557368D01*
X133283685Y-69628796D02*
X133212257Y-69700224D01*
X133212257Y-69700224D02*
X133140828Y-69843082D01*
X133140828Y-69843082D02*
X133140828Y-70200224D01*
X133140828Y-70200224D02*
X133212257Y-70343082D01*
X133212257Y-70343082D02*
X133283685Y-70414510D01*
X133283685Y-70414510D02*
X133426542Y-70485939D01*
X133426542Y-70485939D02*
X133569400Y-70485939D01*
X133569400Y-70485939D02*
X133783685Y-70414510D01*
X133783685Y-70414510D02*
X134640828Y-69557367D01*
X134640828Y-69557367D02*
X134640828Y-70485939D01*
X133640828Y-71771653D02*
X134640828Y-71771653D01*
X133069400Y-71414510D02*
X134140828Y-71057367D01*
X134140828Y-71057367D02*
X134140828Y-71985938D01*
D11*
X132244462Y-107807247D02*
X132463509Y-107697723D01*
X132463509Y-107697723D02*
X132792081Y-107697723D01*
X132792081Y-107697723D02*
X133120652Y-107807247D01*
X133120652Y-107807247D02*
X133339700Y-108026295D01*
X133339700Y-108026295D02*
X133449223Y-108245342D01*
X133449223Y-108245342D02*
X133558747Y-108683438D01*
X133558747Y-108683438D02*
X133558747Y-109012009D01*
X133558747Y-109012009D02*
X133449223Y-109450104D01*
X133449223Y-109450104D02*
X133339700Y-109669152D01*
X133339700Y-109669152D02*
X133120652Y-109888200D01*
X133120652Y-109888200D02*
X132792081Y-109997723D01*
X132792081Y-109997723D02*
X132573033Y-109997723D01*
X132573033Y-109997723D02*
X132244462Y-109888200D01*
X132244462Y-109888200D02*
X132134938Y-109778676D01*
X132134938Y-109778676D02*
X132134938Y-109012009D01*
X132134938Y-109012009D02*
X132573033Y-109012009D01*
X130273033Y-109888200D02*
X130492081Y-109997723D01*
X130492081Y-109997723D02*
X130930176Y-109997723D01*
X130930176Y-109997723D02*
X131149223Y-109888200D01*
X131149223Y-109888200D02*
X131258747Y-109669152D01*
X131258747Y-109669152D02*
X131258747Y-108792961D01*
X131258747Y-108792961D02*
X131149223Y-108573914D01*
X131149223Y-108573914D02*
X130930176Y-108464390D01*
X130930176Y-108464390D02*
X130492081Y-108464390D01*
X130492081Y-108464390D02*
X130273033Y-108573914D01*
X130273033Y-108573914D02*
X130163509Y-108792961D01*
X130163509Y-108792961D02*
X130163509Y-109012009D01*
X130163509Y-109012009D02*
X131258747Y-109231057D01*
X128192080Y-109888200D02*
X128411128Y-109997723D01*
X128411128Y-109997723D02*
X128849223Y-109997723D01*
X128849223Y-109997723D02*
X129068271Y-109888200D01*
X129068271Y-109888200D02*
X129177794Y-109778676D01*
X129177794Y-109778676D02*
X129287318Y-109559628D01*
X129287318Y-109559628D02*
X129287318Y-108902485D01*
X129287318Y-108902485D02*
X129177794Y-108683438D01*
X129177794Y-108683438D02*
X129068271Y-108573914D01*
X129068271Y-108573914D02*
X128849223Y-108464390D01*
X128849223Y-108464390D02*
X128411128Y-108464390D01*
X128411128Y-108464390D02*
X128192080Y-108573914D01*
X127206365Y-109997723D02*
X127206365Y-107697723D01*
X126987318Y-109121533D02*
X126330175Y-109997723D01*
X126330175Y-108464390D02*
X127206365Y-109340580D01*
X125015889Y-109997723D02*
X125234937Y-109888200D01*
X125234937Y-109888200D02*
X125344460Y-109778676D01*
X125344460Y-109778676D02*
X125453984Y-109559628D01*
X125453984Y-109559628D02*
X125453984Y-108902485D01*
X125453984Y-108902485D02*
X125344460Y-108683438D01*
X125344460Y-108683438D02*
X125234937Y-108573914D01*
X125234937Y-108573914D02*
X125015889Y-108464390D01*
X125015889Y-108464390D02*
X124687318Y-108464390D01*
X124687318Y-108464390D02*
X124468270Y-108573914D01*
X124468270Y-108573914D02*
X124358746Y-108683438D01*
X124358746Y-108683438D02*
X124249222Y-108902485D01*
X124249222Y-108902485D02*
X124249222Y-109559628D01*
X124249222Y-109559628D02*
X124358746Y-109778676D01*
X124358746Y-109778676D02*
X124468270Y-109888200D01*
X124468270Y-109888200D02*
X124687318Y-109997723D01*
X124687318Y-109997723D02*
X125015889Y-109997723D01*
D10*
X153710828Y-51604510D02*
X152210828Y-51604510D01*
X152710828Y-52318796D02*
X153710828Y-52318796D01*
X152853685Y-52318796D02*
X152782257Y-52390225D01*
X152782257Y-52390225D02*
X152710828Y-52533082D01*
X152710828Y-52533082D02*
X152710828Y-52747368D01*
X152710828Y-52747368D02*
X152782257Y-52890225D01*
X152782257Y-52890225D02*
X152925114Y-52961654D01*
X152925114Y-52961654D02*
X153710828Y-52961654D01*
X153639400Y-53604511D02*
X153710828Y-53747368D01*
X153710828Y-53747368D02*
X153710828Y-54033082D01*
X153710828Y-54033082D02*
X153639400Y-54175939D01*
X153639400Y-54175939D02*
X153496542Y-54247368D01*
X153496542Y-54247368D02*
X153425114Y-54247368D01*
X153425114Y-54247368D02*
X153282257Y-54175939D01*
X153282257Y-54175939D02*
X153210828Y-54033082D01*
X153210828Y-54033082D02*
X153210828Y-53818797D01*
X153210828Y-53818797D02*
X153139400Y-53675939D01*
X153139400Y-53675939D02*
X152996542Y-53604511D01*
X152996542Y-53604511D02*
X152925114Y-53604511D01*
X152925114Y-53604511D02*
X152782257Y-53675939D01*
X152782257Y-53675939D02*
X152710828Y-53818797D01*
X152710828Y-53818797D02*
X152710828Y-54033082D01*
X152710828Y-54033082D02*
X152782257Y-54175939D01*
X152710828Y-54890225D02*
X154210828Y-54890225D01*
X152782257Y-54890225D02*
X152710828Y-55033083D01*
X152710828Y-55033083D02*
X152710828Y-55318797D01*
X152710828Y-55318797D02*
X152782257Y-55461654D01*
X152782257Y-55461654D02*
X152853685Y-55533083D01*
X152853685Y-55533083D02*
X152996542Y-55604511D01*
X152996542Y-55604511D02*
X153425114Y-55604511D01*
X153425114Y-55604511D02*
X153567971Y-55533083D01*
X153567971Y-55533083D02*
X153639400Y-55461654D01*
X153639400Y-55461654D02*
X153710828Y-55318797D01*
X153710828Y-55318797D02*
X153710828Y-55033083D01*
X153710828Y-55033083D02*
X153639400Y-54890225D01*
X153710828Y-56247368D02*
X152710828Y-56247368D01*
X152210828Y-56247368D02*
X152282257Y-56175940D01*
X152282257Y-56175940D02*
X152353685Y-56247368D01*
X152353685Y-56247368D02*
X152282257Y-56318797D01*
X152282257Y-56318797D02*
X152210828Y-56247368D01*
X152210828Y-56247368D02*
X152353685Y-56247368D01*
X153710828Y-56961654D02*
X152710828Y-56961654D01*
X152996542Y-56961654D02*
X152853685Y-57033083D01*
X152853685Y-57033083D02*
X152782257Y-57104512D01*
X152782257Y-57104512D02*
X152710828Y-57247369D01*
X152710828Y-57247369D02*
X152710828Y-57390226D01*
X153639400Y-58461654D02*
X153710828Y-58318797D01*
X153710828Y-58318797D02*
X153710828Y-58033083D01*
X153710828Y-58033083D02*
X153639400Y-57890225D01*
X153639400Y-57890225D02*
X153496542Y-57818797D01*
X153496542Y-57818797D02*
X152925114Y-57818797D01*
X152925114Y-57818797D02*
X152782257Y-57890225D01*
X152782257Y-57890225D02*
X152710828Y-58033083D01*
X152710828Y-58033083D02*
X152710828Y-58318797D01*
X152710828Y-58318797D02*
X152782257Y-58461654D01*
X152782257Y-58461654D02*
X152925114Y-58533083D01*
X152925114Y-58533083D02*
X153067971Y-58533083D01*
X153067971Y-58533083D02*
X153210828Y-57818797D01*
X153710828Y-59818797D02*
X152210828Y-59818797D01*
X153639400Y-59818797D02*
X153710828Y-59675939D01*
X153710828Y-59675939D02*
X153710828Y-59390225D01*
X153710828Y-59390225D02*
X153639400Y-59247368D01*
X153639400Y-59247368D02*
X153567971Y-59175939D01*
X153567971Y-59175939D02*
X153425114Y-59104511D01*
X153425114Y-59104511D02*
X152996542Y-59104511D01*
X152996542Y-59104511D02*
X152853685Y-59175939D01*
X152853685Y-59175939D02*
X152782257Y-59247368D01*
X152782257Y-59247368D02*
X152710828Y-59390225D01*
X152710828Y-59390225D02*
X152710828Y-59675939D01*
X152710828Y-59675939D02*
X152782257Y-59818797D01*
X153710828Y-61675939D02*
X152210828Y-61675939D01*
X152782257Y-61675939D02*
X152710828Y-61818797D01*
X152710828Y-61818797D02*
X152710828Y-62104511D01*
X152710828Y-62104511D02*
X152782257Y-62247368D01*
X152782257Y-62247368D02*
X152853685Y-62318797D01*
X152853685Y-62318797D02*
X152996542Y-62390225D01*
X152996542Y-62390225D02*
X153425114Y-62390225D01*
X153425114Y-62390225D02*
X153567971Y-62318797D01*
X153567971Y-62318797D02*
X153639400Y-62247368D01*
X153639400Y-62247368D02*
X153710828Y-62104511D01*
X153710828Y-62104511D02*
X153710828Y-61818797D01*
X153710828Y-61818797D02*
X153639400Y-61675939D01*
X152710828Y-62890225D02*
X153710828Y-63247368D01*
X152710828Y-63604511D02*
X153710828Y-63247368D01*
X153710828Y-63247368D02*
X154067971Y-63104511D01*
X154067971Y-63104511D02*
X154139400Y-63033082D01*
X154139400Y-63033082D02*
X154210828Y-62890225D01*
X152925114Y-65818796D02*
X152925114Y-65318796D01*
X153710828Y-65318796D02*
X152210828Y-65318796D01*
X152210828Y-65318796D02*
X152210828Y-66033082D01*
X153710828Y-66818796D02*
X153639400Y-66675939D01*
X153639400Y-66675939D02*
X153567971Y-66604510D01*
X153567971Y-66604510D02*
X153425114Y-66533082D01*
X153425114Y-66533082D02*
X152996542Y-66533082D01*
X152996542Y-66533082D02*
X152853685Y-66604510D01*
X152853685Y-66604510D02*
X152782257Y-66675939D01*
X152782257Y-66675939D02*
X152710828Y-66818796D01*
X152710828Y-66818796D02*
X152710828Y-67033082D01*
X152710828Y-67033082D02*
X152782257Y-67175939D01*
X152782257Y-67175939D02*
X152853685Y-67247368D01*
X152853685Y-67247368D02*
X152996542Y-67318796D01*
X152996542Y-67318796D02*
X153425114Y-67318796D01*
X153425114Y-67318796D02*
X153567971Y-67247368D01*
X153567971Y-67247368D02*
X153639400Y-67175939D01*
X153639400Y-67175939D02*
X153710828Y-67033082D01*
X153710828Y-67033082D02*
X153710828Y-66818796D01*
X153710828Y-68175939D02*
X153639400Y-68033082D01*
X153639400Y-68033082D02*
X153567971Y-67961653D01*
X153567971Y-67961653D02*
X153425114Y-67890225D01*
X153425114Y-67890225D02*
X152996542Y-67890225D01*
X152996542Y-67890225D02*
X152853685Y-67961653D01*
X152853685Y-67961653D02*
X152782257Y-68033082D01*
X152782257Y-68033082D02*
X152710828Y-68175939D01*
X152710828Y-68175939D02*
X152710828Y-68390225D01*
X152710828Y-68390225D02*
X152782257Y-68533082D01*
X152782257Y-68533082D02*
X152853685Y-68604511D01*
X152853685Y-68604511D02*
X152996542Y-68675939D01*
X152996542Y-68675939D02*
X153425114Y-68675939D01*
X153425114Y-68675939D02*
X153567971Y-68604511D01*
X153567971Y-68604511D02*
X153639400Y-68533082D01*
X153639400Y-68533082D02*
X153710828Y-68390225D01*
X153710828Y-68390225D02*
X153710828Y-68175939D01*
X153639400Y-69247368D02*
X153710828Y-69390225D01*
X153710828Y-69390225D02*
X153710828Y-69675939D01*
X153710828Y-69675939D02*
X153639400Y-69818796D01*
X153639400Y-69818796D02*
X153496542Y-69890225D01*
X153496542Y-69890225D02*
X153425114Y-69890225D01*
X153425114Y-69890225D02*
X153282257Y-69818796D01*
X153282257Y-69818796D02*
X153210828Y-69675939D01*
X153210828Y-69675939D02*
X153210828Y-69461654D01*
X153210828Y-69461654D02*
X153139400Y-69318796D01*
X153139400Y-69318796D02*
X152996542Y-69247368D01*
X152996542Y-69247368D02*
X152925114Y-69247368D01*
X152925114Y-69247368D02*
X152782257Y-69318796D01*
X152782257Y-69318796D02*
X152710828Y-69461654D01*
X152710828Y-69461654D02*
X152710828Y-69675939D01*
X152710828Y-69675939D02*
X152782257Y-69818796D01*
X152710828Y-70318797D02*
X152710828Y-70890225D01*
X152210828Y-70533082D02*
X153496542Y-70533082D01*
X153496542Y-70533082D02*
X153639400Y-70604511D01*
X153639400Y-70604511D02*
X153710828Y-70747368D01*
X153710828Y-70747368D02*
X153710828Y-70890225D01*
X153710828Y-72033083D02*
X152925114Y-72033083D01*
X152925114Y-72033083D02*
X152782257Y-71961654D01*
X152782257Y-71961654D02*
X152710828Y-71818797D01*
X152710828Y-71818797D02*
X152710828Y-71533083D01*
X152710828Y-71533083D02*
X152782257Y-71390225D01*
X153639400Y-72033083D02*
X153710828Y-71890225D01*
X153710828Y-71890225D02*
X153710828Y-71533083D01*
X153710828Y-71533083D02*
X153639400Y-71390225D01*
X153639400Y-71390225D02*
X153496542Y-71318797D01*
X153496542Y-71318797D02*
X153353685Y-71318797D01*
X153353685Y-71318797D02*
X153210828Y-71390225D01*
X153210828Y-71390225D02*
X153139400Y-71533083D01*
X153139400Y-71533083D02*
X153139400Y-71890225D01*
X153139400Y-71890225D02*
X153067971Y-72033083D01*
X152710828Y-72747368D02*
X153710828Y-72747368D01*
X152853685Y-72747368D02*
X152782257Y-72818797D01*
X152782257Y-72818797D02*
X152710828Y-72961654D01*
X152710828Y-72961654D02*
X152710828Y-73175940D01*
X152710828Y-73175940D02*
X152782257Y-73318797D01*
X152782257Y-73318797D02*
X152925114Y-73390226D01*
X152925114Y-73390226D02*
X153710828Y-73390226D01*
X153139400Y-75247368D02*
X153139400Y-76390226D01*
X153639400Y-78890226D02*
X153710828Y-78747368D01*
X153710828Y-78747368D02*
X153710828Y-78461654D01*
X153710828Y-78461654D02*
X153639400Y-78318797D01*
X153639400Y-78318797D02*
X153567971Y-78247368D01*
X153567971Y-78247368D02*
X153425114Y-78175940D01*
X153425114Y-78175940D02*
X152996542Y-78175940D01*
X152996542Y-78175940D02*
X152853685Y-78247368D01*
X152853685Y-78247368D02*
X152782257Y-78318797D01*
X152782257Y-78318797D02*
X152710828Y-78461654D01*
X152710828Y-78461654D02*
X152710828Y-78747368D01*
X152710828Y-78747368D02*
X152782257Y-78890226D01*
X153710828Y-79533082D02*
X152710828Y-79533082D01*
X152996542Y-79533082D02*
X152853685Y-79604511D01*
X152853685Y-79604511D02*
X152782257Y-79675940D01*
X152782257Y-79675940D02*
X152710828Y-79818797D01*
X152710828Y-79818797D02*
X152710828Y-79961654D01*
X153710828Y-80461653D02*
X152210828Y-80461653D01*
X153139400Y-80604511D02*
X153710828Y-81033082D01*
X152710828Y-81033082D02*
X153282257Y-80461653D01*
X153710828Y-81675939D02*
X152210828Y-81675939D01*
X152782257Y-81675939D02*
X152710828Y-81818797D01*
X152710828Y-81818797D02*
X152710828Y-82104511D01*
X152710828Y-82104511D02*
X152782257Y-82247368D01*
X152782257Y-82247368D02*
X152853685Y-82318797D01*
X152853685Y-82318797D02*
X152996542Y-82390225D01*
X152996542Y-82390225D02*
X153425114Y-82390225D01*
X153425114Y-82390225D02*
X153567971Y-82318797D01*
X153567971Y-82318797D02*
X153639400Y-82247368D01*
X153639400Y-82247368D02*
X153710828Y-82104511D01*
X153710828Y-82104511D02*
X153710828Y-81818797D01*
X153710828Y-81818797D02*
X153639400Y-81675939D01*
X153710828Y-83675940D02*
X152210828Y-83675940D01*
X153639400Y-83675940D02*
X153710828Y-83533082D01*
X153710828Y-83533082D02*
X153710828Y-83247368D01*
X153710828Y-83247368D02*
X153639400Y-83104511D01*
X153639400Y-83104511D02*
X153567971Y-83033082D01*
X153567971Y-83033082D02*
X153425114Y-82961654D01*
X153425114Y-82961654D02*
X152996542Y-82961654D01*
X152996542Y-82961654D02*
X152853685Y-83033082D01*
X152853685Y-83033082D02*
X152782257Y-83104511D01*
X152782257Y-83104511D02*
X152710828Y-83247368D01*
X152710828Y-83247368D02*
X152710828Y-83533082D01*
X152710828Y-83533082D02*
X152782257Y-83675940D01*
M02*
