%TF.GenerationSoftware,KiCad,Pcbnew,8.0.3*%
%TF.CreationDate,2024-09-02T20:30:28+10:00*%
%TF.ProjectId,Top_plate,546f705f-706c-4617-9465-2e6b69636164,rev?*%
%TF.SameCoordinates,Original*%
%TF.FileFunction,Copper,L2,Bot*%
%TF.FilePolarity,Positive*%
%FSLAX46Y46*%
G04 Gerber Fmt 4.6, Leading zero omitted, Abs format (unit mm)*
G04 Created by KiCad (PCBNEW 8.0.3) date 2024-09-02 20:30:28*
%MOMM*%
%LPD*%
G01*
G04 APERTURE LIST*
%ADD10C,0.350000*%
%TA.AperFunction,NonConductor*%
%ADD11C,0.350000*%
%TD*%
%ADD12C,0.200000*%
%TA.AperFunction,NonConductor*%
%ADD13C,0.200000*%
%TD*%
%ADD14C,0.300000*%
%TA.AperFunction,NonConductor*%
%ADD15C,0.300000*%
%TD*%
G04 APERTURE END LIST*
D10*
D11*
X99726884Y-21047228D02*
X99898313Y-20961514D01*
X99898313Y-20961514D02*
X100155455Y-20961514D01*
X100155455Y-20961514D02*
X100412598Y-21047228D01*
X100412598Y-21047228D02*
X100584027Y-21218657D01*
X100584027Y-21218657D02*
X100669741Y-21390085D01*
X100669741Y-21390085D02*
X100755455Y-21732942D01*
X100755455Y-21732942D02*
X100755455Y-21990085D01*
X100755455Y-21990085D02*
X100669741Y-22332942D01*
X100669741Y-22332942D02*
X100584027Y-22504371D01*
X100584027Y-22504371D02*
X100412598Y-22675800D01*
X100412598Y-22675800D02*
X100155455Y-22761514D01*
X100155455Y-22761514D02*
X99984027Y-22761514D01*
X99984027Y-22761514D02*
X99726884Y-22675800D01*
X99726884Y-22675800D02*
X99641170Y-22590085D01*
X99641170Y-22590085D02*
X99641170Y-21990085D01*
X99641170Y-21990085D02*
X99984027Y-21990085D01*
X98184027Y-22675800D02*
X98355455Y-22761514D01*
X98355455Y-22761514D02*
X98698313Y-22761514D01*
X98698313Y-22761514D02*
X98869741Y-22675800D01*
X98869741Y-22675800D02*
X98955455Y-22504371D01*
X98955455Y-22504371D02*
X98955455Y-21818657D01*
X98955455Y-21818657D02*
X98869741Y-21647228D01*
X98869741Y-21647228D02*
X98698313Y-21561514D01*
X98698313Y-21561514D02*
X98355455Y-21561514D01*
X98355455Y-21561514D02*
X98184027Y-21647228D01*
X98184027Y-21647228D02*
X98098313Y-21818657D01*
X98098313Y-21818657D02*
X98098313Y-21990085D01*
X98098313Y-21990085D02*
X98955455Y-22161514D01*
X96555456Y-22675800D02*
X96726884Y-22761514D01*
X96726884Y-22761514D02*
X97069741Y-22761514D01*
X97069741Y-22761514D02*
X97241170Y-22675800D01*
X97241170Y-22675800D02*
X97326884Y-22590085D01*
X97326884Y-22590085D02*
X97412598Y-22418657D01*
X97412598Y-22418657D02*
X97412598Y-21904371D01*
X97412598Y-21904371D02*
X97326884Y-21732942D01*
X97326884Y-21732942D02*
X97241170Y-21647228D01*
X97241170Y-21647228D02*
X97069741Y-21561514D01*
X97069741Y-21561514D02*
X96726884Y-21561514D01*
X96726884Y-21561514D02*
X96555456Y-21647228D01*
X95784027Y-22761514D02*
X95784027Y-20961514D01*
X95612599Y-22075800D02*
X95098313Y-22761514D01*
X95098313Y-21561514D02*
X95784027Y-22247228D01*
X94069741Y-22761514D02*
X94241170Y-22675800D01*
X94241170Y-22675800D02*
X94326884Y-22590085D01*
X94326884Y-22590085D02*
X94412598Y-22418657D01*
X94412598Y-22418657D02*
X94412598Y-21904371D01*
X94412598Y-21904371D02*
X94326884Y-21732942D01*
X94326884Y-21732942D02*
X94241170Y-21647228D01*
X94241170Y-21647228D02*
X94069741Y-21561514D01*
X94069741Y-21561514D02*
X93812598Y-21561514D01*
X93812598Y-21561514D02*
X93641170Y-21647228D01*
X93641170Y-21647228D02*
X93555456Y-21732942D01*
X93555456Y-21732942D02*
X93469741Y-21904371D01*
X93469741Y-21904371D02*
X93469741Y-22418657D01*
X93469741Y-22418657D02*
X93555456Y-22590085D01*
X93555456Y-22590085D02*
X93641170Y-22675800D01*
X93641170Y-22675800D02*
X93812598Y-22761514D01*
X93812598Y-22761514D02*
X94069741Y-22761514D01*
X91326884Y-22761514D02*
X91326884Y-20961514D01*
X90298313Y-22761514D02*
X91069741Y-21732942D01*
X90298313Y-20961514D02*
X91326884Y-21990085D01*
X88841170Y-22675800D02*
X89012598Y-22761514D01*
X89012598Y-22761514D02*
X89355456Y-22761514D01*
X89355456Y-22761514D02*
X89526884Y-22675800D01*
X89526884Y-22675800D02*
X89612598Y-22504371D01*
X89612598Y-22504371D02*
X89612598Y-21818657D01*
X89612598Y-21818657D02*
X89526884Y-21647228D01*
X89526884Y-21647228D02*
X89355456Y-21561514D01*
X89355456Y-21561514D02*
X89012598Y-21561514D01*
X89012598Y-21561514D02*
X88841170Y-21647228D01*
X88841170Y-21647228D02*
X88755456Y-21818657D01*
X88755456Y-21818657D02*
X88755456Y-21990085D01*
X88755456Y-21990085D02*
X89612598Y-22161514D01*
X88155456Y-21561514D02*
X87726884Y-22761514D01*
X87298313Y-21561514D02*
X87726884Y-22761514D01*
X87726884Y-22761514D02*
X87898313Y-23190085D01*
X87898313Y-23190085D02*
X87984027Y-23275800D01*
X87984027Y-23275800D02*
X88155456Y-23361514D01*
X86612598Y-22761514D02*
X86612598Y-20961514D01*
X86612598Y-21647228D02*
X86441170Y-21561514D01*
X86441170Y-21561514D02*
X86098312Y-21561514D01*
X86098312Y-21561514D02*
X85926884Y-21647228D01*
X85926884Y-21647228D02*
X85841170Y-21732942D01*
X85841170Y-21732942D02*
X85755455Y-21904371D01*
X85755455Y-21904371D02*
X85755455Y-22418657D01*
X85755455Y-22418657D02*
X85841170Y-22590085D01*
X85841170Y-22590085D02*
X85926884Y-22675800D01*
X85926884Y-22675800D02*
X86098312Y-22761514D01*
X86098312Y-22761514D02*
X86441170Y-22761514D01*
X86441170Y-22761514D02*
X86612598Y-22675800D01*
X84726884Y-22761514D02*
X84898313Y-22675800D01*
X84898313Y-22675800D02*
X84984027Y-22590085D01*
X84984027Y-22590085D02*
X85069741Y-22418657D01*
X85069741Y-22418657D02*
X85069741Y-21904371D01*
X85069741Y-21904371D02*
X84984027Y-21732942D01*
X84984027Y-21732942D02*
X84898313Y-21647228D01*
X84898313Y-21647228D02*
X84726884Y-21561514D01*
X84726884Y-21561514D02*
X84469741Y-21561514D01*
X84469741Y-21561514D02*
X84298313Y-21647228D01*
X84298313Y-21647228D02*
X84212599Y-21732942D01*
X84212599Y-21732942D02*
X84126884Y-21904371D01*
X84126884Y-21904371D02*
X84126884Y-22418657D01*
X84126884Y-22418657D02*
X84212599Y-22590085D01*
X84212599Y-22590085D02*
X84298313Y-22675800D01*
X84298313Y-22675800D02*
X84469741Y-22761514D01*
X84469741Y-22761514D02*
X84726884Y-22761514D01*
X82584028Y-22761514D02*
X82584028Y-21818657D01*
X82584028Y-21818657D02*
X82669742Y-21647228D01*
X82669742Y-21647228D02*
X82841170Y-21561514D01*
X82841170Y-21561514D02*
X83184028Y-21561514D01*
X83184028Y-21561514D02*
X83355456Y-21647228D01*
X82584028Y-22675800D02*
X82755456Y-22761514D01*
X82755456Y-22761514D02*
X83184028Y-22761514D01*
X83184028Y-22761514D02*
X83355456Y-22675800D01*
X83355456Y-22675800D02*
X83441170Y-22504371D01*
X83441170Y-22504371D02*
X83441170Y-22332942D01*
X83441170Y-22332942D02*
X83355456Y-22161514D01*
X83355456Y-22161514D02*
X83184028Y-22075800D01*
X83184028Y-22075800D02*
X82755456Y-22075800D01*
X82755456Y-22075800D02*
X82584028Y-21990085D01*
X81726885Y-22761514D02*
X81726885Y-21561514D01*
X81726885Y-21904371D02*
X81641171Y-21732942D01*
X81641171Y-21732942D02*
X81555457Y-21647228D01*
X81555457Y-21647228D02*
X81384028Y-21561514D01*
X81384028Y-21561514D02*
X81212599Y-21561514D01*
X79841171Y-22761514D02*
X79841171Y-20961514D01*
X79841171Y-22675800D02*
X80012599Y-22761514D01*
X80012599Y-22761514D02*
X80355456Y-22761514D01*
X80355456Y-22761514D02*
X80526885Y-22675800D01*
X80526885Y-22675800D02*
X80612599Y-22590085D01*
X80612599Y-22590085D02*
X80698313Y-22418657D01*
X80698313Y-22418657D02*
X80698313Y-21904371D01*
X80698313Y-21904371D02*
X80612599Y-21732942D01*
X80612599Y-21732942D02*
X80526885Y-21647228D01*
X80526885Y-21647228D02*
X80355456Y-21561514D01*
X80355456Y-21561514D02*
X80012599Y-21561514D01*
X80012599Y-21561514D02*
X79841171Y-21647228D01*
D12*
D13*
X100639855Y-25391112D02*
X100639855Y-23891112D01*
X100639855Y-23891112D02*
X100282712Y-23891112D01*
X100282712Y-23891112D02*
X100068426Y-23962541D01*
X100068426Y-23962541D02*
X99925569Y-24105398D01*
X99925569Y-24105398D02*
X99854140Y-24248255D01*
X99854140Y-24248255D02*
X99782712Y-24533969D01*
X99782712Y-24533969D02*
X99782712Y-24748255D01*
X99782712Y-24748255D02*
X99854140Y-25033969D01*
X99854140Y-25033969D02*
X99925569Y-25176826D01*
X99925569Y-25176826D02*
X100068426Y-25319684D01*
X100068426Y-25319684D02*
X100282712Y-25391112D01*
X100282712Y-25391112D02*
X100639855Y-25391112D01*
X98496998Y-25391112D02*
X98496998Y-24605398D01*
X98496998Y-24605398D02*
X98568426Y-24462541D01*
X98568426Y-24462541D02*
X98711283Y-24391112D01*
X98711283Y-24391112D02*
X98996998Y-24391112D01*
X98996998Y-24391112D02*
X99139855Y-24462541D01*
X98496998Y-25319684D02*
X98639855Y-25391112D01*
X98639855Y-25391112D02*
X98996998Y-25391112D01*
X98996998Y-25391112D02*
X99139855Y-25319684D01*
X99139855Y-25319684D02*
X99211283Y-25176826D01*
X99211283Y-25176826D02*
X99211283Y-25033969D01*
X99211283Y-25033969D02*
X99139855Y-24891112D01*
X99139855Y-24891112D02*
X98996998Y-24819684D01*
X98996998Y-24819684D02*
X98639855Y-24819684D01*
X98639855Y-24819684D02*
X98496998Y-24748255D01*
X97782712Y-24391112D02*
X97782712Y-25391112D01*
X97782712Y-24533969D02*
X97711283Y-24462541D01*
X97711283Y-24462541D02*
X97568426Y-24391112D01*
X97568426Y-24391112D02*
X97354140Y-24391112D01*
X97354140Y-24391112D02*
X97211283Y-24462541D01*
X97211283Y-24462541D02*
X97139855Y-24605398D01*
X97139855Y-24605398D02*
X97139855Y-25391112D01*
X95854140Y-25319684D02*
X95996997Y-25391112D01*
X95996997Y-25391112D02*
X96282712Y-25391112D01*
X96282712Y-25391112D02*
X96425569Y-25319684D01*
X96425569Y-25319684D02*
X96496997Y-25176826D01*
X96496997Y-25176826D02*
X96496997Y-24605398D01*
X96496997Y-24605398D02*
X96425569Y-24462541D01*
X96425569Y-24462541D02*
X96282712Y-24391112D01*
X96282712Y-24391112D02*
X95996997Y-24391112D01*
X95996997Y-24391112D02*
X95854140Y-24462541D01*
X95854140Y-24462541D02*
X95782712Y-24605398D01*
X95782712Y-24605398D02*
X95782712Y-24748255D01*
X95782712Y-24748255D02*
X96496997Y-24891112D01*
X93996998Y-24605398D02*
X93496998Y-24605398D01*
X93282712Y-25391112D02*
X93996998Y-25391112D01*
X93996998Y-25391112D02*
X93996998Y-23891112D01*
X93996998Y-23891112D02*
X93282712Y-23891112D01*
X92782712Y-24391112D02*
X92425569Y-25391112D01*
X92425569Y-25391112D02*
X92068426Y-24391112D01*
X90854141Y-25391112D02*
X90854141Y-24605398D01*
X90854141Y-24605398D02*
X90925569Y-24462541D01*
X90925569Y-24462541D02*
X91068426Y-24391112D01*
X91068426Y-24391112D02*
X91354141Y-24391112D01*
X91354141Y-24391112D02*
X91496998Y-24462541D01*
X90854141Y-25319684D02*
X90996998Y-25391112D01*
X90996998Y-25391112D02*
X91354141Y-25391112D01*
X91354141Y-25391112D02*
X91496998Y-25319684D01*
X91496998Y-25319684D02*
X91568426Y-25176826D01*
X91568426Y-25176826D02*
X91568426Y-25033969D01*
X91568426Y-25033969D02*
X91496998Y-24891112D01*
X91496998Y-24891112D02*
X91354141Y-24819684D01*
X91354141Y-24819684D02*
X90996998Y-24819684D01*
X90996998Y-24819684D02*
X90854141Y-24748255D01*
X90139855Y-24391112D02*
X90139855Y-25391112D01*
X90139855Y-24533969D02*
X90068426Y-24462541D01*
X90068426Y-24462541D02*
X89925569Y-24391112D01*
X89925569Y-24391112D02*
X89711283Y-24391112D01*
X89711283Y-24391112D02*
X89568426Y-24462541D01*
X89568426Y-24462541D02*
X89496998Y-24605398D01*
X89496998Y-24605398D02*
X89496998Y-25391112D01*
X88854140Y-25319684D02*
X88711283Y-25391112D01*
X88711283Y-25391112D02*
X88425569Y-25391112D01*
X88425569Y-25391112D02*
X88282712Y-25319684D01*
X88282712Y-25319684D02*
X88211283Y-25176826D01*
X88211283Y-25176826D02*
X88211283Y-25105398D01*
X88211283Y-25105398D02*
X88282712Y-24962541D01*
X88282712Y-24962541D02*
X88425569Y-24891112D01*
X88425569Y-24891112D02*
X88639855Y-24891112D01*
X88639855Y-24891112D02*
X88782712Y-24819684D01*
X88782712Y-24819684D02*
X88854140Y-24676826D01*
X88854140Y-24676826D02*
X88854140Y-24605398D01*
X88854140Y-24605398D02*
X88782712Y-24462541D01*
X88782712Y-24462541D02*
X88639855Y-24391112D01*
X88639855Y-24391112D02*
X88425569Y-24391112D01*
X88425569Y-24391112D02*
X88282712Y-24462541D01*
X100639855Y-27806028D02*
X100639855Y-26306028D01*
X99996998Y-27806028D02*
X99996998Y-27020314D01*
X99996998Y-27020314D02*
X100068426Y-26877457D01*
X100068426Y-26877457D02*
X100211283Y-26806028D01*
X100211283Y-26806028D02*
X100425569Y-26806028D01*
X100425569Y-26806028D02*
X100568426Y-26877457D01*
X100568426Y-26877457D02*
X100639855Y-26948885D01*
X99496997Y-26806028D02*
X98925569Y-26806028D01*
X99282712Y-26306028D02*
X99282712Y-27591742D01*
X99282712Y-27591742D02*
X99211283Y-27734600D01*
X99211283Y-27734600D02*
X99068426Y-27806028D01*
X99068426Y-27806028D02*
X98925569Y-27806028D01*
X98639854Y-26806028D02*
X98068426Y-26806028D01*
X98425569Y-26306028D02*
X98425569Y-27591742D01*
X98425569Y-27591742D02*
X98354140Y-27734600D01*
X98354140Y-27734600D02*
X98211283Y-27806028D01*
X98211283Y-27806028D02*
X98068426Y-27806028D01*
X97568426Y-26806028D02*
X97568426Y-28306028D01*
X97568426Y-26877457D02*
X97425569Y-26806028D01*
X97425569Y-26806028D02*
X97139854Y-26806028D01*
X97139854Y-26806028D02*
X96996997Y-26877457D01*
X96996997Y-26877457D02*
X96925569Y-26948885D01*
X96925569Y-26948885D02*
X96854140Y-27091742D01*
X96854140Y-27091742D02*
X96854140Y-27520314D01*
X96854140Y-27520314D02*
X96925569Y-27663171D01*
X96925569Y-27663171D02*
X96996997Y-27734600D01*
X96996997Y-27734600D02*
X97139854Y-27806028D01*
X97139854Y-27806028D02*
X97425569Y-27806028D01*
X97425569Y-27806028D02*
X97568426Y-27734600D01*
X96282711Y-27734600D02*
X96139854Y-27806028D01*
X96139854Y-27806028D02*
X95854140Y-27806028D01*
X95854140Y-27806028D02*
X95711283Y-27734600D01*
X95711283Y-27734600D02*
X95639854Y-27591742D01*
X95639854Y-27591742D02*
X95639854Y-27520314D01*
X95639854Y-27520314D02*
X95711283Y-27377457D01*
X95711283Y-27377457D02*
X95854140Y-27306028D01*
X95854140Y-27306028D02*
X96068426Y-27306028D01*
X96068426Y-27306028D02*
X96211283Y-27234600D01*
X96211283Y-27234600D02*
X96282711Y-27091742D01*
X96282711Y-27091742D02*
X96282711Y-27020314D01*
X96282711Y-27020314D02*
X96211283Y-26877457D01*
X96211283Y-26877457D02*
X96068426Y-26806028D01*
X96068426Y-26806028D02*
X95854140Y-26806028D01*
X95854140Y-26806028D02*
X95711283Y-26877457D01*
X94996997Y-27663171D02*
X94925568Y-27734600D01*
X94925568Y-27734600D02*
X94996997Y-27806028D01*
X94996997Y-27806028D02*
X95068425Y-27734600D01*
X95068425Y-27734600D02*
X94996997Y-27663171D01*
X94996997Y-27663171D02*
X94996997Y-27806028D01*
X94996997Y-26877457D02*
X94925568Y-26948885D01*
X94925568Y-26948885D02*
X94996997Y-27020314D01*
X94996997Y-27020314D02*
X95068425Y-26948885D01*
X95068425Y-26948885D02*
X94996997Y-26877457D01*
X94996997Y-26877457D02*
X94996997Y-27020314D01*
X93211282Y-26234600D02*
X94496996Y-28163171D01*
X91639853Y-26234600D02*
X92925567Y-28163171D01*
X90496996Y-26806028D02*
X90496996Y-28020314D01*
X90496996Y-28020314D02*
X90568424Y-28163171D01*
X90568424Y-28163171D02*
X90639853Y-28234600D01*
X90639853Y-28234600D02*
X90782710Y-28306028D01*
X90782710Y-28306028D02*
X90996996Y-28306028D01*
X90996996Y-28306028D02*
X91139853Y-28234600D01*
X90496996Y-27734600D02*
X90639853Y-27806028D01*
X90639853Y-27806028D02*
X90925567Y-27806028D01*
X90925567Y-27806028D02*
X91068424Y-27734600D01*
X91068424Y-27734600D02*
X91139853Y-27663171D01*
X91139853Y-27663171D02*
X91211281Y-27520314D01*
X91211281Y-27520314D02*
X91211281Y-27091742D01*
X91211281Y-27091742D02*
X91139853Y-26948885D01*
X91139853Y-26948885D02*
X91068424Y-26877457D01*
X91068424Y-26877457D02*
X90925567Y-26806028D01*
X90925567Y-26806028D02*
X90639853Y-26806028D01*
X90639853Y-26806028D02*
X90496996Y-26877457D01*
X89782710Y-27806028D02*
X89782710Y-26806028D01*
X89782710Y-26306028D02*
X89854138Y-26377457D01*
X89854138Y-26377457D02*
X89782710Y-26448885D01*
X89782710Y-26448885D02*
X89711281Y-26377457D01*
X89711281Y-26377457D02*
X89782710Y-26306028D01*
X89782710Y-26306028D02*
X89782710Y-26448885D01*
X89282709Y-26806028D02*
X88711281Y-26806028D01*
X89068424Y-26306028D02*
X89068424Y-27591742D01*
X89068424Y-27591742D02*
X88996995Y-27734600D01*
X88996995Y-27734600D02*
X88854138Y-27806028D01*
X88854138Y-27806028D02*
X88711281Y-27806028D01*
X88211281Y-27806028D02*
X88211281Y-26306028D01*
X87568424Y-27806028D02*
X87568424Y-27020314D01*
X87568424Y-27020314D02*
X87639852Y-26877457D01*
X87639852Y-26877457D02*
X87782709Y-26806028D01*
X87782709Y-26806028D02*
X87996995Y-26806028D01*
X87996995Y-26806028D02*
X88139852Y-26877457D01*
X88139852Y-26877457D02*
X88211281Y-26948885D01*
X86211281Y-26806028D02*
X86211281Y-27806028D01*
X86854138Y-26806028D02*
X86854138Y-27591742D01*
X86854138Y-27591742D02*
X86782709Y-27734600D01*
X86782709Y-27734600D02*
X86639852Y-27806028D01*
X86639852Y-27806028D02*
X86425566Y-27806028D01*
X86425566Y-27806028D02*
X86282709Y-27734600D01*
X86282709Y-27734600D02*
X86211281Y-27663171D01*
X85496995Y-27806028D02*
X85496995Y-26306028D01*
X85496995Y-26877457D02*
X85354138Y-26806028D01*
X85354138Y-26806028D02*
X85068423Y-26806028D01*
X85068423Y-26806028D02*
X84925566Y-26877457D01*
X84925566Y-26877457D02*
X84854138Y-26948885D01*
X84854138Y-26948885D02*
X84782709Y-27091742D01*
X84782709Y-27091742D02*
X84782709Y-27520314D01*
X84782709Y-27520314D02*
X84854138Y-27663171D01*
X84854138Y-27663171D02*
X84925566Y-27734600D01*
X84925566Y-27734600D02*
X85068423Y-27806028D01*
X85068423Y-27806028D02*
X85354138Y-27806028D01*
X85354138Y-27806028D02*
X85496995Y-27734600D01*
X84139852Y-27663171D02*
X84068423Y-27734600D01*
X84068423Y-27734600D02*
X84139852Y-27806028D01*
X84139852Y-27806028D02*
X84211280Y-27734600D01*
X84211280Y-27734600D02*
X84139852Y-27663171D01*
X84139852Y-27663171D02*
X84139852Y-27806028D01*
X82782709Y-27734600D02*
X82925566Y-27806028D01*
X82925566Y-27806028D02*
X83211280Y-27806028D01*
X83211280Y-27806028D02*
X83354137Y-27734600D01*
X83354137Y-27734600D02*
X83425566Y-27663171D01*
X83425566Y-27663171D02*
X83496994Y-27520314D01*
X83496994Y-27520314D02*
X83496994Y-27091742D01*
X83496994Y-27091742D02*
X83425566Y-26948885D01*
X83425566Y-26948885D02*
X83354137Y-26877457D01*
X83354137Y-26877457D02*
X83211280Y-26806028D01*
X83211280Y-26806028D02*
X82925566Y-26806028D01*
X82925566Y-26806028D02*
X82782709Y-26877457D01*
X81925566Y-27806028D02*
X82068423Y-27734600D01*
X82068423Y-27734600D02*
X82139852Y-27663171D01*
X82139852Y-27663171D02*
X82211280Y-27520314D01*
X82211280Y-27520314D02*
X82211280Y-27091742D01*
X82211280Y-27091742D02*
X82139852Y-26948885D01*
X82139852Y-26948885D02*
X82068423Y-26877457D01*
X82068423Y-26877457D02*
X81925566Y-26806028D01*
X81925566Y-26806028D02*
X81711280Y-26806028D01*
X81711280Y-26806028D02*
X81568423Y-26877457D01*
X81568423Y-26877457D02*
X81496995Y-26948885D01*
X81496995Y-26948885D02*
X81425566Y-27091742D01*
X81425566Y-27091742D02*
X81425566Y-27520314D01*
X81425566Y-27520314D02*
X81496995Y-27663171D01*
X81496995Y-27663171D02*
X81568423Y-27734600D01*
X81568423Y-27734600D02*
X81711280Y-27806028D01*
X81711280Y-27806028D02*
X81925566Y-27806028D01*
X80782709Y-27806028D02*
X80782709Y-26806028D01*
X80782709Y-26948885D02*
X80711280Y-26877457D01*
X80711280Y-26877457D02*
X80568423Y-26806028D01*
X80568423Y-26806028D02*
X80354137Y-26806028D01*
X80354137Y-26806028D02*
X80211280Y-26877457D01*
X80211280Y-26877457D02*
X80139852Y-27020314D01*
X80139852Y-27020314D02*
X80139852Y-27806028D01*
X80139852Y-27020314D02*
X80068423Y-26877457D01*
X80068423Y-26877457D02*
X79925566Y-26806028D01*
X79925566Y-26806028D02*
X79711280Y-26806028D01*
X79711280Y-26806028D02*
X79568423Y-26877457D01*
X79568423Y-26877457D02*
X79496994Y-27020314D01*
X79496994Y-27020314D02*
X79496994Y-27806028D01*
X77711280Y-26234600D02*
X78996994Y-28163171D01*
X77211280Y-27806028D02*
X77211280Y-26306028D01*
X77211280Y-26306028D02*
X76854137Y-26306028D01*
X76854137Y-26306028D02*
X76639851Y-26377457D01*
X76639851Y-26377457D02*
X76496994Y-26520314D01*
X76496994Y-26520314D02*
X76425565Y-26663171D01*
X76425565Y-26663171D02*
X76354137Y-26948885D01*
X76354137Y-26948885D02*
X76354137Y-27163171D01*
X76354137Y-27163171D02*
X76425565Y-27448885D01*
X76425565Y-27448885D02*
X76496994Y-27591742D01*
X76496994Y-27591742D02*
X76639851Y-27734600D01*
X76639851Y-27734600D02*
X76854137Y-27806028D01*
X76854137Y-27806028D02*
X77211280Y-27806028D01*
X75068423Y-27806028D02*
X75068423Y-27020314D01*
X75068423Y-27020314D02*
X75139851Y-26877457D01*
X75139851Y-26877457D02*
X75282708Y-26806028D01*
X75282708Y-26806028D02*
X75568423Y-26806028D01*
X75568423Y-26806028D02*
X75711280Y-26877457D01*
X75068423Y-27734600D02*
X75211280Y-27806028D01*
X75211280Y-27806028D02*
X75568423Y-27806028D01*
X75568423Y-27806028D02*
X75711280Y-27734600D01*
X75711280Y-27734600D02*
X75782708Y-27591742D01*
X75782708Y-27591742D02*
X75782708Y-27448885D01*
X75782708Y-27448885D02*
X75711280Y-27306028D01*
X75711280Y-27306028D02*
X75568423Y-27234600D01*
X75568423Y-27234600D02*
X75211280Y-27234600D01*
X75211280Y-27234600D02*
X75068423Y-27163171D01*
X74354137Y-26806028D02*
X74354137Y-27806028D01*
X74354137Y-26948885D02*
X74282708Y-26877457D01*
X74282708Y-26877457D02*
X74139851Y-26806028D01*
X74139851Y-26806028D02*
X73925565Y-26806028D01*
X73925565Y-26806028D02*
X73782708Y-26877457D01*
X73782708Y-26877457D02*
X73711280Y-27020314D01*
X73711280Y-27020314D02*
X73711280Y-27806028D01*
X72425565Y-27734600D02*
X72568422Y-27806028D01*
X72568422Y-27806028D02*
X72854137Y-27806028D01*
X72854137Y-27806028D02*
X72996994Y-27734600D01*
X72996994Y-27734600D02*
X73068422Y-27591742D01*
X73068422Y-27591742D02*
X73068422Y-27020314D01*
X73068422Y-27020314D02*
X72996994Y-26877457D01*
X72996994Y-26877457D02*
X72854137Y-26806028D01*
X72854137Y-26806028D02*
X72568422Y-26806028D01*
X72568422Y-26806028D02*
X72425565Y-26877457D01*
X72425565Y-26877457D02*
X72354137Y-27020314D01*
X72354137Y-27020314D02*
X72354137Y-27163171D01*
X72354137Y-27163171D02*
X73068422Y-27306028D01*
X71711280Y-27020314D02*
X71211280Y-27020314D01*
X70996994Y-27806028D02*
X71711280Y-27806028D01*
X71711280Y-27806028D02*
X71711280Y-26306028D01*
X71711280Y-26306028D02*
X70996994Y-26306028D01*
X70496994Y-26806028D02*
X70139851Y-27806028D01*
X70139851Y-27806028D02*
X69782708Y-26806028D01*
X68568423Y-27806028D02*
X68568423Y-27020314D01*
X68568423Y-27020314D02*
X68639851Y-26877457D01*
X68639851Y-26877457D02*
X68782708Y-26806028D01*
X68782708Y-26806028D02*
X69068423Y-26806028D01*
X69068423Y-26806028D02*
X69211280Y-26877457D01*
X68568423Y-27734600D02*
X68711280Y-27806028D01*
X68711280Y-27806028D02*
X69068423Y-27806028D01*
X69068423Y-27806028D02*
X69211280Y-27734600D01*
X69211280Y-27734600D02*
X69282708Y-27591742D01*
X69282708Y-27591742D02*
X69282708Y-27448885D01*
X69282708Y-27448885D02*
X69211280Y-27306028D01*
X69211280Y-27306028D02*
X69068423Y-27234600D01*
X69068423Y-27234600D02*
X68711280Y-27234600D01*
X68711280Y-27234600D02*
X68568423Y-27163171D01*
X67854137Y-26806028D02*
X67854137Y-27806028D01*
X67854137Y-26948885D02*
X67782708Y-26877457D01*
X67782708Y-26877457D02*
X67639851Y-26806028D01*
X67639851Y-26806028D02*
X67425565Y-26806028D01*
X67425565Y-26806028D02*
X67282708Y-26877457D01*
X67282708Y-26877457D02*
X67211280Y-27020314D01*
X67211280Y-27020314D02*
X67211280Y-27806028D01*
X66568422Y-27734600D02*
X66425565Y-27806028D01*
X66425565Y-27806028D02*
X66139851Y-27806028D01*
X66139851Y-27806028D02*
X65996994Y-27734600D01*
X65996994Y-27734600D02*
X65925565Y-27591742D01*
X65925565Y-27591742D02*
X65925565Y-27520314D01*
X65925565Y-27520314D02*
X65996994Y-27377457D01*
X65996994Y-27377457D02*
X66139851Y-27306028D01*
X66139851Y-27306028D02*
X66354137Y-27306028D01*
X66354137Y-27306028D02*
X66496994Y-27234600D01*
X66496994Y-27234600D02*
X66568422Y-27091742D01*
X66568422Y-27091742D02*
X66568422Y-27020314D01*
X66568422Y-27020314D02*
X66496994Y-26877457D01*
X66496994Y-26877457D02*
X66354137Y-26806028D01*
X66354137Y-26806028D02*
X66139851Y-26806028D01*
X66139851Y-26806028D02*
X65996994Y-26877457D01*
X64211279Y-26234600D02*
X65496993Y-28163171D01*
X63068422Y-26806028D02*
X63068422Y-28020314D01*
X63068422Y-28020314D02*
X63139850Y-28163171D01*
X63139850Y-28163171D02*
X63211279Y-28234600D01*
X63211279Y-28234600D02*
X63354136Y-28306028D01*
X63354136Y-28306028D02*
X63568422Y-28306028D01*
X63568422Y-28306028D02*
X63711279Y-28234600D01*
X63068422Y-27734600D02*
X63211279Y-27806028D01*
X63211279Y-27806028D02*
X63496993Y-27806028D01*
X63496993Y-27806028D02*
X63639850Y-27734600D01*
X63639850Y-27734600D02*
X63711279Y-27663171D01*
X63711279Y-27663171D02*
X63782707Y-27520314D01*
X63782707Y-27520314D02*
X63782707Y-27091742D01*
X63782707Y-27091742D02*
X63711279Y-26948885D01*
X63711279Y-26948885D02*
X63639850Y-26877457D01*
X63639850Y-26877457D02*
X63496993Y-26806028D01*
X63496993Y-26806028D02*
X63211279Y-26806028D01*
X63211279Y-26806028D02*
X63068422Y-26877457D01*
X61782707Y-27734600D02*
X61925564Y-27806028D01*
X61925564Y-27806028D02*
X62211279Y-27806028D01*
X62211279Y-27806028D02*
X62354136Y-27734600D01*
X62354136Y-27734600D02*
X62425564Y-27591742D01*
X62425564Y-27591742D02*
X62425564Y-27020314D01*
X62425564Y-27020314D02*
X62354136Y-26877457D01*
X62354136Y-26877457D02*
X62211279Y-26806028D01*
X62211279Y-26806028D02*
X61925564Y-26806028D01*
X61925564Y-26806028D02*
X61782707Y-26877457D01*
X61782707Y-26877457D02*
X61711279Y-27020314D01*
X61711279Y-27020314D02*
X61711279Y-27163171D01*
X61711279Y-27163171D02*
X62425564Y-27306028D01*
X60425565Y-27734600D02*
X60568422Y-27806028D01*
X60568422Y-27806028D02*
X60854136Y-27806028D01*
X60854136Y-27806028D02*
X60996993Y-27734600D01*
X60996993Y-27734600D02*
X61068422Y-27663171D01*
X61068422Y-27663171D02*
X61139850Y-27520314D01*
X61139850Y-27520314D02*
X61139850Y-27091742D01*
X61139850Y-27091742D02*
X61068422Y-26948885D01*
X61068422Y-26948885D02*
X60996993Y-26877457D01*
X60996993Y-26877457D02*
X60854136Y-26806028D01*
X60854136Y-26806028D02*
X60568422Y-26806028D01*
X60568422Y-26806028D02*
X60425565Y-26877457D01*
X59782708Y-27806028D02*
X59782708Y-26306028D01*
X59639851Y-27234600D02*
X59211279Y-27806028D01*
X59211279Y-26806028D02*
X59782708Y-27377457D01*
X58354136Y-27806028D02*
X58496993Y-27734600D01*
X58496993Y-27734600D02*
X58568422Y-27663171D01*
X58568422Y-27663171D02*
X58639850Y-27520314D01*
X58639850Y-27520314D02*
X58639850Y-27091742D01*
X58639850Y-27091742D02*
X58568422Y-26948885D01*
X58568422Y-26948885D02*
X58496993Y-26877457D01*
X58496993Y-26877457D02*
X58354136Y-26806028D01*
X58354136Y-26806028D02*
X58139850Y-26806028D01*
X58139850Y-26806028D02*
X57996993Y-26877457D01*
X57996993Y-26877457D02*
X57925565Y-26948885D01*
X57925565Y-26948885D02*
X57854136Y-27091742D01*
X57854136Y-27091742D02*
X57854136Y-27520314D01*
X57854136Y-27520314D02*
X57925565Y-27663171D01*
X57925565Y-27663171D02*
X57996993Y-27734600D01*
X57996993Y-27734600D02*
X58139850Y-27806028D01*
X58139850Y-27806028D02*
X58354136Y-27806028D01*
D14*
D15*
X70321898Y-132203580D02*
X70445256Y-132305034D01*
X70445256Y-132305034D02*
X70532414Y-132500794D01*
X70532414Y-132500794D02*
X70554319Y-132725606D01*
X70554319Y-132725606D02*
X70481918Y-132914218D01*
X70481918Y-132914218D02*
X70380464Y-133037576D01*
X70380464Y-133037576D02*
X70148503Y-133219040D01*
X70148503Y-133219040D02*
X69952744Y-133306198D01*
X69952744Y-133306198D02*
X69662678Y-133357155D01*
X69662678Y-133357155D02*
X69503119Y-133350007D01*
X69503119Y-133350007D02*
X69314507Y-133277606D01*
X69314507Y-133277606D02*
X69162096Y-133110899D01*
X69162096Y-133110899D02*
X69103991Y-132980392D01*
X69103991Y-132980392D02*
X69082086Y-132755580D01*
X69082086Y-132755580D02*
X69118287Y-132661274D01*
X69118287Y-132661274D02*
X69575060Y-132457906D01*
X69575060Y-132457906D02*
X69691270Y-132718919D01*
X68559139Y-131581022D02*
X68551991Y-131740581D01*
X68551991Y-131740581D02*
X68668202Y-132001594D01*
X68668202Y-132001594D02*
X68791560Y-132103048D01*
X68791560Y-132103048D02*
X68951119Y-132110196D01*
X68951119Y-132110196D02*
X69473145Y-131877775D01*
X69473145Y-131877775D02*
X69574599Y-131754416D01*
X69574599Y-131754416D02*
X69581747Y-131594857D01*
X69581747Y-131594857D02*
X69465537Y-131333844D01*
X69465537Y-131333844D02*
X69342178Y-131232390D01*
X69342178Y-131232390D02*
X69182619Y-131225242D01*
X69182619Y-131225242D02*
X69052112Y-131283347D01*
X69052112Y-131283347D02*
X69212132Y-131993985D01*
X68007139Y-130341210D02*
X67999991Y-130500769D01*
X67999991Y-130500769D02*
X68116202Y-130761782D01*
X68116202Y-130761782D02*
X68239560Y-130863236D01*
X68239560Y-130863236D02*
X68333866Y-130899437D01*
X68333866Y-130899437D02*
X68493425Y-130906585D01*
X68493425Y-130906585D02*
X68884945Y-130732269D01*
X68884945Y-130732269D02*
X68986399Y-130608911D01*
X68986399Y-130608911D02*
X69022599Y-130514605D01*
X69022599Y-130514605D02*
X69029747Y-130355046D01*
X69029747Y-130355046D02*
X68913537Y-130094033D01*
X68913537Y-130094033D02*
X68790178Y-129992579D01*
X67680413Y-129782984D02*
X69050731Y-129172879D01*
X68144334Y-129420056D02*
X67447992Y-129260958D01*
X68361537Y-128854221D02*
X68071932Y-129608668D01*
X67099360Y-128477919D02*
X67222719Y-128579372D01*
X67222719Y-128579372D02*
X67317025Y-128615573D01*
X67317025Y-128615573D02*
X67476584Y-128622721D01*
X67476584Y-128622721D02*
X67868103Y-128448405D01*
X67868103Y-128448405D02*
X67969557Y-128325047D01*
X67969557Y-128325047D02*
X68005758Y-128230741D01*
X68005758Y-128230741D02*
X68012906Y-128071182D01*
X68012906Y-128071182D02*
X67925748Y-127875422D01*
X67925748Y-127875422D02*
X67802389Y-127773968D01*
X67802389Y-127773968D02*
X67708084Y-127737768D01*
X67708084Y-127737768D02*
X67548524Y-127730620D01*
X67548524Y-127730620D02*
X67157005Y-127904935D01*
X67157005Y-127904935D02*
X67055551Y-128028294D01*
X67055551Y-128028294D02*
X67019351Y-128122600D01*
X67019351Y-128122600D02*
X67012202Y-128282159D01*
X67012202Y-128282159D02*
X67099360Y-128477919D01*
X67141327Y-126113584D02*
X66082519Y-126194055D01*
X66082519Y-126194055D02*
X66850801Y-125461052D01*
X66958942Y-124474645D02*
X66900837Y-124344138D01*
X66900837Y-124344138D02*
X66777479Y-124242685D01*
X66777479Y-124242685D02*
X66683173Y-124206484D01*
X66683173Y-124206484D02*
X66523614Y-124199336D01*
X66523614Y-124199336D02*
X66233548Y-124250293D01*
X66233548Y-124250293D02*
X65907282Y-124395556D01*
X65907282Y-124395556D02*
X65675322Y-124577020D01*
X65675322Y-124577020D02*
X65573868Y-124700378D01*
X65573868Y-124700378D02*
X65537667Y-124794684D01*
X65537667Y-124794684D02*
X65530519Y-124954243D01*
X65530519Y-124954243D02*
X65588624Y-125084750D01*
X65588624Y-125084750D02*
X65711983Y-125186204D01*
X65711983Y-125186204D02*
X65806289Y-125222404D01*
X65806289Y-125222404D02*
X65965848Y-125229552D01*
X65965848Y-125229552D02*
X66255913Y-125178595D01*
X66255913Y-125178595D02*
X66582180Y-125033332D01*
X66582180Y-125033332D02*
X66814140Y-124851868D01*
X66814140Y-124851868D02*
X66915594Y-124728510D01*
X66915594Y-124728510D02*
X66951794Y-124634204D01*
X66951794Y-124634204D02*
X66958942Y-124474645D01*
X65254289Y-123982593D02*
X65159983Y-123946392D01*
X65159983Y-123946392D02*
X65123783Y-124040698D01*
X65123783Y-124040698D02*
X65218088Y-124076899D01*
X65218088Y-124076899D02*
X65254289Y-123982593D01*
X65254289Y-123982593D02*
X65123783Y-124040698D01*
X64513678Y-122670380D02*
X64862309Y-123453419D01*
X64687993Y-123061899D02*
X66058311Y-122451794D01*
X66058311Y-122451794D02*
X65920657Y-122669459D01*
X65920657Y-122669459D02*
X65848256Y-122858070D01*
X65848256Y-122858070D02*
X65841108Y-123017630D01*
X64288405Y-121988795D02*
X64223152Y-122017848D01*
X64223152Y-122017848D02*
X64121698Y-122141206D01*
X64121698Y-122141206D02*
X64085497Y-122235512D01*
X63496836Y-120386516D02*
X64867154Y-119776411D01*
X64867154Y-119776411D02*
X64721891Y-119450145D01*
X64721891Y-119450145D02*
X64569480Y-119283438D01*
X64569480Y-119283438D02*
X64380868Y-119211037D01*
X64380868Y-119211037D02*
X64221309Y-119203889D01*
X64221309Y-119203889D02*
X63931244Y-119254846D01*
X63931244Y-119254846D02*
X63735484Y-119342004D01*
X63735484Y-119342004D02*
X63503523Y-119523468D01*
X63503523Y-119523468D02*
X63402070Y-119646826D01*
X63402070Y-119646826D02*
X63329668Y-119835438D01*
X63329668Y-119835438D02*
X63351573Y-120060250D01*
X63351573Y-120060250D02*
X63496836Y-120386516D01*
X62625258Y-118428919D02*
X63343043Y-118109340D01*
X63343043Y-118109340D02*
X63502602Y-118116488D01*
X63502602Y-118116488D02*
X63625961Y-118217942D01*
X63625961Y-118217942D02*
X63742171Y-118478955D01*
X63742171Y-118478955D02*
X63735023Y-118638514D01*
X62690511Y-118399866D02*
X62683363Y-118559426D01*
X62683363Y-118559426D02*
X62828626Y-118885692D01*
X62828626Y-118885692D02*
X62951984Y-118987146D01*
X62951984Y-118987146D02*
X63111543Y-118994294D01*
X63111543Y-118994294D02*
X63242050Y-118936188D01*
X63242050Y-118936188D02*
X63343504Y-118812830D01*
X63343504Y-118812830D02*
X63350652Y-118653271D01*
X63350652Y-118653271D02*
X63205389Y-118327005D01*
X63205389Y-118327005D02*
X63212537Y-118167445D01*
X63248277Y-117369650D02*
X62334731Y-117776386D01*
X63117770Y-117427755D02*
X63153971Y-117333449D01*
X63153971Y-117333449D02*
X63161119Y-117173890D01*
X63161119Y-117173890D02*
X63073961Y-116978130D01*
X63073961Y-116978130D02*
X62950603Y-116876676D01*
X62950603Y-116876676D02*
X62791043Y-116869528D01*
X62791043Y-116869528D02*
X62073258Y-117189107D01*
X61615564Y-115985496D02*
X61608416Y-116145055D01*
X61608416Y-116145055D02*
X61724626Y-116406068D01*
X61724626Y-116406068D02*
X61847985Y-116507522D01*
X61847985Y-116507522D02*
X62007544Y-116514670D01*
X62007544Y-116514670D02*
X62529570Y-116282249D01*
X62529570Y-116282249D02*
X62631024Y-116158891D01*
X62631024Y-116158891D02*
X62638172Y-115999331D01*
X62638172Y-115999331D02*
X62521961Y-115738318D01*
X62521961Y-115738318D02*
X62398603Y-115636865D01*
X62398603Y-115636865D02*
X62239044Y-115629717D01*
X62239044Y-115629717D02*
X62108537Y-115687822D01*
X62108537Y-115687822D02*
X62268557Y-116398460D01*
X61512728Y-113998386D02*
X61309360Y-113541613D01*
X60504416Y-113665432D02*
X60794943Y-114317965D01*
X60794943Y-114317965D02*
X62165261Y-113707860D01*
X62165261Y-113707860D02*
X61874735Y-113055327D01*
X61214594Y-112801923D02*
X60155785Y-112882393D01*
X60155785Y-112882393D02*
X60924067Y-112149390D01*
X59516628Y-111446822D02*
X60234413Y-111127243D01*
X60234413Y-111127243D02*
X60393972Y-111134391D01*
X60393972Y-111134391D02*
X60517331Y-111235845D01*
X60517331Y-111235845D02*
X60633541Y-111496858D01*
X60633541Y-111496858D02*
X60626393Y-111656417D01*
X59581881Y-111417769D02*
X59574733Y-111577328D01*
X59574733Y-111577328D02*
X59719996Y-111903594D01*
X59719996Y-111903594D02*
X59843354Y-112005048D01*
X59843354Y-112005048D02*
X60002913Y-112012196D01*
X60002913Y-112012196D02*
X60133420Y-111954091D01*
X60133420Y-111954091D02*
X60234874Y-111830733D01*
X60234874Y-111830733D02*
X60242022Y-111671174D01*
X60242022Y-111671174D02*
X60096759Y-111344907D01*
X60096759Y-111344907D02*
X60103907Y-111185348D01*
X60139647Y-110387552D02*
X59226101Y-110794289D01*
X60009140Y-110445658D02*
X60045341Y-110351352D01*
X60045341Y-110351352D02*
X60052489Y-110191793D01*
X60052489Y-110191793D02*
X59965331Y-109996033D01*
X59965331Y-109996033D02*
X59841973Y-109894579D01*
X59841973Y-109894579D02*
X59682413Y-109887431D01*
X59682413Y-109887431D02*
X58964628Y-110207010D01*
X58768407Y-109590678D02*
X58645049Y-109489224D01*
X58645049Y-109489224D02*
X58528838Y-109228211D01*
X58528838Y-109228211D02*
X58535986Y-109068652D01*
X58535986Y-109068652D02*
X58637440Y-108945293D01*
X58637440Y-108945293D02*
X58702694Y-108916241D01*
X58702694Y-108916241D02*
X58862253Y-108923389D01*
X58862253Y-108923389D02*
X58985611Y-109024843D01*
X58985611Y-109024843D02*
X59072769Y-109220603D01*
X59072769Y-109220603D02*
X59196127Y-109322056D01*
X59196127Y-109322056D02*
X59355687Y-109329204D01*
X59355687Y-109329204D02*
X59420940Y-109300152D01*
X59420940Y-109300152D02*
X59522394Y-109176793D01*
X59522394Y-109176793D02*
X59529542Y-109017234D01*
X59529542Y-109017234D02*
X59442384Y-108821474D01*
X59442384Y-108821474D02*
X59319025Y-108720021D01*
%TA.AperFunction,NonConductor*%
G36*
X135918719Y-107019640D02*
G01*
X135985002Y-107041723D01*
X136028828Y-107096139D01*
X136036277Y-107165610D01*
X136033407Y-107175750D01*
X136033650Y-107175811D01*
X136031701Y-107183699D01*
X136028959Y-107208264D01*
X136026088Y-107224316D01*
X136020142Y-107248319D01*
X136020141Y-107248327D01*
X136020619Y-107273524D01*
X136019875Y-107289630D01*
X136007813Y-107397674D01*
X136004356Y-107416003D01*
X135999506Y-107434105D01*
X135999506Y-107465195D01*
X135998740Y-107478953D01*
X135995278Y-107509954D01*
X135998102Y-107528553D01*
X135999506Y-107547162D01*
X135999506Y-116150486D01*
X135979821Y-116217525D01*
X135927017Y-116263280D01*
X135876632Y-116274481D01*
X122566361Y-116395399D01*
X122499146Y-116376324D01*
X122452913Y-116323938D01*
X122441235Y-116271404D01*
X122441235Y-106841153D01*
X122443886Y-106815652D01*
X122444087Y-106814695D01*
X122444087Y-106814694D01*
X122443930Y-106811832D01*
X122441420Y-106765935D01*
X122441235Y-106759162D01*
X122441235Y-106710345D01*
X122441235Y-106710342D01*
X122440982Y-106709399D01*
X122436942Y-106684080D01*
X122436149Y-106669584D01*
X122452145Y-106601572D01*
X122502372Y-106553003D01*
X122564422Y-106538897D01*
X135918719Y-107019640D01*
G37*
%TD.AperFunction*%
M02*
