%TF.GenerationSoftware,KiCad,Pcbnew,8.0.3*%
%TF.CreationDate,2024-09-02T20:30:28+10:00*%
%TF.ProjectId,Top_plate,546f705f-706c-4617-9465-2e6b69636164,rev?*%
%TF.SameCoordinates,Original*%
%TF.FileFunction,Soldermask,Top*%
%TF.FilePolarity,Negative*%
%FSLAX46Y46*%
G04 Gerber Fmt 4.6, Leading zero omitted, Abs format (unit mm)*
G04 Created by KiCad (PCBNEW 8.0.3) date 2024-09-02 20:30:28*
%MOMM*%
%LPD*%
G01*
G04 APERTURE LIST*
%ADD10C,0.010000*%
G04 APERTURE END LIST*
D10*
%TO.C,G\u002A\u002A\u002A*%
X134099123Y-111473722D02*
X134127371Y-111518568D01*
X134158411Y-111588058D01*
X134172083Y-111623053D01*
X134194649Y-111679234D01*
X134215546Y-111725532D01*
X134232544Y-111757381D01*
X134243417Y-111770216D01*
X134243930Y-111770285D01*
X134255318Y-111781837D01*
X134259797Y-111812850D01*
X134259805Y-111814482D01*
X134264802Y-111856302D01*
X134277075Y-111901499D01*
X134279513Y-111907933D01*
X134287885Y-111932126D01*
X134292231Y-111956764D01*
X134292583Y-111987861D01*
X134288970Y-112031433D01*
X134281421Y-112093495D01*
X134280463Y-112100861D01*
X134261703Y-112244531D01*
X134402677Y-112429685D01*
X134447660Y-112488764D01*
X134487130Y-112540599D01*
X134518592Y-112581914D01*
X134539553Y-112609434D01*
X134547479Y-112619833D01*
X134561509Y-112619827D01*
X134593409Y-112612968D01*
X134637189Y-112601117D01*
X134686863Y-112586137D01*
X134736442Y-112569890D01*
X134779937Y-112554239D01*
X134811361Y-112541046D01*
X134823181Y-112534088D01*
X134843907Y-112508482D01*
X134868654Y-112467610D01*
X134893651Y-112419174D01*
X134915129Y-112370877D01*
X134929316Y-112330420D01*
X134932905Y-112309958D01*
X134941066Y-112281577D01*
X134960444Y-112267841D01*
X134983379Y-112273394D01*
X134987415Y-112276920D01*
X134995516Y-112295109D01*
X134986561Y-112316534D01*
X134977295Y-112343815D01*
X134971727Y-112384222D01*
X134971005Y-112404261D01*
X134974751Y-112448076D01*
X134987506Y-112472043D01*
X135011537Y-112476646D01*
X135049116Y-112462368D01*
X135099650Y-112431608D01*
X135144355Y-112402384D01*
X135172811Y-112386382D01*
X135189562Y-112382238D01*
X135199152Y-112388588D01*
X135204637Y-112400086D01*
X135206418Y-112427913D01*
X135187148Y-112442126D01*
X135174522Y-112443390D01*
X135152028Y-112453512D01*
X135124612Y-112478724D01*
X135098501Y-112511294D01*
X135079923Y-112543490D01*
X135074977Y-112566979D01*
X135088380Y-112585645D01*
X135116595Y-112605762D01*
X135151197Y-112623180D01*
X135183760Y-112633751D01*
X135205860Y-112633325D01*
X135207520Y-112632250D01*
X135229393Y-112626433D01*
X135252074Y-112633913D01*
X135262902Y-112650375D01*
X135262910Y-112651123D01*
X135254542Y-112680959D01*
X135233512Y-112691412D01*
X135214755Y-112686001D01*
X135182746Y-112675826D01*
X135141962Y-112671650D01*
X135100848Y-112673164D01*
X135067850Y-112680063D01*
X135051453Y-112691935D01*
X135055629Y-112711215D01*
X135073799Y-112739425D01*
X135099950Y-112769846D01*
X135128070Y-112795759D01*
X135152146Y-112810445D01*
X135158615Y-112811690D01*
X135171306Y-112820475D01*
X135171775Y-112840221D01*
X135162269Y-112861011D01*
X135145033Y-112872929D01*
X135144729Y-112872989D01*
X135122529Y-112866730D01*
X135115092Y-112852495D01*
X135100967Y-112836193D01*
X135069107Y-112814064D01*
X135025578Y-112789154D01*
X134976443Y-112764509D01*
X134927768Y-112743174D01*
X134885618Y-112728197D01*
X134856501Y-112722623D01*
X134832854Y-112724410D01*
X134789616Y-112729431D01*
X134732290Y-112736984D01*
X134666378Y-112746367D01*
X134643599Y-112749759D01*
X134578991Y-112759126D01*
X134523993Y-112766418D01*
X134483149Y-112771085D01*
X134461003Y-112772578D01*
X134458387Y-112772151D01*
X134450655Y-112760143D01*
X134432102Y-112730588D01*
X134405264Y-112687542D01*
X134372673Y-112635063D01*
X134361838Y-112617577D01*
X134328086Y-112563899D01*
X134299153Y-112519429D01*
X134277555Y-112487917D01*
X134265809Y-112473115D01*
X134264523Y-112472537D01*
X134264026Y-112485942D01*
X134265030Y-112521265D01*
X134267374Y-112575083D01*
X134270897Y-112643968D01*
X134275435Y-112724495D01*
X134280000Y-112800000D01*
X134300098Y-113122840D01*
X134172040Y-113368589D01*
X134134951Y-113441143D01*
X134102879Y-113506547D01*
X134077410Y-113561344D01*
X134060126Y-113602079D01*
X134052613Y-113625295D01*
X134052719Y-113628939D01*
X134062455Y-113643061D01*
X134084908Y-113674570D01*
X134117824Y-113720333D01*
X134158947Y-113777221D01*
X134206022Y-113842100D01*
X134230735Y-113876076D01*
X134279543Y-113943397D01*
X134323098Y-114003995D01*
X134359236Y-114054815D01*
X134385792Y-114092804D01*
X134400602Y-114114907D01*
X134402933Y-114119071D01*
X134393991Y-114129270D01*
X134367325Y-114152053D01*
X134325812Y-114185150D01*
X134272330Y-114226291D01*
X134209758Y-114273203D01*
X134177255Y-114297166D01*
X134110963Y-114346058D01*
X134051923Y-114390132D01*
X134003109Y-114427126D01*
X133967491Y-114454778D01*
X133948042Y-114470826D01*
X133945329Y-114473722D01*
X133952576Y-114486982D01*
X133976285Y-114508252D01*
X134010580Y-114533453D01*
X134049582Y-114558511D01*
X134087413Y-114579347D01*
X134113755Y-114590529D01*
X134159641Y-114599612D01*
X134225699Y-114604011D01*
X134291555Y-114603865D01*
X134352712Y-114601411D01*
X134394081Y-114597331D01*
X134421267Y-114590585D01*
X134439875Y-114580133D01*
X134445520Y-114575294D01*
X134466107Y-114558740D01*
X134480373Y-114559693D01*
X134493876Y-114571575D01*
X134507900Y-114595207D01*
X134508185Y-114611416D01*
X134501848Y-114630877D01*
X134501105Y-114635178D01*
X134490036Y-114638895D01*
X134463336Y-114640488D01*
X134462582Y-114640490D01*
X134429282Y-114646267D01*
X134386155Y-114661049D01*
X134360198Y-114672851D01*
X134323328Y-114693230D01*
X134304848Y-114709734D01*
X134299618Y-114728047D01*
X134300295Y-114739069D01*
X134308460Y-114762305D01*
X134330259Y-114784389D01*
X134370557Y-114810104D01*
X134375303Y-114812785D01*
X134418200Y-114835297D01*
X134456977Y-114853020D01*
X134478677Y-114860757D01*
X134508891Y-114876907D01*
X134521285Y-114901650D01*
X134512469Y-114927849D01*
X134487541Y-114943542D01*
X134461393Y-114941030D01*
X134444409Y-114921320D01*
X134444385Y-114921247D01*
X134432244Y-114905679D01*
X134404039Y-114893208D01*
X134355155Y-114881809D01*
X134353994Y-114881589D01*
X134309005Y-114873786D01*
X134281951Y-114871975D01*
X134265954Y-114876713D01*
X134254139Y-114888557D01*
X134253223Y-114889757D01*
X134241217Y-114909230D01*
X134235891Y-114931518D01*
X134236581Y-114964087D01*
X134242334Y-115012299D01*
X134251510Y-115052890D01*
X134266239Y-115073027D01*
X134274112Y-115076390D01*
X134290459Y-115086019D01*
X134288978Y-115106756D01*
X134287025Y-115112383D01*
X134268323Y-115139413D01*
X134244389Y-115146776D01*
X134222913Y-115134260D01*
X134213663Y-115114389D01*
X134203338Y-115082133D01*
X134186801Y-115039078D01*
X134176004Y-115013615D01*
X134154299Y-114971838D01*
X134133205Y-114949559D01*
X134114712Y-114942364D01*
X134096743Y-114940872D01*
X134084229Y-114948130D01*
X134073357Y-114969146D01*
X134060314Y-115008925D01*
X134057882Y-115016995D01*
X134046320Y-115062806D01*
X134040201Y-115102160D01*
X134040586Y-115124470D01*
X134038441Y-115152324D01*
X134020798Y-115169107D01*
X133996246Y-115171800D01*
X133973378Y-115157387D01*
X133968418Y-115149823D01*
X133963163Y-115125472D01*
X133975657Y-115109060D01*
X133984616Y-115097912D01*
X133989690Y-115079485D01*
X133991256Y-115048849D01*
X133989691Y-115001073D01*
X133987174Y-114958501D01*
X133983668Y-114908336D01*
X133979022Y-114868048D01*
X133971153Y-114833446D01*
X133957978Y-114800338D01*
X133937416Y-114764533D01*
X133907383Y-114721839D01*
X133865796Y-114668064D01*
X133810572Y-114599017D01*
X133805283Y-114592434D01*
X133773598Y-114554246D01*
X133749386Y-114524762D01*
X133733865Y-114500865D01*
X133728250Y-114479436D01*
X133733757Y-114457357D01*
X133751603Y-114431508D01*
X133783003Y-114398771D01*
X133829173Y-114356028D01*
X133891330Y-114300161D01*
X133934453Y-114261180D01*
X134110751Y-114100905D01*
X134005688Y-114002397D01*
X133963251Y-113963231D01*
X133927595Y-113931491D01*
X133902727Y-113910666D01*
X133892889Y-113904138D01*
X133883345Y-113914320D01*
X133863703Y-113941610D01*
X133837132Y-113981454D01*
X133815771Y-114014914D01*
X133756713Y-114097984D01*
X133682063Y-114186300D01*
X133598491Y-114272873D01*
X133512665Y-114350716D01*
X133445119Y-114403250D01*
X133375399Y-114447650D01*
X133291981Y-114493061D01*
X133203426Y-114535387D01*
X133118293Y-114570527D01*
X133046955Y-114593904D01*
X132961207Y-114612489D01*
X132864377Y-114626611D01*
X132766323Y-114635278D01*
X132676908Y-114637498D01*
X132633672Y-114635506D01*
X132481777Y-114610503D01*
X132335223Y-114561720D01*
X132196102Y-114490567D01*
X132066507Y-114398455D01*
X131948529Y-114286796D01*
X131844259Y-114156999D01*
X131784288Y-114062640D01*
X131755015Y-114011840D01*
X131790251Y-114056290D01*
X131833249Y-114106090D01*
X131888566Y-114163761D01*
X131950580Y-114224030D01*
X132013667Y-114281621D01*
X132072204Y-114331259D01*
X132120568Y-114367671D01*
X132126205Y-114371411D01*
X132252629Y-114440341D01*
X132385776Y-114488601D01*
X132521856Y-114515542D01*
X132657079Y-114520513D01*
X132787656Y-114502863D01*
X132828760Y-114492059D01*
X132908530Y-114463550D01*
X132998798Y-114423461D01*
X133090389Y-114376282D01*
X133174130Y-114326502D01*
X133194142Y-114313240D01*
X133262601Y-114263379D01*
X133323922Y-114210835D01*
X133381146Y-114151978D01*
X133437317Y-114083180D01*
X133495475Y-114000812D01*
X133558664Y-113901246D01*
X133605959Y-113822034D01*
X133680005Y-113695729D01*
X133560330Y-113584626D01*
X133515554Y-113544384D01*
X133477856Y-113513015D01*
X133450756Y-113493262D01*
X133437772Y-113487865D01*
X133437193Y-113488681D01*
X133434741Y-113506485D01*
X133430519Y-113544282D01*
X133425089Y-113596774D01*
X133419017Y-113658661D01*
X133418143Y-113667819D01*
X133402555Y-113831799D01*
X133198753Y-113635266D01*
X133129740Y-113569190D01*
X133075699Y-113518811D01*
X133033725Y-113481779D01*
X133000912Y-113455748D01*
X132974355Y-113438370D01*
X132951148Y-113427298D01*
X132934556Y-113421822D01*
X132888905Y-113413774D01*
X132832364Y-113410558D01*
X132771946Y-113411754D01*
X132714662Y-113416943D01*
X132667524Y-113425706D01*
X132637542Y-113437624D01*
X132634874Y-113439733D01*
X132614241Y-113452336D01*
X132593764Y-113444783D01*
X132590661Y-113442573D01*
X132572936Y-113418441D01*
X132575746Y-113394067D01*
X132596546Y-113378210D01*
X132609956Y-113376199D01*
X132639813Y-113370845D01*
X132680048Y-113357933D01*
X132722284Y-113340897D01*
X132758145Y-113323167D01*
X132779256Y-113308176D01*
X132780726Y-113306226D01*
X132786099Y-113276158D01*
X132766318Y-113244373D01*
X132721559Y-113211090D01*
X132694959Y-113196518D01*
X132651672Y-113175131D01*
X132614995Y-113158156D01*
X132592930Y-113149292D01*
X132574716Y-113133027D01*
X132572185Y-113106558D01*
X132585945Y-113080929D01*
X132611603Y-113066535D01*
X132632521Y-113075161D01*
X132640090Y-113089625D01*
X132655770Y-113107508D01*
X132692459Y-113123759D01*
X132726671Y-113133549D01*
X132770011Y-113143916D01*
X132796300Y-113147290D01*
X132812995Y-113143348D01*
X132827554Y-113131765D01*
X132830328Y-113129037D01*
X132847076Y-113097400D01*
X132853523Y-113052940D01*
X132850020Y-113005755D01*
X132836917Y-112965939D01*
X132824092Y-112949354D01*
X132802074Y-112919814D01*
X132804212Y-112890996D01*
X132813075Y-112879199D01*
X132835608Y-112870234D01*
X132860085Y-112876151D01*
X132874748Y-112893239D01*
X132875503Y-112898896D01*
X132880366Y-112920637D01*
X132893089Y-112957318D01*
X132910079Y-112999015D01*
X132930118Y-113041987D01*
X132946016Y-113066125D01*
X132962132Y-113076528D01*
X132977920Y-113078390D01*
X132997212Y-113075696D01*
X133010834Y-113063873D01*
X133022968Y-113037305D01*
X133033970Y-113003128D01*
X133045094Y-112958646D01*
X133050550Y-112920568D01*
X133049827Y-112901362D01*
X133052632Y-112874384D01*
X133071316Y-112858075D01*
X133097109Y-112856960D01*
X133114863Y-112867805D01*
X133128308Y-112888306D01*
X133121313Y-112910735D01*
X133119731Y-112913322D01*
X133111790Y-112939991D01*
X133106482Y-112988299D01*
X133104174Y-113054584D01*
X133104105Y-113069821D01*
X133104105Y-113201298D01*
X133202263Y-113337448D01*
X133238068Y-113387579D01*
X133264875Y-113423567D01*
X133284428Y-113443931D01*
X133298467Y-113447188D01*
X133308735Y-113431858D01*
X133316974Y-113396457D01*
X133324925Y-113339504D01*
X133334331Y-113259516D01*
X133338828Y-113221265D01*
X133347232Y-113154591D01*
X133355281Y-113097862D01*
X133362292Y-113055387D01*
X133367581Y-113031473D01*
X133369513Y-113027794D01*
X133380833Y-113035987D01*
X133407975Y-113058728D01*
X133447989Y-113093451D01*
X133497927Y-113137593D01*
X133554840Y-113188587D01*
X133566620Y-113199220D01*
X133624190Y-113250978D01*
X133674997Y-113296143D01*
X133716186Y-113332220D01*
X133744902Y-113356713D01*
X133758290Y-113367126D01*
X133758888Y-113367291D01*
X133759136Y-113354195D01*
X133757896Y-113320393D01*
X133755386Y-113270522D01*
X133751823Y-113209217D01*
X133750394Y-113186340D01*
X133746834Y-113117885D01*
X133745427Y-113052850D01*
X133746347Y-112985514D01*
X133749770Y-112910161D01*
X133755869Y-112821072D01*
X133764821Y-112712529D01*
X133764906Y-112711552D01*
X133772025Y-112627630D01*
X133778060Y-112552568D01*
X133782753Y-112489923D01*
X133785845Y-112443250D01*
X133787078Y-112416107D01*
X133786793Y-112410644D01*
X133774894Y-112414964D01*
X133745271Y-112429596D01*
X133702278Y-112452296D01*
X133650270Y-112480820D01*
X133645722Y-112483357D01*
X133593254Y-112512213D01*
X133549530Y-112535385D01*
X133518874Y-112550646D01*
X133505608Y-112555768D01*
X133505421Y-112555665D01*
X133485132Y-112529912D01*
X133453205Y-112491821D01*
X133412954Y-112445106D01*
X133367691Y-112393481D01*
X133320731Y-112340660D01*
X133275385Y-112290357D01*
X133234968Y-112246286D01*
X133202793Y-112212160D01*
X133182172Y-112191694D01*
X133177177Y-112187716D01*
X133133871Y-112167870D01*
X133083477Y-112149693D01*
X133032885Y-112135074D01*
X132988984Y-112125900D01*
X132958662Y-112124060D01*
X132951663Y-112125912D01*
X132926684Y-112128073D01*
X132907815Y-112112788D01*
X132903482Y-112087908D01*
X132905081Y-112082524D01*
X132914044Y-112073141D01*
X132934989Y-112068884D01*
X132972972Y-112069194D01*
X133006179Y-112071350D01*
X133054382Y-112074554D01*
X133083100Y-112074238D01*
X133098152Y-112069097D01*
X133105358Y-112057826D01*
X133108099Y-112048487D01*
X133109018Y-112020331D01*
X133095590Y-111988895D01*
X133065436Y-111949977D01*
X133033111Y-111916042D01*
X133004295Y-111880630D01*
X132995551Y-111853604D01*
X133007045Y-111837397D01*
X133027506Y-111833790D01*
X133049211Y-111842642D01*
X133053327Y-111856015D01*
X133064077Y-111877058D01*
X133090996Y-111901169D01*
X133126142Y-111923425D01*
X133161570Y-111938905D01*
X133189341Y-111942690D01*
X133192132Y-111942016D01*
X133212264Y-111924367D01*
X133229593Y-111890764D01*
X133241180Y-111850650D01*
X133244083Y-111813470D01*
X133238580Y-111792831D01*
X133232565Y-111768347D01*
X133240094Y-111756220D01*
X133262981Y-111746648D01*
X133283720Y-111756472D01*
X133293288Y-111780634D01*
X133293142Y-111785963D01*
X133292058Y-111815533D01*
X133292133Y-111857868D01*
X133292629Y-111879933D01*
X133295729Y-111920365D01*
X133303474Y-111941991D01*
X133318260Y-111951307D01*
X133319038Y-111951516D01*
X133341593Y-111945839D01*
X133369798Y-111923556D01*
X133397932Y-111890775D01*
X133420271Y-111853603D01*
X133427240Y-111836040D01*
X133442736Y-111813469D01*
X133463841Y-111810824D01*
X133487258Y-111822324D01*
X133495126Y-111841786D01*
X133485348Y-111859746D01*
X133475735Y-111864482D01*
X133461190Y-111879646D01*
X133443322Y-111913186D01*
X133424434Y-111958707D01*
X133406830Y-112009817D01*
X133392814Y-112060122D01*
X133384690Y-112103228D01*
X133383557Y-112120296D01*
X133391458Y-112152210D01*
X133414034Y-112200294D01*
X133449693Y-112261207D01*
X133454035Y-112268061D01*
X133524460Y-112378482D01*
X133660357Y-112307393D01*
X133713843Y-112279162D01*
X133759067Y-112254819D01*
X133791269Y-112236960D01*
X133805686Y-112228179D01*
X133805694Y-112228172D01*
X133808584Y-112212938D01*
X133809139Y-112177936D01*
X133807410Y-112128687D01*
X133804316Y-112081438D01*
X133799905Y-112017664D01*
X133798710Y-111972762D01*
X133801152Y-111940361D01*
X133807649Y-111914088D01*
X133816823Y-111891488D01*
X133831801Y-111849269D01*
X133839949Y-111808377D01*
X133840426Y-111799796D01*
X133846775Y-111766596D01*
X133860735Y-111755346D01*
X133874074Y-111742595D01*
X133894682Y-111710933D01*
X133919893Y-111664826D01*
X133942821Y-111617890D01*
X133981512Y-111540059D01*
X134014861Y-111486690D01*
X134044495Y-111457820D01*
X134072040Y-111453485D01*
X134099123Y-111473722D01*
G36*
X134099123Y-111473722D02*
G01*
X134127371Y-111518568D01*
X134158411Y-111588058D01*
X134172083Y-111623053D01*
X134194649Y-111679234D01*
X134215546Y-111725532D01*
X134232544Y-111757381D01*
X134243417Y-111770216D01*
X134243930Y-111770285D01*
X134255318Y-111781837D01*
X134259797Y-111812850D01*
X134259805Y-111814482D01*
X134264802Y-111856302D01*
X134277075Y-111901499D01*
X134279513Y-111907933D01*
X134287885Y-111932126D01*
X134292231Y-111956764D01*
X134292583Y-111987861D01*
X134288970Y-112031433D01*
X134281421Y-112093495D01*
X134280463Y-112100861D01*
X134261703Y-112244531D01*
X134402677Y-112429685D01*
X134447660Y-112488764D01*
X134487130Y-112540599D01*
X134518592Y-112581914D01*
X134539553Y-112609434D01*
X134547479Y-112619833D01*
X134561509Y-112619827D01*
X134593409Y-112612968D01*
X134637189Y-112601117D01*
X134686863Y-112586137D01*
X134736442Y-112569890D01*
X134779937Y-112554239D01*
X134811361Y-112541046D01*
X134823181Y-112534088D01*
X134843907Y-112508482D01*
X134868654Y-112467610D01*
X134893651Y-112419174D01*
X134915129Y-112370877D01*
X134929316Y-112330420D01*
X134932905Y-112309958D01*
X134941066Y-112281577D01*
X134960444Y-112267841D01*
X134983379Y-112273394D01*
X134987415Y-112276920D01*
X134995516Y-112295109D01*
X134986561Y-112316534D01*
X134977295Y-112343815D01*
X134971727Y-112384222D01*
X134971005Y-112404261D01*
X134974751Y-112448076D01*
X134987506Y-112472043D01*
X135011537Y-112476646D01*
X135049116Y-112462368D01*
X135099650Y-112431608D01*
X135144355Y-112402384D01*
X135172811Y-112386382D01*
X135189562Y-112382238D01*
X135199152Y-112388588D01*
X135204637Y-112400086D01*
X135206418Y-112427913D01*
X135187148Y-112442126D01*
X135174522Y-112443390D01*
X135152028Y-112453512D01*
X135124612Y-112478724D01*
X135098501Y-112511294D01*
X135079923Y-112543490D01*
X135074977Y-112566979D01*
X135088380Y-112585645D01*
X135116595Y-112605762D01*
X135151197Y-112623180D01*
X135183760Y-112633751D01*
X135205860Y-112633325D01*
X135207520Y-112632250D01*
X135229393Y-112626433D01*
X135252074Y-112633913D01*
X135262902Y-112650375D01*
X135262910Y-112651123D01*
X135254542Y-112680959D01*
X135233512Y-112691412D01*
X135214755Y-112686001D01*
X135182746Y-112675826D01*
X135141962Y-112671650D01*
X135100848Y-112673164D01*
X135067850Y-112680063D01*
X135051453Y-112691935D01*
X135055629Y-112711215D01*
X135073799Y-112739425D01*
X135099950Y-112769846D01*
X135128070Y-112795759D01*
X135152146Y-112810445D01*
X135158615Y-112811690D01*
X135171306Y-112820475D01*
X135171775Y-112840221D01*
X135162269Y-112861011D01*
X135145033Y-112872929D01*
X135144729Y-112872989D01*
X135122529Y-112866730D01*
X135115092Y-112852495D01*
X135100967Y-112836193D01*
X135069107Y-112814064D01*
X135025578Y-112789154D01*
X134976443Y-112764509D01*
X134927768Y-112743174D01*
X134885618Y-112728197D01*
X134856501Y-112722623D01*
X134832854Y-112724410D01*
X134789616Y-112729431D01*
X134732290Y-112736984D01*
X134666378Y-112746367D01*
X134643599Y-112749759D01*
X134578991Y-112759126D01*
X134523993Y-112766418D01*
X134483149Y-112771085D01*
X134461003Y-112772578D01*
X134458387Y-112772151D01*
X134450655Y-112760143D01*
X134432102Y-112730588D01*
X134405264Y-112687542D01*
X134372673Y-112635063D01*
X134361838Y-112617577D01*
X134328086Y-112563899D01*
X134299153Y-112519429D01*
X134277555Y-112487917D01*
X134265809Y-112473115D01*
X134264523Y-112472537D01*
X134264026Y-112485942D01*
X134265030Y-112521265D01*
X134267374Y-112575083D01*
X134270897Y-112643968D01*
X134275435Y-112724495D01*
X134280000Y-112800000D01*
X134300098Y-113122840D01*
X134172040Y-113368589D01*
X134134951Y-113441143D01*
X134102879Y-113506547D01*
X134077410Y-113561344D01*
X134060126Y-113602079D01*
X134052613Y-113625295D01*
X134052719Y-113628939D01*
X134062455Y-113643061D01*
X134084908Y-113674570D01*
X134117824Y-113720333D01*
X134158947Y-113777221D01*
X134206022Y-113842100D01*
X134230735Y-113876076D01*
X134279543Y-113943397D01*
X134323098Y-114003995D01*
X134359236Y-114054815D01*
X134385792Y-114092804D01*
X134400602Y-114114907D01*
X134402933Y-114119071D01*
X134393991Y-114129270D01*
X134367325Y-114152053D01*
X134325812Y-114185150D01*
X134272330Y-114226291D01*
X134209758Y-114273203D01*
X134177255Y-114297166D01*
X134110963Y-114346058D01*
X134051923Y-114390132D01*
X134003109Y-114427126D01*
X133967491Y-114454778D01*
X133948042Y-114470826D01*
X133945329Y-114473722D01*
X133952576Y-114486982D01*
X133976285Y-114508252D01*
X134010580Y-114533453D01*
X134049582Y-114558511D01*
X134087413Y-114579347D01*
X134113755Y-114590529D01*
X134159641Y-114599612D01*
X134225699Y-114604011D01*
X134291555Y-114603865D01*
X134352712Y-114601411D01*
X134394081Y-114597331D01*
X134421267Y-114590585D01*
X134439875Y-114580133D01*
X134445520Y-114575294D01*
X134466107Y-114558740D01*
X134480373Y-114559693D01*
X134493876Y-114571575D01*
X134507900Y-114595207D01*
X134508185Y-114611416D01*
X134501848Y-114630877D01*
X134501105Y-114635178D01*
X134490036Y-114638895D01*
X134463336Y-114640488D01*
X134462582Y-114640490D01*
X134429282Y-114646267D01*
X134386155Y-114661049D01*
X134360198Y-114672851D01*
X134323328Y-114693230D01*
X134304848Y-114709734D01*
X134299618Y-114728047D01*
X134300295Y-114739069D01*
X134308460Y-114762305D01*
X134330259Y-114784389D01*
X134370557Y-114810104D01*
X134375303Y-114812785D01*
X134418200Y-114835297D01*
X134456977Y-114853020D01*
X134478677Y-114860757D01*
X134508891Y-114876907D01*
X134521285Y-114901650D01*
X134512469Y-114927849D01*
X134487541Y-114943542D01*
X134461393Y-114941030D01*
X134444409Y-114921320D01*
X134444385Y-114921247D01*
X134432244Y-114905679D01*
X134404039Y-114893208D01*
X134355155Y-114881809D01*
X134353994Y-114881589D01*
X134309005Y-114873786D01*
X134281951Y-114871975D01*
X134265954Y-114876713D01*
X134254139Y-114888557D01*
X134253223Y-114889757D01*
X134241217Y-114909230D01*
X134235891Y-114931518D01*
X134236581Y-114964087D01*
X134242334Y-115012299D01*
X134251510Y-115052890D01*
X134266239Y-115073027D01*
X134274112Y-115076390D01*
X134290459Y-115086019D01*
X134288978Y-115106756D01*
X134287025Y-115112383D01*
X134268323Y-115139413D01*
X134244389Y-115146776D01*
X134222913Y-115134260D01*
X134213663Y-115114389D01*
X134203338Y-115082133D01*
X134186801Y-115039078D01*
X134176004Y-115013615D01*
X134154299Y-114971838D01*
X134133205Y-114949559D01*
X134114712Y-114942364D01*
X134096743Y-114940872D01*
X134084229Y-114948130D01*
X134073357Y-114969146D01*
X134060314Y-115008925D01*
X134057882Y-115016995D01*
X134046320Y-115062806D01*
X134040201Y-115102160D01*
X134040586Y-115124470D01*
X134038441Y-115152324D01*
X134020798Y-115169107D01*
X133996246Y-115171800D01*
X133973378Y-115157387D01*
X133968418Y-115149823D01*
X133963163Y-115125472D01*
X133975657Y-115109060D01*
X133984616Y-115097912D01*
X133989690Y-115079485D01*
X133991256Y-115048849D01*
X133989691Y-115001073D01*
X133987174Y-114958501D01*
X133983668Y-114908336D01*
X133979022Y-114868048D01*
X133971153Y-114833446D01*
X133957978Y-114800338D01*
X133937416Y-114764533D01*
X133907383Y-114721839D01*
X133865796Y-114668064D01*
X133810572Y-114599017D01*
X133805283Y-114592434D01*
X133773598Y-114554246D01*
X133749386Y-114524762D01*
X133733865Y-114500865D01*
X133728250Y-114479436D01*
X133733757Y-114457357D01*
X133751603Y-114431508D01*
X133783003Y-114398771D01*
X133829173Y-114356028D01*
X133891330Y-114300161D01*
X133934453Y-114261180D01*
X134110751Y-114100905D01*
X134005688Y-114002397D01*
X133963251Y-113963231D01*
X133927595Y-113931491D01*
X133902727Y-113910666D01*
X133892889Y-113904138D01*
X133883345Y-113914320D01*
X133863703Y-113941610D01*
X133837132Y-113981454D01*
X133815771Y-114014914D01*
X133756713Y-114097984D01*
X133682063Y-114186300D01*
X133598491Y-114272873D01*
X133512665Y-114350716D01*
X133445119Y-114403250D01*
X133375399Y-114447650D01*
X133291981Y-114493061D01*
X133203426Y-114535387D01*
X133118293Y-114570527D01*
X133046955Y-114593904D01*
X132961207Y-114612489D01*
X132864377Y-114626611D01*
X132766323Y-114635278D01*
X132676908Y-114637498D01*
X132633672Y-114635506D01*
X132481777Y-114610503D01*
X132335223Y-114561720D01*
X132196102Y-114490567D01*
X132066507Y-114398455D01*
X131948529Y-114286796D01*
X131844259Y-114156999D01*
X131784288Y-114062640D01*
X131755015Y-114011840D01*
X131790251Y-114056290D01*
X131833249Y-114106090D01*
X131888566Y-114163761D01*
X131950580Y-114224030D01*
X132013667Y-114281621D01*
X132072204Y-114331259D01*
X132120568Y-114367671D01*
X132126205Y-114371411D01*
X132252629Y-114440341D01*
X132385776Y-114488601D01*
X132521856Y-114515542D01*
X132657079Y-114520513D01*
X132787656Y-114502863D01*
X132828760Y-114492059D01*
X132908530Y-114463550D01*
X132998798Y-114423461D01*
X133090389Y-114376282D01*
X133174130Y-114326502D01*
X133194142Y-114313240D01*
X133262601Y-114263379D01*
X133323922Y-114210835D01*
X133381146Y-114151978D01*
X133437317Y-114083180D01*
X133495475Y-114000812D01*
X133558664Y-113901246D01*
X133605959Y-113822034D01*
X133680005Y-113695729D01*
X133560330Y-113584626D01*
X133515554Y-113544384D01*
X133477856Y-113513015D01*
X133450756Y-113493262D01*
X133437772Y-113487865D01*
X133437193Y-113488681D01*
X133434741Y-113506485D01*
X133430519Y-113544282D01*
X133425089Y-113596774D01*
X133419017Y-113658661D01*
X133418143Y-113667819D01*
X133402555Y-113831799D01*
X133198753Y-113635266D01*
X133129740Y-113569190D01*
X133075699Y-113518811D01*
X133033725Y-113481779D01*
X133000912Y-113455748D01*
X132974355Y-113438370D01*
X132951148Y-113427298D01*
X132934556Y-113421822D01*
X132888905Y-113413774D01*
X132832364Y-113410558D01*
X132771946Y-113411754D01*
X132714662Y-113416943D01*
X132667524Y-113425706D01*
X132637542Y-113437624D01*
X132634874Y-113439733D01*
X132614241Y-113452336D01*
X132593764Y-113444783D01*
X132590661Y-113442573D01*
X132572936Y-113418441D01*
X132575746Y-113394067D01*
X132596546Y-113378210D01*
X132609956Y-113376199D01*
X132639813Y-113370845D01*
X132680048Y-113357933D01*
X132722284Y-113340897D01*
X132758145Y-113323167D01*
X132779256Y-113308176D01*
X132780726Y-113306226D01*
X132786099Y-113276158D01*
X132766318Y-113244373D01*
X132721559Y-113211090D01*
X132694959Y-113196518D01*
X132651672Y-113175131D01*
X132614995Y-113158156D01*
X132592930Y-113149292D01*
X132574716Y-113133027D01*
X132572185Y-113106558D01*
X132585945Y-113080929D01*
X132611603Y-113066535D01*
X132632521Y-113075161D01*
X132640090Y-113089625D01*
X132655770Y-113107508D01*
X132692459Y-113123759D01*
X132726671Y-113133549D01*
X132770011Y-113143916D01*
X132796300Y-113147290D01*
X132812995Y-113143348D01*
X132827554Y-113131765D01*
X132830328Y-113129037D01*
X132847076Y-113097400D01*
X132853523Y-113052940D01*
X132850020Y-113005755D01*
X132836917Y-112965939D01*
X132824092Y-112949354D01*
X132802074Y-112919814D01*
X132804212Y-112890996D01*
X132813075Y-112879199D01*
X132835608Y-112870234D01*
X132860085Y-112876151D01*
X132874748Y-112893239D01*
X132875503Y-112898896D01*
X132880366Y-112920637D01*
X132893089Y-112957318D01*
X132910079Y-112999015D01*
X132930118Y-113041987D01*
X132946016Y-113066125D01*
X132962132Y-113076528D01*
X132977920Y-113078390D01*
X132997212Y-113075696D01*
X133010834Y-113063873D01*
X133022968Y-113037305D01*
X133033970Y-113003128D01*
X133045094Y-112958646D01*
X133050550Y-112920568D01*
X133049827Y-112901362D01*
X133052632Y-112874384D01*
X133071316Y-112858075D01*
X133097109Y-112856960D01*
X133114863Y-112867805D01*
X133128308Y-112888306D01*
X133121313Y-112910735D01*
X133119731Y-112913322D01*
X133111790Y-112939991D01*
X133106482Y-112988299D01*
X133104174Y-113054584D01*
X133104105Y-113069821D01*
X133104105Y-113201298D01*
X133202263Y-113337448D01*
X133238068Y-113387579D01*
X133264875Y-113423567D01*
X133284428Y-113443931D01*
X133298467Y-113447188D01*
X133308735Y-113431858D01*
X133316974Y-113396457D01*
X133324925Y-113339504D01*
X133334331Y-113259516D01*
X133338828Y-113221265D01*
X133347232Y-113154591D01*
X133355281Y-113097862D01*
X133362292Y-113055387D01*
X133367581Y-113031473D01*
X133369513Y-113027794D01*
X133380833Y-113035987D01*
X133407975Y-113058728D01*
X133447989Y-113093451D01*
X133497927Y-113137593D01*
X133554840Y-113188587D01*
X133566620Y-113199220D01*
X133624190Y-113250978D01*
X133674997Y-113296143D01*
X133716186Y-113332220D01*
X133744902Y-113356713D01*
X133758290Y-113367126D01*
X133758888Y-113367291D01*
X133759136Y-113354195D01*
X133757896Y-113320393D01*
X133755386Y-113270522D01*
X133751823Y-113209217D01*
X133750394Y-113186340D01*
X133746834Y-113117885D01*
X133745427Y-113052850D01*
X133746347Y-112985514D01*
X133749770Y-112910161D01*
X133755869Y-112821072D01*
X133764821Y-112712529D01*
X133764906Y-112711552D01*
X133772025Y-112627630D01*
X133778060Y-112552568D01*
X133782753Y-112489923D01*
X133785845Y-112443250D01*
X133787078Y-112416107D01*
X133786793Y-112410644D01*
X133774894Y-112414964D01*
X133745271Y-112429596D01*
X133702278Y-112452296D01*
X133650270Y-112480820D01*
X133645722Y-112483357D01*
X133593254Y-112512213D01*
X133549530Y-112535385D01*
X133518874Y-112550646D01*
X133505608Y-112555768D01*
X133505421Y-112555665D01*
X133485132Y-112529912D01*
X133453205Y-112491821D01*
X133412954Y-112445106D01*
X133367691Y-112393481D01*
X133320731Y-112340660D01*
X133275385Y-112290357D01*
X133234968Y-112246286D01*
X133202793Y-112212160D01*
X133182172Y-112191694D01*
X133177177Y-112187716D01*
X133133871Y-112167870D01*
X133083477Y-112149693D01*
X133032885Y-112135074D01*
X132988984Y-112125900D01*
X132958662Y-112124060D01*
X132951663Y-112125912D01*
X132926684Y-112128073D01*
X132907815Y-112112788D01*
X132903482Y-112087908D01*
X132905081Y-112082524D01*
X132914044Y-112073141D01*
X132934989Y-112068884D01*
X132972972Y-112069194D01*
X133006179Y-112071350D01*
X133054382Y-112074554D01*
X133083100Y-112074238D01*
X133098152Y-112069097D01*
X133105358Y-112057826D01*
X133108099Y-112048487D01*
X133109018Y-112020331D01*
X133095590Y-111988895D01*
X133065436Y-111949977D01*
X133033111Y-111916042D01*
X133004295Y-111880630D01*
X132995551Y-111853604D01*
X133007045Y-111837397D01*
X133027506Y-111833790D01*
X133049211Y-111842642D01*
X133053327Y-111856015D01*
X133064077Y-111877058D01*
X133090996Y-111901169D01*
X133126142Y-111923425D01*
X133161570Y-111938905D01*
X133189341Y-111942690D01*
X133192132Y-111942016D01*
X133212264Y-111924367D01*
X133229593Y-111890764D01*
X133241180Y-111850650D01*
X133244083Y-111813470D01*
X133238580Y-111792831D01*
X133232565Y-111768347D01*
X133240094Y-111756220D01*
X133262981Y-111746648D01*
X133283720Y-111756472D01*
X133293288Y-111780634D01*
X133293142Y-111785963D01*
X133292058Y-111815533D01*
X133292133Y-111857868D01*
X133292629Y-111879933D01*
X133295729Y-111920365D01*
X133303474Y-111941991D01*
X133318260Y-111951307D01*
X133319038Y-111951516D01*
X133341593Y-111945839D01*
X133369798Y-111923556D01*
X133397932Y-111890775D01*
X133420271Y-111853603D01*
X133427240Y-111836040D01*
X133442736Y-111813469D01*
X133463841Y-111810824D01*
X133487258Y-111822324D01*
X133495126Y-111841786D01*
X133485348Y-111859746D01*
X133475735Y-111864482D01*
X133461190Y-111879646D01*
X133443322Y-111913186D01*
X133424434Y-111958707D01*
X133406830Y-112009817D01*
X133392814Y-112060122D01*
X133384690Y-112103228D01*
X133383557Y-112120296D01*
X133391458Y-112152210D01*
X133414034Y-112200294D01*
X133449693Y-112261207D01*
X133454035Y-112268061D01*
X133524460Y-112378482D01*
X133660357Y-112307393D01*
X133713843Y-112279162D01*
X133759067Y-112254819D01*
X133791269Y-112236960D01*
X133805686Y-112228179D01*
X133805694Y-112228172D01*
X133808584Y-112212938D01*
X133809139Y-112177936D01*
X133807410Y-112128687D01*
X133804316Y-112081438D01*
X133799905Y-112017664D01*
X133798710Y-111972762D01*
X133801152Y-111940361D01*
X133807649Y-111914088D01*
X133816823Y-111891488D01*
X133831801Y-111849269D01*
X133839949Y-111808377D01*
X133840426Y-111799796D01*
X133846775Y-111766596D01*
X133860735Y-111755346D01*
X133874074Y-111742595D01*
X133894682Y-111710933D01*
X133919893Y-111664826D01*
X133942821Y-111617890D01*
X133981512Y-111540059D01*
X134014861Y-111486690D01*
X134044495Y-111457820D01*
X134072040Y-111453485D01*
X134099123Y-111473722D01*
G37*
X73790982Y-45490886D02*
X73902401Y-45625990D01*
X73889553Y-45798971D01*
X73889321Y-45799421D01*
X73873165Y-45930043D01*
X73947337Y-46121796D01*
X74124045Y-46405973D01*
X74128481Y-46412480D01*
X74303777Y-46661345D01*
X74422772Y-46797418D01*
X74520516Y-46850491D01*
X74632050Y-46850355D01*
X74642021Y-46849019D01*
X74790416Y-46813815D01*
X74920588Y-46733858D01*
X75070866Y-46577075D01*
X75271020Y-46322678D01*
X75419116Y-46088075D01*
X75444603Y-45923715D01*
X75423345Y-45870749D01*
X75391678Y-45748295D01*
X75496413Y-45657523D01*
X75532146Y-45640204D01*
X75747728Y-45600943D01*
X75895263Y-45679063D01*
X75937505Y-45839301D01*
X75887435Y-45976579D01*
X75784051Y-46177306D01*
X75659045Y-46458231D01*
X75589908Y-46629156D01*
X75495286Y-46928415D01*
X75489702Y-47132878D01*
X75542960Y-47253968D01*
X75620631Y-47345710D01*
X75713842Y-47370488D01*
X75864163Y-47322673D01*
X76113165Y-47196635D01*
X76162670Y-47170057D01*
X76433132Y-47008609D01*
X76647496Y-46851936D01*
X76750853Y-46744948D01*
X76892266Y-46623756D01*
X77054552Y-46627814D01*
X77182987Y-46730852D01*
X77222846Y-46906601D01*
X77210568Y-46965636D01*
X77120550Y-47105198D01*
X76984284Y-47123672D01*
X76889497Y-47133990D01*
X76778715Y-47196933D01*
X76626914Y-47333971D01*
X76409073Y-47566568D01*
X76220251Y-47779119D01*
X76000298Y-48032130D01*
X75832281Y-48243952D01*
X75706260Y-48444163D01*
X75612293Y-48662338D01*
X75540438Y-48928058D01*
X75480755Y-49270900D01*
X75423300Y-49720439D01*
X75358134Y-50306256D01*
X75352037Y-50362216D01*
X75321382Y-50691605D01*
X75296529Y-50944726D01*
X75257046Y-51130545D01*
X75182498Y-51258032D01*
X75052453Y-51336156D01*
X74846475Y-51373883D01*
X74544134Y-51380185D01*
X74124992Y-51364028D01*
X73568618Y-51334381D01*
X73181580Y-51314853D01*
X71594957Y-51239319D01*
X71625861Y-52198963D01*
X71641279Y-52583645D01*
X71659736Y-52901350D01*
X71678798Y-53116753D01*
X71694401Y-53193896D01*
X71787391Y-53190891D01*
X72008628Y-53154842D01*
X72321715Y-53092267D01*
X72580140Y-53035236D01*
X73250143Y-52922041D01*
X74018369Y-52857620D01*
X74820442Y-52843474D01*
X75591984Y-52881101D01*
X76158048Y-52951870D01*
X76696014Y-53071232D01*
X77303318Y-53250394D01*
X77920293Y-53468324D01*
X78487268Y-53703994D01*
X78933763Y-53930084D01*
X79425587Y-54246693D01*
X79948623Y-54636583D01*
X80451710Y-55057952D01*
X80883686Y-55468997D01*
X81078106Y-55682204D01*
X81676283Y-56516110D01*
X82137178Y-57436939D01*
X82457581Y-58428178D01*
X82634281Y-59473314D01*
X82664068Y-60555837D01*
X82543732Y-61659234D01*
X82381625Y-62386758D01*
X82280144Y-62764223D01*
X82323580Y-62388581D01*
X82355648Y-61951127D01*
X82366745Y-61418492D01*
X82358517Y-60842047D01*
X82332607Y-60273165D01*
X82290659Y-59763220D01*
X82234317Y-59363584D01*
X82225378Y-59319384D01*
X81954343Y-58398475D01*
X81554185Y-57543312D01*
X81039701Y-56774825D01*
X80425686Y-56113945D01*
X79726934Y-55581602D01*
X79482240Y-55438770D01*
X78971805Y-55197120D01*
X78357299Y-54960575D01*
X77703128Y-54751214D01*
X77073702Y-54591119D01*
X76916850Y-54559298D01*
X76359085Y-54471624D01*
X75822320Y-54430253D01*
X75275107Y-54437948D01*
X74686000Y-54497476D01*
X74023552Y-54611600D01*
X73256318Y-54783084D01*
X72659961Y-54933540D01*
X71715496Y-55179890D01*
X71755907Y-56267791D01*
X71777278Y-56668572D01*
X71807111Y-56994154D01*
X71841743Y-57215023D01*
X71877513Y-57301669D01*
X71884090Y-57300551D01*
X71979575Y-57228185D01*
X72177656Y-57069913D01*
X72450699Y-56848057D01*
X72771066Y-56584942D01*
X72818357Y-56545889D01*
X73664851Y-55846367D01*
X73699110Y-57733564D01*
X73712959Y-58370376D01*
X73730218Y-58862619D01*
X73753517Y-59235056D01*
X73785487Y-59512449D01*
X73828761Y-59719562D01*
X73885968Y-59881155D01*
X73938367Y-59985188D01*
X74115632Y-60238325D01*
X74367005Y-60520020D01*
X74657455Y-60799195D01*
X74951956Y-61044774D01*
X75215478Y-61225678D01*
X75412992Y-61310830D01*
X75435515Y-61313462D01*
X75592193Y-61351320D01*
X75653115Y-61483451D01*
X75657323Y-61508498D01*
X75627123Y-61705814D01*
X75498973Y-61807468D01*
X75326174Y-61784167D01*
X75253479Y-61730431D01*
X75087489Y-61614923D01*
X74836956Y-61486121D01*
X74557542Y-61367331D01*
X74304912Y-61281859D01*
X74134727Y-61253010D01*
X74118602Y-61255269D01*
X73951536Y-61371684D01*
X73894942Y-61614770D01*
X73949044Y-61982660D01*
X74005743Y-62176746D01*
X74108982Y-62481628D01*
X74201860Y-62734541D01*
X74264089Y-62880347D01*
X74273276Y-63042878D01*
X74160432Y-63179588D01*
X73974754Y-63235537D01*
X73785944Y-63182439D01*
X73727996Y-63043166D01*
X73760502Y-62939304D01*
X73770885Y-62781088D01*
X73674540Y-62531527D01*
X73559415Y-62324098D01*
X73403976Y-62070918D01*
X73295955Y-61931082D01*
X73198671Y-61870964D01*
X73075435Y-61856939D01*
X73049499Y-61856722D01*
X72821410Y-61926908D01*
X72581434Y-62106101D01*
X72375513Y-62345050D01*
X72249588Y-62594513D01*
X72231863Y-62733154D01*
X72196403Y-62976198D01*
X72050473Y-63101971D01*
X71953079Y-63115800D01*
X71804602Y-63051839D01*
X71717108Y-62908563D01*
X71728537Y-62758887D01*
X71751647Y-62728661D01*
X71831211Y-62603247D01*
X71944150Y-62370356D01*
X72060618Y-62093704D01*
X72168726Y-61796664D01*
X72207569Y-61607934D01*
X72180638Y-61482920D01*
X72114991Y-61399721D01*
X72011351Y-61321473D01*
X71891403Y-61312992D01*
X71708959Y-61381036D01*
X71495979Y-61490283D01*
X71233851Y-61647535D01*
X71028633Y-61801321D01*
X70941502Y-61895267D01*
X70801101Y-62009215D01*
X70636147Y-61998019D01*
X70509301Y-61881685D01*
X70476730Y-61746871D01*
X70509988Y-61586847D01*
X70648701Y-61514091D01*
X70668352Y-61509349D01*
X70831507Y-61421067D01*
X71084250Y-61218363D01*
X71407603Y-60916773D01*
X71479760Y-60845271D01*
X72099546Y-60225485D01*
X72278641Y-59120943D01*
X72346173Y-58715840D01*
X72389451Y-58419818D01*
X72393276Y-58231651D01*
X72342450Y-58150112D01*
X72221776Y-58173979D01*
X72016058Y-58302023D01*
X71710096Y-58533020D01*
X71288694Y-58865744D01*
X71087172Y-59024864D01*
X70733254Y-59299548D01*
X70427889Y-59529027D01*
X70194607Y-59696210D01*
X70056943Y-59784008D01*
X70030491Y-59792245D01*
X70015752Y-59700258D01*
X69995007Y-59465110D01*
X69970064Y-59112793D01*
X69942738Y-58669298D01*
X69914838Y-58160615D01*
X69909430Y-58054963D01*
X69882032Y-57539582D01*
X69855438Y-57087166D01*
X69831340Y-56722932D01*
X69811432Y-56472104D01*
X69797407Y-56359901D01*
X69795366Y-56356311D01*
X69732464Y-56416876D01*
X69578966Y-56582063D01*
X69355702Y-56828992D01*
X69083503Y-57134781D01*
X68982392Y-57249360D01*
X68676479Y-57588839D01*
X68376532Y-57902056D01*
X68054772Y-58215139D01*
X67683420Y-58554223D01*
X67234696Y-58945439D01*
X66680818Y-59414918D01*
X66675814Y-59419122D01*
X66246644Y-59781175D01*
X65864348Y-60106570D01*
X65546912Y-60379760D01*
X65312319Y-60585199D01*
X65178555Y-60707342D01*
X65154147Y-60734440D01*
X65230599Y-60770165D01*
X65439220Y-60840833D01*
X65748900Y-60936495D01*
X66128531Y-61047205D01*
X66161931Y-61056681D01*
X66545296Y-61167992D01*
X66860647Y-61264873D01*
X67077104Y-61337446D01*
X67163786Y-61375838D01*
X67164180Y-61377206D01*
X67138424Y-61594250D01*
X67109366Y-61924316D01*
X67078895Y-62334278D01*
X67048902Y-62791009D01*
X67021275Y-63261384D01*
X66997904Y-63712275D01*
X66980678Y-64110557D01*
X66971485Y-64423104D01*
X66972216Y-64616789D01*
X66977007Y-64659090D01*
X67087600Y-64956794D01*
X67239472Y-65280037D01*
X67409050Y-65587445D01*
X67572757Y-65837644D01*
X67707020Y-65989258D01*
X67748742Y-66013520D01*
X67876679Y-66121085D01*
X67893581Y-66282087D01*
X67796723Y-66419798D01*
X67763799Y-66437643D01*
X67677319Y-66439624D01*
X67558512Y-66360953D01*
X67380922Y-66180443D01*
X67234542Y-66013737D01*
X67022419Y-65771403D01*
X66885553Y-65637512D01*
X66790361Y-65590789D01*
X66703261Y-65609953D01*
X66646314Y-65641060D01*
X66509250Y-65769454D01*
X66424360Y-65980946D01*
X66383049Y-66306551D01*
X66375461Y-66618908D01*
X66344362Y-66921681D01*
X66258181Y-67090299D01*
X66127599Y-67112521D01*
X66014139Y-67033071D01*
X65953551Y-66889021D01*
X65997186Y-66806579D01*
X66045710Y-66656701D01*
X66032470Y-66416146D01*
X65971710Y-66145554D01*
X65877674Y-65905563D01*
X65764603Y-65756815D01*
X65748268Y-65746828D01*
X65570169Y-65735125D01*
X65330068Y-65811843D01*
X65086350Y-65946322D01*
X64897397Y-66107901D01*
X64826048Y-66231136D01*
X64738984Y-66374914D01*
X64646324Y-66396588D01*
X64493309Y-66333817D01*
X64441857Y-66189746D01*
X64510653Y-66030738D01*
X64536462Y-66006311D01*
X64680966Y-65872026D01*
X64880179Y-65672099D01*
X64981859Y-65565744D01*
X65157844Y-65360536D01*
X65223280Y-65222080D01*
X65197491Y-65108462D01*
X65194816Y-65103807D01*
X65061725Y-65024244D01*
X64823722Y-64996324D01*
X64536569Y-65018234D01*
X64256028Y-65088161D01*
X64140383Y-65138097D01*
X63960935Y-65171448D01*
X63848978Y-65084429D01*
X63792798Y-64919827D01*
X63847449Y-64790991D01*
X63978210Y-64752426D01*
X64045852Y-64775410D01*
X64185902Y-64772491D01*
X64428242Y-64698617D01*
X64731871Y-64573066D01*
X65055790Y-64415117D01*
X65359000Y-64244050D01*
X65600503Y-64079142D01*
X65686300Y-64004025D01*
X65799503Y-63816334D01*
X65919746Y-63483244D01*
X66038796Y-63027996D01*
X66050634Y-62975219D01*
X66239177Y-62122701D01*
X65263435Y-61817194D01*
X64878222Y-61698141D01*
X64550281Y-61599705D01*
X64314291Y-61532096D01*
X64204934Y-61505526D01*
X64204863Y-61505520D01*
X64119424Y-61563711D01*
X63951809Y-61726096D01*
X63727799Y-61966407D01*
X63519650Y-62203726D01*
X63239808Y-62525157D01*
X63033772Y-62742456D01*
X62869522Y-62883685D01*
X62715042Y-62976908D01*
X62565257Y-63040205D01*
X62295624Y-63168615D01*
X62064448Y-63322973D01*
X62021750Y-63361179D01*
X61835312Y-63487753D01*
X61716471Y-63474978D01*
X61593484Y-63472208D01*
X61347083Y-63524314D01*
X61010884Y-63622819D01*
X60681541Y-63735997D01*
X60132251Y-63920500D01*
X59723460Y-64014874D01*
X59447670Y-64011274D01*
X59297386Y-63901860D01*
X59265113Y-63678792D01*
X59343353Y-63334227D01*
X59524611Y-62860323D01*
X59625129Y-62630901D01*
X59783590Y-62259687D01*
X59903334Y-61942930D01*
X59973342Y-61712658D01*
X59982591Y-61600898D01*
X59980500Y-61598158D01*
X59981269Y-61490015D01*
X60106357Y-61322703D01*
X60114014Y-61314974D01*
X60287595Y-61094275D01*
X60442802Y-60823361D01*
X60461635Y-60781535D01*
X60536218Y-60628027D01*
X60631871Y-60491393D01*
X60776808Y-60343138D01*
X60999242Y-60154769D01*
X61327387Y-59897794D01*
X61366629Y-59867590D01*
X62132331Y-59278756D01*
X62340600Y-57741374D01*
X62407048Y-57250818D01*
X62465336Y-56820406D01*
X62511780Y-56477331D01*
X62542701Y-56248790D01*
X62554360Y-56162406D01*
X62488195Y-56096295D01*
X62305484Y-55978255D01*
X62043234Y-55827736D01*
X61738453Y-55664187D01*
X61428149Y-55507058D01*
X61149330Y-55375797D01*
X60939004Y-55289856D01*
X60850488Y-55266940D01*
X60632074Y-55289946D01*
X60322744Y-55365959D01*
X59976576Y-55476447D01*
X59647654Y-55602876D01*
X59390057Y-55726713D01*
X59276683Y-55806256D01*
X59104420Y-55901574D01*
X58948321Y-55874975D01*
X58866378Y-55740683D01*
X58863976Y-55705033D01*
X58911531Y-55581100D01*
X59054742Y-55522314D01*
X59227030Y-55437394D01*
X59443755Y-55273163D01*
X59541629Y-55182100D01*
X59730508Y-54957895D01*
X59783367Y-54784787D01*
X59691781Y-54649801D01*
X59447322Y-54539962D01*
X59064104Y-54446747D01*
X58715595Y-54373768D01*
X58506018Y-54315059D01*
X58407520Y-54255629D01*
X58392246Y-54180489D01*
X58420590Y-54100432D01*
X58543371Y-53960858D01*
X58701214Y-53984691D01*
X58766689Y-54038258D01*
X58920445Y-54096579D01*
X59168539Y-54106969D01*
X59445164Y-54076521D01*
X59684514Y-54012323D01*
X59818559Y-53924910D01*
X59843367Y-53773735D01*
X59805190Y-53545898D01*
X59724184Y-53300674D01*
X59620511Y-53097337D01*
X59514324Y-52995165D01*
X59501433Y-52992409D01*
X59370901Y-52916720D01*
X59299240Y-52774540D01*
X59325802Y-52645891D01*
X59329292Y-52642327D01*
X59509387Y-52541125D01*
X59657797Y-52590987D01*
X59720712Y-52704920D01*
X59823640Y-52903773D01*
X59996210Y-53115719D01*
X60197161Y-53302392D01*
X60385232Y-53425425D01*
X60518498Y-53446753D01*
X60589700Y-53336182D01*
X60637030Y-53117547D01*
X60657160Y-52850863D01*
X60646755Y-52596151D01*
X60602488Y-52413425D01*
X60577858Y-52377060D01*
X60559448Y-52275819D01*
X60650320Y-52180525D01*
X60793140Y-52127333D01*
X60930574Y-52152402D01*
X60932287Y-52153549D01*
X61007435Y-52287712D01*
X60975389Y-52389872D01*
X60965124Y-52533306D01*
X61010994Y-52787812D01*
X61098768Y-53110440D01*
X61214213Y-53458242D01*
X61343098Y-53788268D01*
X61471194Y-54057568D01*
X61582174Y-54221105D01*
X61702074Y-54324156D01*
X61929567Y-54504314D01*
X62235410Y-54738947D01*
X62590354Y-55005419D01*
X62713725Y-55096815D01*
X63062447Y-55357222D01*
X63356084Y-55582109D01*
X63570625Y-55752649D01*
X63682062Y-55850010D01*
X63692379Y-55864359D01*
X63672225Y-55957410D01*
X63620357Y-56184192D01*
X63543955Y-56513632D01*
X63450198Y-56914653D01*
X63418848Y-57048159D01*
X63324915Y-57460304D01*
X63251672Y-57806336D01*
X63204938Y-58056700D01*
X63190534Y-58181847D01*
X63193868Y-58190629D01*
X63259403Y-58129786D01*
X63421187Y-57958534D01*
X63663834Y-57693785D01*
X63971957Y-57352454D01*
X64330168Y-56951453D01*
X64664585Y-56574000D01*
X66091721Y-54957373D01*
X67853870Y-54402573D01*
X68370730Y-54235391D01*
X68830232Y-54078259D01*
X69208615Y-53940006D01*
X69482116Y-53829455D01*
X69626977Y-53755433D01*
X69643654Y-53737753D01*
X69664333Y-53625286D01*
X69707019Y-53370906D01*
X69767583Y-53000008D01*
X69841895Y-52537983D01*
X69925829Y-52010225D01*
X69969494Y-51733566D01*
X70056765Y-51186130D01*
X70137105Y-50695147D01*
X70206319Y-50285220D01*
X70260213Y-49980951D01*
X70294592Y-49806941D01*
X70303235Y-49776322D01*
X70393462Y-49770401D01*
X70626570Y-49788706D01*
X70978287Y-49828378D01*
X71424338Y-49886554D01*
X71940452Y-49960376D01*
X72206642Y-50000634D01*
X72749620Y-50082662D01*
X73235701Y-50153209D01*
X73640209Y-50208930D01*
X73938467Y-50246481D01*
X74105799Y-50262516D01*
X74132238Y-50261650D01*
X74160590Y-50164979D01*
X74149087Y-49952947D01*
X74106222Y-49672479D01*
X74040485Y-49370501D01*
X73960370Y-49093936D01*
X73888909Y-48917051D01*
X73715414Y-48657922D01*
X73424748Y-48325785D01*
X73113619Y-48016026D01*
X72813751Y-47739299D01*
X72599502Y-47563518D01*
X72439544Y-47467162D01*
X72302553Y-47428712D01*
X72253130Y-47424911D01*
X72078052Y-47405900D01*
X72015289Y-47334157D01*
X72007650Y-47214493D01*
X72052941Y-47036980D01*
X72128007Y-46959228D01*
X72249619Y-46897357D01*
X72273402Y-46880588D01*
X72343097Y-46915243D01*
X72476477Y-47033597D01*
X72480035Y-47037145D01*
X72664246Y-47166891D01*
X72937233Y-47300507D01*
X73115234Y-47367238D01*
X73385110Y-47444975D01*
X73550023Y-47454287D01*
X73661003Y-47392617D01*
X73709774Y-47337466D01*
X73780815Y-47189440D01*
X73782160Y-46982578D01*
X73713415Y-46671387D01*
X73703683Y-46636378D01*
X73607583Y-46328033D01*
X73508337Y-46061692D01*
X73442516Y-45922925D01*
X73376216Y-45704363D01*
X73434428Y-45529297D01*
X73599495Y-45447353D01*
X73790982Y-45490886D01*
G36*
X73790982Y-45490886D02*
G01*
X73902401Y-45625990D01*
X73889553Y-45798971D01*
X73889321Y-45799421D01*
X73873165Y-45930043D01*
X73947337Y-46121796D01*
X74124045Y-46405973D01*
X74128481Y-46412480D01*
X74303777Y-46661345D01*
X74422772Y-46797418D01*
X74520516Y-46850491D01*
X74632050Y-46850355D01*
X74642021Y-46849019D01*
X74790416Y-46813815D01*
X74920588Y-46733858D01*
X75070866Y-46577075D01*
X75271020Y-46322678D01*
X75419116Y-46088075D01*
X75444603Y-45923715D01*
X75423345Y-45870749D01*
X75391678Y-45748295D01*
X75496413Y-45657523D01*
X75532146Y-45640204D01*
X75747728Y-45600943D01*
X75895263Y-45679063D01*
X75937505Y-45839301D01*
X75887435Y-45976579D01*
X75784051Y-46177306D01*
X75659045Y-46458231D01*
X75589908Y-46629156D01*
X75495286Y-46928415D01*
X75489702Y-47132878D01*
X75542960Y-47253968D01*
X75620631Y-47345710D01*
X75713842Y-47370488D01*
X75864163Y-47322673D01*
X76113165Y-47196635D01*
X76162670Y-47170057D01*
X76433132Y-47008609D01*
X76647496Y-46851936D01*
X76750853Y-46744948D01*
X76892266Y-46623756D01*
X77054552Y-46627814D01*
X77182987Y-46730852D01*
X77222846Y-46906601D01*
X77210568Y-46965636D01*
X77120550Y-47105198D01*
X76984284Y-47123672D01*
X76889497Y-47133990D01*
X76778715Y-47196933D01*
X76626914Y-47333971D01*
X76409073Y-47566568D01*
X76220251Y-47779119D01*
X76000298Y-48032130D01*
X75832281Y-48243952D01*
X75706260Y-48444163D01*
X75612293Y-48662338D01*
X75540438Y-48928058D01*
X75480755Y-49270900D01*
X75423300Y-49720439D01*
X75358134Y-50306256D01*
X75352037Y-50362216D01*
X75321382Y-50691605D01*
X75296529Y-50944726D01*
X75257046Y-51130545D01*
X75182498Y-51258032D01*
X75052453Y-51336156D01*
X74846475Y-51373883D01*
X74544134Y-51380185D01*
X74124992Y-51364028D01*
X73568618Y-51334381D01*
X73181580Y-51314853D01*
X71594957Y-51239319D01*
X71625861Y-52198963D01*
X71641279Y-52583645D01*
X71659736Y-52901350D01*
X71678798Y-53116753D01*
X71694401Y-53193896D01*
X71787391Y-53190891D01*
X72008628Y-53154842D01*
X72321715Y-53092267D01*
X72580140Y-53035236D01*
X73250143Y-52922041D01*
X74018369Y-52857620D01*
X74820442Y-52843474D01*
X75591984Y-52881101D01*
X76158048Y-52951870D01*
X76696014Y-53071232D01*
X77303318Y-53250394D01*
X77920293Y-53468324D01*
X78487268Y-53703994D01*
X78933763Y-53930084D01*
X79425587Y-54246693D01*
X79948623Y-54636583D01*
X80451710Y-55057952D01*
X80883686Y-55468997D01*
X81078106Y-55682204D01*
X81676283Y-56516110D01*
X82137178Y-57436939D01*
X82457581Y-58428178D01*
X82634281Y-59473314D01*
X82664068Y-60555837D01*
X82543732Y-61659234D01*
X82381625Y-62386758D01*
X82280144Y-62764223D01*
X82323580Y-62388581D01*
X82355648Y-61951127D01*
X82366745Y-61418492D01*
X82358517Y-60842047D01*
X82332607Y-60273165D01*
X82290659Y-59763220D01*
X82234317Y-59363584D01*
X82225378Y-59319384D01*
X81954343Y-58398475D01*
X81554185Y-57543312D01*
X81039701Y-56774825D01*
X80425686Y-56113945D01*
X79726934Y-55581602D01*
X79482240Y-55438770D01*
X78971805Y-55197120D01*
X78357299Y-54960575D01*
X77703128Y-54751214D01*
X77073702Y-54591119D01*
X76916850Y-54559298D01*
X76359085Y-54471624D01*
X75822320Y-54430253D01*
X75275107Y-54437948D01*
X74686000Y-54497476D01*
X74023552Y-54611600D01*
X73256318Y-54783084D01*
X72659961Y-54933540D01*
X71715496Y-55179890D01*
X71755907Y-56267791D01*
X71777278Y-56668572D01*
X71807111Y-56994154D01*
X71841743Y-57215023D01*
X71877513Y-57301669D01*
X71884090Y-57300551D01*
X71979575Y-57228185D01*
X72177656Y-57069913D01*
X72450699Y-56848057D01*
X72771066Y-56584942D01*
X72818357Y-56545889D01*
X73664851Y-55846367D01*
X73699110Y-57733564D01*
X73712959Y-58370376D01*
X73730218Y-58862619D01*
X73753517Y-59235056D01*
X73785487Y-59512449D01*
X73828761Y-59719562D01*
X73885968Y-59881155D01*
X73938367Y-59985188D01*
X74115632Y-60238325D01*
X74367005Y-60520020D01*
X74657455Y-60799195D01*
X74951956Y-61044774D01*
X75215478Y-61225678D01*
X75412992Y-61310830D01*
X75435515Y-61313462D01*
X75592193Y-61351320D01*
X75653115Y-61483451D01*
X75657323Y-61508498D01*
X75627123Y-61705814D01*
X75498973Y-61807468D01*
X75326174Y-61784167D01*
X75253479Y-61730431D01*
X75087489Y-61614923D01*
X74836956Y-61486121D01*
X74557542Y-61367331D01*
X74304912Y-61281859D01*
X74134727Y-61253010D01*
X74118602Y-61255269D01*
X73951536Y-61371684D01*
X73894942Y-61614770D01*
X73949044Y-61982660D01*
X74005743Y-62176746D01*
X74108982Y-62481628D01*
X74201860Y-62734541D01*
X74264089Y-62880347D01*
X74273276Y-63042878D01*
X74160432Y-63179588D01*
X73974754Y-63235537D01*
X73785944Y-63182439D01*
X73727996Y-63043166D01*
X73760502Y-62939304D01*
X73770885Y-62781088D01*
X73674540Y-62531527D01*
X73559415Y-62324098D01*
X73403976Y-62070918D01*
X73295955Y-61931082D01*
X73198671Y-61870964D01*
X73075435Y-61856939D01*
X73049499Y-61856722D01*
X72821410Y-61926908D01*
X72581434Y-62106101D01*
X72375513Y-62345050D01*
X72249588Y-62594513D01*
X72231863Y-62733154D01*
X72196403Y-62976198D01*
X72050473Y-63101971D01*
X71953079Y-63115800D01*
X71804602Y-63051839D01*
X71717108Y-62908563D01*
X71728537Y-62758887D01*
X71751647Y-62728661D01*
X71831211Y-62603247D01*
X71944150Y-62370356D01*
X72060618Y-62093704D01*
X72168726Y-61796664D01*
X72207569Y-61607934D01*
X72180638Y-61482920D01*
X72114991Y-61399721D01*
X72011351Y-61321473D01*
X71891403Y-61312992D01*
X71708959Y-61381036D01*
X71495979Y-61490283D01*
X71233851Y-61647535D01*
X71028633Y-61801321D01*
X70941502Y-61895267D01*
X70801101Y-62009215D01*
X70636147Y-61998019D01*
X70509301Y-61881685D01*
X70476730Y-61746871D01*
X70509988Y-61586847D01*
X70648701Y-61514091D01*
X70668352Y-61509349D01*
X70831507Y-61421067D01*
X71084250Y-61218363D01*
X71407603Y-60916773D01*
X71479760Y-60845271D01*
X72099546Y-60225485D01*
X72278641Y-59120943D01*
X72346173Y-58715840D01*
X72389451Y-58419818D01*
X72393276Y-58231651D01*
X72342450Y-58150112D01*
X72221776Y-58173979D01*
X72016058Y-58302023D01*
X71710096Y-58533020D01*
X71288694Y-58865744D01*
X71087172Y-59024864D01*
X70733254Y-59299548D01*
X70427889Y-59529027D01*
X70194607Y-59696210D01*
X70056943Y-59784008D01*
X70030491Y-59792245D01*
X70015752Y-59700258D01*
X69995007Y-59465110D01*
X69970064Y-59112793D01*
X69942738Y-58669298D01*
X69914838Y-58160615D01*
X69909430Y-58054963D01*
X69882032Y-57539582D01*
X69855438Y-57087166D01*
X69831340Y-56722932D01*
X69811432Y-56472104D01*
X69797407Y-56359901D01*
X69795366Y-56356311D01*
X69732464Y-56416876D01*
X69578966Y-56582063D01*
X69355702Y-56828992D01*
X69083503Y-57134781D01*
X68982392Y-57249360D01*
X68676479Y-57588839D01*
X68376532Y-57902056D01*
X68054772Y-58215139D01*
X67683420Y-58554223D01*
X67234696Y-58945439D01*
X66680818Y-59414918D01*
X66675814Y-59419122D01*
X66246644Y-59781175D01*
X65864348Y-60106570D01*
X65546912Y-60379760D01*
X65312319Y-60585199D01*
X65178555Y-60707342D01*
X65154147Y-60734440D01*
X65230599Y-60770165D01*
X65439220Y-60840833D01*
X65748900Y-60936495D01*
X66128531Y-61047205D01*
X66161931Y-61056681D01*
X66545296Y-61167992D01*
X66860647Y-61264873D01*
X67077104Y-61337446D01*
X67163786Y-61375838D01*
X67164180Y-61377206D01*
X67138424Y-61594250D01*
X67109366Y-61924316D01*
X67078895Y-62334278D01*
X67048902Y-62791009D01*
X67021275Y-63261384D01*
X66997904Y-63712275D01*
X66980678Y-64110557D01*
X66971485Y-64423104D01*
X66972216Y-64616789D01*
X66977007Y-64659090D01*
X67087600Y-64956794D01*
X67239472Y-65280037D01*
X67409050Y-65587445D01*
X67572757Y-65837644D01*
X67707020Y-65989258D01*
X67748742Y-66013520D01*
X67876679Y-66121085D01*
X67893581Y-66282087D01*
X67796723Y-66419798D01*
X67763799Y-66437643D01*
X67677319Y-66439624D01*
X67558512Y-66360953D01*
X67380922Y-66180443D01*
X67234542Y-66013737D01*
X67022419Y-65771403D01*
X66885553Y-65637512D01*
X66790361Y-65590789D01*
X66703261Y-65609953D01*
X66646314Y-65641060D01*
X66509250Y-65769454D01*
X66424360Y-65980946D01*
X66383049Y-66306551D01*
X66375461Y-66618908D01*
X66344362Y-66921681D01*
X66258181Y-67090299D01*
X66127599Y-67112521D01*
X66014139Y-67033071D01*
X65953551Y-66889021D01*
X65997186Y-66806579D01*
X66045710Y-66656701D01*
X66032470Y-66416146D01*
X65971710Y-66145554D01*
X65877674Y-65905563D01*
X65764603Y-65756815D01*
X65748268Y-65746828D01*
X65570169Y-65735125D01*
X65330068Y-65811843D01*
X65086350Y-65946322D01*
X64897397Y-66107901D01*
X64826048Y-66231136D01*
X64738984Y-66374914D01*
X64646324Y-66396588D01*
X64493309Y-66333817D01*
X64441857Y-66189746D01*
X64510653Y-66030738D01*
X64536462Y-66006311D01*
X64680966Y-65872026D01*
X64880179Y-65672099D01*
X64981859Y-65565744D01*
X65157844Y-65360536D01*
X65223280Y-65222080D01*
X65197491Y-65108462D01*
X65194816Y-65103807D01*
X65061725Y-65024244D01*
X64823722Y-64996324D01*
X64536569Y-65018234D01*
X64256028Y-65088161D01*
X64140383Y-65138097D01*
X63960935Y-65171448D01*
X63848978Y-65084429D01*
X63792798Y-64919827D01*
X63847449Y-64790991D01*
X63978210Y-64752426D01*
X64045852Y-64775410D01*
X64185902Y-64772491D01*
X64428242Y-64698617D01*
X64731871Y-64573066D01*
X65055790Y-64415117D01*
X65359000Y-64244050D01*
X65600503Y-64079142D01*
X65686300Y-64004025D01*
X65799503Y-63816334D01*
X65919746Y-63483244D01*
X66038796Y-63027996D01*
X66050634Y-62975219D01*
X66239177Y-62122701D01*
X65263435Y-61817194D01*
X64878222Y-61698141D01*
X64550281Y-61599705D01*
X64314291Y-61532096D01*
X64204934Y-61505526D01*
X64204863Y-61505520D01*
X64119424Y-61563711D01*
X63951809Y-61726096D01*
X63727799Y-61966407D01*
X63519650Y-62203726D01*
X63239808Y-62525157D01*
X63033772Y-62742456D01*
X62869522Y-62883685D01*
X62715042Y-62976908D01*
X62565257Y-63040205D01*
X62295624Y-63168615D01*
X62064448Y-63322973D01*
X62021750Y-63361179D01*
X61835312Y-63487753D01*
X61716471Y-63474978D01*
X61593484Y-63472208D01*
X61347083Y-63524314D01*
X61010884Y-63622819D01*
X60681541Y-63735997D01*
X60132251Y-63920500D01*
X59723460Y-64014874D01*
X59447670Y-64011274D01*
X59297386Y-63901860D01*
X59265113Y-63678792D01*
X59343353Y-63334227D01*
X59524611Y-62860323D01*
X59625129Y-62630901D01*
X59783590Y-62259687D01*
X59903334Y-61942930D01*
X59973342Y-61712658D01*
X59982591Y-61600898D01*
X59980500Y-61598158D01*
X59981269Y-61490015D01*
X60106357Y-61322703D01*
X60114014Y-61314974D01*
X60287595Y-61094275D01*
X60442802Y-60823361D01*
X60461635Y-60781535D01*
X60536218Y-60628027D01*
X60631871Y-60491393D01*
X60776808Y-60343138D01*
X60999242Y-60154769D01*
X61327387Y-59897794D01*
X61366629Y-59867590D01*
X62132331Y-59278756D01*
X62340600Y-57741374D01*
X62407048Y-57250818D01*
X62465336Y-56820406D01*
X62511780Y-56477331D01*
X62542701Y-56248790D01*
X62554360Y-56162406D01*
X62488195Y-56096295D01*
X62305484Y-55978255D01*
X62043234Y-55827736D01*
X61738453Y-55664187D01*
X61428149Y-55507058D01*
X61149330Y-55375797D01*
X60939004Y-55289856D01*
X60850488Y-55266940D01*
X60632074Y-55289946D01*
X60322744Y-55365959D01*
X59976576Y-55476447D01*
X59647654Y-55602876D01*
X59390057Y-55726713D01*
X59276683Y-55806256D01*
X59104420Y-55901574D01*
X58948321Y-55874975D01*
X58866378Y-55740683D01*
X58863976Y-55705033D01*
X58911531Y-55581100D01*
X59054742Y-55522314D01*
X59227030Y-55437394D01*
X59443755Y-55273163D01*
X59541629Y-55182100D01*
X59730508Y-54957895D01*
X59783367Y-54784787D01*
X59691781Y-54649801D01*
X59447322Y-54539962D01*
X59064104Y-54446747D01*
X58715595Y-54373768D01*
X58506018Y-54315059D01*
X58407520Y-54255629D01*
X58392246Y-54180489D01*
X58420590Y-54100432D01*
X58543371Y-53960858D01*
X58701214Y-53984691D01*
X58766689Y-54038258D01*
X58920445Y-54096579D01*
X59168539Y-54106969D01*
X59445164Y-54076521D01*
X59684514Y-54012323D01*
X59818559Y-53924910D01*
X59843367Y-53773735D01*
X59805190Y-53545898D01*
X59724184Y-53300674D01*
X59620511Y-53097337D01*
X59514324Y-52995165D01*
X59501433Y-52992409D01*
X59370901Y-52916720D01*
X59299240Y-52774540D01*
X59325802Y-52645891D01*
X59329292Y-52642327D01*
X59509387Y-52541125D01*
X59657797Y-52590987D01*
X59720712Y-52704920D01*
X59823640Y-52903773D01*
X59996210Y-53115719D01*
X60197161Y-53302392D01*
X60385232Y-53425425D01*
X60518498Y-53446753D01*
X60589700Y-53336182D01*
X60637030Y-53117547D01*
X60657160Y-52850863D01*
X60646755Y-52596151D01*
X60602488Y-52413425D01*
X60577858Y-52377060D01*
X60559448Y-52275819D01*
X60650320Y-52180525D01*
X60793140Y-52127333D01*
X60930574Y-52152402D01*
X60932287Y-52153549D01*
X61007435Y-52287712D01*
X60975389Y-52389872D01*
X60965124Y-52533306D01*
X61010994Y-52787812D01*
X61098768Y-53110440D01*
X61214213Y-53458242D01*
X61343098Y-53788268D01*
X61471194Y-54057568D01*
X61582174Y-54221105D01*
X61702074Y-54324156D01*
X61929567Y-54504314D01*
X62235410Y-54738947D01*
X62590354Y-55005419D01*
X62713725Y-55096815D01*
X63062447Y-55357222D01*
X63356084Y-55582109D01*
X63570625Y-55752649D01*
X63682062Y-55850010D01*
X63692379Y-55864359D01*
X63672225Y-55957410D01*
X63620357Y-56184192D01*
X63543955Y-56513632D01*
X63450198Y-56914653D01*
X63418848Y-57048159D01*
X63324915Y-57460304D01*
X63251672Y-57806336D01*
X63204938Y-58056700D01*
X63190534Y-58181847D01*
X63193868Y-58190629D01*
X63259403Y-58129786D01*
X63421187Y-57958534D01*
X63663834Y-57693785D01*
X63971957Y-57352454D01*
X64330168Y-56951453D01*
X64664585Y-56574000D01*
X66091721Y-54957373D01*
X67853870Y-54402573D01*
X68370730Y-54235391D01*
X68830232Y-54078259D01*
X69208615Y-53940006D01*
X69482116Y-53829455D01*
X69626977Y-53755433D01*
X69643654Y-53737753D01*
X69664333Y-53625286D01*
X69707019Y-53370906D01*
X69767583Y-53000008D01*
X69841895Y-52537983D01*
X69925829Y-52010225D01*
X69969494Y-51733566D01*
X70056765Y-51186130D01*
X70137105Y-50695147D01*
X70206319Y-50285220D01*
X70260213Y-49980951D01*
X70294592Y-49806941D01*
X70303235Y-49776322D01*
X70393462Y-49770401D01*
X70626570Y-49788706D01*
X70978287Y-49828378D01*
X71424338Y-49886554D01*
X71940452Y-49960376D01*
X72206642Y-50000634D01*
X72749620Y-50082662D01*
X73235701Y-50153209D01*
X73640209Y-50208930D01*
X73938467Y-50246481D01*
X74105799Y-50262516D01*
X74132238Y-50261650D01*
X74160590Y-50164979D01*
X74149087Y-49952947D01*
X74106222Y-49672479D01*
X74040485Y-49370501D01*
X73960370Y-49093936D01*
X73888909Y-48917051D01*
X73715414Y-48657922D01*
X73424748Y-48325785D01*
X73113619Y-48016026D01*
X72813751Y-47739299D01*
X72599502Y-47563518D01*
X72439544Y-47467162D01*
X72302553Y-47428712D01*
X72253130Y-47424911D01*
X72078052Y-47405900D01*
X72015289Y-47334157D01*
X72007650Y-47214493D01*
X72052941Y-47036980D01*
X72128007Y-46959228D01*
X72249619Y-46897357D01*
X72273402Y-46880588D01*
X72343097Y-46915243D01*
X72476477Y-47033597D01*
X72480035Y-47037145D01*
X72664246Y-47166891D01*
X72937233Y-47300507D01*
X73115234Y-47367238D01*
X73385110Y-47444975D01*
X73550023Y-47454287D01*
X73661003Y-47392617D01*
X73709774Y-47337466D01*
X73780815Y-47189440D01*
X73782160Y-46982578D01*
X73713415Y-46671387D01*
X73703683Y-46636378D01*
X73607583Y-46328033D01*
X73508337Y-46061692D01*
X73442516Y-45922925D01*
X73376216Y-45704363D01*
X73434428Y-45529297D01*
X73599495Y-45447353D01*
X73790982Y-45490886D01*
G37*
X124355584Y-111245255D02*
X124360544Y-111252819D01*
X124365799Y-111277170D01*
X124353305Y-111293582D01*
X124344346Y-111304730D01*
X124339272Y-111323157D01*
X124337706Y-111353793D01*
X124339271Y-111401569D01*
X124341788Y-111444141D01*
X124345294Y-111494306D01*
X124349940Y-111534594D01*
X124357809Y-111569196D01*
X124370984Y-111602304D01*
X124391546Y-111638109D01*
X124421579Y-111680803D01*
X124463166Y-111734578D01*
X124518390Y-111803625D01*
X124523679Y-111810208D01*
X124555364Y-111848396D01*
X124579576Y-111877880D01*
X124595097Y-111901777D01*
X124600712Y-111923206D01*
X124595205Y-111945285D01*
X124577359Y-111971134D01*
X124545959Y-112003871D01*
X124499789Y-112046614D01*
X124437632Y-112102481D01*
X124394509Y-112141462D01*
X124218211Y-112301737D01*
X124323274Y-112400245D01*
X124365711Y-112439411D01*
X124401367Y-112471151D01*
X124426235Y-112491976D01*
X124436073Y-112498504D01*
X124445617Y-112488322D01*
X124465259Y-112461032D01*
X124491830Y-112421188D01*
X124513191Y-112387728D01*
X124572249Y-112304658D01*
X124646899Y-112216342D01*
X124730471Y-112129769D01*
X124816297Y-112051926D01*
X124883843Y-111999392D01*
X124953563Y-111954992D01*
X125036981Y-111909581D01*
X125125536Y-111867255D01*
X125210669Y-111832115D01*
X125282007Y-111808738D01*
X125367755Y-111790153D01*
X125464585Y-111776031D01*
X125562639Y-111767364D01*
X125652054Y-111765144D01*
X125695290Y-111767136D01*
X125847185Y-111792139D01*
X125993739Y-111840922D01*
X126132860Y-111912075D01*
X126262455Y-112004187D01*
X126380433Y-112115846D01*
X126484703Y-112245643D01*
X126544674Y-112340002D01*
X126573947Y-112390802D01*
X126538711Y-112346352D01*
X126495713Y-112296552D01*
X126440396Y-112238881D01*
X126378382Y-112178612D01*
X126315295Y-112121021D01*
X126256758Y-112071383D01*
X126208394Y-112034971D01*
X126202757Y-112031231D01*
X126076333Y-111962301D01*
X125943186Y-111914041D01*
X125807106Y-111887100D01*
X125671883Y-111882129D01*
X125541306Y-111899779D01*
X125500202Y-111910583D01*
X125420432Y-111939092D01*
X125330164Y-111979181D01*
X125238573Y-112026360D01*
X125154832Y-112076140D01*
X125134820Y-112089402D01*
X125066361Y-112139263D01*
X125005040Y-112191807D01*
X124947816Y-112250664D01*
X124891645Y-112319462D01*
X124833487Y-112401830D01*
X124770298Y-112501396D01*
X124723003Y-112580608D01*
X124648957Y-112706913D01*
X124768632Y-112818016D01*
X124813408Y-112858258D01*
X124851106Y-112889627D01*
X124878206Y-112909380D01*
X124891190Y-112914777D01*
X124891769Y-112913961D01*
X124894221Y-112896157D01*
X124898443Y-112858360D01*
X124903873Y-112805868D01*
X124909945Y-112743981D01*
X124910819Y-112734823D01*
X124926407Y-112570843D01*
X125130209Y-112767376D01*
X125199222Y-112833452D01*
X125253263Y-112883831D01*
X125295237Y-112920863D01*
X125328050Y-112946894D01*
X125354607Y-112964272D01*
X125377814Y-112975344D01*
X125394406Y-112980820D01*
X125440057Y-112988868D01*
X125496598Y-112992084D01*
X125557016Y-112990888D01*
X125614300Y-112985699D01*
X125661438Y-112976936D01*
X125691420Y-112965018D01*
X125694088Y-112962909D01*
X125714721Y-112950306D01*
X125735198Y-112957859D01*
X125738301Y-112960069D01*
X125756026Y-112984201D01*
X125753216Y-113008575D01*
X125732416Y-113024432D01*
X125719006Y-113026443D01*
X125689149Y-113031797D01*
X125648914Y-113044709D01*
X125606678Y-113061745D01*
X125570817Y-113079475D01*
X125549706Y-113094466D01*
X125548236Y-113096416D01*
X125542863Y-113126484D01*
X125562644Y-113158269D01*
X125607403Y-113191552D01*
X125634003Y-113206124D01*
X125677290Y-113227511D01*
X125713967Y-113244486D01*
X125736032Y-113253350D01*
X125754246Y-113269615D01*
X125756777Y-113296084D01*
X125743017Y-113321713D01*
X125717359Y-113336107D01*
X125696441Y-113327481D01*
X125688872Y-113313017D01*
X125673192Y-113295134D01*
X125636503Y-113278883D01*
X125602291Y-113269093D01*
X125558951Y-113258726D01*
X125532662Y-113255352D01*
X125515967Y-113259294D01*
X125501408Y-113270877D01*
X125498634Y-113273605D01*
X125481886Y-113305242D01*
X125475439Y-113349702D01*
X125478942Y-113396887D01*
X125492045Y-113436703D01*
X125504870Y-113453288D01*
X125526888Y-113482828D01*
X125524750Y-113511646D01*
X125515887Y-113523443D01*
X125493354Y-113532408D01*
X125468877Y-113526491D01*
X125454214Y-113509403D01*
X125453459Y-113503746D01*
X125448596Y-113482005D01*
X125435873Y-113445324D01*
X125418883Y-113403627D01*
X125398844Y-113360655D01*
X125382946Y-113336517D01*
X125366830Y-113326114D01*
X125351042Y-113324252D01*
X125331750Y-113326946D01*
X125318128Y-113338769D01*
X125305994Y-113365337D01*
X125294992Y-113399514D01*
X125283868Y-113443996D01*
X125278412Y-113482074D01*
X125279135Y-113501280D01*
X125276330Y-113528258D01*
X125257646Y-113544567D01*
X125231853Y-113545682D01*
X125214099Y-113534837D01*
X125200654Y-113514336D01*
X125207649Y-113491907D01*
X125209231Y-113489320D01*
X125217172Y-113462651D01*
X125222480Y-113414343D01*
X125224788Y-113348058D01*
X125224857Y-113332821D01*
X125224857Y-113201344D01*
X125126699Y-113065194D01*
X125090894Y-113015063D01*
X125064087Y-112979075D01*
X125044534Y-112958711D01*
X125030495Y-112955454D01*
X125020227Y-112970784D01*
X125011988Y-113006185D01*
X125004037Y-113063138D01*
X124994631Y-113143126D01*
X124990134Y-113181377D01*
X124981730Y-113248051D01*
X124973681Y-113304780D01*
X124966670Y-113347255D01*
X124961381Y-113371169D01*
X124959449Y-113374848D01*
X124948129Y-113366655D01*
X124920987Y-113343914D01*
X124880973Y-113309191D01*
X124831035Y-113265049D01*
X124774122Y-113214055D01*
X124762342Y-113203422D01*
X124704772Y-113151664D01*
X124653965Y-113106499D01*
X124612776Y-113070422D01*
X124584060Y-113045929D01*
X124570672Y-113035516D01*
X124570074Y-113035351D01*
X124569826Y-113048447D01*
X124571066Y-113082249D01*
X124573576Y-113132120D01*
X124577139Y-113193425D01*
X124578568Y-113216302D01*
X124582128Y-113284757D01*
X124583535Y-113349792D01*
X124582615Y-113417128D01*
X124579192Y-113492481D01*
X124573093Y-113581570D01*
X124564141Y-113690113D01*
X124564056Y-113691090D01*
X124556937Y-113775012D01*
X124550902Y-113850074D01*
X124546209Y-113912719D01*
X124543117Y-113959392D01*
X124541884Y-113986535D01*
X124542169Y-113991998D01*
X124554068Y-113987678D01*
X124583691Y-113973046D01*
X124626684Y-113950346D01*
X124678692Y-113921822D01*
X124683240Y-113919285D01*
X124735708Y-113890429D01*
X124779432Y-113867257D01*
X124810088Y-113851996D01*
X124823354Y-113846874D01*
X124823541Y-113846977D01*
X124843830Y-113872730D01*
X124875757Y-113910821D01*
X124916008Y-113957536D01*
X124961271Y-114009161D01*
X125008231Y-114061982D01*
X125053577Y-114112285D01*
X125093994Y-114156356D01*
X125126169Y-114190482D01*
X125146790Y-114210948D01*
X125151785Y-114214926D01*
X125195091Y-114234772D01*
X125245485Y-114252949D01*
X125296077Y-114267568D01*
X125339978Y-114276742D01*
X125370300Y-114278582D01*
X125377299Y-114276730D01*
X125402278Y-114274569D01*
X125421147Y-114289854D01*
X125425480Y-114314734D01*
X125423881Y-114320118D01*
X125414918Y-114329501D01*
X125393973Y-114333758D01*
X125355990Y-114333448D01*
X125322783Y-114331292D01*
X125274580Y-114328088D01*
X125245862Y-114328404D01*
X125230810Y-114333545D01*
X125223604Y-114344816D01*
X125220863Y-114354155D01*
X125219944Y-114382311D01*
X125233372Y-114413747D01*
X125263526Y-114452665D01*
X125295851Y-114486600D01*
X125324667Y-114522012D01*
X125333411Y-114549038D01*
X125321917Y-114565245D01*
X125301456Y-114568852D01*
X125279751Y-114560000D01*
X125275635Y-114546627D01*
X125264885Y-114525584D01*
X125237966Y-114501473D01*
X125202820Y-114479217D01*
X125167392Y-114463737D01*
X125139621Y-114459952D01*
X125136830Y-114460626D01*
X125116698Y-114478275D01*
X125099369Y-114511878D01*
X125087782Y-114551992D01*
X125084879Y-114589172D01*
X125090382Y-114609811D01*
X125096397Y-114634295D01*
X125088868Y-114646422D01*
X125065981Y-114655994D01*
X125045242Y-114646170D01*
X125035674Y-114622008D01*
X125035820Y-114616679D01*
X125036904Y-114587109D01*
X125036829Y-114544774D01*
X125036333Y-114522709D01*
X125033233Y-114482277D01*
X125025488Y-114460651D01*
X125010702Y-114451335D01*
X125009924Y-114451126D01*
X124987369Y-114456803D01*
X124959164Y-114479086D01*
X124931030Y-114511867D01*
X124908691Y-114549039D01*
X124901722Y-114566602D01*
X124886226Y-114589173D01*
X124865121Y-114591818D01*
X124841704Y-114580318D01*
X124833836Y-114560856D01*
X124843614Y-114542896D01*
X124853227Y-114538160D01*
X124867772Y-114522996D01*
X124885640Y-114489456D01*
X124904528Y-114443935D01*
X124922132Y-114392825D01*
X124936148Y-114342520D01*
X124944272Y-114299414D01*
X124945405Y-114282346D01*
X124937504Y-114250432D01*
X124914928Y-114202348D01*
X124879269Y-114141435D01*
X124874927Y-114134581D01*
X124804502Y-114024160D01*
X124668605Y-114095249D01*
X124615119Y-114123480D01*
X124569895Y-114147823D01*
X124537693Y-114165682D01*
X124523276Y-114174463D01*
X124523268Y-114174470D01*
X124520378Y-114189704D01*
X124519823Y-114224706D01*
X124521552Y-114273955D01*
X124524646Y-114321204D01*
X124529057Y-114384978D01*
X124530252Y-114429880D01*
X124527810Y-114462281D01*
X124521313Y-114488554D01*
X124512139Y-114511154D01*
X124497161Y-114553373D01*
X124489013Y-114594265D01*
X124488536Y-114602846D01*
X124482187Y-114636046D01*
X124468227Y-114647296D01*
X124454888Y-114660047D01*
X124434280Y-114691709D01*
X124409069Y-114737816D01*
X124386141Y-114784752D01*
X124347450Y-114862583D01*
X124314101Y-114915952D01*
X124284467Y-114944822D01*
X124256922Y-114949157D01*
X124229839Y-114928920D01*
X124201591Y-114884074D01*
X124170551Y-114814584D01*
X124156879Y-114779589D01*
X124134313Y-114723408D01*
X124113416Y-114677110D01*
X124096418Y-114645261D01*
X124085545Y-114632426D01*
X124085032Y-114632357D01*
X124073644Y-114620805D01*
X124069165Y-114589792D01*
X124069157Y-114588160D01*
X124064160Y-114546340D01*
X124051887Y-114501143D01*
X124049449Y-114494709D01*
X124041077Y-114470516D01*
X124036731Y-114445878D01*
X124036379Y-114414781D01*
X124039992Y-114371209D01*
X124047541Y-114309147D01*
X124048499Y-114301781D01*
X124067259Y-114158111D01*
X123926285Y-113972957D01*
X123881302Y-113913878D01*
X123841832Y-113862043D01*
X123810370Y-113820728D01*
X123789409Y-113793208D01*
X123781483Y-113782809D01*
X123767453Y-113782815D01*
X123735553Y-113789674D01*
X123691773Y-113801525D01*
X123642099Y-113816505D01*
X123592520Y-113832752D01*
X123549025Y-113848403D01*
X123517601Y-113861596D01*
X123505781Y-113868554D01*
X123485055Y-113894160D01*
X123460308Y-113935032D01*
X123435311Y-113983468D01*
X123413833Y-114031765D01*
X123399646Y-114072222D01*
X123396057Y-114092684D01*
X123387896Y-114121065D01*
X123368518Y-114134801D01*
X123345583Y-114129248D01*
X123341547Y-114125722D01*
X123333446Y-114107533D01*
X123342401Y-114086108D01*
X123351667Y-114058827D01*
X123357235Y-114018420D01*
X123357957Y-113998381D01*
X123354211Y-113954566D01*
X123341456Y-113930599D01*
X123317425Y-113925996D01*
X123279846Y-113940274D01*
X123229312Y-113971034D01*
X123184607Y-114000258D01*
X123156151Y-114016260D01*
X123139400Y-114020404D01*
X123129810Y-114014054D01*
X123124325Y-114002556D01*
X123122544Y-113974729D01*
X123141814Y-113960516D01*
X123154440Y-113959252D01*
X123176934Y-113949130D01*
X123204350Y-113923918D01*
X123230461Y-113891348D01*
X123249039Y-113859152D01*
X123253985Y-113835663D01*
X123240582Y-113816997D01*
X123212367Y-113796880D01*
X123177765Y-113779462D01*
X123145202Y-113768891D01*
X123123102Y-113769317D01*
X123121442Y-113770392D01*
X123099569Y-113776209D01*
X123076888Y-113768729D01*
X123066060Y-113752267D01*
X123066052Y-113751519D01*
X123074420Y-113721683D01*
X123095450Y-113711230D01*
X123114207Y-113716641D01*
X123146216Y-113726816D01*
X123187000Y-113730992D01*
X123228114Y-113729478D01*
X123261112Y-113722579D01*
X123277509Y-113710707D01*
X123273333Y-113691427D01*
X123255163Y-113663217D01*
X123229012Y-113632796D01*
X123200892Y-113606883D01*
X123176816Y-113592197D01*
X123170347Y-113590952D01*
X123157656Y-113582167D01*
X123157187Y-113562421D01*
X123166693Y-113541631D01*
X123183929Y-113529713D01*
X123184233Y-113529653D01*
X123206433Y-113535912D01*
X123213870Y-113550147D01*
X123227995Y-113566449D01*
X123259855Y-113588578D01*
X123303384Y-113613488D01*
X123352519Y-113638133D01*
X123401194Y-113659468D01*
X123443344Y-113674445D01*
X123472461Y-113680019D01*
X123496108Y-113678232D01*
X123539346Y-113673211D01*
X123596672Y-113665658D01*
X123662584Y-113656275D01*
X123685363Y-113652883D01*
X123749971Y-113643516D01*
X123804969Y-113636224D01*
X123845813Y-113631557D01*
X123867959Y-113630064D01*
X123870575Y-113630491D01*
X123878307Y-113642499D01*
X123896860Y-113672054D01*
X123923698Y-113715100D01*
X123956289Y-113767579D01*
X123967124Y-113785065D01*
X124000876Y-113838743D01*
X124029809Y-113883213D01*
X124051407Y-113914725D01*
X124063153Y-113929527D01*
X124064439Y-113930105D01*
X124064936Y-113916700D01*
X124063932Y-113881377D01*
X124061588Y-113827559D01*
X124058065Y-113758674D01*
X124053527Y-113678147D01*
X124048962Y-113602642D01*
X124028864Y-113279802D01*
X124156922Y-113034053D01*
X124194011Y-112961499D01*
X124226083Y-112896095D01*
X124251552Y-112841298D01*
X124268836Y-112800563D01*
X124276349Y-112777347D01*
X124276243Y-112773703D01*
X124266507Y-112759581D01*
X124244054Y-112728072D01*
X124211138Y-112682309D01*
X124170015Y-112625421D01*
X124122940Y-112560542D01*
X124098227Y-112526566D01*
X124049419Y-112459245D01*
X124005864Y-112398647D01*
X123969726Y-112347827D01*
X123943170Y-112309838D01*
X123928360Y-112287735D01*
X123926029Y-112283571D01*
X123934971Y-112273372D01*
X123961637Y-112250589D01*
X124003150Y-112217492D01*
X124056632Y-112176351D01*
X124119204Y-112129439D01*
X124151707Y-112105476D01*
X124217999Y-112056584D01*
X124277039Y-112012510D01*
X124325853Y-111975516D01*
X124361471Y-111947864D01*
X124380920Y-111931816D01*
X124383633Y-111928920D01*
X124376386Y-111915660D01*
X124352677Y-111894390D01*
X124318382Y-111869189D01*
X124279380Y-111844131D01*
X124241549Y-111823295D01*
X124215207Y-111812113D01*
X124169321Y-111803030D01*
X124103263Y-111798631D01*
X124037407Y-111798777D01*
X123976250Y-111801231D01*
X123934881Y-111805311D01*
X123907695Y-111812057D01*
X123889087Y-111822509D01*
X123883442Y-111827348D01*
X123862855Y-111843902D01*
X123848589Y-111842949D01*
X123835086Y-111831067D01*
X123821062Y-111807435D01*
X123820777Y-111791226D01*
X123827114Y-111771765D01*
X123827857Y-111767464D01*
X123838926Y-111763747D01*
X123865626Y-111762154D01*
X123866380Y-111762152D01*
X123899680Y-111756375D01*
X123942807Y-111741593D01*
X123968764Y-111729791D01*
X124005634Y-111709412D01*
X124024114Y-111692908D01*
X124029344Y-111674595D01*
X124028667Y-111663573D01*
X124020502Y-111640337D01*
X123998703Y-111618253D01*
X123958405Y-111592538D01*
X123953659Y-111589857D01*
X123910762Y-111567345D01*
X123871985Y-111549622D01*
X123850285Y-111541885D01*
X123820071Y-111525735D01*
X123807677Y-111500992D01*
X123816493Y-111474793D01*
X123841421Y-111459100D01*
X123867569Y-111461612D01*
X123884553Y-111481322D01*
X123884577Y-111481395D01*
X123896718Y-111496963D01*
X123924923Y-111509434D01*
X123973807Y-111520833D01*
X123974968Y-111521053D01*
X124019957Y-111528856D01*
X124047011Y-111530667D01*
X124063008Y-111525929D01*
X124074823Y-111514085D01*
X124075739Y-111512885D01*
X124087745Y-111493412D01*
X124093071Y-111471124D01*
X124092381Y-111438555D01*
X124086628Y-111390343D01*
X124077452Y-111349752D01*
X124062723Y-111329615D01*
X124054850Y-111326252D01*
X124038503Y-111316623D01*
X124039984Y-111295886D01*
X124041937Y-111290259D01*
X124060639Y-111263229D01*
X124084573Y-111255866D01*
X124106049Y-111268382D01*
X124115299Y-111288253D01*
X124125624Y-111320509D01*
X124142161Y-111363564D01*
X124152958Y-111389027D01*
X124174663Y-111430804D01*
X124195757Y-111453083D01*
X124214250Y-111460278D01*
X124232219Y-111461770D01*
X124244733Y-111454512D01*
X124255605Y-111433496D01*
X124268648Y-111393717D01*
X124271080Y-111385647D01*
X124282642Y-111339836D01*
X124288761Y-111300482D01*
X124288376Y-111278172D01*
X124290521Y-111250318D01*
X124308164Y-111233535D01*
X124332716Y-111230842D01*
X124355584Y-111245255D01*
G36*
X124355584Y-111245255D02*
G01*
X124360544Y-111252819D01*
X124365799Y-111277170D01*
X124353305Y-111293582D01*
X124344346Y-111304730D01*
X124339272Y-111323157D01*
X124337706Y-111353793D01*
X124339271Y-111401569D01*
X124341788Y-111444141D01*
X124345294Y-111494306D01*
X124349940Y-111534594D01*
X124357809Y-111569196D01*
X124370984Y-111602304D01*
X124391546Y-111638109D01*
X124421579Y-111680803D01*
X124463166Y-111734578D01*
X124518390Y-111803625D01*
X124523679Y-111810208D01*
X124555364Y-111848396D01*
X124579576Y-111877880D01*
X124595097Y-111901777D01*
X124600712Y-111923206D01*
X124595205Y-111945285D01*
X124577359Y-111971134D01*
X124545959Y-112003871D01*
X124499789Y-112046614D01*
X124437632Y-112102481D01*
X124394509Y-112141462D01*
X124218211Y-112301737D01*
X124323274Y-112400245D01*
X124365711Y-112439411D01*
X124401367Y-112471151D01*
X124426235Y-112491976D01*
X124436073Y-112498504D01*
X124445617Y-112488322D01*
X124465259Y-112461032D01*
X124491830Y-112421188D01*
X124513191Y-112387728D01*
X124572249Y-112304658D01*
X124646899Y-112216342D01*
X124730471Y-112129769D01*
X124816297Y-112051926D01*
X124883843Y-111999392D01*
X124953563Y-111954992D01*
X125036981Y-111909581D01*
X125125536Y-111867255D01*
X125210669Y-111832115D01*
X125282007Y-111808738D01*
X125367755Y-111790153D01*
X125464585Y-111776031D01*
X125562639Y-111767364D01*
X125652054Y-111765144D01*
X125695290Y-111767136D01*
X125847185Y-111792139D01*
X125993739Y-111840922D01*
X126132860Y-111912075D01*
X126262455Y-112004187D01*
X126380433Y-112115846D01*
X126484703Y-112245643D01*
X126544674Y-112340002D01*
X126573947Y-112390802D01*
X126538711Y-112346352D01*
X126495713Y-112296552D01*
X126440396Y-112238881D01*
X126378382Y-112178612D01*
X126315295Y-112121021D01*
X126256758Y-112071383D01*
X126208394Y-112034971D01*
X126202757Y-112031231D01*
X126076333Y-111962301D01*
X125943186Y-111914041D01*
X125807106Y-111887100D01*
X125671883Y-111882129D01*
X125541306Y-111899779D01*
X125500202Y-111910583D01*
X125420432Y-111939092D01*
X125330164Y-111979181D01*
X125238573Y-112026360D01*
X125154832Y-112076140D01*
X125134820Y-112089402D01*
X125066361Y-112139263D01*
X125005040Y-112191807D01*
X124947816Y-112250664D01*
X124891645Y-112319462D01*
X124833487Y-112401830D01*
X124770298Y-112501396D01*
X124723003Y-112580608D01*
X124648957Y-112706913D01*
X124768632Y-112818016D01*
X124813408Y-112858258D01*
X124851106Y-112889627D01*
X124878206Y-112909380D01*
X124891190Y-112914777D01*
X124891769Y-112913961D01*
X124894221Y-112896157D01*
X124898443Y-112858360D01*
X124903873Y-112805868D01*
X124909945Y-112743981D01*
X124910819Y-112734823D01*
X124926407Y-112570843D01*
X125130209Y-112767376D01*
X125199222Y-112833452D01*
X125253263Y-112883831D01*
X125295237Y-112920863D01*
X125328050Y-112946894D01*
X125354607Y-112964272D01*
X125377814Y-112975344D01*
X125394406Y-112980820D01*
X125440057Y-112988868D01*
X125496598Y-112992084D01*
X125557016Y-112990888D01*
X125614300Y-112985699D01*
X125661438Y-112976936D01*
X125691420Y-112965018D01*
X125694088Y-112962909D01*
X125714721Y-112950306D01*
X125735198Y-112957859D01*
X125738301Y-112960069D01*
X125756026Y-112984201D01*
X125753216Y-113008575D01*
X125732416Y-113024432D01*
X125719006Y-113026443D01*
X125689149Y-113031797D01*
X125648914Y-113044709D01*
X125606678Y-113061745D01*
X125570817Y-113079475D01*
X125549706Y-113094466D01*
X125548236Y-113096416D01*
X125542863Y-113126484D01*
X125562644Y-113158269D01*
X125607403Y-113191552D01*
X125634003Y-113206124D01*
X125677290Y-113227511D01*
X125713967Y-113244486D01*
X125736032Y-113253350D01*
X125754246Y-113269615D01*
X125756777Y-113296084D01*
X125743017Y-113321713D01*
X125717359Y-113336107D01*
X125696441Y-113327481D01*
X125688872Y-113313017D01*
X125673192Y-113295134D01*
X125636503Y-113278883D01*
X125602291Y-113269093D01*
X125558951Y-113258726D01*
X125532662Y-113255352D01*
X125515967Y-113259294D01*
X125501408Y-113270877D01*
X125498634Y-113273605D01*
X125481886Y-113305242D01*
X125475439Y-113349702D01*
X125478942Y-113396887D01*
X125492045Y-113436703D01*
X125504870Y-113453288D01*
X125526888Y-113482828D01*
X125524750Y-113511646D01*
X125515887Y-113523443D01*
X125493354Y-113532408D01*
X125468877Y-113526491D01*
X125454214Y-113509403D01*
X125453459Y-113503746D01*
X125448596Y-113482005D01*
X125435873Y-113445324D01*
X125418883Y-113403627D01*
X125398844Y-113360655D01*
X125382946Y-113336517D01*
X125366830Y-113326114D01*
X125351042Y-113324252D01*
X125331750Y-113326946D01*
X125318128Y-113338769D01*
X125305994Y-113365337D01*
X125294992Y-113399514D01*
X125283868Y-113443996D01*
X125278412Y-113482074D01*
X125279135Y-113501280D01*
X125276330Y-113528258D01*
X125257646Y-113544567D01*
X125231853Y-113545682D01*
X125214099Y-113534837D01*
X125200654Y-113514336D01*
X125207649Y-113491907D01*
X125209231Y-113489320D01*
X125217172Y-113462651D01*
X125222480Y-113414343D01*
X125224788Y-113348058D01*
X125224857Y-113332821D01*
X125224857Y-113201344D01*
X125126699Y-113065194D01*
X125090894Y-113015063D01*
X125064087Y-112979075D01*
X125044534Y-112958711D01*
X125030495Y-112955454D01*
X125020227Y-112970784D01*
X125011988Y-113006185D01*
X125004037Y-113063138D01*
X124994631Y-113143126D01*
X124990134Y-113181377D01*
X124981730Y-113248051D01*
X124973681Y-113304780D01*
X124966670Y-113347255D01*
X124961381Y-113371169D01*
X124959449Y-113374848D01*
X124948129Y-113366655D01*
X124920987Y-113343914D01*
X124880973Y-113309191D01*
X124831035Y-113265049D01*
X124774122Y-113214055D01*
X124762342Y-113203422D01*
X124704772Y-113151664D01*
X124653965Y-113106499D01*
X124612776Y-113070422D01*
X124584060Y-113045929D01*
X124570672Y-113035516D01*
X124570074Y-113035351D01*
X124569826Y-113048447D01*
X124571066Y-113082249D01*
X124573576Y-113132120D01*
X124577139Y-113193425D01*
X124578568Y-113216302D01*
X124582128Y-113284757D01*
X124583535Y-113349792D01*
X124582615Y-113417128D01*
X124579192Y-113492481D01*
X124573093Y-113581570D01*
X124564141Y-113690113D01*
X124564056Y-113691090D01*
X124556937Y-113775012D01*
X124550902Y-113850074D01*
X124546209Y-113912719D01*
X124543117Y-113959392D01*
X124541884Y-113986535D01*
X124542169Y-113991998D01*
X124554068Y-113987678D01*
X124583691Y-113973046D01*
X124626684Y-113950346D01*
X124678692Y-113921822D01*
X124683240Y-113919285D01*
X124735708Y-113890429D01*
X124779432Y-113867257D01*
X124810088Y-113851996D01*
X124823354Y-113846874D01*
X124823541Y-113846977D01*
X124843830Y-113872730D01*
X124875757Y-113910821D01*
X124916008Y-113957536D01*
X124961271Y-114009161D01*
X125008231Y-114061982D01*
X125053577Y-114112285D01*
X125093994Y-114156356D01*
X125126169Y-114190482D01*
X125146790Y-114210948D01*
X125151785Y-114214926D01*
X125195091Y-114234772D01*
X125245485Y-114252949D01*
X125296077Y-114267568D01*
X125339978Y-114276742D01*
X125370300Y-114278582D01*
X125377299Y-114276730D01*
X125402278Y-114274569D01*
X125421147Y-114289854D01*
X125425480Y-114314734D01*
X125423881Y-114320118D01*
X125414918Y-114329501D01*
X125393973Y-114333758D01*
X125355990Y-114333448D01*
X125322783Y-114331292D01*
X125274580Y-114328088D01*
X125245862Y-114328404D01*
X125230810Y-114333545D01*
X125223604Y-114344816D01*
X125220863Y-114354155D01*
X125219944Y-114382311D01*
X125233372Y-114413747D01*
X125263526Y-114452665D01*
X125295851Y-114486600D01*
X125324667Y-114522012D01*
X125333411Y-114549038D01*
X125321917Y-114565245D01*
X125301456Y-114568852D01*
X125279751Y-114560000D01*
X125275635Y-114546627D01*
X125264885Y-114525584D01*
X125237966Y-114501473D01*
X125202820Y-114479217D01*
X125167392Y-114463737D01*
X125139621Y-114459952D01*
X125136830Y-114460626D01*
X125116698Y-114478275D01*
X125099369Y-114511878D01*
X125087782Y-114551992D01*
X125084879Y-114589172D01*
X125090382Y-114609811D01*
X125096397Y-114634295D01*
X125088868Y-114646422D01*
X125065981Y-114655994D01*
X125045242Y-114646170D01*
X125035674Y-114622008D01*
X125035820Y-114616679D01*
X125036904Y-114587109D01*
X125036829Y-114544774D01*
X125036333Y-114522709D01*
X125033233Y-114482277D01*
X125025488Y-114460651D01*
X125010702Y-114451335D01*
X125009924Y-114451126D01*
X124987369Y-114456803D01*
X124959164Y-114479086D01*
X124931030Y-114511867D01*
X124908691Y-114549039D01*
X124901722Y-114566602D01*
X124886226Y-114589173D01*
X124865121Y-114591818D01*
X124841704Y-114580318D01*
X124833836Y-114560856D01*
X124843614Y-114542896D01*
X124853227Y-114538160D01*
X124867772Y-114522996D01*
X124885640Y-114489456D01*
X124904528Y-114443935D01*
X124922132Y-114392825D01*
X124936148Y-114342520D01*
X124944272Y-114299414D01*
X124945405Y-114282346D01*
X124937504Y-114250432D01*
X124914928Y-114202348D01*
X124879269Y-114141435D01*
X124874927Y-114134581D01*
X124804502Y-114024160D01*
X124668605Y-114095249D01*
X124615119Y-114123480D01*
X124569895Y-114147823D01*
X124537693Y-114165682D01*
X124523276Y-114174463D01*
X124523268Y-114174470D01*
X124520378Y-114189704D01*
X124519823Y-114224706D01*
X124521552Y-114273955D01*
X124524646Y-114321204D01*
X124529057Y-114384978D01*
X124530252Y-114429880D01*
X124527810Y-114462281D01*
X124521313Y-114488554D01*
X124512139Y-114511154D01*
X124497161Y-114553373D01*
X124489013Y-114594265D01*
X124488536Y-114602846D01*
X124482187Y-114636046D01*
X124468227Y-114647296D01*
X124454888Y-114660047D01*
X124434280Y-114691709D01*
X124409069Y-114737816D01*
X124386141Y-114784752D01*
X124347450Y-114862583D01*
X124314101Y-114915952D01*
X124284467Y-114944822D01*
X124256922Y-114949157D01*
X124229839Y-114928920D01*
X124201591Y-114884074D01*
X124170551Y-114814584D01*
X124156879Y-114779589D01*
X124134313Y-114723408D01*
X124113416Y-114677110D01*
X124096418Y-114645261D01*
X124085545Y-114632426D01*
X124085032Y-114632357D01*
X124073644Y-114620805D01*
X124069165Y-114589792D01*
X124069157Y-114588160D01*
X124064160Y-114546340D01*
X124051887Y-114501143D01*
X124049449Y-114494709D01*
X124041077Y-114470516D01*
X124036731Y-114445878D01*
X124036379Y-114414781D01*
X124039992Y-114371209D01*
X124047541Y-114309147D01*
X124048499Y-114301781D01*
X124067259Y-114158111D01*
X123926285Y-113972957D01*
X123881302Y-113913878D01*
X123841832Y-113862043D01*
X123810370Y-113820728D01*
X123789409Y-113793208D01*
X123781483Y-113782809D01*
X123767453Y-113782815D01*
X123735553Y-113789674D01*
X123691773Y-113801525D01*
X123642099Y-113816505D01*
X123592520Y-113832752D01*
X123549025Y-113848403D01*
X123517601Y-113861596D01*
X123505781Y-113868554D01*
X123485055Y-113894160D01*
X123460308Y-113935032D01*
X123435311Y-113983468D01*
X123413833Y-114031765D01*
X123399646Y-114072222D01*
X123396057Y-114092684D01*
X123387896Y-114121065D01*
X123368518Y-114134801D01*
X123345583Y-114129248D01*
X123341547Y-114125722D01*
X123333446Y-114107533D01*
X123342401Y-114086108D01*
X123351667Y-114058827D01*
X123357235Y-114018420D01*
X123357957Y-113998381D01*
X123354211Y-113954566D01*
X123341456Y-113930599D01*
X123317425Y-113925996D01*
X123279846Y-113940274D01*
X123229312Y-113971034D01*
X123184607Y-114000258D01*
X123156151Y-114016260D01*
X123139400Y-114020404D01*
X123129810Y-114014054D01*
X123124325Y-114002556D01*
X123122544Y-113974729D01*
X123141814Y-113960516D01*
X123154440Y-113959252D01*
X123176934Y-113949130D01*
X123204350Y-113923918D01*
X123230461Y-113891348D01*
X123249039Y-113859152D01*
X123253985Y-113835663D01*
X123240582Y-113816997D01*
X123212367Y-113796880D01*
X123177765Y-113779462D01*
X123145202Y-113768891D01*
X123123102Y-113769317D01*
X123121442Y-113770392D01*
X123099569Y-113776209D01*
X123076888Y-113768729D01*
X123066060Y-113752267D01*
X123066052Y-113751519D01*
X123074420Y-113721683D01*
X123095450Y-113711230D01*
X123114207Y-113716641D01*
X123146216Y-113726816D01*
X123187000Y-113730992D01*
X123228114Y-113729478D01*
X123261112Y-113722579D01*
X123277509Y-113710707D01*
X123273333Y-113691427D01*
X123255163Y-113663217D01*
X123229012Y-113632796D01*
X123200892Y-113606883D01*
X123176816Y-113592197D01*
X123170347Y-113590952D01*
X123157656Y-113582167D01*
X123157187Y-113562421D01*
X123166693Y-113541631D01*
X123183929Y-113529713D01*
X123184233Y-113529653D01*
X123206433Y-113535912D01*
X123213870Y-113550147D01*
X123227995Y-113566449D01*
X123259855Y-113588578D01*
X123303384Y-113613488D01*
X123352519Y-113638133D01*
X123401194Y-113659468D01*
X123443344Y-113674445D01*
X123472461Y-113680019D01*
X123496108Y-113678232D01*
X123539346Y-113673211D01*
X123596672Y-113665658D01*
X123662584Y-113656275D01*
X123685363Y-113652883D01*
X123749971Y-113643516D01*
X123804969Y-113636224D01*
X123845813Y-113631557D01*
X123867959Y-113630064D01*
X123870575Y-113630491D01*
X123878307Y-113642499D01*
X123896860Y-113672054D01*
X123923698Y-113715100D01*
X123956289Y-113767579D01*
X123967124Y-113785065D01*
X124000876Y-113838743D01*
X124029809Y-113883213D01*
X124051407Y-113914725D01*
X124063153Y-113929527D01*
X124064439Y-113930105D01*
X124064936Y-113916700D01*
X124063932Y-113881377D01*
X124061588Y-113827559D01*
X124058065Y-113758674D01*
X124053527Y-113678147D01*
X124048962Y-113602642D01*
X124028864Y-113279802D01*
X124156922Y-113034053D01*
X124194011Y-112961499D01*
X124226083Y-112896095D01*
X124251552Y-112841298D01*
X124268836Y-112800563D01*
X124276349Y-112777347D01*
X124276243Y-112773703D01*
X124266507Y-112759581D01*
X124244054Y-112728072D01*
X124211138Y-112682309D01*
X124170015Y-112625421D01*
X124122940Y-112560542D01*
X124098227Y-112526566D01*
X124049419Y-112459245D01*
X124005864Y-112398647D01*
X123969726Y-112347827D01*
X123943170Y-112309838D01*
X123928360Y-112287735D01*
X123926029Y-112283571D01*
X123934971Y-112273372D01*
X123961637Y-112250589D01*
X124003150Y-112217492D01*
X124056632Y-112176351D01*
X124119204Y-112129439D01*
X124151707Y-112105476D01*
X124217999Y-112056584D01*
X124277039Y-112012510D01*
X124325853Y-111975516D01*
X124361471Y-111947864D01*
X124380920Y-111931816D01*
X124383633Y-111928920D01*
X124376386Y-111915660D01*
X124352677Y-111894390D01*
X124318382Y-111869189D01*
X124279380Y-111844131D01*
X124241549Y-111823295D01*
X124215207Y-111812113D01*
X124169321Y-111803030D01*
X124103263Y-111798631D01*
X124037407Y-111798777D01*
X123976250Y-111801231D01*
X123934881Y-111805311D01*
X123907695Y-111812057D01*
X123889087Y-111822509D01*
X123883442Y-111827348D01*
X123862855Y-111843902D01*
X123848589Y-111842949D01*
X123835086Y-111831067D01*
X123821062Y-111807435D01*
X123820777Y-111791226D01*
X123827114Y-111771765D01*
X123827857Y-111767464D01*
X123838926Y-111763747D01*
X123865626Y-111762154D01*
X123866380Y-111762152D01*
X123899680Y-111756375D01*
X123942807Y-111741593D01*
X123968764Y-111729791D01*
X124005634Y-111709412D01*
X124024114Y-111692908D01*
X124029344Y-111674595D01*
X124028667Y-111663573D01*
X124020502Y-111640337D01*
X123998703Y-111618253D01*
X123958405Y-111592538D01*
X123953659Y-111589857D01*
X123910762Y-111567345D01*
X123871985Y-111549622D01*
X123850285Y-111541885D01*
X123820071Y-111525735D01*
X123807677Y-111500992D01*
X123816493Y-111474793D01*
X123841421Y-111459100D01*
X123867569Y-111461612D01*
X123884553Y-111481322D01*
X123884577Y-111481395D01*
X123896718Y-111496963D01*
X123924923Y-111509434D01*
X123973807Y-111520833D01*
X123974968Y-111521053D01*
X124019957Y-111528856D01*
X124047011Y-111530667D01*
X124063008Y-111525929D01*
X124074823Y-111514085D01*
X124075739Y-111512885D01*
X124087745Y-111493412D01*
X124093071Y-111471124D01*
X124092381Y-111438555D01*
X124086628Y-111390343D01*
X124077452Y-111349752D01*
X124062723Y-111329615D01*
X124054850Y-111326252D01*
X124038503Y-111316623D01*
X124039984Y-111295886D01*
X124041937Y-111290259D01*
X124060639Y-111263229D01*
X124084573Y-111255866D01*
X124106049Y-111268382D01*
X124115299Y-111288253D01*
X124125624Y-111320509D01*
X124142161Y-111363564D01*
X124152958Y-111389027D01*
X124174663Y-111430804D01*
X124195757Y-111453083D01*
X124214250Y-111460278D01*
X124232219Y-111461770D01*
X124244733Y-111454512D01*
X124255605Y-111433496D01*
X124268648Y-111393717D01*
X124271080Y-111385647D01*
X124282642Y-111339836D01*
X124288761Y-111300482D01*
X124288376Y-111278172D01*
X124290521Y-111250318D01*
X124308164Y-111233535D01*
X124332716Y-111230842D01*
X124355584Y-111245255D01*
G37*
%TD*%
M02*
