%TF.GenerationSoftware,KiCad,Pcbnew,8.0.3*%
%TF.CreationDate,2024-09-02T20:29:09+10:00*%
%TF.ProjectId,bottom_plate,626f7474-6f6d-45f7-906c-6174652e6b69,1.0.0*%
%TF.SameCoordinates,Original*%
%TF.FileFunction,Soldermask,Bot*%
%TF.FilePolarity,Negative*%
%FSLAX46Y46*%
G04 Gerber Fmt 4.6, Leading zero omitted, Abs format (unit mm)*
G04 Created by KiCad (PCBNEW 8.0.3) date 2024-09-02 20:29:09*
%MOMM*%
%LPD*%
G01*
G04 APERTURE LIST*
%ADD10C,0.010000*%
G04 APERTURE END LIST*
D10*
%TO.C,G\u002A\u002A\u002A*%
X32902339Y-93095705D02*
X32931973Y-93124575D01*
X32965322Y-93177944D01*
X33004013Y-93255775D01*
X33026941Y-93302711D01*
X33052152Y-93348818D01*
X33072760Y-93380480D01*
X33086099Y-93393231D01*
X33100059Y-93404481D01*
X33106408Y-93437681D01*
X33106885Y-93446262D01*
X33115033Y-93487154D01*
X33130011Y-93529373D01*
X33139185Y-93551973D01*
X33145682Y-93578246D01*
X33148124Y-93610647D01*
X33146929Y-93655549D01*
X33142518Y-93719323D01*
X33139424Y-93766572D01*
X33137695Y-93815821D01*
X33138250Y-93850823D01*
X33141140Y-93866057D01*
X33141148Y-93866064D01*
X33155565Y-93874845D01*
X33187767Y-93892704D01*
X33232991Y-93917047D01*
X33286477Y-93945278D01*
X33422374Y-94016367D01*
X33492799Y-93905946D01*
X33497141Y-93899092D01*
X33532800Y-93838179D01*
X33555376Y-93790095D01*
X33563277Y-93758181D01*
X33562144Y-93741113D01*
X33554020Y-93698007D01*
X33540004Y-93647702D01*
X33522400Y-93596592D01*
X33503512Y-93551071D01*
X33485644Y-93517531D01*
X33471099Y-93502367D01*
X33461486Y-93497631D01*
X33451708Y-93479671D01*
X33459576Y-93460209D01*
X33482993Y-93448709D01*
X33504098Y-93451354D01*
X33519594Y-93473925D01*
X33526563Y-93491488D01*
X33548902Y-93528660D01*
X33577036Y-93561441D01*
X33605241Y-93583724D01*
X33627796Y-93589401D01*
X33628574Y-93589192D01*
X33643360Y-93579876D01*
X33651105Y-93558250D01*
X33654205Y-93517818D01*
X33654701Y-93495753D01*
X33654776Y-93453418D01*
X33653692Y-93423848D01*
X33653546Y-93418519D01*
X33663114Y-93394357D01*
X33683853Y-93384533D01*
X33706740Y-93394105D01*
X33714269Y-93406232D01*
X33708254Y-93430716D01*
X33702751Y-93451355D01*
X33705654Y-93488535D01*
X33717241Y-93528649D01*
X33734570Y-93562252D01*
X33754702Y-93579901D01*
X33757493Y-93580575D01*
X33785264Y-93576790D01*
X33820692Y-93561310D01*
X33855838Y-93539054D01*
X33882757Y-93514943D01*
X33893507Y-93493900D01*
X33897623Y-93480527D01*
X33919328Y-93471675D01*
X33939789Y-93475282D01*
X33951283Y-93491489D01*
X33942539Y-93518515D01*
X33913723Y-93553927D01*
X33881398Y-93587862D01*
X33851244Y-93626780D01*
X33837816Y-93658216D01*
X33838735Y-93686372D01*
X33841476Y-93695711D01*
X33848682Y-93706982D01*
X33863734Y-93712123D01*
X33892452Y-93712439D01*
X33940655Y-93709235D01*
X33973862Y-93707079D01*
X34011845Y-93706769D01*
X34032790Y-93711026D01*
X34041753Y-93720409D01*
X34043352Y-93725793D01*
X34039019Y-93750673D01*
X34020150Y-93765958D01*
X33995171Y-93763797D01*
X33988172Y-93761945D01*
X33957850Y-93763785D01*
X33913949Y-93772959D01*
X33863357Y-93787578D01*
X33812963Y-93805755D01*
X33769657Y-93825601D01*
X33764662Y-93829579D01*
X33744041Y-93850045D01*
X33711866Y-93884171D01*
X33671449Y-93928242D01*
X33626103Y-93978545D01*
X33579143Y-94031366D01*
X33533880Y-94082991D01*
X33493629Y-94129706D01*
X33461702Y-94167797D01*
X33441413Y-94193550D01*
X33441226Y-94193653D01*
X33427960Y-94188531D01*
X33397304Y-94173270D01*
X33353580Y-94150098D01*
X33301112Y-94121242D01*
X33296564Y-94118705D01*
X33244556Y-94090181D01*
X33201563Y-94067481D01*
X33171940Y-94052849D01*
X33160041Y-94048529D01*
X33159756Y-94053992D01*
X33160989Y-94081135D01*
X33164081Y-94127808D01*
X33168774Y-94190453D01*
X33174809Y-94265515D01*
X33181928Y-94349437D01*
X33182013Y-94350414D01*
X33190965Y-94458957D01*
X33197064Y-94548046D01*
X33200487Y-94623399D01*
X33201407Y-94690735D01*
X33200000Y-94755770D01*
X33196440Y-94824225D01*
X33195011Y-94847102D01*
X33191448Y-94908407D01*
X33188938Y-94958278D01*
X33187698Y-94992080D01*
X33187946Y-95005176D01*
X33188544Y-95005011D01*
X33201932Y-94994598D01*
X33230648Y-94970105D01*
X33271837Y-94934028D01*
X33322644Y-94888863D01*
X33380214Y-94837105D01*
X33391994Y-94826472D01*
X33448907Y-94775478D01*
X33498845Y-94731336D01*
X33538859Y-94696613D01*
X33566001Y-94673872D01*
X33577321Y-94665679D01*
X33579253Y-94669358D01*
X33584542Y-94693272D01*
X33591553Y-94735747D01*
X33599602Y-94792476D01*
X33608006Y-94859150D01*
X33612503Y-94897401D01*
X33621909Y-94977389D01*
X33629860Y-95034342D01*
X33638099Y-95069743D01*
X33648367Y-95085073D01*
X33662406Y-95081816D01*
X33681959Y-95061452D01*
X33708766Y-95025464D01*
X33744571Y-94975333D01*
X33842729Y-94839183D01*
X33842729Y-94707706D01*
X33842660Y-94692469D01*
X33840352Y-94626184D01*
X33835044Y-94577876D01*
X33827103Y-94551207D01*
X33825521Y-94548620D01*
X33818526Y-94526191D01*
X33831971Y-94505690D01*
X33849725Y-94494845D01*
X33875518Y-94495960D01*
X33894202Y-94512269D01*
X33897007Y-94539247D01*
X33896284Y-94558453D01*
X33901740Y-94596531D01*
X33912864Y-94641013D01*
X33923866Y-94675190D01*
X33936000Y-94701758D01*
X33949622Y-94713581D01*
X33968914Y-94716275D01*
X33984702Y-94714413D01*
X34000818Y-94704010D01*
X34016716Y-94679872D01*
X34036755Y-94636900D01*
X34053745Y-94595203D01*
X34066468Y-94558522D01*
X34071331Y-94536781D01*
X34072086Y-94531124D01*
X34086749Y-94514036D01*
X34111226Y-94508119D01*
X34133759Y-94517084D01*
X34142622Y-94528881D01*
X34144760Y-94557699D01*
X34122742Y-94587239D01*
X34109917Y-94603824D01*
X34096814Y-94643640D01*
X34093311Y-94690825D01*
X34099758Y-94735285D01*
X34116506Y-94766922D01*
X34119280Y-94769650D01*
X34133839Y-94781233D01*
X34150534Y-94785175D01*
X34176823Y-94781801D01*
X34220163Y-94771434D01*
X34254375Y-94761644D01*
X34291064Y-94745393D01*
X34306744Y-94727510D01*
X34314313Y-94713046D01*
X34335231Y-94704420D01*
X34360889Y-94718814D01*
X34374649Y-94744443D01*
X34372118Y-94770912D01*
X34353904Y-94787177D01*
X34331839Y-94796041D01*
X34295162Y-94813016D01*
X34251875Y-94834403D01*
X34225275Y-94848975D01*
X34180516Y-94882258D01*
X34160735Y-94914043D01*
X34166108Y-94944111D01*
X34167578Y-94946061D01*
X34188689Y-94961052D01*
X34224550Y-94978782D01*
X34266786Y-94995818D01*
X34307021Y-95008730D01*
X34336878Y-95014084D01*
X34350288Y-95016095D01*
X34371088Y-95031952D01*
X34373898Y-95056326D01*
X34356173Y-95080458D01*
X34353070Y-95082668D01*
X34332593Y-95090221D01*
X34311960Y-95077618D01*
X34309292Y-95075509D01*
X34279310Y-95063591D01*
X34232172Y-95054828D01*
X34174888Y-95049639D01*
X34114470Y-95048443D01*
X34057929Y-95051659D01*
X34012278Y-95059707D01*
X33995686Y-95065183D01*
X33972479Y-95076255D01*
X33945922Y-95093633D01*
X33913109Y-95119664D01*
X33871135Y-95156696D01*
X33817094Y-95207075D01*
X33748081Y-95273151D01*
X33544279Y-95469684D01*
X33528691Y-95305704D01*
X33527817Y-95296546D01*
X33521745Y-95234659D01*
X33516315Y-95182167D01*
X33512093Y-95144370D01*
X33509641Y-95126566D01*
X33509062Y-95125750D01*
X33496078Y-95131147D01*
X33468978Y-95150900D01*
X33431280Y-95182269D01*
X33386504Y-95222511D01*
X33266829Y-95333614D01*
X33340875Y-95459919D01*
X33388170Y-95539131D01*
X33451359Y-95638697D01*
X33509517Y-95721065D01*
X33565688Y-95789863D01*
X33622912Y-95848720D01*
X33684233Y-95901264D01*
X33752692Y-95951125D01*
X33772704Y-95964387D01*
X33856445Y-96014167D01*
X33948036Y-96061346D01*
X34038304Y-96101435D01*
X34118074Y-96129944D01*
X34159178Y-96140748D01*
X34289755Y-96158398D01*
X34424978Y-96153427D01*
X34561058Y-96126486D01*
X34694205Y-96078226D01*
X34820629Y-96009296D01*
X34826266Y-96005556D01*
X34874630Y-95969144D01*
X34933167Y-95919506D01*
X34996254Y-95861915D01*
X35058268Y-95801646D01*
X35113585Y-95743975D01*
X35156583Y-95694175D01*
X35191819Y-95649725D01*
X35162546Y-95700525D01*
X35102575Y-95794884D01*
X34998305Y-95924681D01*
X34880327Y-96036340D01*
X34750732Y-96128452D01*
X34611611Y-96199605D01*
X34465057Y-96248388D01*
X34313162Y-96273391D01*
X34269926Y-96275383D01*
X34180511Y-96273163D01*
X34082457Y-96264496D01*
X33985627Y-96250374D01*
X33899879Y-96231789D01*
X33828541Y-96208412D01*
X33743408Y-96173272D01*
X33654853Y-96130946D01*
X33571435Y-96085535D01*
X33501715Y-96041135D01*
X33434169Y-95988601D01*
X33348343Y-95910758D01*
X33264771Y-95824185D01*
X33190121Y-95735869D01*
X33131063Y-95652799D01*
X33109702Y-95619339D01*
X33083131Y-95579495D01*
X33063489Y-95552205D01*
X33053945Y-95542023D01*
X33044107Y-95548551D01*
X33019239Y-95569376D01*
X32983583Y-95601116D01*
X32941146Y-95640282D01*
X32836083Y-95738790D01*
X33012381Y-95899065D01*
X33055504Y-95938046D01*
X33117661Y-95993913D01*
X33163831Y-96036656D01*
X33195231Y-96069393D01*
X33213077Y-96095242D01*
X33218584Y-96117321D01*
X33212969Y-96138750D01*
X33197448Y-96162647D01*
X33173236Y-96192131D01*
X33141551Y-96230319D01*
X33136262Y-96236902D01*
X33081038Y-96305949D01*
X33039451Y-96359724D01*
X33009418Y-96402418D01*
X32988856Y-96438223D01*
X32975681Y-96471331D01*
X32967812Y-96505933D01*
X32963166Y-96546221D01*
X32959660Y-96596386D01*
X32957143Y-96638958D01*
X32955578Y-96686734D01*
X32957144Y-96717370D01*
X32962218Y-96735797D01*
X32971177Y-96746945D01*
X32983671Y-96763357D01*
X32978416Y-96787708D01*
X32973456Y-96795272D01*
X32950588Y-96809685D01*
X32926036Y-96806992D01*
X32908393Y-96790209D01*
X32906248Y-96762355D01*
X32906633Y-96740045D01*
X32900514Y-96700691D01*
X32888952Y-96654880D01*
X32886520Y-96646810D01*
X32873477Y-96607031D01*
X32862605Y-96586015D01*
X32850091Y-96578757D01*
X32832122Y-96580249D01*
X32813629Y-96587444D01*
X32792535Y-96609723D01*
X32770830Y-96651500D01*
X32760033Y-96676963D01*
X32743496Y-96720018D01*
X32733171Y-96752274D01*
X32723921Y-96772145D01*
X32702445Y-96784661D01*
X32678511Y-96777298D01*
X32659809Y-96750268D01*
X32657856Y-96744641D01*
X32656375Y-96723904D01*
X32672722Y-96714275D01*
X32680595Y-96710912D01*
X32695324Y-96690775D01*
X32704500Y-96650184D01*
X32710253Y-96601972D01*
X32710943Y-96569403D01*
X32705617Y-96547115D01*
X32693611Y-96527642D01*
X32692695Y-96526442D01*
X32680880Y-96514598D01*
X32664883Y-96509860D01*
X32637829Y-96511671D01*
X32592840Y-96519474D01*
X32591679Y-96519694D01*
X32542795Y-96531093D01*
X32514590Y-96543564D01*
X32502449Y-96559132D01*
X32502425Y-96559205D01*
X32485441Y-96578915D01*
X32459293Y-96581427D01*
X32434365Y-96565734D01*
X32425549Y-96539535D01*
X32437943Y-96514792D01*
X32468157Y-96498642D01*
X32489857Y-96490905D01*
X32528634Y-96473182D01*
X32571531Y-96450670D01*
X32576277Y-96447989D01*
X32616575Y-96422274D01*
X32638374Y-96400190D01*
X32646539Y-96376954D01*
X32647216Y-96365932D01*
X32641986Y-96347619D01*
X32623506Y-96331115D01*
X32586636Y-96310736D01*
X32560679Y-96298934D01*
X32517552Y-96284152D01*
X32484252Y-96278375D01*
X32483498Y-96278373D01*
X32456798Y-96276780D01*
X32445729Y-96273063D01*
X32444986Y-96268762D01*
X32438649Y-96249301D01*
X32438934Y-96233092D01*
X32452958Y-96209460D01*
X32466461Y-96197578D01*
X32480727Y-96196625D01*
X32501314Y-96213179D01*
X32506959Y-96218018D01*
X32525567Y-96228470D01*
X32552753Y-96235216D01*
X32594122Y-96239296D01*
X32655279Y-96241750D01*
X32721135Y-96241896D01*
X32787193Y-96237497D01*
X32833079Y-96228414D01*
X32859421Y-96217232D01*
X32897252Y-96196396D01*
X32936254Y-96171338D01*
X32970549Y-96146137D01*
X32994258Y-96124867D01*
X33001505Y-96111607D01*
X32998792Y-96108711D01*
X32979343Y-96092663D01*
X32943725Y-96065011D01*
X32894911Y-96028017D01*
X32835871Y-95983943D01*
X32769579Y-95935051D01*
X32737076Y-95911088D01*
X32674504Y-95864176D01*
X32621022Y-95823035D01*
X32579509Y-95789938D01*
X32552843Y-95767155D01*
X32543901Y-95756956D01*
X32546232Y-95752792D01*
X32561042Y-95730689D01*
X32587598Y-95692700D01*
X32623736Y-95641880D01*
X32667291Y-95581282D01*
X32716099Y-95513961D01*
X32740812Y-95479985D01*
X32787887Y-95415106D01*
X32829010Y-95358218D01*
X32861926Y-95312455D01*
X32884379Y-95280946D01*
X32894115Y-95266824D01*
X32894221Y-95263180D01*
X32886708Y-95239964D01*
X32869424Y-95199229D01*
X32843955Y-95144432D01*
X32811883Y-95079028D01*
X32774794Y-95006474D01*
X32646736Y-94760725D01*
X32666834Y-94437885D01*
X32671399Y-94362380D01*
X32675937Y-94281853D01*
X32679460Y-94212968D01*
X32681804Y-94159150D01*
X32682808Y-94123827D01*
X32682311Y-94110422D01*
X32681025Y-94111000D01*
X32669279Y-94125802D01*
X32647681Y-94157314D01*
X32618748Y-94201784D01*
X32584996Y-94255462D01*
X32574161Y-94272948D01*
X32541570Y-94325427D01*
X32514732Y-94368473D01*
X32496179Y-94398028D01*
X32488447Y-94410036D01*
X32485831Y-94410463D01*
X32463685Y-94408970D01*
X32422841Y-94404303D01*
X32367843Y-94397011D01*
X32303235Y-94387644D01*
X32280456Y-94384252D01*
X32214544Y-94374869D01*
X32157218Y-94367316D01*
X32113980Y-94362295D01*
X32090333Y-94360508D01*
X32061216Y-94366082D01*
X32019066Y-94381059D01*
X31970391Y-94402394D01*
X31921256Y-94427039D01*
X31877727Y-94451949D01*
X31845867Y-94474078D01*
X31831742Y-94490380D01*
X31824305Y-94504615D01*
X31802105Y-94510874D01*
X31801801Y-94510814D01*
X31784565Y-94498896D01*
X31775059Y-94478106D01*
X31775528Y-94458360D01*
X31788219Y-94449575D01*
X31794688Y-94448330D01*
X31818764Y-94433644D01*
X31846884Y-94407731D01*
X31873035Y-94377310D01*
X31891205Y-94349100D01*
X31895381Y-94329820D01*
X31878984Y-94317948D01*
X31845986Y-94311049D01*
X31804872Y-94309535D01*
X31764088Y-94313711D01*
X31732079Y-94323886D01*
X31713322Y-94329297D01*
X31692292Y-94318844D01*
X31683924Y-94289008D01*
X31683932Y-94288260D01*
X31694760Y-94271798D01*
X31717441Y-94264318D01*
X31739314Y-94270135D01*
X31740974Y-94271210D01*
X31763074Y-94271636D01*
X31795637Y-94261065D01*
X31830239Y-94243647D01*
X31858454Y-94223530D01*
X31871857Y-94204864D01*
X31866911Y-94181375D01*
X31848333Y-94149179D01*
X31822222Y-94116609D01*
X31794806Y-94091397D01*
X31772312Y-94081275D01*
X31759686Y-94080011D01*
X31740416Y-94065798D01*
X31742197Y-94037971D01*
X31747682Y-94026473D01*
X31757272Y-94020123D01*
X31774023Y-94024267D01*
X31802479Y-94040269D01*
X31847184Y-94069493D01*
X31897718Y-94100253D01*
X31935297Y-94114531D01*
X31959328Y-94109928D01*
X31972083Y-94085961D01*
X31975829Y-94042146D01*
X31975107Y-94022107D01*
X31969539Y-93981700D01*
X31960273Y-93954419D01*
X31951318Y-93932994D01*
X31959419Y-93914805D01*
X31963455Y-93911279D01*
X31986390Y-93905726D01*
X32005768Y-93919462D01*
X32013929Y-93947843D01*
X32017518Y-93968305D01*
X32031705Y-94008762D01*
X32053183Y-94057059D01*
X32078180Y-94105495D01*
X32102927Y-94146367D01*
X32123653Y-94171973D01*
X32135473Y-94178931D01*
X32166897Y-94192124D01*
X32210392Y-94207775D01*
X32259971Y-94224022D01*
X32309645Y-94239002D01*
X32353425Y-94250853D01*
X32385325Y-94257712D01*
X32399355Y-94257718D01*
X32407281Y-94247319D01*
X32428242Y-94219799D01*
X32459704Y-94178484D01*
X32499174Y-94126649D01*
X32544157Y-94067570D01*
X32685131Y-93882416D01*
X32666371Y-93738746D01*
X32665413Y-93731380D01*
X32657864Y-93669318D01*
X32654251Y-93625746D01*
X32654603Y-93594649D01*
X32658949Y-93570011D01*
X32667321Y-93545818D01*
X32669759Y-93539384D01*
X32682032Y-93494187D01*
X32687029Y-93452367D01*
X32687037Y-93450735D01*
X32691516Y-93419722D01*
X32702904Y-93408170D01*
X32703417Y-93408101D01*
X32714290Y-93395266D01*
X32731288Y-93363417D01*
X32752185Y-93317119D01*
X32774751Y-93260938D01*
X32788423Y-93225943D01*
X32819463Y-93156453D01*
X32847711Y-93111607D01*
X32874794Y-93091370D01*
X32902339Y-93095705D01*
G36*
X32902339Y-93095705D02*
G01*
X32931973Y-93124575D01*
X32965322Y-93177944D01*
X33004013Y-93255775D01*
X33026941Y-93302711D01*
X33052152Y-93348818D01*
X33072760Y-93380480D01*
X33086099Y-93393231D01*
X33100059Y-93404481D01*
X33106408Y-93437681D01*
X33106885Y-93446262D01*
X33115033Y-93487154D01*
X33130011Y-93529373D01*
X33139185Y-93551973D01*
X33145682Y-93578246D01*
X33148124Y-93610647D01*
X33146929Y-93655549D01*
X33142518Y-93719323D01*
X33139424Y-93766572D01*
X33137695Y-93815821D01*
X33138250Y-93850823D01*
X33141140Y-93866057D01*
X33141148Y-93866064D01*
X33155565Y-93874845D01*
X33187767Y-93892704D01*
X33232991Y-93917047D01*
X33286477Y-93945278D01*
X33422374Y-94016367D01*
X33492799Y-93905946D01*
X33497141Y-93899092D01*
X33532800Y-93838179D01*
X33555376Y-93790095D01*
X33563277Y-93758181D01*
X33562144Y-93741113D01*
X33554020Y-93698007D01*
X33540004Y-93647702D01*
X33522400Y-93596592D01*
X33503512Y-93551071D01*
X33485644Y-93517531D01*
X33471099Y-93502367D01*
X33461486Y-93497631D01*
X33451708Y-93479671D01*
X33459576Y-93460209D01*
X33482993Y-93448709D01*
X33504098Y-93451354D01*
X33519594Y-93473925D01*
X33526563Y-93491488D01*
X33548902Y-93528660D01*
X33577036Y-93561441D01*
X33605241Y-93583724D01*
X33627796Y-93589401D01*
X33628574Y-93589192D01*
X33643360Y-93579876D01*
X33651105Y-93558250D01*
X33654205Y-93517818D01*
X33654701Y-93495753D01*
X33654776Y-93453418D01*
X33653692Y-93423848D01*
X33653546Y-93418519D01*
X33663114Y-93394357D01*
X33683853Y-93384533D01*
X33706740Y-93394105D01*
X33714269Y-93406232D01*
X33708254Y-93430716D01*
X33702751Y-93451355D01*
X33705654Y-93488535D01*
X33717241Y-93528649D01*
X33734570Y-93562252D01*
X33754702Y-93579901D01*
X33757493Y-93580575D01*
X33785264Y-93576790D01*
X33820692Y-93561310D01*
X33855838Y-93539054D01*
X33882757Y-93514943D01*
X33893507Y-93493900D01*
X33897623Y-93480527D01*
X33919328Y-93471675D01*
X33939789Y-93475282D01*
X33951283Y-93491489D01*
X33942539Y-93518515D01*
X33913723Y-93553927D01*
X33881398Y-93587862D01*
X33851244Y-93626780D01*
X33837816Y-93658216D01*
X33838735Y-93686372D01*
X33841476Y-93695711D01*
X33848682Y-93706982D01*
X33863734Y-93712123D01*
X33892452Y-93712439D01*
X33940655Y-93709235D01*
X33973862Y-93707079D01*
X34011845Y-93706769D01*
X34032790Y-93711026D01*
X34041753Y-93720409D01*
X34043352Y-93725793D01*
X34039019Y-93750673D01*
X34020150Y-93765958D01*
X33995171Y-93763797D01*
X33988172Y-93761945D01*
X33957850Y-93763785D01*
X33913949Y-93772959D01*
X33863357Y-93787578D01*
X33812963Y-93805755D01*
X33769657Y-93825601D01*
X33764662Y-93829579D01*
X33744041Y-93850045D01*
X33711866Y-93884171D01*
X33671449Y-93928242D01*
X33626103Y-93978545D01*
X33579143Y-94031366D01*
X33533880Y-94082991D01*
X33493629Y-94129706D01*
X33461702Y-94167797D01*
X33441413Y-94193550D01*
X33441226Y-94193653D01*
X33427960Y-94188531D01*
X33397304Y-94173270D01*
X33353580Y-94150098D01*
X33301112Y-94121242D01*
X33296564Y-94118705D01*
X33244556Y-94090181D01*
X33201563Y-94067481D01*
X33171940Y-94052849D01*
X33160041Y-94048529D01*
X33159756Y-94053992D01*
X33160989Y-94081135D01*
X33164081Y-94127808D01*
X33168774Y-94190453D01*
X33174809Y-94265515D01*
X33181928Y-94349437D01*
X33182013Y-94350414D01*
X33190965Y-94458957D01*
X33197064Y-94548046D01*
X33200487Y-94623399D01*
X33201407Y-94690735D01*
X33200000Y-94755770D01*
X33196440Y-94824225D01*
X33195011Y-94847102D01*
X33191448Y-94908407D01*
X33188938Y-94958278D01*
X33187698Y-94992080D01*
X33187946Y-95005176D01*
X33188544Y-95005011D01*
X33201932Y-94994598D01*
X33230648Y-94970105D01*
X33271837Y-94934028D01*
X33322644Y-94888863D01*
X33380214Y-94837105D01*
X33391994Y-94826472D01*
X33448907Y-94775478D01*
X33498845Y-94731336D01*
X33538859Y-94696613D01*
X33566001Y-94673872D01*
X33577321Y-94665679D01*
X33579253Y-94669358D01*
X33584542Y-94693272D01*
X33591553Y-94735747D01*
X33599602Y-94792476D01*
X33608006Y-94859150D01*
X33612503Y-94897401D01*
X33621909Y-94977389D01*
X33629860Y-95034342D01*
X33638099Y-95069743D01*
X33648367Y-95085073D01*
X33662406Y-95081816D01*
X33681959Y-95061452D01*
X33708766Y-95025464D01*
X33744571Y-94975333D01*
X33842729Y-94839183D01*
X33842729Y-94707706D01*
X33842660Y-94692469D01*
X33840352Y-94626184D01*
X33835044Y-94577876D01*
X33827103Y-94551207D01*
X33825521Y-94548620D01*
X33818526Y-94526191D01*
X33831971Y-94505690D01*
X33849725Y-94494845D01*
X33875518Y-94495960D01*
X33894202Y-94512269D01*
X33897007Y-94539247D01*
X33896284Y-94558453D01*
X33901740Y-94596531D01*
X33912864Y-94641013D01*
X33923866Y-94675190D01*
X33936000Y-94701758D01*
X33949622Y-94713581D01*
X33968914Y-94716275D01*
X33984702Y-94714413D01*
X34000818Y-94704010D01*
X34016716Y-94679872D01*
X34036755Y-94636900D01*
X34053745Y-94595203D01*
X34066468Y-94558522D01*
X34071331Y-94536781D01*
X34072086Y-94531124D01*
X34086749Y-94514036D01*
X34111226Y-94508119D01*
X34133759Y-94517084D01*
X34142622Y-94528881D01*
X34144760Y-94557699D01*
X34122742Y-94587239D01*
X34109917Y-94603824D01*
X34096814Y-94643640D01*
X34093311Y-94690825D01*
X34099758Y-94735285D01*
X34116506Y-94766922D01*
X34119280Y-94769650D01*
X34133839Y-94781233D01*
X34150534Y-94785175D01*
X34176823Y-94781801D01*
X34220163Y-94771434D01*
X34254375Y-94761644D01*
X34291064Y-94745393D01*
X34306744Y-94727510D01*
X34314313Y-94713046D01*
X34335231Y-94704420D01*
X34360889Y-94718814D01*
X34374649Y-94744443D01*
X34372118Y-94770912D01*
X34353904Y-94787177D01*
X34331839Y-94796041D01*
X34295162Y-94813016D01*
X34251875Y-94834403D01*
X34225275Y-94848975D01*
X34180516Y-94882258D01*
X34160735Y-94914043D01*
X34166108Y-94944111D01*
X34167578Y-94946061D01*
X34188689Y-94961052D01*
X34224550Y-94978782D01*
X34266786Y-94995818D01*
X34307021Y-95008730D01*
X34336878Y-95014084D01*
X34350288Y-95016095D01*
X34371088Y-95031952D01*
X34373898Y-95056326D01*
X34356173Y-95080458D01*
X34353070Y-95082668D01*
X34332593Y-95090221D01*
X34311960Y-95077618D01*
X34309292Y-95075509D01*
X34279310Y-95063591D01*
X34232172Y-95054828D01*
X34174888Y-95049639D01*
X34114470Y-95048443D01*
X34057929Y-95051659D01*
X34012278Y-95059707D01*
X33995686Y-95065183D01*
X33972479Y-95076255D01*
X33945922Y-95093633D01*
X33913109Y-95119664D01*
X33871135Y-95156696D01*
X33817094Y-95207075D01*
X33748081Y-95273151D01*
X33544279Y-95469684D01*
X33528691Y-95305704D01*
X33527817Y-95296546D01*
X33521745Y-95234659D01*
X33516315Y-95182167D01*
X33512093Y-95144370D01*
X33509641Y-95126566D01*
X33509062Y-95125750D01*
X33496078Y-95131147D01*
X33468978Y-95150900D01*
X33431280Y-95182269D01*
X33386504Y-95222511D01*
X33266829Y-95333614D01*
X33340875Y-95459919D01*
X33388170Y-95539131D01*
X33451359Y-95638697D01*
X33509517Y-95721065D01*
X33565688Y-95789863D01*
X33622912Y-95848720D01*
X33684233Y-95901264D01*
X33752692Y-95951125D01*
X33772704Y-95964387D01*
X33856445Y-96014167D01*
X33948036Y-96061346D01*
X34038304Y-96101435D01*
X34118074Y-96129944D01*
X34159178Y-96140748D01*
X34289755Y-96158398D01*
X34424978Y-96153427D01*
X34561058Y-96126486D01*
X34694205Y-96078226D01*
X34820629Y-96009296D01*
X34826266Y-96005556D01*
X34874630Y-95969144D01*
X34933167Y-95919506D01*
X34996254Y-95861915D01*
X35058268Y-95801646D01*
X35113585Y-95743975D01*
X35156583Y-95694175D01*
X35191819Y-95649725D01*
X35162546Y-95700525D01*
X35102575Y-95794884D01*
X34998305Y-95924681D01*
X34880327Y-96036340D01*
X34750732Y-96128452D01*
X34611611Y-96199605D01*
X34465057Y-96248388D01*
X34313162Y-96273391D01*
X34269926Y-96275383D01*
X34180511Y-96273163D01*
X34082457Y-96264496D01*
X33985627Y-96250374D01*
X33899879Y-96231789D01*
X33828541Y-96208412D01*
X33743408Y-96173272D01*
X33654853Y-96130946D01*
X33571435Y-96085535D01*
X33501715Y-96041135D01*
X33434169Y-95988601D01*
X33348343Y-95910758D01*
X33264771Y-95824185D01*
X33190121Y-95735869D01*
X33131063Y-95652799D01*
X33109702Y-95619339D01*
X33083131Y-95579495D01*
X33063489Y-95552205D01*
X33053945Y-95542023D01*
X33044107Y-95548551D01*
X33019239Y-95569376D01*
X32983583Y-95601116D01*
X32941146Y-95640282D01*
X32836083Y-95738790D01*
X33012381Y-95899065D01*
X33055504Y-95938046D01*
X33117661Y-95993913D01*
X33163831Y-96036656D01*
X33195231Y-96069393D01*
X33213077Y-96095242D01*
X33218584Y-96117321D01*
X33212969Y-96138750D01*
X33197448Y-96162647D01*
X33173236Y-96192131D01*
X33141551Y-96230319D01*
X33136262Y-96236902D01*
X33081038Y-96305949D01*
X33039451Y-96359724D01*
X33009418Y-96402418D01*
X32988856Y-96438223D01*
X32975681Y-96471331D01*
X32967812Y-96505933D01*
X32963166Y-96546221D01*
X32959660Y-96596386D01*
X32957143Y-96638958D01*
X32955578Y-96686734D01*
X32957144Y-96717370D01*
X32962218Y-96735797D01*
X32971177Y-96746945D01*
X32983671Y-96763357D01*
X32978416Y-96787708D01*
X32973456Y-96795272D01*
X32950588Y-96809685D01*
X32926036Y-96806992D01*
X32908393Y-96790209D01*
X32906248Y-96762355D01*
X32906633Y-96740045D01*
X32900514Y-96700691D01*
X32888952Y-96654880D01*
X32886520Y-96646810D01*
X32873477Y-96607031D01*
X32862605Y-96586015D01*
X32850091Y-96578757D01*
X32832122Y-96580249D01*
X32813629Y-96587444D01*
X32792535Y-96609723D01*
X32770830Y-96651500D01*
X32760033Y-96676963D01*
X32743496Y-96720018D01*
X32733171Y-96752274D01*
X32723921Y-96772145D01*
X32702445Y-96784661D01*
X32678511Y-96777298D01*
X32659809Y-96750268D01*
X32657856Y-96744641D01*
X32656375Y-96723904D01*
X32672722Y-96714275D01*
X32680595Y-96710912D01*
X32695324Y-96690775D01*
X32704500Y-96650184D01*
X32710253Y-96601972D01*
X32710943Y-96569403D01*
X32705617Y-96547115D01*
X32693611Y-96527642D01*
X32692695Y-96526442D01*
X32680880Y-96514598D01*
X32664883Y-96509860D01*
X32637829Y-96511671D01*
X32592840Y-96519474D01*
X32591679Y-96519694D01*
X32542795Y-96531093D01*
X32514590Y-96543564D01*
X32502449Y-96559132D01*
X32502425Y-96559205D01*
X32485441Y-96578915D01*
X32459293Y-96581427D01*
X32434365Y-96565734D01*
X32425549Y-96539535D01*
X32437943Y-96514792D01*
X32468157Y-96498642D01*
X32489857Y-96490905D01*
X32528634Y-96473182D01*
X32571531Y-96450670D01*
X32576277Y-96447989D01*
X32616575Y-96422274D01*
X32638374Y-96400190D01*
X32646539Y-96376954D01*
X32647216Y-96365932D01*
X32641986Y-96347619D01*
X32623506Y-96331115D01*
X32586636Y-96310736D01*
X32560679Y-96298934D01*
X32517552Y-96284152D01*
X32484252Y-96278375D01*
X32483498Y-96278373D01*
X32456798Y-96276780D01*
X32445729Y-96273063D01*
X32444986Y-96268762D01*
X32438649Y-96249301D01*
X32438934Y-96233092D01*
X32452958Y-96209460D01*
X32466461Y-96197578D01*
X32480727Y-96196625D01*
X32501314Y-96213179D01*
X32506959Y-96218018D01*
X32525567Y-96228470D01*
X32552753Y-96235216D01*
X32594122Y-96239296D01*
X32655279Y-96241750D01*
X32721135Y-96241896D01*
X32787193Y-96237497D01*
X32833079Y-96228414D01*
X32859421Y-96217232D01*
X32897252Y-96196396D01*
X32936254Y-96171338D01*
X32970549Y-96146137D01*
X32994258Y-96124867D01*
X33001505Y-96111607D01*
X32998792Y-96108711D01*
X32979343Y-96092663D01*
X32943725Y-96065011D01*
X32894911Y-96028017D01*
X32835871Y-95983943D01*
X32769579Y-95935051D01*
X32737076Y-95911088D01*
X32674504Y-95864176D01*
X32621022Y-95823035D01*
X32579509Y-95789938D01*
X32552843Y-95767155D01*
X32543901Y-95756956D01*
X32546232Y-95752792D01*
X32561042Y-95730689D01*
X32587598Y-95692700D01*
X32623736Y-95641880D01*
X32667291Y-95581282D01*
X32716099Y-95513961D01*
X32740812Y-95479985D01*
X32787887Y-95415106D01*
X32829010Y-95358218D01*
X32861926Y-95312455D01*
X32884379Y-95280946D01*
X32894115Y-95266824D01*
X32894221Y-95263180D01*
X32886708Y-95239964D01*
X32869424Y-95199229D01*
X32843955Y-95144432D01*
X32811883Y-95079028D01*
X32774794Y-95006474D01*
X32646736Y-94760725D01*
X32666834Y-94437885D01*
X32671399Y-94362380D01*
X32675937Y-94281853D01*
X32679460Y-94212968D01*
X32681804Y-94159150D01*
X32682808Y-94123827D01*
X32682311Y-94110422D01*
X32681025Y-94111000D01*
X32669279Y-94125802D01*
X32647681Y-94157314D01*
X32618748Y-94201784D01*
X32584996Y-94255462D01*
X32574161Y-94272948D01*
X32541570Y-94325427D01*
X32514732Y-94368473D01*
X32496179Y-94398028D01*
X32488447Y-94410036D01*
X32485831Y-94410463D01*
X32463685Y-94408970D01*
X32422841Y-94404303D01*
X32367843Y-94397011D01*
X32303235Y-94387644D01*
X32280456Y-94384252D01*
X32214544Y-94374869D01*
X32157218Y-94367316D01*
X32113980Y-94362295D01*
X32090333Y-94360508D01*
X32061216Y-94366082D01*
X32019066Y-94381059D01*
X31970391Y-94402394D01*
X31921256Y-94427039D01*
X31877727Y-94451949D01*
X31845867Y-94474078D01*
X31831742Y-94490380D01*
X31824305Y-94504615D01*
X31802105Y-94510874D01*
X31801801Y-94510814D01*
X31784565Y-94498896D01*
X31775059Y-94478106D01*
X31775528Y-94458360D01*
X31788219Y-94449575D01*
X31794688Y-94448330D01*
X31818764Y-94433644D01*
X31846884Y-94407731D01*
X31873035Y-94377310D01*
X31891205Y-94349100D01*
X31895381Y-94329820D01*
X31878984Y-94317948D01*
X31845986Y-94311049D01*
X31804872Y-94309535D01*
X31764088Y-94313711D01*
X31732079Y-94323886D01*
X31713322Y-94329297D01*
X31692292Y-94318844D01*
X31683924Y-94289008D01*
X31683932Y-94288260D01*
X31694760Y-94271798D01*
X31717441Y-94264318D01*
X31739314Y-94270135D01*
X31740974Y-94271210D01*
X31763074Y-94271636D01*
X31795637Y-94261065D01*
X31830239Y-94243647D01*
X31858454Y-94223530D01*
X31871857Y-94204864D01*
X31866911Y-94181375D01*
X31848333Y-94149179D01*
X31822222Y-94116609D01*
X31794806Y-94091397D01*
X31772312Y-94081275D01*
X31759686Y-94080011D01*
X31740416Y-94065798D01*
X31742197Y-94037971D01*
X31747682Y-94026473D01*
X31757272Y-94020123D01*
X31774023Y-94024267D01*
X31802479Y-94040269D01*
X31847184Y-94069493D01*
X31897718Y-94100253D01*
X31935297Y-94114531D01*
X31959328Y-94109928D01*
X31972083Y-94085961D01*
X31975829Y-94042146D01*
X31975107Y-94022107D01*
X31969539Y-93981700D01*
X31960273Y-93954419D01*
X31951318Y-93932994D01*
X31959419Y-93914805D01*
X31963455Y-93911279D01*
X31986390Y-93905726D01*
X32005768Y-93919462D01*
X32013929Y-93947843D01*
X32017518Y-93968305D01*
X32031705Y-94008762D01*
X32053183Y-94057059D01*
X32078180Y-94105495D01*
X32102927Y-94146367D01*
X32123653Y-94171973D01*
X32135473Y-94178931D01*
X32166897Y-94192124D01*
X32210392Y-94207775D01*
X32259971Y-94224022D01*
X32309645Y-94239002D01*
X32353425Y-94250853D01*
X32385325Y-94257712D01*
X32399355Y-94257718D01*
X32407281Y-94247319D01*
X32428242Y-94219799D01*
X32459704Y-94178484D01*
X32499174Y-94126649D01*
X32544157Y-94067570D01*
X32685131Y-93882416D01*
X32666371Y-93738746D01*
X32665413Y-93731380D01*
X32657864Y-93669318D01*
X32654251Y-93625746D01*
X32654603Y-93594649D01*
X32658949Y-93570011D01*
X32667321Y-93545818D01*
X32669759Y-93539384D01*
X32682032Y-93494187D01*
X32687029Y-93452367D01*
X32687037Y-93450735D01*
X32691516Y-93419722D01*
X32702904Y-93408170D01*
X32703417Y-93408101D01*
X32714290Y-93395266D01*
X32731288Y-93363417D01*
X32752185Y-93317119D01*
X32774751Y-93260938D01*
X32788423Y-93225943D01*
X32819463Y-93156453D01*
X32847711Y-93111607D01*
X32874794Y-93091370D01*
X32902339Y-93095705D01*
G37*
X41268852Y-36604023D02*
X41466410Y-36796490D01*
X41688737Y-37152281D01*
X41946680Y-37671151D01*
X42099532Y-37984061D01*
X42267607Y-38291443D01*
X42404994Y-38502520D01*
X42493918Y-38587526D01*
X42586984Y-38662526D01*
X42629315Y-38883859D01*
X42632491Y-38941066D01*
X42686810Y-39213680D01*
X42786669Y-39495139D01*
X42847825Y-39645811D01*
X42891141Y-39820963D01*
X42907419Y-40036969D01*
X42899455Y-40336313D01*
X42870047Y-40761477D01*
X42849421Y-41076470D01*
X42837894Y-41404795D01*
X42841592Y-41638140D01*
X42860860Y-41739702D01*
X42860914Y-41739748D01*
X42957029Y-41798287D01*
X43171706Y-41917350D01*
X43473200Y-42079635D01*
X43829770Y-42267838D01*
X44735750Y-42741766D01*
X45205251Y-42005625D01*
X45234199Y-41959935D01*
X45471927Y-41553845D01*
X45622433Y-41233290D01*
X45675104Y-41020526D01*
X45667552Y-40906743D01*
X45613391Y-40619367D01*
X45519952Y-40284002D01*
X45402593Y-39943270D01*
X45276673Y-39639794D01*
X45157550Y-39416197D01*
X45060583Y-39315103D01*
X44996501Y-39283525D01*
X44931309Y-39163793D01*
X44983765Y-39034048D01*
X45139882Y-38957382D01*
X45280579Y-38975016D01*
X45383885Y-39125488D01*
X45430348Y-39242571D01*
X45579275Y-39490390D01*
X45766830Y-39708930D01*
X45954866Y-39857481D01*
X46105235Y-39895331D01*
X46110418Y-39893931D01*
X46208994Y-39831827D01*
X46260627Y-39687653D01*
X46281290Y-39418109D01*
X46284596Y-39271006D01*
X46285101Y-38988771D01*
X46277875Y-38791638D01*
X46276898Y-38756115D01*
X46340688Y-38595034D01*
X46478943Y-38529542D01*
X46631527Y-38593355D01*
X46681722Y-38674201D01*
X46641619Y-38837431D01*
X46604930Y-38975022D01*
X46624286Y-39222886D01*
X46701530Y-39490312D01*
X46817059Y-39714337D01*
X46951269Y-39831996D01*
X46969882Y-39836485D01*
X47155016Y-39811257D01*
X47391209Y-39708052D01*
X47625510Y-39559678D01*
X47804970Y-39398942D01*
X47876638Y-39258651D01*
X47904079Y-39169501D01*
X48048780Y-39110484D01*
X48185187Y-39134533D01*
X48261810Y-39242582D01*
X48203518Y-39422752D01*
X48011416Y-39658835D01*
X47795911Y-39885070D01*
X47594885Y-40144519D01*
X47505364Y-40354093D01*
X47511494Y-40541800D01*
X47529766Y-40604063D01*
X47577804Y-40679204D01*
X47678153Y-40713476D01*
X47869607Y-40715580D01*
X48190957Y-40694218D01*
X48412342Y-40679845D01*
X48665557Y-40677780D01*
X48805195Y-40706161D01*
X48864945Y-40768712D01*
X48875607Y-40804611D01*
X48846720Y-40970477D01*
X48720923Y-41072371D01*
X48554398Y-41057965D01*
X48507740Y-41045619D01*
X48305594Y-41057888D01*
X48012919Y-41119047D01*
X47675639Y-41216508D01*
X47339682Y-41337685D01*
X47050972Y-41469993D01*
X47017673Y-41496516D01*
X46880200Y-41632956D01*
X46665696Y-41860460D01*
X46396249Y-42154269D01*
X46093947Y-42489623D01*
X45780877Y-42841763D01*
X45479128Y-43185929D01*
X45210787Y-43497362D01*
X44997942Y-43751301D01*
X44862681Y-43922987D01*
X44861435Y-43923675D01*
X44772994Y-43889529D01*
X44568619Y-43787788D01*
X44277127Y-43633306D01*
X43927338Y-43440935D01*
X43897021Y-43424018D01*
X43550297Y-43233862D01*
X43263677Y-43082529D01*
X43066190Y-42984981D01*
X42986869Y-42956183D01*
X42984967Y-42992603D01*
X42993184Y-43173556D01*
X43013799Y-43484706D01*
X43045086Y-43902342D01*
X43085321Y-44402755D01*
X43132780Y-44962234D01*
X43133345Y-44968745D01*
X43193024Y-45692368D01*
X43233689Y-46286295D01*
X43256506Y-46788649D01*
X43262641Y-47237551D01*
X43253258Y-47671123D01*
X43229523Y-48127484D01*
X43220000Y-48280000D01*
X43196248Y-48688699D01*
X43179514Y-49021176D01*
X43171249Y-49246521D01*
X43172902Y-49333825D01*
X43176883Y-49332730D01*
X43266140Y-49263307D01*
X43457579Y-49100022D01*
X43732171Y-48859510D01*
X44070883Y-48558408D01*
X44454686Y-48213352D01*
X44533217Y-48142469D01*
X44912638Y-47802504D01*
X45245559Y-47508228D01*
X45512322Y-47276739D01*
X45693266Y-47125134D01*
X45768732Y-47070511D01*
X45781612Y-47095040D01*
X45816873Y-47254466D01*
X45863612Y-47537637D01*
X45917272Y-47915829D01*
X45973298Y-48360318D01*
X46003281Y-48615330D01*
X46065986Y-49148578D01*
X46118994Y-49528265D01*
X46173918Y-49764271D01*
X46242371Y-49866476D01*
X46335967Y-49844759D01*
X46466316Y-49709000D01*
X46645034Y-49469079D01*
X46883732Y-49134875D01*
X47538122Y-48227207D01*
X47538122Y-47350697D01*
X47537659Y-47249115D01*
X47522270Y-46807213D01*
X47486887Y-46485164D01*
X47433944Y-46307371D01*
X47423402Y-46290123D01*
X47376763Y-46140591D01*
X47466400Y-46003921D01*
X47584759Y-45931624D01*
X47756714Y-45939057D01*
X47881270Y-46047780D01*
X47899975Y-46227632D01*
X47895156Y-46355673D01*
X47931524Y-46609527D01*
X48005683Y-46906074D01*
X48079033Y-47133922D01*
X48159926Y-47311044D01*
X48250739Y-47389863D01*
X48379354Y-47407818D01*
X48484604Y-47395407D01*
X48592045Y-47326052D01*
X48698031Y-47165134D01*
X48831626Y-46878651D01*
X48944893Y-46600673D01*
X49029712Y-46356134D01*
X49062133Y-46211192D01*
X49067165Y-46173478D01*
X49164920Y-46059560D01*
X49328099Y-46020116D01*
X49478316Y-46079878D01*
X49537405Y-46158525D01*
X49551658Y-46350648D01*
X49404874Y-46547579D01*
X49319374Y-46658147D01*
X49232019Y-46923586D01*
X49208664Y-47238157D01*
X49251645Y-47534554D01*
X49363299Y-47745467D01*
X49381792Y-47763652D01*
X49478850Y-47840876D01*
X49590150Y-47867157D01*
X49765411Y-47844660D01*
X50054349Y-47775547D01*
X50282429Y-47710278D01*
X50527021Y-47601938D01*
X50631555Y-47482721D01*
X50682011Y-47386294D01*
X50821468Y-47328788D01*
X50992522Y-47424751D01*
X51084255Y-47595607D01*
X51067379Y-47772068D01*
X50945956Y-47880499D01*
X50798853Y-47939597D01*
X50554342Y-48052759D01*
X50265757Y-48195342D01*
X50088425Y-48292489D01*
X49790031Y-48514371D01*
X49658162Y-48726277D01*
X49693977Y-48926728D01*
X49703782Y-48939727D01*
X49844520Y-49039667D01*
X50083595Y-49157866D01*
X50365168Y-49271444D01*
X50633398Y-49357521D01*
X50832447Y-49393217D01*
X50921847Y-49406623D01*
X51060511Y-49512334D01*
X51079247Y-49674830D01*
X50961077Y-49835708D01*
X50940391Y-49850443D01*
X50803882Y-49900796D01*
X50666324Y-49816777D01*
X50648537Y-49802712D01*
X50448662Y-49723260D01*
X50134405Y-49664841D01*
X49752511Y-49630248D01*
X49349725Y-49622275D01*
X48972789Y-49643716D01*
X48668449Y-49697366D01*
X48557835Y-49733876D01*
X48403120Y-49807688D01*
X48226070Y-49923540D01*
X48007317Y-50097080D01*
X47727490Y-50343958D01*
X47367217Y-50679823D01*
X46907130Y-51120324D01*
X45548456Y-52430549D01*
X45444531Y-51337350D01*
X45438706Y-51276296D01*
X45398223Y-50863712D01*
X45362028Y-50513766D01*
X45333879Y-50261786D01*
X45317531Y-50143097D01*
X45313671Y-50137656D01*
X45227110Y-50173631D01*
X45046443Y-50305320D01*
X44795127Y-50514446D01*
X44496620Y-50782730D01*
X43698783Y-51523417D01*
X44192425Y-52365451D01*
X44507725Y-52893527D01*
X44928984Y-53557301D01*
X45316707Y-54106420D01*
X45691176Y-54565074D01*
X46072673Y-54957454D01*
X46481477Y-55307750D01*
X46937871Y-55640155D01*
X47071283Y-55728565D01*
X47629559Y-56060432D01*
X48240168Y-56374960D01*
X48841952Y-56642219D01*
X49373756Y-56832279D01*
X49647779Y-56904306D01*
X50518294Y-57021975D01*
X51419781Y-56988836D01*
X52326979Y-56809229D01*
X53214625Y-56487492D01*
X54057456Y-56027962D01*
X54095031Y-56003028D01*
X54417457Y-55760283D01*
X54807704Y-55429359D01*
X55228285Y-55045420D01*
X55641711Y-54643630D01*
X56010494Y-54259153D01*
X56297145Y-53927151D01*
X56532051Y-53630818D01*
X56336900Y-53969484D01*
X55937090Y-54598548D01*
X55241961Y-55463858D01*
X54455439Y-56208255D01*
X53591471Y-56822332D01*
X52664000Y-57296685D01*
X51686974Y-57621907D01*
X50674338Y-57788593D01*
X50386102Y-57801877D01*
X49789996Y-57787076D01*
X49136307Y-57729293D01*
X48490771Y-57635145D01*
X47919122Y-57511249D01*
X47443533Y-57355399D01*
X46875977Y-57121131D01*
X46285610Y-56838964D01*
X45729495Y-56536221D01*
X45264694Y-56240224D01*
X44814385Y-55889997D01*
X44242216Y-55371041D01*
X43685068Y-54793887D01*
X43187402Y-54205117D01*
X42793680Y-53651312D01*
X42651273Y-53428251D01*
X42474134Y-53162618D01*
X42343186Y-52980689D01*
X42279557Y-52912810D01*
X42213976Y-52956326D01*
X42048184Y-53095160D01*
X41810481Y-53306760D01*
X41527568Y-53567869D01*
X40827145Y-54224588D01*
X42002467Y-55293089D01*
X42289953Y-55552958D01*
X42704332Y-55925410D01*
X43012135Y-56210363D01*
X43221467Y-56428607D01*
X43340438Y-56600932D01*
X43377152Y-56748130D01*
X43339718Y-56890990D01*
X43236243Y-57050303D01*
X43074833Y-57246860D01*
X42863596Y-57501450D01*
X42828338Y-57545331D01*
X42460182Y-58005645D01*
X42182936Y-58364144D01*
X41982713Y-58648772D01*
X41845630Y-58887474D01*
X41757801Y-59108192D01*
X41705341Y-59338873D01*
X41674366Y-59607459D01*
X41650991Y-59941895D01*
X41634212Y-60225709D01*
X41623778Y-60544217D01*
X41634217Y-60748457D01*
X41668044Y-60871299D01*
X41727773Y-60945619D01*
X41811064Y-61055037D01*
X41776031Y-61217375D01*
X41742969Y-61267800D01*
X41590511Y-61363889D01*
X41426835Y-61345931D01*
X41309212Y-61234047D01*
X41294914Y-61048357D01*
X41297481Y-60899621D01*
X41256687Y-60637258D01*
X41179603Y-60331851D01*
X41163391Y-60278052D01*
X41076442Y-60012859D01*
X41003960Y-59872756D01*
X40920529Y-59824366D01*
X40800736Y-59834316D01*
X40677453Y-59882281D01*
X40536824Y-60030806D01*
X40392124Y-60309322D01*
X40320149Y-60479072D01*
X40209898Y-60766108D01*
X40141066Y-60981147D01*
X40079401Y-61113622D01*
X39936226Y-61197058D01*
X39776663Y-61147974D01*
X39651986Y-60967773D01*
X39638965Y-60930260D01*
X39629092Y-60792015D01*
X39738071Y-60727819D01*
X39790556Y-60705398D01*
X39888754Y-60571156D01*
X39949924Y-60300547D01*
X39988279Y-59979131D01*
X39992879Y-59762006D01*
X39957372Y-59613422D01*
X39877334Y-59483598D01*
X39871228Y-59475603D01*
X39792457Y-59396640D01*
X39685814Y-59365053D01*
X39505453Y-59377129D01*
X39205526Y-59429150D01*
X39197788Y-59430615D01*
X38871893Y-59506607D01*
X38683856Y-59589749D01*
X38602916Y-59693537D01*
X38602762Y-59694019D01*
X38489531Y-59825420D01*
X38315213Y-59842168D01*
X38149029Y-59737549D01*
X38090252Y-59562886D01*
X38172880Y-59397933D01*
X38374308Y-59290267D01*
X38518974Y-59238687D01*
X38777483Y-59120533D01*
X39063469Y-58970453D01*
X39095105Y-58952579D01*
X39363760Y-58781144D01*
X39509083Y-58633919D01*
X39563520Y-58479016D01*
X39568031Y-58405532D01*
X39533164Y-58283450D01*
X39409968Y-58173423D01*
X39164168Y-58037561D01*
X38991117Y-57958881D01*
X38703605Y-57860331D01*
X38481604Y-57821818D01*
X38476579Y-57821811D01*
X38298576Y-57811186D01*
X38224789Y-57786409D01*
X38219830Y-57757735D01*
X38177587Y-57627992D01*
X38179486Y-57519933D01*
X38272981Y-57362387D01*
X38362998Y-57283174D01*
X38458108Y-57276824D01*
X38595350Y-57387180D01*
X38632985Y-57419440D01*
X38757040Y-57489119D01*
X38938281Y-57534092D01*
X39214075Y-57561293D01*
X39621789Y-57577656D01*
X40060823Y-57578625D01*
X40501211Y-57549301D01*
X40807122Y-57488748D01*
X40982730Y-57414202D01*
X41234941Y-57275291D01*
X41494954Y-57108243D01*
X41723585Y-56940233D01*
X41881648Y-56798437D01*
X41929957Y-56710032D01*
X41911874Y-56690725D01*
X41782214Y-56583742D01*
X41544761Y-56399394D01*
X41219330Y-56152765D01*
X40825735Y-55858938D01*
X40383789Y-55532997D01*
X40167097Y-55373239D01*
X39749950Y-55060491D01*
X39393407Y-54786222D01*
X39116654Y-54565573D01*
X38938878Y-54413684D01*
X38879264Y-54345697D01*
X38894804Y-54317935D01*
X38993538Y-54170582D01*
X39170580Y-53917322D01*
X39411500Y-53578518D01*
X39701868Y-53174532D01*
X40027254Y-52725726D01*
X40192006Y-52499223D01*
X40505837Y-52066692D01*
X40779991Y-51687444D01*
X40999431Y-51382354D01*
X41149121Y-51172297D01*
X41214025Y-51078148D01*
X41214734Y-51053854D01*
X41164643Y-50899081D01*
X41049420Y-50627515D01*
X40879623Y-50262198D01*
X40665815Y-49826172D01*
X40418555Y-49342481D01*
X39564830Y-47704151D01*
X39698821Y-45551885D01*
X39729252Y-45048518D01*
X39759509Y-44511674D01*
X39782991Y-44052440D01*
X39798619Y-43693657D01*
X39805314Y-43458165D01*
X39801996Y-43368802D01*
X39793429Y-43372655D01*
X39715122Y-43471332D01*
X39571133Y-43681412D01*
X39378243Y-43977884D01*
X39153233Y-44335735D01*
X39080998Y-44452306D01*
X38863729Y-44802167D01*
X38684804Y-45089141D01*
X38561121Y-45286176D01*
X38509575Y-45366224D01*
X38492134Y-45369075D01*
X38344492Y-45359122D01*
X38072198Y-45328008D01*
X37705546Y-45279395D01*
X37274827Y-45216947D01*
X37122964Y-45194337D01*
X36683556Y-45131778D01*
X36301382Y-45081425D01*
X36013129Y-45047954D01*
X35855479Y-45036040D01*
X35661366Y-45073203D01*
X35380365Y-45173050D01*
X35055866Y-45315278D01*
X34728301Y-45479579D01*
X34438103Y-45645646D01*
X34225705Y-45793174D01*
X34131540Y-45901855D01*
X34081962Y-45996753D01*
X33933957Y-46038483D01*
X33931934Y-46038083D01*
X33817028Y-45958629D01*
X33753651Y-45820028D01*
X33756778Y-45688388D01*
X33841384Y-45629818D01*
X33884514Y-45621520D01*
X34045022Y-45523615D01*
X34232488Y-45350863D01*
X34406828Y-45148056D01*
X34527959Y-44959990D01*
X34555797Y-44831457D01*
X34446483Y-44752305D01*
X34226499Y-44706316D01*
X33952407Y-44696220D01*
X33680513Y-44724063D01*
X33467122Y-44791892D01*
X33342072Y-44827967D01*
X33201872Y-44758283D01*
X33146086Y-44559376D01*
X33146139Y-44554388D01*
X33218325Y-44444638D01*
X33369533Y-44394773D01*
X33515354Y-44433553D01*
X33526418Y-44440720D01*
X33673750Y-44443558D01*
X33890839Y-44373086D01*
X34121518Y-44256966D01*
X34309619Y-44122856D01*
X34398973Y-43998417D01*
X34366000Y-43841823D01*
X34242148Y-43627182D01*
X34068075Y-43410048D01*
X33885299Y-43241966D01*
X33735338Y-43174484D01*
X33651163Y-43166063D01*
X33522699Y-43071304D01*
X33534573Y-42885791D01*
X33571140Y-42809140D01*
X33635072Y-42766808D01*
X33746744Y-42794434D01*
X33936451Y-42901113D01*
X34234488Y-43095942D01*
X34571377Y-43301006D01*
X34821903Y-43396196D01*
X34982114Y-43365508D01*
X35067143Y-43205725D01*
X35092122Y-42913630D01*
X35087306Y-42780032D01*
X35050187Y-42510655D01*
X34988409Y-42328782D01*
X34928711Y-42185948D01*
X34982718Y-42064688D01*
X35009625Y-42041178D01*
X35162527Y-42004162D01*
X35291713Y-42095732D01*
X35346122Y-42284941D01*
X35370044Y-42421353D01*
X35464626Y-42691068D01*
X35607811Y-43013050D01*
X35774462Y-43335954D01*
X35939442Y-43608433D01*
X36077616Y-43779142D01*
X36156410Y-43825529D01*
X36365903Y-43913482D01*
X36655873Y-44017822D01*
X36986398Y-44126133D01*
X37317557Y-44225999D01*
X37609429Y-44305005D01*
X37822092Y-44350734D01*
X37915625Y-44350772D01*
X37968464Y-44281445D01*
X38108203Y-44097978D01*
X38317952Y-43822546D01*
X38581084Y-43476983D01*
X38880973Y-43083122D01*
X39820798Y-41848760D01*
X39695734Y-40890959D01*
X39689343Y-40841853D01*
X39639018Y-40428110D01*
X39614930Y-40137629D01*
X39617277Y-39930311D01*
X39646255Y-39766059D01*
X39702063Y-39604774D01*
X39718321Y-39561882D01*
X39800139Y-39260569D01*
X39833456Y-38981771D01*
X39833507Y-38970891D01*
X39863364Y-38764133D01*
X39939289Y-38687121D01*
X39942705Y-38686662D01*
X40015191Y-38601096D01*
X40128515Y-38388766D01*
X40267824Y-38080113D01*
X40418263Y-37705576D01*
X40509412Y-37472274D01*
X40716344Y-37009004D01*
X40904664Y-36710036D01*
X41085218Y-36575123D01*
X41268852Y-36604023D01*
G36*
X41268852Y-36604023D02*
G01*
X41466410Y-36796490D01*
X41688737Y-37152281D01*
X41946680Y-37671151D01*
X42099532Y-37984061D01*
X42267607Y-38291443D01*
X42404994Y-38502520D01*
X42493918Y-38587526D01*
X42586984Y-38662526D01*
X42629315Y-38883859D01*
X42632491Y-38941066D01*
X42686810Y-39213680D01*
X42786669Y-39495139D01*
X42847825Y-39645811D01*
X42891141Y-39820963D01*
X42907419Y-40036969D01*
X42899455Y-40336313D01*
X42870047Y-40761477D01*
X42849421Y-41076470D01*
X42837894Y-41404795D01*
X42841592Y-41638140D01*
X42860860Y-41739702D01*
X42860914Y-41739748D01*
X42957029Y-41798287D01*
X43171706Y-41917350D01*
X43473200Y-42079635D01*
X43829770Y-42267838D01*
X44735750Y-42741766D01*
X45205251Y-42005625D01*
X45234199Y-41959935D01*
X45471927Y-41553845D01*
X45622433Y-41233290D01*
X45675104Y-41020526D01*
X45667552Y-40906743D01*
X45613391Y-40619367D01*
X45519952Y-40284002D01*
X45402593Y-39943270D01*
X45276673Y-39639794D01*
X45157550Y-39416197D01*
X45060583Y-39315103D01*
X44996501Y-39283525D01*
X44931309Y-39163793D01*
X44983765Y-39034048D01*
X45139882Y-38957382D01*
X45280579Y-38975016D01*
X45383885Y-39125488D01*
X45430348Y-39242571D01*
X45579275Y-39490390D01*
X45766830Y-39708930D01*
X45954866Y-39857481D01*
X46105235Y-39895331D01*
X46110418Y-39893931D01*
X46208994Y-39831827D01*
X46260627Y-39687653D01*
X46281290Y-39418109D01*
X46284596Y-39271006D01*
X46285101Y-38988771D01*
X46277875Y-38791638D01*
X46276898Y-38756115D01*
X46340688Y-38595034D01*
X46478943Y-38529542D01*
X46631527Y-38593355D01*
X46681722Y-38674201D01*
X46641619Y-38837431D01*
X46604930Y-38975022D01*
X46624286Y-39222886D01*
X46701530Y-39490312D01*
X46817059Y-39714337D01*
X46951269Y-39831996D01*
X46969882Y-39836485D01*
X47155016Y-39811257D01*
X47391209Y-39708052D01*
X47625510Y-39559678D01*
X47804970Y-39398942D01*
X47876638Y-39258651D01*
X47904079Y-39169501D01*
X48048780Y-39110484D01*
X48185187Y-39134533D01*
X48261810Y-39242582D01*
X48203518Y-39422752D01*
X48011416Y-39658835D01*
X47795911Y-39885070D01*
X47594885Y-40144519D01*
X47505364Y-40354093D01*
X47511494Y-40541800D01*
X47529766Y-40604063D01*
X47577804Y-40679204D01*
X47678153Y-40713476D01*
X47869607Y-40715580D01*
X48190957Y-40694218D01*
X48412342Y-40679845D01*
X48665557Y-40677780D01*
X48805195Y-40706161D01*
X48864945Y-40768712D01*
X48875607Y-40804611D01*
X48846720Y-40970477D01*
X48720923Y-41072371D01*
X48554398Y-41057965D01*
X48507740Y-41045619D01*
X48305594Y-41057888D01*
X48012919Y-41119047D01*
X47675639Y-41216508D01*
X47339682Y-41337685D01*
X47050972Y-41469993D01*
X47017673Y-41496516D01*
X46880200Y-41632956D01*
X46665696Y-41860460D01*
X46396249Y-42154269D01*
X46093947Y-42489623D01*
X45780877Y-42841763D01*
X45479128Y-43185929D01*
X45210787Y-43497362D01*
X44997942Y-43751301D01*
X44862681Y-43922987D01*
X44861435Y-43923675D01*
X44772994Y-43889529D01*
X44568619Y-43787788D01*
X44277127Y-43633306D01*
X43927338Y-43440935D01*
X43897021Y-43424018D01*
X43550297Y-43233862D01*
X43263677Y-43082529D01*
X43066190Y-42984981D01*
X42986869Y-42956183D01*
X42984967Y-42992603D01*
X42993184Y-43173556D01*
X43013799Y-43484706D01*
X43045086Y-43902342D01*
X43085321Y-44402755D01*
X43132780Y-44962234D01*
X43133345Y-44968745D01*
X43193024Y-45692368D01*
X43233689Y-46286295D01*
X43256506Y-46788649D01*
X43262641Y-47237551D01*
X43253258Y-47671123D01*
X43229523Y-48127484D01*
X43220000Y-48280000D01*
X43196248Y-48688699D01*
X43179514Y-49021176D01*
X43171249Y-49246521D01*
X43172902Y-49333825D01*
X43176883Y-49332730D01*
X43266140Y-49263307D01*
X43457579Y-49100022D01*
X43732171Y-48859510D01*
X44070883Y-48558408D01*
X44454686Y-48213352D01*
X44533217Y-48142469D01*
X44912638Y-47802504D01*
X45245559Y-47508228D01*
X45512322Y-47276739D01*
X45693266Y-47125134D01*
X45768732Y-47070511D01*
X45781612Y-47095040D01*
X45816873Y-47254466D01*
X45863612Y-47537637D01*
X45917272Y-47915829D01*
X45973298Y-48360318D01*
X46003281Y-48615330D01*
X46065986Y-49148578D01*
X46118994Y-49528265D01*
X46173918Y-49764271D01*
X46242371Y-49866476D01*
X46335967Y-49844759D01*
X46466316Y-49709000D01*
X46645034Y-49469079D01*
X46883732Y-49134875D01*
X47538122Y-48227207D01*
X47538122Y-47350697D01*
X47537659Y-47249115D01*
X47522270Y-46807213D01*
X47486887Y-46485164D01*
X47433944Y-46307371D01*
X47423402Y-46290123D01*
X47376763Y-46140591D01*
X47466400Y-46003921D01*
X47584759Y-45931624D01*
X47756714Y-45939057D01*
X47881270Y-46047780D01*
X47899975Y-46227632D01*
X47895156Y-46355673D01*
X47931524Y-46609527D01*
X48005683Y-46906074D01*
X48079033Y-47133922D01*
X48159926Y-47311044D01*
X48250739Y-47389863D01*
X48379354Y-47407818D01*
X48484604Y-47395407D01*
X48592045Y-47326052D01*
X48698031Y-47165134D01*
X48831626Y-46878651D01*
X48944893Y-46600673D01*
X49029712Y-46356134D01*
X49062133Y-46211192D01*
X49067165Y-46173478D01*
X49164920Y-46059560D01*
X49328099Y-46020116D01*
X49478316Y-46079878D01*
X49537405Y-46158525D01*
X49551658Y-46350648D01*
X49404874Y-46547579D01*
X49319374Y-46658147D01*
X49232019Y-46923586D01*
X49208664Y-47238157D01*
X49251645Y-47534554D01*
X49363299Y-47745467D01*
X49381792Y-47763652D01*
X49478850Y-47840876D01*
X49590150Y-47867157D01*
X49765411Y-47844660D01*
X50054349Y-47775547D01*
X50282429Y-47710278D01*
X50527021Y-47601938D01*
X50631555Y-47482721D01*
X50682011Y-47386294D01*
X50821468Y-47328788D01*
X50992522Y-47424751D01*
X51084255Y-47595607D01*
X51067379Y-47772068D01*
X50945956Y-47880499D01*
X50798853Y-47939597D01*
X50554342Y-48052759D01*
X50265757Y-48195342D01*
X50088425Y-48292489D01*
X49790031Y-48514371D01*
X49658162Y-48726277D01*
X49693977Y-48926728D01*
X49703782Y-48939727D01*
X49844520Y-49039667D01*
X50083595Y-49157866D01*
X50365168Y-49271444D01*
X50633398Y-49357521D01*
X50832447Y-49393217D01*
X50921847Y-49406623D01*
X51060511Y-49512334D01*
X51079247Y-49674830D01*
X50961077Y-49835708D01*
X50940391Y-49850443D01*
X50803882Y-49900796D01*
X50666324Y-49816777D01*
X50648537Y-49802712D01*
X50448662Y-49723260D01*
X50134405Y-49664841D01*
X49752511Y-49630248D01*
X49349725Y-49622275D01*
X48972789Y-49643716D01*
X48668449Y-49697366D01*
X48557835Y-49733876D01*
X48403120Y-49807688D01*
X48226070Y-49923540D01*
X48007317Y-50097080D01*
X47727490Y-50343958D01*
X47367217Y-50679823D01*
X46907130Y-51120324D01*
X45548456Y-52430549D01*
X45444531Y-51337350D01*
X45438706Y-51276296D01*
X45398223Y-50863712D01*
X45362028Y-50513766D01*
X45333879Y-50261786D01*
X45317531Y-50143097D01*
X45313671Y-50137656D01*
X45227110Y-50173631D01*
X45046443Y-50305320D01*
X44795127Y-50514446D01*
X44496620Y-50782730D01*
X43698783Y-51523417D01*
X44192425Y-52365451D01*
X44507725Y-52893527D01*
X44928984Y-53557301D01*
X45316707Y-54106420D01*
X45691176Y-54565074D01*
X46072673Y-54957454D01*
X46481477Y-55307750D01*
X46937871Y-55640155D01*
X47071283Y-55728565D01*
X47629559Y-56060432D01*
X48240168Y-56374960D01*
X48841952Y-56642219D01*
X49373756Y-56832279D01*
X49647779Y-56904306D01*
X50518294Y-57021975D01*
X51419781Y-56988836D01*
X52326979Y-56809229D01*
X53214625Y-56487492D01*
X54057456Y-56027962D01*
X54095031Y-56003028D01*
X54417457Y-55760283D01*
X54807704Y-55429359D01*
X55228285Y-55045420D01*
X55641711Y-54643630D01*
X56010494Y-54259153D01*
X56297145Y-53927151D01*
X56532051Y-53630818D01*
X56336900Y-53969484D01*
X55937090Y-54598548D01*
X55241961Y-55463858D01*
X54455439Y-56208255D01*
X53591471Y-56822332D01*
X52664000Y-57296685D01*
X51686974Y-57621907D01*
X50674338Y-57788593D01*
X50386102Y-57801877D01*
X49789996Y-57787076D01*
X49136307Y-57729293D01*
X48490771Y-57635145D01*
X47919122Y-57511249D01*
X47443533Y-57355399D01*
X46875977Y-57121131D01*
X46285610Y-56838964D01*
X45729495Y-56536221D01*
X45264694Y-56240224D01*
X44814385Y-55889997D01*
X44242216Y-55371041D01*
X43685068Y-54793887D01*
X43187402Y-54205117D01*
X42793680Y-53651312D01*
X42651273Y-53428251D01*
X42474134Y-53162618D01*
X42343186Y-52980689D01*
X42279557Y-52912810D01*
X42213976Y-52956326D01*
X42048184Y-53095160D01*
X41810481Y-53306760D01*
X41527568Y-53567869D01*
X40827145Y-54224588D01*
X42002467Y-55293089D01*
X42289953Y-55552958D01*
X42704332Y-55925410D01*
X43012135Y-56210363D01*
X43221467Y-56428607D01*
X43340438Y-56600932D01*
X43377152Y-56748130D01*
X43339718Y-56890990D01*
X43236243Y-57050303D01*
X43074833Y-57246860D01*
X42863596Y-57501450D01*
X42828338Y-57545331D01*
X42460182Y-58005645D01*
X42182936Y-58364144D01*
X41982713Y-58648772D01*
X41845630Y-58887474D01*
X41757801Y-59108192D01*
X41705341Y-59338873D01*
X41674366Y-59607459D01*
X41650991Y-59941895D01*
X41634212Y-60225709D01*
X41623778Y-60544217D01*
X41634217Y-60748457D01*
X41668044Y-60871299D01*
X41727773Y-60945619D01*
X41811064Y-61055037D01*
X41776031Y-61217375D01*
X41742969Y-61267800D01*
X41590511Y-61363889D01*
X41426835Y-61345931D01*
X41309212Y-61234047D01*
X41294914Y-61048357D01*
X41297481Y-60899621D01*
X41256687Y-60637258D01*
X41179603Y-60331851D01*
X41163391Y-60278052D01*
X41076442Y-60012859D01*
X41003960Y-59872756D01*
X40920529Y-59824366D01*
X40800736Y-59834316D01*
X40677453Y-59882281D01*
X40536824Y-60030806D01*
X40392124Y-60309322D01*
X40320149Y-60479072D01*
X40209898Y-60766108D01*
X40141066Y-60981147D01*
X40079401Y-61113622D01*
X39936226Y-61197058D01*
X39776663Y-61147974D01*
X39651986Y-60967773D01*
X39638965Y-60930260D01*
X39629092Y-60792015D01*
X39738071Y-60727819D01*
X39790556Y-60705398D01*
X39888754Y-60571156D01*
X39949924Y-60300547D01*
X39988279Y-59979131D01*
X39992879Y-59762006D01*
X39957372Y-59613422D01*
X39877334Y-59483598D01*
X39871228Y-59475603D01*
X39792457Y-59396640D01*
X39685814Y-59365053D01*
X39505453Y-59377129D01*
X39205526Y-59429150D01*
X39197788Y-59430615D01*
X38871893Y-59506607D01*
X38683856Y-59589749D01*
X38602916Y-59693537D01*
X38602762Y-59694019D01*
X38489531Y-59825420D01*
X38315213Y-59842168D01*
X38149029Y-59737549D01*
X38090252Y-59562886D01*
X38172880Y-59397933D01*
X38374308Y-59290267D01*
X38518974Y-59238687D01*
X38777483Y-59120533D01*
X39063469Y-58970453D01*
X39095105Y-58952579D01*
X39363760Y-58781144D01*
X39509083Y-58633919D01*
X39563520Y-58479016D01*
X39568031Y-58405532D01*
X39533164Y-58283450D01*
X39409968Y-58173423D01*
X39164168Y-58037561D01*
X38991117Y-57958881D01*
X38703605Y-57860331D01*
X38481604Y-57821818D01*
X38476579Y-57821811D01*
X38298576Y-57811186D01*
X38224789Y-57786409D01*
X38219830Y-57757735D01*
X38177587Y-57627992D01*
X38179486Y-57519933D01*
X38272981Y-57362387D01*
X38362998Y-57283174D01*
X38458108Y-57276824D01*
X38595350Y-57387180D01*
X38632985Y-57419440D01*
X38757040Y-57489119D01*
X38938281Y-57534092D01*
X39214075Y-57561293D01*
X39621789Y-57577656D01*
X40060823Y-57578625D01*
X40501211Y-57549301D01*
X40807122Y-57488748D01*
X40982730Y-57414202D01*
X41234941Y-57275291D01*
X41494954Y-57108243D01*
X41723585Y-56940233D01*
X41881648Y-56798437D01*
X41929957Y-56710032D01*
X41911874Y-56690725D01*
X41782214Y-56583742D01*
X41544761Y-56399394D01*
X41219330Y-56152765D01*
X40825735Y-55858938D01*
X40383789Y-55532997D01*
X40167097Y-55373239D01*
X39749950Y-55060491D01*
X39393407Y-54786222D01*
X39116654Y-54565573D01*
X38938878Y-54413684D01*
X38879264Y-54345697D01*
X38894804Y-54317935D01*
X38993538Y-54170582D01*
X39170580Y-53917322D01*
X39411500Y-53578518D01*
X39701868Y-53174532D01*
X40027254Y-52725726D01*
X40192006Y-52499223D01*
X40505837Y-52066692D01*
X40779991Y-51687444D01*
X40999431Y-51382354D01*
X41149121Y-51172297D01*
X41214025Y-51078148D01*
X41214734Y-51053854D01*
X41164643Y-50899081D01*
X41049420Y-50627515D01*
X40879623Y-50262198D01*
X40665815Y-49826172D01*
X40418555Y-49342481D01*
X39564830Y-47704151D01*
X39698821Y-45551885D01*
X39729252Y-45048518D01*
X39759509Y-44511674D01*
X39782991Y-44052440D01*
X39798619Y-43693657D01*
X39805314Y-43458165D01*
X39801996Y-43368802D01*
X39793429Y-43372655D01*
X39715122Y-43471332D01*
X39571133Y-43681412D01*
X39378243Y-43977884D01*
X39153233Y-44335735D01*
X39080998Y-44452306D01*
X38863729Y-44802167D01*
X38684804Y-45089141D01*
X38561121Y-45286176D01*
X38509575Y-45366224D01*
X38492134Y-45369075D01*
X38344492Y-45359122D01*
X38072198Y-45328008D01*
X37705546Y-45279395D01*
X37274827Y-45216947D01*
X37122964Y-45194337D01*
X36683556Y-45131778D01*
X36301382Y-45081425D01*
X36013129Y-45047954D01*
X35855479Y-45036040D01*
X35661366Y-45073203D01*
X35380365Y-45173050D01*
X35055866Y-45315278D01*
X34728301Y-45479579D01*
X34438103Y-45645646D01*
X34225705Y-45793174D01*
X34131540Y-45901855D01*
X34081962Y-45996753D01*
X33933957Y-46038483D01*
X33931934Y-46038083D01*
X33817028Y-45958629D01*
X33753651Y-45820028D01*
X33756778Y-45688388D01*
X33841384Y-45629818D01*
X33884514Y-45621520D01*
X34045022Y-45523615D01*
X34232488Y-45350863D01*
X34406828Y-45148056D01*
X34527959Y-44959990D01*
X34555797Y-44831457D01*
X34446483Y-44752305D01*
X34226499Y-44706316D01*
X33952407Y-44696220D01*
X33680513Y-44724063D01*
X33467122Y-44791892D01*
X33342072Y-44827967D01*
X33201872Y-44758283D01*
X33146086Y-44559376D01*
X33146139Y-44554388D01*
X33218325Y-44444638D01*
X33369533Y-44394773D01*
X33515354Y-44433553D01*
X33526418Y-44440720D01*
X33673750Y-44443558D01*
X33890839Y-44373086D01*
X34121518Y-44256966D01*
X34309619Y-44122856D01*
X34398973Y-43998417D01*
X34366000Y-43841823D01*
X34242148Y-43627182D01*
X34068075Y-43410048D01*
X33885299Y-43241966D01*
X33735338Y-43174484D01*
X33651163Y-43166063D01*
X33522699Y-43071304D01*
X33534573Y-42885791D01*
X33571140Y-42809140D01*
X33635072Y-42766808D01*
X33746744Y-42794434D01*
X33936451Y-42901113D01*
X34234488Y-43095942D01*
X34571377Y-43301006D01*
X34821903Y-43396196D01*
X34982114Y-43365508D01*
X35067143Y-43205725D01*
X35092122Y-42913630D01*
X35087306Y-42780032D01*
X35050187Y-42510655D01*
X34988409Y-42328782D01*
X34928711Y-42185948D01*
X34982718Y-42064688D01*
X35009625Y-42041178D01*
X35162527Y-42004162D01*
X35291713Y-42095732D01*
X35346122Y-42284941D01*
X35370044Y-42421353D01*
X35464626Y-42691068D01*
X35607811Y-43013050D01*
X35774462Y-43335954D01*
X35939442Y-43608433D01*
X36077616Y-43779142D01*
X36156410Y-43825529D01*
X36365903Y-43913482D01*
X36655873Y-44017822D01*
X36986398Y-44126133D01*
X37317557Y-44225999D01*
X37609429Y-44305005D01*
X37822092Y-44350734D01*
X37915625Y-44350772D01*
X37968464Y-44281445D01*
X38108203Y-44097978D01*
X38317952Y-43822546D01*
X38581084Y-43476983D01*
X38880973Y-43083122D01*
X39820798Y-41848760D01*
X39695734Y-40890959D01*
X39689343Y-40841853D01*
X39639018Y-40428110D01*
X39614930Y-40137629D01*
X39617277Y-39930311D01*
X39646255Y-39766059D01*
X39702063Y-39604774D01*
X39718321Y-39561882D01*
X39800139Y-39260569D01*
X39833456Y-38981771D01*
X39833507Y-38970891D01*
X39863364Y-38764133D01*
X39939289Y-38687121D01*
X39942705Y-38686662D01*
X40015191Y-38601096D01*
X40128515Y-38388766D01*
X40267824Y-38080113D01*
X40418263Y-37705576D01*
X40509412Y-37472274D01*
X40716344Y-37009004D01*
X40904664Y-36710036D01*
X41085218Y-36575123D01*
X41268852Y-36604023D01*
G37*
%TD*%
M02*
