%TF.GenerationSoftware,KiCad,Pcbnew,8.0.3*%
%TF.CreationDate,2024-09-02T20:29:09+10:00*%
%TF.ProjectId,bottom_plate,626f7474-6f6d-45f7-906c-6174652e6b69,1.0.0*%
%TF.SameCoordinates,Original*%
%TF.FileFunction,Profile,NP*%
%FSLAX46Y46*%
G04 Gerber Fmt 4.6, Leading zero omitted, Abs format (unit mm)*
G04 Created by KiCad (PCBNEW 8.0.3) date 2024-09-02 20:29:09*
%MOMM*%
%LPD*%
G01*
G04 APERTURE LIST*
%TA.AperFunction,Profile*%
%ADD10C,0.100000*%
%TD*%
%ADD11C,0.100000*%
%TA.AperFunction,Profile*%
%ADD12C,0.200000*%
%TD*%
G04 APERTURE END LIST*
D10*
X140118386Y-107102395D02*
G75*
G02*
X139666515Y-107390812I-451886J209795D01*
G01*
D11*
X44722420Y-27792036D02*
X44617900Y-27793006D01*
X44509283Y-27799796D01*
X44409178Y-27815424D01*
X44331840Y-27835640D01*
D10*
X62772420Y-27792036D02*
X62772420Y-26410786D01*
D12*
X140572418Y-68773286D02*
G75*
G02*
X138372418Y-68773286I-1100000J0D01*
G01*
X138372418Y-68773286D02*
G75*
G02*
X140572418Y-68773286I1100000J0D01*
G01*
D11*
X24688862Y-90118703D02*
X24717796Y-90218582D01*
X24758027Y-90315542D01*
D12*
X140572418Y-49723286D02*
G75*
G02*
X138372418Y-49723286I-1100000J0D01*
G01*
X138372418Y-49723286D02*
G75*
G02*
X140572418Y-49723286I1100000J0D01*
G01*
D11*
X158287333Y-30187767D02*
X158185300Y-30176815D01*
X158078521Y-30173429D01*
X158022418Y-30173278D01*
X120922420Y-26410786D02*
X120921449Y-26306266D01*
X120914659Y-26197649D01*
X120899031Y-26097544D01*
X120878816Y-26020206D01*
D12*
X155100000Y-83700000D02*
G75*
G02*
X152900000Y-83700000I-1100000J0D01*
G01*
X152900000Y-83700000D02*
G75*
G02*
X155100000Y-83700000I1100000J0D01*
G01*
D10*
X25672420Y-30173286D02*
X28077418Y-30173286D01*
D12*
X36100000Y-34900000D02*
G75*
G02*
X33900000Y-34900000I-1100000J0D01*
G01*
X33900000Y-34900000D02*
G75*
G02*
X36100000Y-34900000I1100000J0D01*
G01*
D11*
X159022418Y-31173278D02*
X159021447Y-31068759D01*
X159014657Y-30960141D01*
X158999029Y-30860037D01*
X158978814Y-30782699D01*
D10*
X70422418Y-25410786D02*
X81822420Y-25410786D01*
X54289939Y-108922332D02*
X69847416Y-105692661D01*
D11*
X62870720Y-25887671D02*
X62829163Y-25981647D01*
X62800090Y-26078404D01*
X62786909Y-26145871D01*
D10*
X116897416Y-105692661D02*
X69847416Y-105692661D01*
X138622416Y-107392661D02*
X120572416Y-107392661D01*
D11*
X101828816Y-23638956D02*
X101791791Y-23542373D01*
X101742922Y-23451278D01*
X101682059Y-23365225D01*
X101668435Y-23348581D01*
X62786909Y-26145871D02*
X62775957Y-26247903D01*
X62772571Y-26354682D01*
X62772420Y-26410786D01*
X158412999Y-88279682D02*
X158509582Y-88242657D01*
X158600677Y-88193788D01*
X158686730Y-88132925D01*
X158703375Y-88119301D01*
X120187335Y-25425275D02*
X120085302Y-25414323D01*
X119978523Y-25410937D01*
X119922420Y-25410786D01*
D10*
X101872420Y-25410786D02*
X108522416Y-25410786D01*
D11*
X82822420Y-23029536D02*
X82717900Y-23030506D01*
X82609283Y-23037296D01*
X82509178Y-23052924D01*
X82431840Y-23073140D01*
X63381840Y-25454390D02*
X63285257Y-25491414D01*
X63194162Y-25540283D01*
X63108109Y-25601146D01*
X63091465Y-25614771D01*
X36080779Y-115890436D02*
X36123978Y-115985614D01*
X36174159Y-116082184D01*
X36228974Y-116167393D01*
X36278768Y-116229927D01*
X63772420Y-25410786D02*
X63667900Y-25411756D01*
X63559283Y-25418546D01*
X63459178Y-25434174D01*
X63381840Y-25454390D01*
X81920720Y-23506421D02*
X81879163Y-23600397D01*
X81850090Y-23697154D01*
X81836909Y-23764621D01*
X44331840Y-27835640D02*
X44235257Y-27872664D01*
X44144162Y-27921533D01*
X44058109Y-27982396D01*
X44041465Y-27996021D01*
D10*
X108522416Y-25410786D02*
X119922420Y-25410786D01*
X24718655Y-42074749D02*
X24672420Y-89910714D01*
X120922420Y-26410786D02*
X120922420Y-30173285D01*
D11*
X24686909Y-30908371D02*
X24675957Y-31010403D01*
X24672571Y-31117182D01*
X24672420Y-31173286D01*
D10*
X81822420Y-25410786D02*
X81822420Y-24029536D01*
D11*
X25672420Y-30173286D02*
X25567900Y-30174256D01*
X25459283Y-30181046D01*
X25359178Y-30196674D01*
X25281840Y-30216890D01*
X101395535Y-23127836D02*
X101301558Y-23086279D01*
X101204801Y-23057206D01*
X101137335Y-23044025D01*
X43820720Y-28268921D02*
X43779163Y-28362897D01*
X43750090Y-28459654D01*
X43736909Y-28527121D01*
X43736909Y-28527121D02*
X43725957Y-28629153D01*
X43722571Y-28735932D01*
X43722420Y-28792036D01*
D10*
X101872420Y-24029536D02*
X101872420Y-25410786D01*
X43722420Y-30173286D02*
X43722420Y-28792036D01*
X82822420Y-23029536D02*
X100872420Y-23029536D01*
D11*
X24991465Y-30377271D02*
X24916114Y-30447918D01*
X24844983Y-30532018D01*
X24787815Y-30618902D01*
X24770720Y-30650171D01*
D10*
X36080779Y-115890436D02*
X24758027Y-90315542D01*
D11*
X44041465Y-27996021D02*
X43966114Y-28066668D01*
X43894983Y-28150768D01*
X43837815Y-28237652D01*
X43820720Y-28268921D01*
X120878816Y-26020206D02*
X120841791Y-25923623D01*
X120792922Y-25832528D01*
X120732059Y-25746475D01*
X120718435Y-25729831D01*
D10*
X24672420Y-31173286D02*
X24718655Y-42074749D01*
D11*
X24672420Y-89910714D02*
X24674885Y-90015659D01*
X24688862Y-90118703D01*
X158703375Y-88119301D02*
X158778725Y-88048653D01*
X158849856Y-87964553D01*
X158907024Y-87877669D01*
X158924120Y-87846401D01*
D12*
X64372420Y-85442036D02*
G75*
G02*
X62172420Y-85442036I-1100000J0D01*
G01*
X62172420Y-85442036D02*
G75*
G02*
X64372420Y-85442036I1100000J0D01*
G01*
D11*
X158818433Y-30492323D02*
X158747785Y-30416972D01*
X158663685Y-30345841D01*
X158576802Y-30288673D01*
X158545534Y-30271578D01*
X37151898Y-116493997D02*
X37249629Y-116462705D01*
X37348637Y-116422574D01*
X37400000Y-116400000D01*
X81836909Y-23764621D02*
X81825957Y-23866653D01*
X81822571Y-23973432D01*
X81822420Y-24029536D01*
X101137335Y-23044025D02*
X101035302Y-23033073D01*
X100928523Y-23029687D01*
X100872420Y-23029536D01*
X120718435Y-25729831D02*
X120647787Y-25654480D01*
X120563687Y-25583349D01*
X120476803Y-25526181D01*
X120445535Y-25509086D01*
D12*
X155100000Y-35000000D02*
G75*
G02*
X152900000Y-35000000I-1100000J0D01*
G01*
X152900000Y-35000000D02*
G75*
G02*
X155100000Y-35000000I1100000J0D01*
G01*
D11*
X25281840Y-30216890D02*
X25185257Y-30253914D01*
X25094162Y-30302783D01*
X25008109Y-30363646D01*
X24991465Y-30377271D01*
X36881873Y-116521887D02*
X36984628Y-116521842D01*
X37084871Y-116509256D01*
X37151898Y-116493997D01*
X36542971Y-116430517D02*
X36638075Y-116470816D01*
X36743771Y-116501812D01*
X36846360Y-116518913D01*
X36881873Y-116521887D01*
D10*
X63772420Y-25410786D02*
X70422418Y-25410786D01*
D12*
X42100000Y-107900000D02*
G75*
G02*
X39900000Y-107900000I-1100000J0D01*
G01*
X39900000Y-107900000D02*
G75*
G02*
X42100000Y-107900000I1100000J0D01*
G01*
D11*
X24770720Y-30654536D02*
X24726147Y-30753531D01*
X24696603Y-30856358D01*
X24686909Y-30908371D01*
X101668435Y-23348581D02*
X101597787Y-23273230D01*
X101513687Y-23202099D01*
X101426803Y-23144931D01*
X101395535Y-23127836D01*
D10*
X44722420Y-27792036D02*
X62772420Y-27792036D01*
D11*
X101872420Y-24029536D02*
X101871449Y-23925016D01*
X101864659Y-23816399D01*
X101849031Y-23716294D01*
X101828816Y-23638956D01*
D10*
X146524712Y-88634901D02*
X140118386Y-107102394D01*
X159022418Y-31173278D02*
X159022420Y-87323286D01*
X120572416Y-107392661D02*
X116897416Y-105692661D01*
D11*
X82141465Y-23233521D02*
X82066114Y-23304168D01*
X81994983Y-23388268D01*
X81937815Y-23475152D01*
X81920720Y-23506421D01*
X36278768Y-116229927D02*
X36351722Y-116303253D01*
X36433285Y-116366766D01*
X36523774Y-116420813D01*
X36542971Y-116430517D01*
X120445535Y-25509086D02*
X120351558Y-25467529D01*
X120254801Y-25438456D01*
X120187335Y-25425275D01*
X158924120Y-87846401D02*
X158965676Y-87752424D01*
X158994749Y-87655667D01*
X159007931Y-87588201D01*
X158545534Y-30271578D02*
X158451556Y-30230021D01*
X158354799Y-30200948D01*
X158287333Y-30187767D01*
X158978814Y-30782699D02*
X158941789Y-30686115D01*
X158892920Y-30595020D01*
X158832057Y-30508967D01*
X158818433Y-30492323D01*
X82431840Y-23073140D02*
X82335257Y-23110164D01*
X82244162Y-23159033D01*
X82158109Y-23219896D01*
X82141465Y-23233521D01*
D10*
X28077418Y-30173286D02*
X43722420Y-30173286D01*
X146997416Y-88323286D02*
X158022420Y-88323286D01*
X139666515Y-107390833D02*
X138622416Y-107392661D01*
D11*
X159007931Y-87588201D02*
X159018882Y-87486168D01*
X159022268Y-87379389D01*
X159022420Y-87323286D01*
D10*
X120922420Y-30173285D02*
X158022418Y-30173278D01*
D11*
X63091465Y-25614771D02*
X63016114Y-25685418D01*
X62944983Y-25769518D01*
X62887815Y-25856402D01*
X62870720Y-25887671D01*
X158022420Y-88323286D02*
X158126938Y-88322315D01*
X158235556Y-88315525D01*
X158335660Y-88299897D01*
X158412999Y-88279682D01*
D10*
X54289939Y-108922332D02*
X37400000Y-116400000D01*
X146524712Y-88634901D02*
G75*
G02*
X146997416Y-88314420I472788J-188499D01*
G01*
D12*
X64372418Y-46151411D02*
G75*
G02*
X62172418Y-46151411I-1100000J0D01*
G01*
X62172418Y-46151411D02*
G75*
G02*
X64372418Y-46151411I1100000J0D01*
G01*
M02*
