%TF.GenerationSoftware,KiCad,Pcbnew,8.0.3*%
%TF.CreationDate,2024-09-02T20:29:09+10:00*%
%TF.ProjectId,bottom_plate,626f7474-6f6d-45f7-906c-6174652e6b69,1.0.0*%
%TF.SameCoordinates,Original*%
%TF.FileFunction,Copper,L1,Top*%
%TF.FilePolarity,Positive*%
%FSLAX46Y46*%
G04 Gerber Fmt 4.6, Leading zero omitted, Abs format (unit mm)*
G04 Created by KiCad (PCBNEW 8.0.3) date 2024-09-02 20:29:09*
%MOMM*%
%LPD*%
G01*
G04 APERTURE LIST*
%ADD10C,0.350000*%
%TA.AperFunction,NonConductor*%
%ADD11C,0.350000*%
%TD*%
%ADD12C,0.200000*%
%TA.AperFunction,NonConductor*%
%ADD13C,0.200000*%
%TD*%
%ADD14C,0.300000*%
%TA.AperFunction,NonConductor*%
%ADD15C,0.300000*%
%TD*%
G04 APERTURE END LIST*
D10*
D11*
X68201691Y-43047228D02*
X68030263Y-42961514D01*
X68030263Y-42961514D02*
X67773120Y-42961514D01*
X67773120Y-42961514D02*
X67515977Y-43047228D01*
X67515977Y-43047228D02*
X67344548Y-43218657D01*
X67344548Y-43218657D02*
X67258834Y-43390085D01*
X67258834Y-43390085D02*
X67173120Y-43732942D01*
X67173120Y-43732942D02*
X67173120Y-43990085D01*
X67173120Y-43990085D02*
X67258834Y-44332942D01*
X67258834Y-44332942D02*
X67344548Y-44504371D01*
X67344548Y-44504371D02*
X67515977Y-44675800D01*
X67515977Y-44675800D02*
X67773120Y-44761514D01*
X67773120Y-44761514D02*
X67944548Y-44761514D01*
X67944548Y-44761514D02*
X68201691Y-44675800D01*
X68201691Y-44675800D02*
X68287405Y-44590085D01*
X68287405Y-44590085D02*
X68287405Y-43990085D01*
X68287405Y-43990085D02*
X67944548Y-43990085D01*
X69744548Y-44675800D02*
X69573120Y-44761514D01*
X69573120Y-44761514D02*
X69230263Y-44761514D01*
X69230263Y-44761514D02*
X69058834Y-44675800D01*
X69058834Y-44675800D02*
X68973120Y-44504371D01*
X68973120Y-44504371D02*
X68973120Y-43818657D01*
X68973120Y-43818657D02*
X69058834Y-43647228D01*
X69058834Y-43647228D02*
X69230263Y-43561514D01*
X69230263Y-43561514D02*
X69573120Y-43561514D01*
X69573120Y-43561514D02*
X69744548Y-43647228D01*
X69744548Y-43647228D02*
X69830263Y-43818657D01*
X69830263Y-43818657D02*
X69830263Y-43990085D01*
X69830263Y-43990085D02*
X68973120Y-44161514D01*
X71373120Y-44675800D02*
X71201691Y-44761514D01*
X71201691Y-44761514D02*
X70858834Y-44761514D01*
X70858834Y-44761514D02*
X70687405Y-44675800D01*
X70687405Y-44675800D02*
X70601691Y-44590085D01*
X70601691Y-44590085D02*
X70515977Y-44418657D01*
X70515977Y-44418657D02*
X70515977Y-43904371D01*
X70515977Y-43904371D02*
X70601691Y-43732942D01*
X70601691Y-43732942D02*
X70687405Y-43647228D01*
X70687405Y-43647228D02*
X70858834Y-43561514D01*
X70858834Y-43561514D02*
X71201691Y-43561514D01*
X71201691Y-43561514D02*
X71373120Y-43647228D01*
X72144548Y-44761514D02*
X72144548Y-42961514D01*
X72315977Y-44075800D02*
X72830262Y-44761514D01*
X72830262Y-43561514D02*
X72144548Y-44247228D01*
X73858834Y-44761514D02*
X73687405Y-44675800D01*
X73687405Y-44675800D02*
X73601691Y-44590085D01*
X73601691Y-44590085D02*
X73515977Y-44418657D01*
X73515977Y-44418657D02*
X73515977Y-43904371D01*
X73515977Y-43904371D02*
X73601691Y-43732942D01*
X73601691Y-43732942D02*
X73687405Y-43647228D01*
X73687405Y-43647228D02*
X73858834Y-43561514D01*
X73858834Y-43561514D02*
X74115977Y-43561514D01*
X74115977Y-43561514D02*
X74287405Y-43647228D01*
X74287405Y-43647228D02*
X74373120Y-43732942D01*
X74373120Y-43732942D02*
X74458834Y-43904371D01*
X74458834Y-43904371D02*
X74458834Y-44418657D01*
X74458834Y-44418657D02*
X74373120Y-44590085D01*
X74373120Y-44590085D02*
X74287405Y-44675800D01*
X74287405Y-44675800D02*
X74115977Y-44761514D01*
X74115977Y-44761514D02*
X73858834Y-44761514D01*
X76601691Y-44761514D02*
X76601691Y-42961514D01*
X77630262Y-44761514D02*
X76858834Y-43732942D01*
X77630262Y-42961514D02*
X76601691Y-43990085D01*
X79087405Y-44675800D02*
X78915977Y-44761514D01*
X78915977Y-44761514D02*
X78573120Y-44761514D01*
X78573120Y-44761514D02*
X78401691Y-44675800D01*
X78401691Y-44675800D02*
X78315977Y-44504371D01*
X78315977Y-44504371D02*
X78315977Y-43818657D01*
X78315977Y-43818657D02*
X78401691Y-43647228D01*
X78401691Y-43647228D02*
X78573120Y-43561514D01*
X78573120Y-43561514D02*
X78915977Y-43561514D01*
X78915977Y-43561514D02*
X79087405Y-43647228D01*
X79087405Y-43647228D02*
X79173120Y-43818657D01*
X79173120Y-43818657D02*
X79173120Y-43990085D01*
X79173120Y-43990085D02*
X78315977Y-44161514D01*
X79773119Y-43561514D02*
X80201691Y-44761514D01*
X80630262Y-43561514D02*
X80201691Y-44761514D01*
X80201691Y-44761514D02*
X80030262Y-45190085D01*
X80030262Y-45190085D02*
X79944548Y-45275800D01*
X79944548Y-45275800D02*
X79773119Y-45361514D01*
X81315977Y-44761514D02*
X81315977Y-42961514D01*
X81315977Y-43647228D02*
X81487406Y-43561514D01*
X81487406Y-43561514D02*
X81830263Y-43561514D01*
X81830263Y-43561514D02*
X82001691Y-43647228D01*
X82001691Y-43647228D02*
X82087406Y-43732942D01*
X82087406Y-43732942D02*
X82173120Y-43904371D01*
X82173120Y-43904371D02*
X82173120Y-44418657D01*
X82173120Y-44418657D02*
X82087406Y-44590085D01*
X82087406Y-44590085D02*
X82001691Y-44675800D01*
X82001691Y-44675800D02*
X81830263Y-44761514D01*
X81830263Y-44761514D02*
X81487406Y-44761514D01*
X81487406Y-44761514D02*
X81315977Y-44675800D01*
X83201691Y-44761514D02*
X83030262Y-44675800D01*
X83030262Y-44675800D02*
X82944548Y-44590085D01*
X82944548Y-44590085D02*
X82858834Y-44418657D01*
X82858834Y-44418657D02*
X82858834Y-43904371D01*
X82858834Y-43904371D02*
X82944548Y-43732942D01*
X82944548Y-43732942D02*
X83030262Y-43647228D01*
X83030262Y-43647228D02*
X83201691Y-43561514D01*
X83201691Y-43561514D02*
X83458834Y-43561514D01*
X83458834Y-43561514D02*
X83630262Y-43647228D01*
X83630262Y-43647228D02*
X83715977Y-43732942D01*
X83715977Y-43732942D02*
X83801691Y-43904371D01*
X83801691Y-43904371D02*
X83801691Y-44418657D01*
X83801691Y-44418657D02*
X83715977Y-44590085D01*
X83715977Y-44590085D02*
X83630262Y-44675800D01*
X83630262Y-44675800D02*
X83458834Y-44761514D01*
X83458834Y-44761514D02*
X83201691Y-44761514D01*
X85344548Y-44761514D02*
X85344548Y-43818657D01*
X85344548Y-43818657D02*
X85258833Y-43647228D01*
X85258833Y-43647228D02*
X85087405Y-43561514D01*
X85087405Y-43561514D02*
X84744548Y-43561514D01*
X84744548Y-43561514D02*
X84573119Y-43647228D01*
X85344548Y-44675800D02*
X85173119Y-44761514D01*
X85173119Y-44761514D02*
X84744548Y-44761514D01*
X84744548Y-44761514D02*
X84573119Y-44675800D01*
X84573119Y-44675800D02*
X84487405Y-44504371D01*
X84487405Y-44504371D02*
X84487405Y-44332942D01*
X84487405Y-44332942D02*
X84573119Y-44161514D01*
X84573119Y-44161514D02*
X84744548Y-44075800D01*
X84744548Y-44075800D02*
X85173119Y-44075800D01*
X85173119Y-44075800D02*
X85344548Y-43990085D01*
X86201690Y-44761514D02*
X86201690Y-43561514D01*
X86201690Y-43904371D02*
X86287404Y-43732942D01*
X86287404Y-43732942D02*
X86373119Y-43647228D01*
X86373119Y-43647228D02*
X86544547Y-43561514D01*
X86544547Y-43561514D02*
X86715976Y-43561514D01*
X88087405Y-44761514D02*
X88087405Y-42961514D01*
X88087405Y-44675800D02*
X87915976Y-44761514D01*
X87915976Y-44761514D02*
X87573119Y-44761514D01*
X87573119Y-44761514D02*
X87401690Y-44675800D01*
X87401690Y-44675800D02*
X87315976Y-44590085D01*
X87315976Y-44590085D02*
X87230262Y-44418657D01*
X87230262Y-44418657D02*
X87230262Y-43904371D01*
X87230262Y-43904371D02*
X87315976Y-43732942D01*
X87315976Y-43732942D02*
X87401690Y-43647228D01*
X87401690Y-43647228D02*
X87573119Y-43561514D01*
X87573119Y-43561514D02*
X87915976Y-43561514D01*
X87915976Y-43561514D02*
X88087405Y-43647228D01*
D12*
D13*
X67288720Y-47391112D02*
X67288720Y-45891112D01*
X67288720Y-45891112D02*
X67645863Y-45891112D01*
X67645863Y-45891112D02*
X67860149Y-45962541D01*
X67860149Y-45962541D02*
X68003006Y-46105398D01*
X68003006Y-46105398D02*
X68074435Y-46248255D01*
X68074435Y-46248255D02*
X68145863Y-46533969D01*
X68145863Y-46533969D02*
X68145863Y-46748255D01*
X68145863Y-46748255D02*
X68074435Y-47033969D01*
X68074435Y-47033969D02*
X68003006Y-47176826D01*
X68003006Y-47176826D02*
X67860149Y-47319684D01*
X67860149Y-47319684D02*
X67645863Y-47391112D01*
X67645863Y-47391112D02*
X67288720Y-47391112D01*
X69431578Y-47391112D02*
X69431578Y-46605398D01*
X69431578Y-46605398D02*
X69360149Y-46462541D01*
X69360149Y-46462541D02*
X69217292Y-46391112D01*
X69217292Y-46391112D02*
X68931578Y-46391112D01*
X68931578Y-46391112D02*
X68788720Y-46462541D01*
X69431578Y-47319684D02*
X69288720Y-47391112D01*
X69288720Y-47391112D02*
X68931578Y-47391112D01*
X68931578Y-47391112D02*
X68788720Y-47319684D01*
X68788720Y-47319684D02*
X68717292Y-47176826D01*
X68717292Y-47176826D02*
X68717292Y-47033969D01*
X68717292Y-47033969D02*
X68788720Y-46891112D01*
X68788720Y-46891112D02*
X68931578Y-46819684D01*
X68931578Y-46819684D02*
X69288720Y-46819684D01*
X69288720Y-46819684D02*
X69431578Y-46748255D01*
X70145863Y-46391112D02*
X70145863Y-47391112D01*
X70145863Y-46533969D02*
X70217292Y-46462541D01*
X70217292Y-46462541D02*
X70360149Y-46391112D01*
X70360149Y-46391112D02*
X70574435Y-46391112D01*
X70574435Y-46391112D02*
X70717292Y-46462541D01*
X70717292Y-46462541D02*
X70788721Y-46605398D01*
X70788721Y-46605398D02*
X70788721Y-47391112D01*
X72074435Y-47319684D02*
X71931578Y-47391112D01*
X71931578Y-47391112D02*
X71645864Y-47391112D01*
X71645864Y-47391112D02*
X71503006Y-47319684D01*
X71503006Y-47319684D02*
X71431578Y-47176826D01*
X71431578Y-47176826D02*
X71431578Y-46605398D01*
X71431578Y-46605398D02*
X71503006Y-46462541D01*
X71503006Y-46462541D02*
X71645864Y-46391112D01*
X71645864Y-46391112D02*
X71931578Y-46391112D01*
X71931578Y-46391112D02*
X72074435Y-46462541D01*
X72074435Y-46462541D02*
X72145864Y-46605398D01*
X72145864Y-46605398D02*
X72145864Y-46748255D01*
X72145864Y-46748255D02*
X71431578Y-46891112D01*
X73931577Y-46605398D02*
X74431577Y-46605398D01*
X74645863Y-47391112D02*
X73931577Y-47391112D01*
X73931577Y-47391112D02*
X73931577Y-45891112D01*
X73931577Y-45891112D02*
X74645863Y-45891112D01*
X75145863Y-46391112D02*
X75503006Y-47391112D01*
X75503006Y-47391112D02*
X75860149Y-46391112D01*
X77074435Y-47391112D02*
X77074435Y-46605398D01*
X77074435Y-46605398D02*
X77003006Y-46462541D01*
X77003006Y-46462541D02*
X76860149Y-46391112D01*
X76860149Y-46391112D02*
X76574435Y-46391112D01*
X76574435Y-46391112D02*
X76431577Y-46462541D01*
X77074435Y-47319684D02*
X76931577Y-47391112D01*
X76931577Y-47391112D02*
X76574435Y-47391112D01*
X76574435Y-47391112D02*
X76431577Y-47319684D01*
X76431577Y-47319684D02*
X76360149Y-47176826D01*
X76360149Y-47176826D02*
X76360149Y-47033969D01*
X76360149Y-47033969D02*
X76431577Y-46891112D01*
X76431577Y-46891112D02*
X76574435Y-46819684D01*
X76574435Y-46819684D02*
X76931577Y-46819684D01*
X76931577Y-46819684D02*
X77074435Y-46748255D01*
X77788720Y-46391112D02*
X77788720Y-47391112D01*
X77788720Y-46533969D02*
X77860149Y-46462541D01*
X77860149Y-46462541D02*
X78003006Y-46391112D01*
X78003006Y-46391112D02*
X78217292Y-46391112D01*
X78217292Y-46391112D02*
X78360149Y-46462541D01*
X78360149Y-46462541D02*
X78431578Y-46605398D01*
X78431578Y-46605398D02*
X78431578Y-47391112D01*
X79074435Y-47319684D02*
X79217292Y-47391112D01*
X79217292Y-47391112D02*
X79503006Y-47391112D01*
X79503006Y-47391112D02*
X79645863Y-47319684D01*
X79645863Y-47319684D02*
X79717292Y-47176826D01*
X79717292Y-47176826D02*
X79717292Y-47105398D01*
X79717292Y-47105398D02*
X79645863Y-46962541D01*
X79645863Y-46962541D02*
X79503006Y-46891112D01*
X79503006Y-46891112D02*
X79288721Y-46891112D01*
X79288721Y-46891112D02*
X79145863Y-46819684D01*
X79145863Y-46819684D02*
X79074435Y-46676826D01*
X79074435Y-46676826D02*
X79074435Y-46605398D01*
X79074435Y-46605398D02*
X79145863Y-46462541D01*
X79145863Y-46462541D02*
X79288721Y-46391112D01*
X79288721Y-46391112D02*
X79503006Y-46391112D01*
X79503006Y-46391112D02*
X79645863Y-46462541D01*
X67288720Y-49806028D02*
X67288720Y-48306028D01*
X67931578Y-49806028D02*
X67931578Y-49020314D01*
X67931578Y-49020314D02*
X67860149Y-48877457D01*
X67860149Y-48877457D02*
X67717292Y-48806028D01*
X67717292Y-48806028D02*
X67503006Y-48806028D01*
X67503006Y-48806028D02*
X67360149Y-48877457D01*
X67360149Y-48877457D02*
X67288720Y-48948885D01*
X68431578Y-48806028D02*
X69003006Y-48806028D01*
X68645863Y-48306028D02*
X68645863Y-49591742D01*
X68645863Y-49591742D02*
X68717292Y-49734600D01*
X68717292Y-49734600D02*
X68860149Y-49806028D01*
X68860149Y-49806028D02*
X69003006Y-49806028D01*
X69288721Y-48806028D02*
X69860149Y-48806028D01*
X69503006Y-48306028D02*
X69503006Y-49591742D01*
X69503006Y-49591742D02*
X69574435Y-49734600D01*
X69574435Y-49734600D02*
X69717292Y-49806028D01*
X69717292Y-49806028D02*
X69860149Y-49806028D01*
X70360149Y-48806028D02*
X70360149Y-50306028D01*
X70360149Y-48877457D02*
X70503007Y-48806028D01*
X70503007Y-48806028D02*
X70788721Y-48806028D01*
X70788721Y-48806028D02*
X70931578Y-48877457D01*
X70931578Y-48877457D02*
X71003007Y-48948885D01*
X71003007Y-48948885D02*
X71074435Y-49091742D01*
X71074435Y-49091742D02*
X71074435Y-49520314D01*
X71074435Y-49520314D02*
X71003007Y-49663171D01*
X71003007Y-49663171D02*
X70931578Y-49734600D01*
X70931578Y-49734600D02*
X70788721Y-49806028D01*
X70788721Y-49806028D02*
X70503007Y-49806028D01*
X70503007Y-49806028D02*
X70360149Y-49734600D01*
X71645864Y-49734600D02*
X71788721Y-49806028D01*
X71788721Y-49806028D02*
X72074435Y-49806028D01*
X72074435Y-49806028D02*
X72217292Y-49734600D01*
X72217292Y-49734600D02*
X72288721Y-49591742D01*
X72288721Y-49591742D02*
X72288721Y-49520314D01*
X72288721Y-49520314D02*
X72217292Y-49377457D01*
X72217292Y-49377457D02*
X72074435Y-49306028D01*
X72074435Y-49306028D02*
X71860150Y-49306028D01*
X71860150Y-49306028D02*
X71717292Y-49234600D01*
X71717292Y-49234600D02*
X71645864Y-49091742D01*
X71645864Y-49091742D02*
X71645864Y-49020314D01*
X71645864Y-49020314D02*
X71717292Y-48877457D01*
X71717292Y-48877457D02*
X71860150Y-48806028D01*
X71860150Y-48806028D02*
X72074435Y-48806028D01*
X72074435Y-48806028D02*
X72217292Y-48877457D01*
X72931578Y-49663171D02*
X73003007Y-49734600D01*
X73003007Y-49734600D02*
X72931578Y-49806028D01*
X72931578Y-49806028D02*
X72860150Y-49734600D01*
X72860150Y-49734600D02*
X72931578Y-49663171D01*
X72931578Y-49663171D02*
X72931578Y-49806028D01*
X72931578Y-48877457D02*
X73003007Y-48948885D01*
X73003007Y-48948885D02*
X72931578Y-49020314D01*
X72931578Y-49020314D02*
X72860150Y-48948885D01*
X72860150Y-48948885D02*
X72931578Y-48877457D01*
X72931578Y-48877457D02*
X72931578Y-49020314D01*
X74717293Y-48234600D02*
X73431579Y-50163171D01*
X76288722Y-48234600D02*
X75003008Y-50163171D01*
X77431580Y-48806028D02*
X77431580Y-50020314D01*
X77431580Y-50020314D02*
X77360151Y-50163171D01*
X77360151Y-50163171D02*
X77288722Y-50234600D01*
X77288722Y-50234600D02*
X77145865Y-50306028D01*
X77145865Y-50306028D02*
X76931580Y-50306028D01*
X76931580Y-50306028D02*
X76788722Y-50234600D01*
X77431580Y-49734600D02*
X77288722Y-49806028D01*
X77288722Y-49806028D02*
X77003008Y-49806028D01*
X77003008Y-49806028D02*
X76860151Y-49734600D01*
X76860151Y-49734600D02*
X76788722Y-49663171D01*
X76788722Y-49663171D02*
X76717294Y-49520314D01*
X76717294Y-49520314D02*
X76717294Y-49091742D01*
X76717294Y-49091742D02*
X76788722Y-48948885D01*
X76788722Y-48948885D02*
X76860151Y-48877457D01*
X76860151Y-48877457D02*
X77003008Y-48806028D01*
X77003008Y-48806028D02*
X77288722Y-48806028D01*
X77288722Y-48806028D02*
X77431580Y-48877457D01*
X78145865Y-49806028D02*
X78145865Y-48806028D01*
X78145865Y-48306028D02*
X78074437Y-48377457D01*
X78074437Y-48377457D02*
X78145865Y-48448885D01*
X78145865Y-48448885D02*
X78217294Y-48377457D01*
X78217294Y-48377457D02*
X78145865Y-48306028D01*
X78145865Y-48306028D02*
X78145865Y-48448885D01*
X78645866Y-48806028D02*
X79217294Y-48806028D01*
X78860151Y-48306028D02*
X78860151Y-49591742D01*
X78860151Y-49591742D02*
X78931580Y-49734600D01*
X78931580Y-49734600D02*
X79074437Y-49806028D01*
X79074437Y-49806028D02*
X79217294Y-49806028D01*
X79717294Y-49806028D02*
X79717294Y-48306028D01*
X80360152Y-49806028D02*
X80360152Y-49020314D01*
X80360152Y-49020314D02*
X80288723Y-48877457D01*
X80288723Y-48877457D02*
X80145866Y-48806028D01*
X80145866Y-48806028D02*
X79931580Y-48806028D01*
X79931580Y-48806028D02*
X79788723Y-48877457D01*
X79788723Y-48877457D02*
X79717294Y-48948885D01*
X81717295Y-48806028D02*
X81717295Y-49806028D01*
X81074437Y-48806028D02*
X81074437Y-49591742D01*
X81074437Y-49591742D02*
X81145866Y-49734600D01*
X81145866Y-49734600D02*
X81288723Y-49806028D01*
X81288723Y-49806028D02*
X81503009Y-49806028D01*
X81503009Y-49806028D02*
X81645866Y-49734600D01*
X81645866Y-49734600D02*
X81717295Y-49663171D01*
X82431580Y-49806028D02*
X82431580Y-48306028D01*
X82431580Y-48877457D02*
X82574438Y-48806028D01*
X82574438Y-48806028D02*
X82860152Y-48806028D01*
X82860152Y-48806028D02*
X83003009Y-48877457D01*
X83003009Y-48877457D02*
X83074438Y-48948885D01*
X83074438Y-48948885D02*
X83145866Y-49091742D01*
X83145866Y-49091742D02*
X83145866Y-49520314D01*
X83145866Y-49520314D02*
X83074438Y-49663171D01*
X83074438Y-49663171D02*
X83003009Y-49734600D01*
X83003009Y-49734600D02*
X82860152Y-49806028D01*
X82860152Y-49806028D02*
X82574438Y-49806028D01*
X82574438Y-49806028D02*
X82431580Y-49734600D01*
X83788723Y-49663171D02*
X83860152Y-49734600D01*
X83860152Y-49734600D02*
X83788723Y-49806028D01*
X83788723Y-49806028D02*
X83717295Y-49734600D01*
X83717295Y-49734600D02*
X83788723Y-49663171D01*
X83788723Y-49663171D02*
X83788723Y-49806028D01*
X85145867Y-49734600D02*
X85003009Y-49806028D01*
X85003009Y-49806028D02*
X84717295Y-49806028D01*
X84717295Y-49806028D02*
X84574438Y-49734600D01*
X84574438Y-49734600D02*
X84503009Y-49663171D01*
X84503009Y-49663171D02*
X84431581Y-49520314D01*
X84431581Y-49520314D02*
X84431581Y-49091742D01*
X84431581Y-49091742D02*
X84503009Y-48948885D01*
X84503009Y-48948885D02*
X84574438Y-48877457D01*
X84574438Y-48877457D02*
X84717295Y-48806028D01*
X84717295Y-48806028D02*
X85003009Y-48806028D01*
X85003009Y-48806028D02*
X85145867Y-48877457D01*
X86003009Y-49806028D02*
X85860152Y-49734600D01*
X85860152Y-49734600D02*
X85788723Y-49663171D01*
X85788723Y-49663171D02*
X85717295Y-49520314D01*
X85717295Y-49520314D02*
X85717295Y-49091742D01*
X85717295Y-49091742D02*
X85788723Y-48948885D01*
X85788723Y-48948885D02*
X85860152Y-48877457D01*
X85860152Y-48877457D02*
X86003009Y-48806028D01*
X86003009Y-48806028D02*
X86217295Y-48806028D01*
X86217295Y-48806028D02*
X86360152Y-48877457D01*
X86360152Y-48877457D02*
X86431581Y-48948885D01*
X86431581Y-48948885D02*
X86503009Y-49091742D01*
X86503009Y-49091742D02*
X86503009Y-49520314D01*
X86503009Y-49520314D02*
X86431581Y-49663171D01*
X86431581Y-49663171D02*
X86360152Y-49734600D01*
X86360152Y-49734600D02*
X86217295Y-49806028D01*
X86217295Y-49806028D02*
X86003009Y-49806028D01*
X87145866Y-49806028D02*
X87145866Y-48806028D01*
X87145866Y-48948885D02*
X87217295Y-48877457D01*
X87217295Y-48877457D02*
X87360152Y-48806028D01*
X87360152Y-48806028D02*
X87574438Y-48806028D01*
X87574438Y-48806028D02*
X87717295Y-48877457D01*
X87717295Y-48877457D02*
X87788724Y-49020314D01*
X87788724Y-49020314D02*
X87788724Y-49806028D01*
X87788724Y-49020314D02*
X87860152Y-48877457D01*
X87860152Y-48877457D02*
X88003009Y-48806028D01*
X88003009Y-48806028D02*
X88217295Y-48806028D01*
X88217295Y-48806028D02*
X88360152Y-48877457D01*
X88360152Y-48877457D02*
X88431581Y-49020314D01*
X88431581Y-49020314D02*
X88431581Y-49806028D01*
X90217295Y-48234600D02*
X88931581Y-50163171D01*
X90717295Y-49806028D02*
X90717295Y-48306028D01*
X90717295Y-48306028D02*
X91074438Y-48306028D01*
X91074438Y-48306028D02*
X91288724Y-48377457D01*
X91288724Y-48377457D02*
X91431581Y-48520314D01*
X91431581Y-48520314D02*
X91503010Y-48663171D01*
X91503010Y-48663171D02*
X91574438Y-48948885D01*
X91574438Y-48948885D02*
X91574438Y-49163171D01*
X91574438Y-49163171D02*
X91503010Y-49448885D01*
X91503010Y-49448885D02*
X91431581Y-49591742D01*
X91431581Y-49591742D02*
X91288724Y-49734600D01*
X91288724Y-49734600D02*
X91074438Y-49806028D01*
X91074438Y-49806028D02*
X90717295Y-49806028D01*
X92860153Y-49806028D02*
X92860153Y-49020314D01*
X92860153Y-49020314D02*
X92788724Y-48877457D01*
X92788724Y-48877457D02*
X92645867Y-48806028D01*
X92645867Y-48806028D02*
X92360153Y-48806028D01*
X92360153Y-48806028D02*
X92217295Y-48877457D01*
X92860153Y-49734600D02*
X92717295Y-49806028D01*
X92717295Y-49806028D02*
X92360153Y-49806028D01*
X92360153Y-49806028D02*
X92217295Y-49734600D01*
X92217295Y-49734600D02*
X92145867Y-49591742D01*
X92145867Y-49591742D02*
X92145867Y-49448885D01*
X92145867Y-49448885D02*
X92217295Y-49306028D01*
X92217295Y-49306028D02*
X92360153Y-49234600D01*
X92360153Y-49234600D02*
X92717295Y-49234600D01*
X92717295Y-49234600D02*
X92860153Y-49163171D01*
X93574438Y-48806028D02*
X93574438Y-49806028D01*
X93574438Y-48948885D02*
X93645867Y-48877457D01*
X93645867Y-48877457D02*
X93788724Y-48806028D01*
X93788724Y-48806028D02*
X94003010Y-48806028D01*
X94003010Y-48806028D02*
X94145867Y-48877457D01*
X94145867Y-48877457D02*
X94217296Y-49020314D01*
X94217296Y-49020314D02*
X94217296Y-49806028D01*
X95503010Y-49734600D02*
X95360153Y-49806028D01*
X95360153Y-49806028D02*
X95074439Y-49806028D01*
X95074439Y-49806028D02*
X94931581Y-49734600D01*
X94931581Y-49734600D02*
X94860153Y-49591742D01*
X94860153Y-49591742D02*
X94860153Y-49020314D01*
X94860153Y-49020314D02*
X94931581Y-48877457D01*
X94931581Y-48877457D02*
X95074439Y-48806028D01*
X95074439Y-48806028D02*
X95360153Y-48806028D01*
X95360153Y-48806028D02*
X95503010Y-48877457D01*
X95503010Y-48877457D02*
X95574439Y-49020314D01*
X95574439Y-49020314D02*
X95574439Y-49163171D01*
X95574439Y-49163171D02*
X94860153Y-49306028D01*
X96217295Y-49020314D02*
X96717295Y-49020314D01*
X96931581Y-49806028D02*
X96217295Y-49806028D01*
X96217295Y-49806028D02*
X96217295Y-48306028D01*
X96217295Y-48306028D02*
X96931581Y-48306028D01*
X97431581Y-48806028D02*
X97788724Y-49806028D01*
X97788724Y-49806028D02*
X98145867Y-48806028D01*
X99360153Y-49806028D02*
X99360153Y-49020314D01*
X99360153Y-49020314D02*
X99288724Y-48877457D01*
X99288724Y-48877457D02*
X99145867Y-48806028D01*
X99145867Y-48806028D02*
X98860153Y-48806028D01*
X98860153Y-48806028D02*
X98717295Y-48877457D01*
X99360153Y-49734600D02*
X99217295Y-49806028D01*
X99217295Y-49806028D02*
X98860153Y-49806028D01*
X98860153Y-49806028D02*
X98717295Y-49734600D01*
X98717295Y-49734600D02*
X98645867Y-49591742D01*
X98645867Y-49591742D02*
X98645867Y-49448885D01*
X98645867Y-49448885D02*
X98717295Y-49306028D01*
X98717295Y-49306028D02*
X98860153Y-49234600D01*
X98860153Y-49234600D02*
X99217295Y-49234600D01*
X99217295Y-49234600D02*
X99360153Y-49163171D01*
X100074438Y-48806028D02*
X100074438Y-49806028D01*
X100074438Y-48948885D02*
X100145867Y-48877457D01*
X100145867Y-48877457D02*
X100288724Y-48806028D01*
X100288724Y-48806028D02*
X100503010Y-48806028D01*
X100503010Y-48806028D02*
X100645867Y-48877457D01*
X100645867Y-48877457D02*
X100717296Y-49020314D01*
X100717296Y-49020314D02*
X100717296Y-49806028D01*
X101360153Y-49734600D02*
X101503010Y-49806028D01*
X101503010Y-49806028D02*
X101788724Y-49806028D01*
X101788724Y-49806028D02*
X101931581Y-49734600D01*
X101931581Y-49734600D02*
X102003010Y-49591742D01*
X102003010Y-49591742D02*
X102003010Y-49520314D01*
X102003010Y-49520314D02*
X101931581Y-49377457D01*
X101931581Y-49377457D02*
X101788724Y-49306028D01*
X101788724Y-49306028D02*
X101574439Y-49306028D01*
X101574439Y-49306028D02*
X101431581Y-49234600D01*
X101431581Y-49234600D02*
X101360153Y-49091742D01*
X101360153Y-49091742D02*
X101360153Y-49020314D01*
X101360153Y-49020314D02*
X101431581Y-48877457D01*
X101431581Y-48877457D02*
X101574439Y-48806028D01*
X101574439Y-48806028D02*
X101788724Y-48806028D01*
X101788724Y-48806028D02*
X101931581Y-48877457D01*
X103717296Y-48234600D02*
X102431582Y-50163171D01*
X104860154Y-48806028D02*
X104860154Y-50020314D01*
X104860154Y-50020314D02*
X104788725Y-50163171D01*
X104788725Y-50163171D02*
X104717296Y-50234600D01*
X104717296Y-50234600D02*
X104574439Y-50306028D01*
X104574439Y-50306028D02*
X104360154Y-50306028D01*
X104360154Y-50306028D02*
X104217296Y-50234600D01*
X104860154Y-49734600D02*
X104717296Y-49806028D01*
X104717296Y-49806028D02*
X104431582Y-49806028D01*
X104431582Y-49806028D02*
X104288725Y-49734600D01*
X104288725Y-49734600D02*
X104217296Y-49663171D01*
X104217296Y-49663171D02*
X104145868Y-49520314D01*
X104145868Y-49520314D02*
X104145868Y-49091742D01*
X104145868Y-49091742D02*
X104217296Y-48948885D01*
X104217296Y-48948885D02*
X104288725Y-48877457D01*
X104288725Y-48877457D02*
X104431582Y-48806028D01*
X104431582Y-48806028D02*
X104717296Y-48806028D01*
X104717296Y-48806028D02*
X104860154Y-48877457D01*
X106145868Y-49734600D02*
X106003011Y-49806028D01*
X106003011Y-49806028D02*
X105717297Y-49806028D01*
X105717297Y-49806028D02*
X105574439Y-49734600D01*
X105574439Y-49734600D02*
X105503011Y-49591742D01*
X105503011Y-49591742D02*
X105503011Y-49020314D01*
X105503011Y-49020314D02*
X105574439Y-48877457D01*
X105574439Y-48877457D02*
X105717297Y-48806028D01*
X105717297Y-48806028D02*
X106003011Y-48806028D01*
X106003011Y-48806028D02*
X106145868Y-48877457D01*
X106145868Y-48877457D02*
X106217297Y-49020314D01*
X106217297Y-49020314D02*
X106217297Y-49163171D01*
X106217297Y-49163171D02*
X105503011Y-49306028D01*
X107503011Y-49734600D02*
X107360153Y-49806028D01*
X107360153Y-49806028D02*
X107074439Y-49806028D01*
X107074439Y-49806028D02*
X106931582Y-49734600D01*
X106931582Y-49734600D02*
X106860153Y-49663171D01*
X106860153Y-49663171D02*
X106788725Y-49520314D01*
X106788725Y-49520314D02*
X106788725Y-49091742D01*
X106788725Y-49091742D02*
X106860153Y-48948885D01*
X106860153Y-48948885D02*
X106931582Y-48877457D01*
X106931582Y-48877457D02*
X107074439Y-48806028D01*
X107074439Y-48806028D02*
X107360153Y-48806028D01*
X107360153Y-48806028D02*
X107503011Y-48877457D01*
X108145867Y-49806028D02*
X108145867Y-48306028D01*
X108288725Y-49234600D02*
X108717296Y-49806028D01*
X108717296Y-48806028D02*
X108145867Y-49377457D01*
X109574439Y-49806028D02*
X109431582Y-49734600D01*
X109431582Y-49734600D02*
X109360153Y-49663171D01*
X109360153Y-49663171D02*
X109288725Y-49520314D01*
X109288725Y-49520314D02*
X109288725Y-49091742D01*
X109288725Y-49091742D02*
X109360153Y-48948885D01*
X109360153Y-48948885D02*
X109431582Y-48877457D01*
X109431582Y-48877457D02*
X109574439Y-48806028D01*
X109574439Y-48806028D02*
X109788725Y-48806028D01*
X109788725Y-48806028D02*
X109931582Y-48877457D01*
X109931582Y-48877457D02*
X110003011Y-48948885D01*
X110003011Y-48948885D02*
X110074439Y-49091742D01*
X110074439Y-49091742D02*
X110074439Y-49520314D01*
X110074439Y-49520314D02*
X110003011Y-49663171D01*
X110003011Y-49663171D02*
X109931582Y-49734600D01*
X109931582Y-49734600D02*
X109788725Y-49806028D01*
X109788725Y-49806028D02*
X109574439Y-49806028D01*
D14*
D15*
X27832135Y-91562293D02*
X27839283Y-91402734D01*
X27839283Y-91402734D02*
X27752125Y-91206975D01*
X27752125Y-91206975D02*
X27599714Y-91040267D01*
X27599714Y-91040267D02*
X27411103Y-90967866D01*
X27411103Y-90967866D02*
X27251543Y-90960718D01*
X27251543Y-90960718D02*
X26961478Y-91011675D01*
X26961478Y-91011675D02*
X26765718Y-91098833D01*
X26765718Y-91098833D02*
X26533758Y-91280297D01*
X26533758Y-91280297D02*
X26432304Y-91403655D01*
X26432304Y-91403655D02*
X26359903Y-91592267D01*
X26359903Y-91592267D02*
X26381807Y-91817080D01*
X26381807Y-91817080D02*
X26439912Y-91947586D01*
X26439912Y-91947586D02*
X26592324Y-92114293D01*
X26592324Y-92114293D02*
X26686629Y-92150494D01*
X26686629Y-92150494D02*
X27143402Y-91947125D01*
X27143402Y-91947125D02*
X27027192Y-91686112D01*
X27115271Y-93288852D02*
X26991912Y-93187398D01*
X26991912Y-93187398D02*
X26875702Y-92926385D01*
X26875702Y-92926385D02*
X26882850Y-92766826D01*
X26882850Y-92766826D02*
X26984304Y-92643467D01*
X26984304Y-92643467D02*
X27506330Y-92411046D01*
X27506330Y-92411046D02*
X27665889Y-92418194D01*
X27665889Y-92418194D02*
X27789247Y-92519648D01*
X27789247Y-92519648D02*
X27905458Y-92780661D01*
X27905458Y-92780661D02*
X27898310Y-92940220D01*
X27898310Y-92940220D02*
X27796856Y-93063579D01*
X27796856Y-93063579D02*
X27666349Y-93121684D01*
X27666349Y-93121684D02*
X27245317Y-92527257D01*
X27667270Y-94528663D02*
X27543912Y-94427209D01*
X27543912Y-94427209D02*
X27427701Y-94166196D01*
X27427701Y-94166196D02*
X27434849Y-94006637D01*
X27434849Y-94006637D02*
X27471050Y-93912331D01*
X27471050Y-93912331D02*
X27572504Y-93788973D01*
X27572504Y-93788973D02*
X27964023Y-93614657D01*
X27964023Y-93614657D02*
X28123582Y-93621805D01*
X28123582Y-93621805D02*
X28217888Y-93658006D01*
X28217888Y-93658006D02*
X28341247Y-93759460D01*
X28341247Y-93759460D02*
X28457457Y-94020473D01*
X28457457Y-94020473D02*
X28450309Y-94180032D01*
X27863490Y-95144995D02*
X29233809Y-94534890D01*
X28443622Y-95043080D02*
X28095911Y-95667021D01*
X29009457Y-95260284D02*
X28255010Y-94970679D01*
X28444543Y-96450060D02*
X28451691Y-96290501D01*
X28451691Y-96290501D02*
X28487892Y-96196195D01*
X28487892Y-96196195D02*
X28589345Y-96072836D01*
X28589345Y-96072836D02*
X28980865Y-95898521D01*
X28980865Y-95898521D02*
X29140424Y-95905669D01*
X29140424Y-95905669D02*
X29234730Y-95941869D01*
X29234730Y-95941869D02*
X29358088Y-96043323D01*
X29358088Y-96043323D02*
X29445246Y-96239083D01*
X29445246Y-96239083D02*
X29438098Y-96398642D01*
X29438098Y-96398642D02*
X29401898Y-96492948D01*
X29401898Y-96492948D02*
X29300444Y-96616306D01*
X29300444Y-96616306D02*
X28908924Y-96790622D01*
X28908924Y-96790622D02*
X28749365Y-96783474D01*
X28749365Y-96783474D02*
X28655059Y-96747273D01*
X28655059Y-96747273D02*
X28531701Y-96645820D01*
X28531701Y-96645820D02*
X28444543Y-96450060D01*
X30229667Y-98000921D02*
X29461385Y-98733923D01*
X29461385Y-98733923D02*
X30520193Y-98653453D01*
X30158647Y-100300001D02*
X29810016Y-99516962D01*
X29984332Y-99908482D02*
X31354650Y-99298377D01*
X31354650Y-99298377D02*
X31100785Y-99255028D01*
X31100785Y-99255028D02*
X30912173Y-99182627D01*
X30912173Y-99182627D02*
X30788815Y-99081173D01*
X30550627Y-100829175D02*
X30514427Y-100923481D01*
X30514427Y-100923481D02*
X30420121Y-100887280D01*
X30420121Y-100887280D02*
X30456321Y-100792974D01*
X30456321Y-100792974D02*
X30550627Y-100829175D01*
X30550627Y-100829175D02*
X30420121Y-100887280D01*
X32197176Y-101190721D02*
X32255281Y-101321227D01*
X32255281Y-101321227D02*
X32248133Y-101480786D01*
X32248133Y-101480786D02*
X32211932Y-101575092D01*
X32211932Y-101575092D02*
X32110478Y-101698451D01*
X32110478Y-101698451D02*
X31878518Y-101879915D01*
X31878518Y-101879915D02*
X31552252Y-102025178D01*
X31552252Y-102025178D02*
X31262186Y-102076135D01*
X31262186Y-102076135D02*
X31102627Y-102068987D01*
X31102627Y-102068987D02*
X31008321Y-102032786D01*
X31008321Y-102032786D02*
X30884963Y-101931332D01*
X30884963Y-101931332D02*
X30826857Y-101800826D01*
X30826857Y-101800826D02*
X30834005Y-101641267D01*
X30834005Y-101641267D02*
X30870206Y-101546961D01*
X30870206Y-101546961D02*
X30971660Y-101423602D01*
X30971660Y-101423602D02*
X31203620Y-101242139D01*
X31203620Y-101242139D02*
X31529887Y-101096876D01*
X31529887Y-101096876D02*
X31819952Y-101045918D01*
X31819952Y-101045918D02*
X31979511Y-101053066D01*
X31979511Y-101053066D02*
X32073817Y-101089267D01*
X32073817Y-101089267D02*
X32197176Y-101190721D01*
X31386005Y-102881078D02*
X31320752Y-102910131D01*
X31320752Y-102910131D02*
X31161193Y-102902983D01*
X31161193Y-102902983D02*
X31066887Y-102866782D01*
X32047067Y-104541462D02*
X33417385Y-103931357D01*
X33417385Y-103931357D02*
X33562649Y-104257623D01*
X33562649Y-104257623D02*
X33584553Y-104482436D01*
X33584553Y-104482436D02*
X33512152Y-104671047D01*
X33512152Y-104671047D02*
X33410698Y-104794406D01*
X33410698Y-104794406D02*
X33178738Y-104975869D01*
X33178738Y-104975869D02*
X32982978Y-105063027D01*
X32982978Y-105063027D02*
X32692912Y-105113985D01*
X32692912Y-105113985D02*
X32533353Y-105106837D01*
X32533353Y-105106837D02*
X32344741Y-105034435D01*
X32344741Y-105034435D02*
X32192330Y-104867728D01*
X32192330Y-104867728D02*
X32047067Y-104541462D01*
X32918646Y-106499059D02*
X33636432Y-106179481D01*
X33636432Y-106179481D02*
X33737885Y-106056122D01*
X33737885Y-106056122D02*
X33745033Y-105896563D01*
X33745033Y-105896563D02*
X33628823Y-105635550D01*
X33628823Y-105635550D02*
X33505464Y-105534096D01*
X32983899Y-106470007D02*
X32860541Y-106368553D01*
X32860541Y-106368553D02*
X32715277Y-106042287D01*
X32715277Y-106042287D02*
X32722425Y-105882727D01*
X32722425Y-105882727D02*
X32823879Y-105759369D01*
X32823879Y-105759369D02*
X32954386Y-105701264D01*
X32954386Y-105701264D02*
X33113945Y-105708412D01*
X33113945Y-105708412D02*
X33237303Y-105809866D01*
X33237303Y-105809866D02*
X33382567Y-106136132D01*
X33382567Y-106136132D02*
X33505925Y-106237586D01*
X34122717Y-106744855D02*
X33209172Y-107151592D01*
X33992211Y-106802961D02*
X34086517Y-106839161D01*
X34086517Y-106839161D02*
X34209875Y-106940615D01*
X34209875Y-106940615D02*
X34297033Y-107136375D01*
X34297033Y-107136375D02*
X34289885Y-107295934D01*
X34289885Y-107295934D02*
X34188431Y-107419292D01*
X34188431Y-107419292D02*
X33470646Y-107738871D01*
X34058846Y-108884377D02*
X33935488Y-108782923D01*
X33935488Y-108782923D02*
X33819277Y-108521910D01*
X33819277Y-108521910D02*
X33826425Y-108362351D01*
X33826425Y-108362351D02*
X33927879Y-108238993D01*
X33927879Y-108238993D02*
X34449905Y-108006572D01*
X34449905Y-108006572D02*
X34609464Y-108013720D01*
X34609464Y-108013720D02*
X34732823Y-108115174D01*
X34732823Y-108115174D02*
X34849033Y-108376187D01*
X34849033Y-108376187D02*
X34841885Y-108535746D01*
X34841885Y-108535746D02*
X34740431Y-108659104D01*
X34740431Y-108659104D02*
X34609925Y-108717209D01*
X34609925Y-108717209D02*
X34188892Y-108122782D01*
X35466746Y-110290435D02*
X35670115Y-110747208D01*
X35039487Y-111262546D02*
X34748961Y-110610014D01*
X34748961Y-110610014D02*
X36119279Y-109999909D01*
X36119279Y-109999909D02*
X36409805Y-110652441D01*
X36156401Y-111312582D02*
X35388118Y-112045585D01*
X35388118Y-112045585D02*
X36446927Y-111965115D01*
X36027276Y-113481157D02*
X36745062Y-113161578D01*
X36745062Y-113161578D02*
X36846515Y-113038219D01*
X36846515Y-113038219D02*
X36853663Y-112878660D01*
X36853663Y-112878660D02*
X36737453Y-112617647D01*
X36737453Y-112617647D02*
X36614094Y-112516193D01*
X36092529Y-113452104D02*
X35969171Y-113350650D01*
X35969171Y-113350650D02*
X35823907Y-113024384D01*
X35823907Y-113024384D02*
X35831055Y-112864825D01*
X35831055Y-112864825D02*
X35932509Y-112741466D01*
X35932509Y-112741466D02*
X36063016Y-112683361D01*
X36063016Y-112683361D02*
X36222575Y-112690509D01*
X36222575Y-112690509D02*
X36345933Y-112791963D01*
X36345933Y-112791963D02*
X36491197Y-113118229D01*
X36491197Y-113118229D02*
X36614555Y-113219683D01*
X37231347Y-113726953D02*
X36317802Y-114133689D01*
X37100841Y-113785058D02*
X37195147Y-113821258D01*
X37195147Y-113821258D02*
X37318505Y-113922712D01*
X37318505Y-113922712D02*
X37405663Y-114118472D01*
X37405663Y-114118472D02*
X37398515Y-114278031D01*
X37398515Y-114278031D02*
X37297061Y-114401390D01*
X37297061Y-114401390D02*
X36579276Y-114720968D01*
X36906002Y-115279195D02*
X36898854Y-115438754D01*
X36898854Y-115438754D02*
X37015065Y-115699767D01*
X37015065Y-115699767D02*
X37138423Y-115801221D01*
X37138423Y-115801221D02*
X37297982Y-115808369D01*
X37297982Y-115808369D02*
X37363236Y-115779317D01*
X37363236Y-115779317D02*
X37464690Y-115655958D01*
X37464690Y-115655958D02*
X37471838Y-115496399D01*
X37471838Y-115496399D02*
X37384680Y-115300639D01*
X37384680Y-115300639D02*
X37391828Y-115141080D01*
X37391828Y-115141080D02*
X37493282Y-115017722D01*
X37493282Y-115017722D02*
X37558535Y-114988669D01*
X37558535Y-114988669D02*
X37718094Y-114995817D01*
X37718094Y-114995817D02*
X37841453Y-115097271D01*
X37841453Y-115097271D02*
X37928610Y-115293031D01*
X37928610Y-115293031D02*
X37921462Y-115452590D01*
%TA.AperFunction,NonConductor*%
G36*
X100872360Y-23530037D02*
G01*
X100918149Y-23530161D01*
X100921722Y-23530222D01*
X100995954Y-23532576D01*
X101005252Y-23533221D01*
X101057209Y-23538798D01*
X101067731Y-23540388D01*
X101078501Y-23542493D01*
X101090380Y-23545431D01*
X101120266Y-23554410D01*
X101134724Y-23559755D01*
X101142890Y-23563366D01*
X101161844Y-23571748D01*
X101179846Y-23581563D01*
X101207229Y-23599580D01*
X101219127Y-23608476D01*
X101246996Y-23632048D01*
X101257367Y-23641902D01*
X101281421Y-23667557D01*
X101292199Y-23680764D01*
X101312058Y-23708844D01*
X101320084Y-23721819D01*
X101332080Y-23744181D01*
X101338593Y-23758411D01*
X101349123Y-23785878D01*
X101353310Y-23798912D01*
X101356833Y-23812392D01*
X101359379Y-23824618D01*
X101365692Y-23865054D01*
X101366935Y-23876447D01*
X101370887Y-23939679D01*
X101371123Y-23946259D01*
X101371915Y-24031314D01*
X101371920Y-24032469D01*
X101371920Y-25476677D01*
X101406028Y-25603973D01*
X101412974Y-25616003D01*
X101471920Y-25718100D01*
X101565106Y-25811286D01*
X101679234Y-25877178D01*
X101806528Y-25911286D01*
X101938312Y-25911286D01*
X108456524Y-25911286D01*
X119921646Y-25911286D01*
X119922360Y-25911287D01*
X119968149Y-25911411D01*
X119971722Y-25911472D01*
X120045954Y-25913826D01*
X120055252Y-25914471D01*
X120107209Y-25920048D01*
X120117731Y-25921638D01*
X120128501Y-25923743D01*
X120140380Y-25926681D01*
X120170266Y-25935660D01*
X120184724Y-25941005D01*
X120192890Y-25944616D01*
X120211844Y-25952998D01*
X120229846Y-25962813D01*
X120257229Y-25980830D01*
X120269127Y-25989726D01*
X120296996Y-26013298D01*
X120307367Y-26023152D01*
X120331421Y-26048807D01*
X120342199Y-26062014D01*
X120362058Y-26090094D01*
X120370084Y-26103069D01*
X120382080Y-26125431D01*
X120388593Y-26139661D01*
X120399123Y-26167128D01*
X120403310Y-26180162D01*
X120406833Y-26193642D01*
X120409379Y-26205868D01*
X120415692Y-26246304D01*
X120416935Y-26257697D01*
X120420887Y-26320929D01*
X120421123Y-26327509D01*
X120421915Y-26412564D01*
X120421920Y-26413719D01*
X120421920Y-30239177D01*
X120434624Y-30286588D01*
X120456028Y-30366472D01*
X120488974Y-30423535D01*
X120521920Y-30480599D01*
X120615106Y-30573785D01*
X120729234Y-30639677D01*
X120856528Y-30673785D01*
X120856530Y-30673785D01*
X121039668Y-30673785D01*
X121039671Y-30673783D01*
X158021648Y-30673778D01*
X158022364Y-30673779D01*
X158068147Y-30673903D01*
X158071720Y-30673964D01*
X158145952Y-30676318D01*
X158155250Y-30676963D01*
X158207207Y-30682540D01*
X158217738Y-30684132D01*
X158228484Y-30686232D01*
X158240380Y-30689173D01*
X158256861Y-30694126D01*
X158270267Y-30698154D01*
X158284728Y-30703500D01*
X158311842Y-30715489D01*
X158329842Y-30725303D01*
X158357218Y-30743316D01*
X158369135Y-30752226D01*
X158396990Y-30775787D01*
X158407367Y-30785646D01*
X158431418Y-30811297D01*
X158442199Y-30824510D01*
X158462054Y-30852583D01*
X158470078Y-30865553D01*
X158478604Y-30881445D01*
X158482071Y-30887907D01*
X158488585Y-30902140D01*
X158499125Y-30929634D01*
X158503310Y-30942660D01*
X158506830Y-30956126D01*
X158509377Y-30968359D01*
X158515692Y-31008808D01*
X158516932Y-31020181D01*
X158520885Y-31083423D01*
X158521121Y-31089983D01*
X158521913Y-31175058D01*
X158521918Y-31176212D01*
X158521919Y-87322148D01*
X158521919Y-87322484D01*
X158521793Y-87368999D01*
X158521731Y-87372594D01*
X158519377Y-87446819D01*
X158518731Y-87456122D01*
X158513156Y-87508061D01*
X158511564Y-87518597D01*
X158509464Y-87529349D01*
X158506518Y-87541263D01*
X158497543Y-87571131D01*
X158492196Y-87585596D01*
X158480211Y-87612699D01*
X158470392Y-87630708D01*
X158452380Y-87658083D01*
X158443471Y-87669999D01*
X158419912Y-87697855D01*
X158410043Y-87708242D01*
X158384397Y-87732286D01*
X158371190Y-87743062D01*
X158343112Y-87762921D01*
X158330129Y-87770953D01*
X158307787Y-87782939D01*
X158293553Y-87789454D01*
X158266061Y-87799993D01*
X158253031Y-87804179D01*
X158239567Y-87807698D01*
X158227339Y-87810244D01*
X158186897Y-87816558D01*
X158175504Y-87817801D01*
X158112274Y-87821753D01*
X158105694Y-87821989D01*
X158021349Y-87822774D01*
X158020638Y-87822781D01*
X158019485Y-87822786D01*
X147112664Y-87822786D01*
X147080597Y-87818567D01*
X147063225Y-87813916D01*
X147063221Y-87813916D01*
X147048696Y-87813918D01*
X147048644Y-87813903D01*
X146912786Y-87813950D01*
X146911231Y-87813951D01*
X146911226Y-87813951D01*
X146911224Y-87813952D01*
X146741518Y-87843143D01*
X146579201Y-87900656D01*
X146428977Y-87984822D01*
X146428976Y-87984822D01*
X146295166Y-88093223D01*
X146181652Y-88222715D01*
X146181644Y-88222725D01*
X146091702Y-88369567D01*
X146091702Y-88369568D01*
X146084938Y-88386526D01*
X146077076Y-88401350D01*
X146077091Y-88401358D01*
X146073447Y-88408623D01*
X146056513Y-88457440D01*
X146054545Y-88462723D01*
X146035398Y-88510746D01*
X146033400Y-88518624D01*
X146033378Y-88518618D01*
X146029630Y-88534932D01*
X139691052Y-106807131D01*
X139650484Y-106864017D01*
X139585600Y-106889939D01*
X139574118Y-106890492D01*
X138621895Y-106892161D01*
X120709862Y-106892161D01*
X120657802Y-106880703D01*
X120407195Y-106764776D01*
X117133164Y-105250258D01*
X117123225Y-105245103D01*
X117090604Y-105226269D01*
X117090597Y-105226266D01*
X117078798Y-105223105D01*
X117058836Y-105215875D01*
X117047745Y-105210745D01*
X117047741Y-105210743D01*
X117010617Y-105204314D01*
X116999693Y-105201909D01*
X116985082Y-105197995D01*
X116963310Y-105192161D01*
X116963308Y-105192161D01*
X116951093Y-105192161D01*
X116929937Y-105190343D01*
X116925490Y-105189573D01*
X116917891Y-105188257D01*
X116917890Y-105188257D01*
X116917885Y-105188257D01*
X116884048Y-105191322D01*
X116880375Y-105191655D01*
X116869189Y-105192161D01*
X69865256Y-105192161D01*
X69858178Y-105191959D01*
X69810202Y-105189216D01*
X69810201Y-105189216D01*
X69810199Y-105189216D01*
X69808475Y-105189573D01*
X69783279Y-105192161D01*
X69781520Y-105192161D01*
X69735102Y-105204599D01*
X69728214Y-105206235D01*
X54203418Y-108429122D01*
X54197356Y-108430224D01*
X54147575Y-108438002D01*
X54145272Y-108438679D01*
X54126021Y-108444861D01*
X54123683Y-108445676D01*
X54078709Y-108468322D01*
X54073142Y-108470955D01*
X39222031Y-115045974D01*
X39152761Y-115055114D01*
X39089547Y-115025353D01*
X39058552Y-114983024D01*
X36619778Y-109505449D01*
X35904986Y-107900000D01*
X39394551Y-107900000D01*
X39414317Y-108151151D01*
X39473126Y-108396110D01*
X39569533Y-108628859D01*
X39701160Y-108843653D01*
X39701161Y-108843656D01*
X39701164Y-108843659D01*
X39864776Y-109035224D01*
X40013066Y-109161875D01*
X40056343Y-109198838D01*
X40056346Y-109198839D01*
X40271140Y-109330466D01*
X40442761Y-109401553D01*
X40503889Y-109426873D01*
X40748852Y-109485683D01*
X41000000Y-109505449D01*
X41251148Y-109485683D01*
X41496111Y-109426873D01*
X41728859Y-109330466D01*
X41943659Y-109198836D01*
X42135224Y-109035224D01*
X42298836Y-108843659D01*
X42430466Y-108628859D01*
X42526873Y-108396111D01*
X42585683Y-108151148D01*
X42605449Y-107900000D01*
X42585683Y-107648852D01*
X42526873Y-107403889D01*
X42484048Y-107300500D01*
X42430466Y-107171140D01*
X42298839Y-106956346D01*
X42298838Y-106956343D01*
X42244021Y-106892161D01*
X42135224Y-106764776D01*
X42008571Y-106656604D01*
X41943656Y-106601161D01*
X41943653Y-106601160D01*
X41728859Y-106469533D01*
X41496110Y-106373126D01*
X41251151Y-106314317D01*
X41000000Y-106294551D01*
X40748848Y-106314317D01*
X40503889Y-106373126D01*
X40271140Y-106469533D01*
X40056346Y-106601160D01*
X40056343Y-106601161D01*
X39864776Y-106764776D01*
X39701161Y-106956343D01*
X39701160Y-106956346D01*
X39569533Y-107171140D01*
X39473126Y-107403889D01*
X39414317Y-107648848D01*
X39394551Y-107900000D01*
X35904986Y-107900000D01*
X27882468Y-89881129D01*
X25682582Y-90860581D01*
X25613332Y-90869865D01*
X25550056Y-90840237D01*
X25518762Y-90797500D01*
X25352135Y-90421137D01*
X25218615Y-90119554D01*
X25217500Y-90116953D01*
X25193412Y-90058898D01*
X25188850Y-90045904D01*
X25182401Y-90023640D01*
X25178634Y-90005830D01*
X25175518Y-89982856D01*
X25174429Y-89969131D01*
X25172959Y-89906543D01*
X25172926Y-89903549D01*
X25172972Y-89856593D01*
X25177239Y-85442036D01*
X61666971Y-85442036D01*
X61686737Y-85693187D01*
X61745546Y-85938146D01*
X61841953Y-86170895D01*
X61973580Y-86385689D01*
X61973581Y-86385692D01*
X61973584Y-86385695D01*
X62137196Y-86577260D01*
X62285486Y-86703911D01*
X62328763Y-86740874D01*
X62328766Y-86740875D01*
X62543560Y-86872502D01*
X62776309Y-86968909D01*
X63021272Y-87027719D01*
X63272420Y-87047485D01*
X63523568Y-87027719D01*
X63768531Y-86968909D01*
X64001279Y-86872502D01*
X64216079Y-86740872D01*
X64407644Y-86577260D01*
X64571256Y-86385695D01*
X64702886Y-86170895D01*
X64799293Y-85938147D01*
X64858103Y-85693184D01*
X64877869Y-85442036D01*
X64858103Y-85190888D01*
X64799293Y-84945925D01*
X64756468Y-84842536D01*
X64702886Y-84713176D01*
X64571259Y-84498382D01*
X64571258Y-84498379D01*
X64511882Y-84428859D01*
X64407644Y-84306812D01*
X64278029Y-84196110D01*
X64216076Y-84143197D01*
X64216073Y-84143196D01*
X64001279Y-84011569D01*
X63768530Y-83915162D01*
X63523571Y-83856353D01*
X63272420Y-83836587D01*
X63021268Y-83856353D01*
X62776309Y-83915162D01*
X62543560Y-84011569D01*
X62328766Y-84143196D01*
X62328763Y-84143197D01*
X62137196Y-84306812D01*
X61973581Y-84498379D01*
X61973580Y-84498382D01*
X61841953Y-84713176D01*
X61745546Y-84945925D01*
X61686737Y-85190884D01*
X61666971Y-85442036D01*
X25177239Y-85442036D01*
X25178923Y-83700000D01*
X152394551Y-83700000D01*
X152414317Y-83951151D01*
X152473126Y-84196110D01*
X152569533Y-84428859D01*
X152701160Y-84643653D01*
X152701161Y-84643656D01*
X152701164Y-84643659D01*
X152864776Y-84835224D01*
X152967378Y-84922854D01*
X153056343Y-84998838D01*
X153056346Y-84998839D01*
X153271140Y-85130466D01*
X153417013Y-85190888D01*
X153503889Y-85226873D01*
X153748852Y-85285683D01*
X154000000Y-85305449D01*
X154251148Y-85285683D01*
X154496111Y-85226873D01*
X154728859Y-85130466D01*
X154943659Y-84998836D01*
X155135224Y-84835224D01*
X155298836Y-84643659D01*
X155430466Y-84428859D01*
X155526873Y-84196111D01*
X155585683Y-83951148D01*
X155605449Y-83700000D01*
X155585683Y-83448852D01*
X155526873Y-83203889D01*
X155430466Y-82971141D01*
X155430466Y-82971140D01*
X155298839Y-82756346D01*
X155298838Y-82756343D01*
X155261875Y-82713066D01*
X155135224Y-82564776D01*
X155008571Y-82456604D01*
X154943656Y-82401161D01*
X154943653Y-82401160D01*
X154728859Y-82269533D01*
X154496110Y-82173126D01*
X154251151Y-82114317D01*
X154000000Y-82094551D01*
X153748848Y-82114317D01*
X153503889Y-82173126D01*
X153271140Y-82269533D01*
X153056346Y-82401160D01*
X153056343Y-82401161D01*
X152864776Y-82564776D01*
X152701161Y-82756343D01*
X152701160Y-82756346D01*
X152569533Y-82971140D01*
X152473126Y-83203889D01*
X152414317Y-83448848D01*
X152394551Y-83700000D01*
X25178923Y-83700000D01*
X25193350Y-68773286D01*
X137866969Y-68773286D01*
X137886735Y-69024437D01*
X137945544Y-69269396D01*
X138041951Y-69502145D01*
X138173578Y-69716939D01*
X138173579Y-69716942D01*
X138173582Y-69716945D01*
X138337194Y-69908510D01*
X138485484Y-70035161D01*
X138528761Y-70072124D01*
X138528764Y-70072125D01*
X138743558Y-70203752D01*
X138976307Y-70300159D01*
X139221270Y-70358969D01*
X139472418Y-70378735D01*
X139723566Y-70358969D01*
X139968529Y-70300159D01*
X140201277Y-70203752D01*
X140416077Y-70072122D01*
X140607642Y-69908510D01*
X140771254Y-69716945D01*
X140902884Y-69502145D01*
X140999291Y-69269397D01*
X141058101Y-69024434D01*
X141077867Y-68773286D01*
X141058101Y-68522138D01*
X140999291Y-68277175D01*
X140902884Y-68044427D01*
X140902884Y-68044426D01*
X140771257Y-67829632D01*
X140771256Y-67829629D01*
X140734293Y-67786352D01*
X140607642Y-67638062D01*
X140480989Y-67529890D01*
X140416074Y-67474447D01*
X140416071Y-67474446D01*
X140201277Y-67342819D01*
X139968528Y-67246412D01*
X139723569Y-67187603D01*
X139472418Y-67167837D01*
X139221266Y-67187603D01*
X138976307Y-67246412D01*
X138743558Y-67342819D01*
X138528764Y-67474446D01*
X138528761Y-67474447D01*
X138337194Y-67638062D01*
X138173579Y-67829629D01*
X138173578Y-67829632D01*
X138041951Y-68044426D01*
X137945544Y-68277175D01*
X137886735Y-68522134D01*
X137866969Y-68773286D01*
X25193350Y-68773286D01*
X25215214Y-46151411D01*
X61666969Y-46151411D01*
X61686735Y-46402562D01*
X61745544Y-46647521D01*
X61841951Y-46880270D01*
X61973578Y-47095064D01*
X61973579Y-47095067D01*
X61973582Y-47095070D01*
X62137194Y-47286635D01*
X62285484Y-47413286D01*
X62328761Y-47450249D01*
X62328764Y-47450250D01*
X62543558Y-47581877D01*
X62776307Y-47678284D01*
X63021270Y-47737094D01*
X63272418Y-47756860D01*
X63523566Y-47737094D01*
X63768529Y-47678284D01*
X64001277Y-47581877D01*
X64216077Y-47450247D01*
X64407642Y-47286635D01*
X64571254Y-47095070D01*
X64702884Y-46880270D01*
X64799291Y-46647522D01*
X64858101Y-46402559D01*
X64877867Y-46151411D01*
X64869416Y-46044027D01*
X66489456Y-46044027D01*
X66559220Y-46044027D01*
X66626259Y-46063712D01*
X66672014Y-46116516D01*
X66683220Y-46168027D01*
X66683220Y-50912673D01*
X110681084Y-50912673D01*
X110681084Y-49723286D01*
X137866969Y-49723286D01*
X137886735Y-49974437D01*
X137945544Y-50219396D01*
X138041951Y-50452145D01*
X138173578Y-50666939D01*
X138173579Y-50666942D01*
X138173582Y-50666945D01*
X138337194Y-50858510D01*
X138400611Y-50912673D01*
X138528761Y-51022124D01*
X138528764Y-51022125D01*
X138743558Y-51153752D01*
X138976307Y-51250159D01*
X139221270Y-51308969D01*
X139472418Y-51328735D01*
X139723566Y-51308969D01*
X139968529Y-51250159D01*
X140201277Y-51153752D01*
X140416077Y-51022122D01*
X140607642Y-50858510D01*
X140771254Y-50666945D01*
X140902884Y-50452145D01*
X140999291Y-50219397D01*
X141058101Y-49974434D01*
X141077867Y-49723286D01*
X141058101Y-49472138D01*
X140999291Y-49227175D01*
X140902884Y-48994427D01*
X140902884Y-48994426D01*
X140771257Y-48779632D01*
X140771256Y-48779629D01*
X140734293Y-48736352D01*
X140607642Y-48588062D01*
X140480989Y-48479890D01*
X140416074Y-48424447D01*
X140416071Y-48424446D01*
X140201277Y-48292819D01*
X139968528Y-48196412D01*
X139723569Y-48137603D01*
X139472418Y-48117837D01*
X139221266Y-48137603D01*
X138976307Y-48196412D01*
X138743558Y-48292819D01*
X138528764Y-48424446D01*
X138528761Y-48424447D01*
X138337194Y-48588062D01*
X138173579Y-48779629D01*
X138173578Y-48779632D01*
X138041951Y-48994426D01*
X137945544Y-49227175D01*
X137886735Y-49472134D01*
X137866969Y-49723286D01*
X110681084Y-49723286D01*
X110681084Y-45284467D01*
X88893918Y-45284467D01*
X88826879Y-45264782D01*
X88781124Y-45211978D01*
X88769918Y-45160467D01*
X88769918Y-42279000D01*
X66489456Y-42279000D01*
X66489456Y-46044027D01*
X64869416Y-46044027D01*
X64858101Y-45900263D01*
X64799291Y-45655300D01*
X64702884Y-45422552D01*
X64702884Y-45422551D01*
X64571257Y-45207757D01*
X64571256Y-45207754D01*
X64530869Y-45160467D01*
X64407642Y-45016187D01*
X64280989Y-44908015D01*
X64216074Y-44852572D01*
X64216071Y-44852571D01*
X64001277Y-44720944D01*
X63768528Y-44624537D01*
X63523569Y-44565728D01*
X63272418Y-44545962D01*
X63021266Y-44565728D01*
X62776307Y-44624537D01*
X62543558Y-44720944D01*
X62328764Y-44852571D01*
X62328761Y-44852572D01*
X62137194Y-45016187D01*
X61973579Y-45207754D01*
X61973578Y-45207757D01*
X61841951Y-45422551D01*
X61745544Y-45655300D01*
X61686735Y-45900259D01*
X61666969Y-46151411D01*
X25215214Y-46151411D01*
X25219082Y-42149009D01*
X25219450Y-42143262D01*
X25219156Y-42074147D01*
X25219155Y-42073497D01*
X25219218Y-42009341D01*
X25219217Y-42009338D01*
X25219222Y-42004596D01*
X25218837Y-41998881D01*
X25188729Y-34900000D01*
X33394551Y-34900000D01*
X33414317Y-35151151D01*
X33473126Y-35396110D01*
X33569533Y-35628859D01*
X33701160Y-35843653D01*
X33701161Y-35843656D01*
X33701164Y-35843659D01*
X33864776Y-36035224D01*
X33981860Y-36135223D01*
X34056343Y-36198838D01*
X34056346Y-36198839D01*
X34271140Y-36330466D01*
X34503889Y-36426873D01*
X34748852Y-36485683D01*
X35000000Y-36505449D01*
X35251148Y-36485683D01*
X35496111Y-36426873D01*
X35728859Y-36330466D01*
X35943659Y-36198836D01*
X36135224Y-36035224D01*
X36298836Y-35843659D01*
X36430466Y-35628859D01*
X36526873Y-35396111D01*
X36585683Y-35151148D01*
X36597579Y-35000000D01*
X152394551Y-35000000D01*
X152414317Y-35251151D01*
X152473126Y-35496110D01*
X152569533Y-35728859D01*
X152701160Y-35943653D01*
X152701161Y-35943656D01*
X152701164Y-35943659D01*
X152864776Y-36135224D01*
X152939260Y-36198839D01*
X153056343Y-36298838D01*
X153056346Y-36298839D01*
X153271140Y-36430466D01*
X153503889Y-36526873D01*
X153748852Y-36585683D01*
X154000000Y-36605449D01*
X154251148Y-36585683D01*
X154496111Y-36526873D01*
X154728859Y-36430466D01*
X154943659Y-36298836D01*
X155135224Y-36135224D01*
X155298836Y-35943659D01*
X155430466Y-35728859D01*
X155526873Y-35496111D01*
X155585683Y-35251148D01*
X155605449Y-35000000D01*
X155585683Y-34748852D01*
X155526873Y-34503889D01*
X155430466Y-34271141D01*
X155430466Y-34271140D01*
X155298839Y-34056346D01*
X155298838Y-34056343D01*
X155213432Y-33956346D01*
X155135224Y-33864776D01*
X155008571Y-33756604D01*
X154943656Y-33701161D01*
X154943653Y-33701160D01*
X154728859Y-33569533D01*
X154496110Y-33473126D01*
X154251151Y-33414317D01*
X154000000Y-33394551D01*
X153748848Y-33414317D01*
X153503889Y-33473126D01*
X153271140Y-33569533D01*
X153056346Y-33701160D01*
X153056343Y-33701161D01*
X152864776Y-33864776D01*
X152701161Y-34056343D01*
X152701160Y-34056346D01*
X152569533Y-34271140D01*
X152473126Y-34503889D01*
X152414317Y-34748848D01*
X152394551Y-35000000D01*
X36597579Y-35000000D01*
X36605449Y-34900000D01*
X36585683Y-34648852D01*
X36526873Y-34403889D01*
X36430466Y-34171141D01*
X36430466Y-34171140D01*
X36298839Y-33956346D01*
X36298838Y-33956343D01*
X36220632Y-33864776D01*
X36135224Y-33764776D01*
X36008571Y-33656604D01*
X35943656Y-33601161D01*
X35943653Y-33601160D01*
X35728859Y-33469533D01*
X35496110Y-33373126D01*
X35251151Y-33314317D01*
X35000000Y-33294551D01*
X34748848Y-33314317D01*
X34503889Y-33373126D01*
X34271140Y-33469533D01*
X34056346Y-33601160D01*
X34056343Y-33601161D01*
X33864776Y-33764776D01*
X33701161Y-33956343D01*
X33701160Y-33956346D01*
X33569533Y-34171140D01*
X33473126Y-34403889D01*
X33414317Y-34648848D01*
X33394551Y-34900000D01*
X25188729Y-34900000D01*
X25172924Y-31173411D01*
X25172924Y-31172561D01*
X25172928Y-31170924D01*
X25173045Y-31127554D01*
X25173107Y-31123969D01*
X25173763Y-31103296D01*
X25175460Y-31049753D01*
X25176106Y-31040453D01*
X25179503Y-31008808D01*
X25181907Y-30986407D01*
X25186021Y-30965402D01*
X25186947Y-30962182D01*
X25194808Y-30934817D01*
X25200917Y-30918157D01*
X25206476Y-30905811D01*
X25220454Y-30874765D01*
X25229918Y-30857543D01*
X25242471Y-30838464D01*
X25251364Y-30826572D01*
X25259009Y-30817533D01*
X25274930Y-30798709D01*
X25284776Y-30788345D01*
X25310453Y-30764270D01*
X25323650Y-30753503D01*
X25351733Y-30733641D01*
X25364691Y-30725625D01*
X25387058Y-30713626D01*
X25401276Y-30707119D01*
X25428788Y-30696572D01*
X25441786Y-30692396D01*
X25455288Y-30688867D01*
X25467491Y-30686326D01*
X25507948Y-30680010D01*
X25519325Y-30678768D01*
X25582579Y-30674815D01*
X25589133Y-30674580D01*
X25672681Y-30673805D01*
X25674210Y-30673791D01*
X25675360Y-30673786D01*
X43788310Y-30673786D01*
X43788312Y-30673786D01*
X43915606Y-30639678D01*
X44029734Y-30573786D01*
X44122920Y-30480600D01*
X44188812Y-30366472D01*
X44222920Y-30239178D01*
X44222920Y-28792808D01*
X44223045Y-28746304D01*
X44223107Y-28742720D01*
X44225460Y-28668505D01*
X44226106Y-28659200D01*
X44228033Y-28641252D01*
X44231681Y-28607256D01*
X44233274Y-28596718D01*
X44235374Y-28585969D01*
X44238318Y-28574062D01*
X44247295Y-28544186D01*
X44252639Y-28529730D01*
X44264634Y-28502605D01*
X44274448Y-28484607D01*
X44292458Y-28457235D01*
X44301368Y-28445318D01*
X44309950Y-28435170D01*
X44324930Y-28417459D01*
X44334776Y-28407095D01*
X44360453Y-28383020D01*
X44373650Y-28372253D01*
X44401733Y-28352391D01*
X44414691Y-28344375D01*
X44437058Y-28332376D01*
X44451276Y-28325869D01*
X44478788Y-28315322D01*
X44491786Y-28311146D01*
X44505288Y-28307617D01*
X44517491Y-28305076D01*
X44557948Y-28298760D01*
X44569325Y-28297518D01*
X44632579Y-28293565D01*
X44639133Y-28293330D01*
X44722681Y-28292555D01*
X44724210Y-28292541D01*
X44725360Y-28292536D01*
X62838310Y-28292536D01*
X62838312Y-28292536D01*
X62965606Y-28258428D01*
X63079734Y-28192536D01*
X63172920Y-28099350D01*
X63238812Y-27985222D01*
X63272920Y-27857928D01*
X63272920Y-26411558D01*
X63273045Y-26365054D01*
X63273107Y-26361470D01*
X63274288Y-26324215D01*
X63275460Y-26287249D01*
X63276106Y-26277950D01*
X63278033Y-26260002D01*
X63281681Y-26226006D01*
X63283274Y-26215468D01*
X63285374Y-26204719D01*
X63288318Y-26192812D01*
X63290500Y-26185552D01*
X63297297Y-26162930D01*
X63302639Y-26148480D01*
X63314634Y-26121355D01*
X63324448Y-26103357D01*
X63324638Y-26103069D01*
X63342458Y-26075985D01*
X63351368Y-26064068D01*
X63364275Y-26048807D01*
X63374930Y-26036209D01*
X63384776Y-26025845D01*
X63410453Y-26001770D01*
X63423650Y-25991003D01*
X63451733Y-25971141D01*
X63464691Y-25963125D01*
X63487058Y-25951126D01*
X63501276Y-25944619D01*
X63528788Y-25934072D01*
X63541786Y-25929896D01*
X63555288Y-25926367D01*
X63567491Y-25923826D01*
X63607948Y-25917510D01*
X63619325Y-25916268D01*
X63682579Y-25912315D01*
X63689133Y-25912080D01*
X63772681Y-25911305D01*
X63774210Y-25911291D01*
X63775360Y-25911286D01*
X81888310Y-25911286D01*
X81888312Y-25911286D01*
X82015606Y-25877178D01*
X82129734Y-25811286D01*
X82222920Y-25718100D01*
X82288812Y-25603972D01*
X82322920Y-25476678D01*
X82322920Y-24030308D01*
X82323045Y-23983804D01*
X82323107Y-23980220D01*
X82324288Y-23942965D01*
X82325460Y-23905999D01*
X82326106Y-23896700D01*
X82328033Y-23878752D01*
X82331681Y-23844756D01*
X82333274Y-23834218D01*
X82335374Y-23823469D01*
X82338318Y-23811562D01*
X82340500Y-23804302D01*
X82347297Y-23781680D01*
X82352639Y-23767230D01*
X82364634Y-23740105D01*
X82374448Y-23722107D01*
X82374638Y-23721819D01*
X82392458Y-23694735D01*
X82401368Y-23682818D01*
X82414275Y-23667557D01*
X82424930Y-23654959D01*
X82434776Y-23644595D01*
X82460453Y-23620520D01*
X82473650Y-23609753D01*
X82501733Y-23589891D01*
X82514691Y-23581875D01*
X82537058Y-23569876D01*
X82551276Y-23563369D01*
X82578788Y-23552822D01*
X82591786Y-23548646D01*
X82605288Y-23545117D01*
X82617491Y-23542576D01*
X82657948Y-23536260D01*
X82669325Y-23535018D01*
X82732579Y-23531065D01*
X82739133Y-23530830D01*
X82822681Y-23530055D01*
X82824210Y-23530041D01*
X82825360Y-23530036D01*
X100871646Y-23530036D01*
X100872360Y-23530037D01*
G37*
%TD.AperFunction*%
M02*
