%TF.GenerationSoftware,KiCad,Pcbnew,8.0.3*%
%TF.CreationDate,2024-09-02T20:29:09+10:00*%
%TF.ProjectId,bottom_plate,626f7474-6f6d-45f7-906c-6174652e6b69,1.0.0*%
%TF.SameCoordinates,Original*%
%TF.FileFunction,Copper,L2,Bot*%
%TF.FilePolarity,Positive*%
%FSLAX46Y46*%
G04 Gerber Fmt 4.6, Leading zero omitted, Abs format (unit mm)*
G04 Created by KiCad (PCBNEW 8.0.3) date 2024-09-02 20:29:09*
%MOMM*%
%LPD*%
G01*
G04 APERTURE LIST*
%ADD10C,0.200000*%
%TA.AperFunction,NonConductor*%
%ADD11C,0.200000*%
%TD*%
%ADD12C,0.350000*%
%TA.AperFunction,NonConductor*%
%ADD13C,0.350000*%
%TD*%
%ADD14C,0.300000*%
%TA.AperFunction,NonConductor*%
%ADD15C,0.300000*%
%TD*%
G04 APERTURE END LIST*
D10*
D11*
X110239855Y-47391112D02*
X110239855Y-45891112D01*
X110239855Y-45891112D02*
X109882712Y-45891112D01*
X109882712Y-45891112D02*
X109668426Y-45962541D01*
X109668426Y-45962541D02*
X109525569Y-46105398D01*
X109525569Y-46105398D02*
X109454140Y-46248255D01*
X109454140Y-46248255D02*
X109382712Y-46533969D01*
X109382712Y-46533969D02*
X109382712Y-46748255D01*
X109382712Y-46748255D02*
X109454140Y-47033969D01*
X109454140Y-47033969D02*
X109525569Y-47176826D01*
X109525569Y-47176826D02*
X109668426Y-47319684D01*
X109668426Y-47319684D02*
X109882712Y-47391112D01*
X109882712Y-47391112D02*
X110239855Y-47391112D01*
X108096998Y-47391112D02*
X108096998Y-46605398D01*
X108096998Y-46605398D02*
X108168426Y-46462541D01*
X108168426Y-46462541D02*
X108311283Y-46391112D01*
X108311283Y-46391112D02*
X108596998Y-46391112D01*
X108596998Y-46391112D02*
X108739855Y-46462541D01*
X108096998Y-47319684D02*
X108239855Y-47391112D01*
X108239855Y-47391112D02*
X108596998Y-47391112D01*
X108596998Y-47391112D02*
X108739855Y-47319684D01*
X108739855Y-47319684D02*
X108811283Y-47176826D01*
X108811283Y-47176826D02*
X108811283Y-47033969D01*
X108811283Y-47033969D02*
X108739855Y-46891112D01*
X108739855Y-46891112D02*
X108596998Y-46819684D01*
X108596998Y-46819684D02*
X108239855Y-46819684D01*
X108239855Y-46819684D02*
X108096998Y-46748255D01*
X107382712Y-46391112D02*
X107382712Y-47391112D01*
X107382712Y-46533969D02*
X107311283Y-46462541D01*
X107311283Y-46462541D02*
X107168426Y-46391112D01*
X107168426Y-46391112D02*
X106954140Y-46391112D01*
X106954140Y-46391112D02*
X106811283Y-46462541D01*
X106811283Y-46462541D02*
X106739855Y-46605398D01*
X106739855Y-46605398D02*
X106739855Y-47391112D01*
X105454140Y-47319684D02*
X105596997Y-47391112D01*
X105596997Y-47391112D02*
X105882712Y-47391112D01*
X105882712Y-47391112D02*
X106025569Y-47319684D01*
X106025569Y-47319684D02*
X106096997Y-47176826D01*
X106096997Y-47176826D02*
X106096997Y-46605398D01*
X106096997Y-46605398D02*
X106025569Y-46462541D01*
X106025569Y-46462541D02*
X105882712Y-46391112D01*
X105882712Y-46391112D02*
X105596997Y-46391112D01*
X105596997Y-46391112D02*
X105454140Y-46462541D01*
X105454140Y-46462541D02*
X105382712Y-46605398D01*
X105382712Y-46605398D02*
X105382712Y-46748255D01*
X105382712Y-46748255D02*
X106096997Y-46891112D01*
X103596998Y-46605398D02*
X103096998Y-46605398D01*
X102882712Y-47391112D02*
X103596998Y-47391112D01*
X103596998Y-47391112D02*
X103596998Y-45891112D01*
X103596998Y-45891112D02*
X102882712Y-45891112D01*
X102382712Y-46391112D02*
X102025569Y-47391112D01*
X102025569Y-47391112D02*
X101668426Y-46391112D01*
X100454141Y-47391112D02*
X100454141Y-46605398D01*
X100454141Y-46605398D02*
X100525569Y-46462541D01*
X100525569Y-46462541D02*
X100668426Y-46391112D01*
X100668426Y-46391112D02*
X100954141Y-46391112D01*
X100954141Y-46391112D02*
X101096998Y-46462541D01*
X100454141Y-47319684D02*
X100596998Y-47391112D01*
X100596998Y-47391112D02*
X100954141Y-47391112D01*
X100954141Y-47391112D02*
X101096998Y-47319684D01*
X101096998Y-47319684D02*
X101168426Y-47176826D01*
X101168426Y-47176826D02*
X101168426Y-47033969D01*
X101168426Y-47033969D02*
X101096998Y-46891112D01*
X101096998Y-46891112D02*
X100954141Y-46819684D01*
X100954141Y-46819684D02*
X100596998Y-46819684D01*
X100596998Y-46819684D02*
X100454141Y-46748255D01*
X99739855Y-46391112D02*
X99739855Y-47391112D01*
X99739855Y-46533969D02*
X99668426Y-46462541D01*
X99668426Y-46462541D02*
X99525569Y-46391112D01*
X99525569Y-46391112D02*
X99311283Y-46391112D01*
X99311283Y-46391112D02*
X99168426Y-46462541D01*
X99168426Y-46462541D02*
X99096998Y-46605398D01*
X99096998Y-46605398D02*
X99096998Y-47391112D01*
X98454140Y-47319684D02*
X98311283Y-47391112D01*
X98311283Y-47391112D02*
X98025569Y-47391112D01*
X98025569Y-47391112D02*
X97882712Y-47319684D01*
X97882712Y-47319684D02*
X97811283Y-47176826D01*
X97811283Y-47176826D02*
X97811283Y-47105398D01*
X97811283Y-47105398D02*
X97882712Y-46962541D01*
X97882712Y-46962541D02*
X98025569Y-46891112D01*
X98025569Y-46891112D02*
X98239855Y-46891112D01*
X98239855Y-46891112D02*
X98382712Y-46819684D01*
X98382712Y-46819684D02*
X98454140Y-46676826D01*
X98454140Y-46676826D02*
X98454140Y-46605398D01*
X98454140Y-46605398D02*
X98382712Y-46462541D01*
X98382712Y-46462541D02*
X98239855Y-46391112D01*
X98239855Y-46391112D02*
X98025569Y-46391112D01*
X98025569Y-46391112D02*
X97882712Y-46462541D01*
X110239855Y-49806028D02*
X110239855Y-48306028D01*
X109596998Y-49806028D02*
X109596998Y-49020314D01*
X109596998Y-49020314D02*
X109668426Y-48877457D01*
X109668426Y-48877457D02*
X109811283Y-48806028D01*
X109811283Y-48806028D02*
X110025569Y-48806028D01*
X110025569Y-48806028D02*
X110168426Y-48877457D01*
X110168426Y-48877457D02*
X110239855Y-48948885D01*
X109096997Y-48806028D02*
X108525569Y-48806028D01*
X108882712Y-48306028D02*
X108882712Y-49591742D01*
X108882712Y-49591742D02*
X108811283Y-49734600D01*
X108811283Y-49734600D02*
X108668426Y-49806028D01*
X108668426Y-49806028D02*
X108525569Y-49806028D01*
X108239854Y-48806028D02*
X107668426Y-48806028D01*
X108025569Y-48306028D02*
X108025569Y-49591742D01*
X108025569Y-49591742D02*
X107954140Y-49734600D01*
X107954140Y-49734600D02*
X107811283Y-49806028D01*
X107811283Y-49806028D02*
X107668426Y-49806028D01*
X107168426Y-48806028D02*
X107168426Y-50306028D01*
X107168426Y-48877457D02*
X107025569Y-48806028D01*
X107025569Y-48806028D02*
X106739854Y-48806028D01*
X106739854Y-48806028D02*
X106596997Y-48877457D01*
X106596997Y-48877457D02*
X106525569Y-48948885D01*
X106525569Y-48948885D02*
X106454140Y-49091742D01*
X106454140Y-49091742D02*
X106454140Y-49520314D01*
X106454140Y-49520314D02*
X106525569Y-49663171D01*
X106525569Y-49663171D02*
X106596997Y-49734600D01*
X106596997Y-49734600D02*
X106739854Y-49806028D01*
X106739854Y-49806028D02*
X107025569Y-49806028D01*
X107025569Y-49806028D02*
X107168426Y-49734600D01*
X105882711Y-49734600D02*
X105739854Y-49806028D01*
X105739854Y-49806028D02*
X105454140Y-49806028D01*
X105454140Y-49806028D02*
X105311283Y-49734600D01*
X105311283Y-49734600D02*
X105239854Y-49591742D01*
X105239854Y-49591742D02*
X105239854Y-49520314D01*
X105239854Y-49520314D02*
X105311283Y-49377457D01*
X105311283Y-49377457D02*
X105454140Y-49306028D01*
X105454140Y-49306028D02*
X105668426Y-49306028D01*
X105668426Y-49306028D02*
X105811283Y-49234600D01*
X105811283Y-49234600D02*
X105882711Y-49091742D01*
X105882711Y-49091742D02*
X105882711Y-49020314D01*
X105882711Y-49020314D02*
X105811283Y-48877457D01*
X105811283Y-48877457D02*
X105668426Y-48806028D01*
X105668426Y-48806028D02*
X105454140Y-48806028D01*
X105454140Y-48806028D02*
X105311283Y-48877457D01*
X104596997Y-49663171D02*
X104525568Y-49734600D01*
X104525568Y-49734600D02*
X104596997Y-49806028D01*
X104596997Y-49806028D02*
X104668425Y-49734600D01*
X104668425Y-49734600D02*
X104596997Y-49663171D01*
X104596997Y-49663171D02*
X104596997Y-49806028D01*
X104596997Y-48877457D02*
X104525568Y-48948885D01*
X104525568Y-48948885D02*
X104596997Y-49020314D01*
X104596997Y-49020314D02*
X104668425Y-48948885D01*
X104668425Y-48948885D02*
X104596997Y-48877457D01*
X104596997Y-48877457D02*
X104596997Y-49020314D01*
X102811282Y-48234600D02*
X104096996Y-50163171D01*
X101239853Y-48234600D02*
X102525567Y-50163171D01*
X100096996Y-48806028D02*
X100096996Y-50020314D01*
X100096996Y-50020314D02*
X100168424Y-50163171D01*
X100168424Y-50163171D02*
X100239853Y-50234600D01*
X100239853Y-50234600D02*
X100382710Y-50306028D01*
X100382710Y-50306028D02*
X100596996Y-50306028D01*
X100596996Y-50306028D02*
X100739853Y-50234600D01*
X100096996Y-49734600D02*
X100239853Y-49806028D01*
X100239853Y-49806028D02*
X100525567Y-49806028D01*
X100525567Y-49806028D02*
X100668424Y-49734600D01*
X100668424Y-49734600D02*
X100739853Y-49663171D01*
X100739853Y-49663171D02*
X100811281Y-49520314D01*
X100811281Y-49520314D02*
X100811281Y-49091742D01*
X100811281Y-49091742D02*
X100739853Y-48948885D01*
X100739853Y-48948885D02*
X100668424Y-48877457D01*
X100668424Y-48877457D02*
X100525567Y-48806028D01*
X100525567Y-48806028D02*
X100239853Y-48806028D01*
X100239853Y-48806028D02*
X100096996Y-48877457D01*
X99382710Y-49806028D02*
X99382710Y-48806028D01*
X99382710Y-48306028D02*
X99454138Y-48377457D01*
X99454138Y-48377457D02*
X99382710Y-48448885D01*
X99382710Y-48448885D02*
X99311281Y-48377457D01*
X99311281Y-48377457D02*
X99382710Y-48306028D01*
X99382710Y-48306028D02*
X99382710Y-48448885D01*
X98882709Y-48806028D02*
X98311281Y-48806028D01*
X98668424Y-48306028D02*
X98668424Y-49591742D01*
X98668424Y-49591742D02*
X98596995Y-49734600D01*
X98596995Y-49734600D02*
X98454138Y-49806028D01*
X98454138Y-49806028D02*
X98311281Y-49806028D01*
X97811281Y-49806028D02*
X97811281Y-48306028D01*
X97168424Y-49806028D02*
X97168424Y-49020314D01*
X97168424Y-49020314D02*
X97239852Y-48877457D01*
X97239852Y-48877457D02*
X97382709Y-48806028D01*
X97382709Y-48806028D02*
X97596995Y-48806028D01*
X97596995Y-48806028D02*
X97739852Y-48877457D01*
X97739852Y-48877457D02*
X97811281Y-48948885D01*
X95811281Y-48806028D02*
X95811281Y-49806028D01*
X96454138Y-48806028D02*
X96454138Y-49591742D01*
X96454138Y-49591742D02*
X96382709Y-49734600D01*
X96382709Y-49734600D02*
X96239852Y-49806028D01*
X96239852Y-49806028D02*
X96025566Y-49806028D01*
X96025566Y-49806028D02*
X95882709Y-49734600D01*
X95882709Y-49734600D02*
X95811281Y-49663171D01*
X95096995Y-49806028D02*
X95096995Y-48306028D01*
X95096995Y-48877457D02*
X94954138Y-48806028D01*
X94954138Y-48806028D02*
X94668423Y-48806028D01*
X94668423Y-48806028D02*
X94525566Y-48877457D01*
X94525566Y-48877457D02*
X94454138Y-48948885D01*
X94454138Y-48948885D02*
X94382709Y-49091742D01*
X94382709Y-49091742D02*
X94382709Y-49520314D01*
X94382709Y-49520314D02*
X94454138Y-49663171D01*
X94454138Y-49663171D02*
X94525566Y-49734600D01*
X94525566Y-49734600D02*
X94668423Y-49806028D01*
X94668423Y-49806028D02*
X94954138Y-49806028D01*
X94954138Y-49806028D02*
X95096995Y-49734600D01*
X93739852Y-49663171D02*
X93668423Y-49734600D01*
X93668423Y-49734600D02*
X93739852Y-49806028D01*
X93739852Y-49806028D02*
X93811280Y-49734600D01*
X93811280Y-49734600D02*
X93739852Y-49663171D01*
X93739852Y-49663171D02*
X93739852Y-49806028D01*
X92382709Y-49734600D02*
X92525566Y-49806028D01*
X92525566Y-49806028D02*
X92811280Y-49806028D01*
X92811280Y-49806028D02*
X92954137Y-49734600D01*
X92954137Y-49734600D02*
X93025566Y-49663171D01*
X93025566Y-49663171D02*
X93096994Y-49520314D01*
X93096994Y-49520314D02*
X93096994Y-49091742D01*
X93096994Y-49091742D02*
X93025566Y-48948885D01*
X93025566Y-48948885D02*
X92954137Y-48877457D01*
X92954137Y-48877457D02*
X92811280Y-48806028D01*
X92811280Y-48806028D02*
X92525566Y-48806028D01*
X92525566Y-48806028D02*
X92382709Y-48877457D01*
X91525566Y-49806028D02*
X91668423Y-49734600D01*
X91668423Y-49734600D02*
X91739852Y-49663171D01*
X91739852Y-49663171D02*
X91811280Y-49520314D01*
X91811280Y-49520314D02*
X91811280Y-49091742D01*
X91811280Y-49091742D02*
X91739852Y-48948885D01*
X91739852Y-48948885D02*
X91668423Y-48877457D01*
X91668423Y-48877457D02*
X91525566Y-48806028D01*
X91525566Y-48806028D02*
X91311280Y-48806028D01*
X91311280Y-48806028D02*
X91168423Y-48877457D01*
X91168423Y-48877457D02*
X91096995Y-48948885D01*
X91096995Y-48948885D02*
X91025566Y-49091742D01*
X91025566Y-49091742D02*
X91025566Y-49520314D01*
X91025566Y-49520314D02*
X91096995Y-49663171D01*
X91096995Y-49663171D02*
X91168423Y-49734600D01*
X91168423Y-49734600D02*
X91311280Y-49806028D01*
X91311280Y-49806028D02*
X91525566Y-49806028D01*
X90382709Y-49806028D02*
X90382709Y-48806028D01*
X90382709Y-48948885D02*
X90311280Y-48877457D01*
X90311280Y-48877457D02*
X90168423Y-48806028D01*
X90168423Y-48806028D02*
X89954137Y-48806028D01*
X89954137Y-48806028D02*
X89811280Y-48877457D01*
X89811280Y-48877457D02*
X89739852Y-49020314D01*
X89739852Y-49020314D02*
X89739852Y-49806028D01*
X89739852Y-49020314D02*
X89668423Y-48877457D01*
X89668423Y-48877457D02*
X89525566Y-48806028D01*
X89525566Y-48806028D02*
X89311280Y-48806028D01*
X89311280Y-48806028D02*
X89168423Y-48877457D01*
X89168423Y-48877457D02*
X89096994Y-49020314D01*
X89096994Y-49020314D02*
X89096994Y-49806028D01*
X87311280Y-48234600D02*
X88596994Y-50163171D01*
X86811280Y-49806028D02*
X86811280Y-48306028D01*
X86811280Y-48306028D02*
X86454137Y-48306028D01*
X86454137Y-48306028D02*
X86239851Y-48377457D01*
X86239851Y-48377457D02*
X86096994Y-48520314D01*
X86096994Y-48520314D02*
X86025565Y-48663171D01*
X86025565Y-48663171D02*
X85954137Y-48948885D01*
X85954137Y-48948885D02*
X85954137Y-49163171D01*
X85954137Y-49163171D02*
X86025565Y-49448885D01*
X86025565Y-49448885D02*
X86096994Y-49591742D01*
X86096994Y-49591742D02*
X86239851Y-49734600D01*
X86239851Y-49734600D02*
X86454137Y-49806028D01*
X86454137Y-49806028D02*
X86811280Y-49806028D01*
X84668423Y-49806028D02*
X84668423Y-49020314D01*
X84668423Y-49020314D02*
X84739851Y-48877457D01*
X84739851Y-48877457D02*
X84882708Y-48806028D01*
X84882708Y-48806028D02*
X85168423Y-48806028D01*
X85168423Y-48806028D02*
X85311280Y-48877457D01*
X84668423Y-49734600D02*
X84811280Y-49806028D01*
X84811280Y-49806028D02*
X85168423Y-49806028D01*
X85168423Y-49806028D02*
X85311280Y-49734600D01*
X85311280Y-49734600D02*
X85382708Y-49591742D01*
X85382708Y-49591742D02*
X85382708Y-49448885D01*
X85382708Y-49448885D02*
X85311280Y-49306028D01*
X85311280Y-49306028D02*
X85168423Y-49234600D01*
X85168423Y-49234600D02*
X84811280Y-49234600D01*
X84811280Y-49234600D02*
X84668423Y-49163171D01*
X83954137Y-48806028D02*
X83954137Y-49806028D01*
X83954137Y-48948885D02*
X83882708Y-48877457D01*
X83882708Y-48877457D02*
X83739851Y-48806028D01*
X83739851Y-48806028D02*
X83525565Y-48806028D01*
X83525565Y-48806028D02*
X83382708Y-48877457D01*
X83382708Y-48877457D02*
X83311280Y-49020314D01*
X83311280Y-49020314D02*
X83311280Y-49806028D01*
X82025565Y-49734600D02*
X82168422Y-49806028D01*
X82168422Y-49806028D02*
X82454137Y-49806028D01*
X82454137Y-49806028D02*
X82596994Y-49734600D01*
X82596994Y-49734600D02*
X82668422Y-49591742D01*
X82668422Y-49591742D02*
X82668422Y-49020314D01*
X82668422Y-49020314D02*
X82596994Y-48877457D01*
X82596994Y-48877457D02*
X82454137Y-48806028D01*
X82454137Y-48806028D02*
X82168422Y-48806028D01*
X82168422Y-48806028D02*
X82025565Y-48877457D01*
X82025565Y-48877457D02*
X81954137Y-49020314D01*
X81954137Y-49020314D02*
X81954137Y-49163171D01*
X81954137Y-49163171D02*
X82668422Y-49306028D01*
X81311280Y-49020314D02*
X80811280Y-49020314D01*
X80596994Y-49806028D02*
X81311280Y-49806028D01*
X81311280Y-49806028D02*
X81311280Y-48306028D01*
X81311280Y-48306028D02*
X80596994Y-48306028D01*
X80096994Y-48806028D02*
X79739851Y-49806028D01*
X79739851Y-49806028D02*
X79382708Y-48806028D01*
X78168423Y-49806028D02*
X78168423Y-49020314D01*
X78168423Y-49020314D02*
X78239851Y-48877457D01*
X78239851Y-48877457D02*
X78382708Y-48806028D01*
X78382708Y-48806028D02*
X78668423Y-48806028D01*
X78668423Y-48806028D02*
X78811280Y-48877457D01*
X78168423Y-49734600D02*
X78311280Y-49806028D01*
X78311280Y-49806028D02*
X78668423Y-49806028D01*
X78668423Y-49806028D02*
X78811280Y-49734600D01*
X78811280Y-49734600D02*
X78882708Y-49591742D01*
X78882708Y-49591742D02*
X78882708Y-49448885D01*
X78882708Y-49448885D02*
X78811280Y-49306028D01*
X78811280Y-49306028D02*
X78668423Y-49234600D01*
X78668423Y-49234600D02*
X78311280Y-49234600D01*
X78311280Y-49234600D02*
X78168423Y-49163171D01*
X77454137Y-48806028D02*
X77454137Y-49806028D01*
X77454137Y-48948885D02*
X77382708Y-48877457D01*
X77382708Y-48877457D02*
X77239851Y-48806028D01*
X77239851Y-48806028D02*
X77025565Y-48806028D01*
X77025565Y-48806028D02*
X76882708Y-48877457D01*
X76882708Y-48877457D02*
X76811280Y-49020314D01*
X76811280Y-49020314D02*
X76811280Y-49806028D01*
X76168422Y-49734600D02*
X76025565Y-49806028D01*
X76025565Y-49806028D02*
X75739851Y-49806028D01*
X75739851Y-49806028D02*
X75596994Y-49734600D01*
X75596994Y-49734600D02*
X75525565Y-49591742D01*
X75525565Y-49591742D02*
X75525565Y-49520314D01*
X75525565Y-49520314D02*
X75596994Y-49377457D01*
X75596994Y-49377457D02*
X75739851Y-49306028D01*
X75739851Y-49306028D02*
X75954137Y-49306028D01*
X75954137Y-49306028D02*
X76096994Y-49234600D01*
X76096994Y-49234600D02*
X76168422Y-49091742D01*
X76168422Y-49091742D02*
X76168422Y-49020314D01*
X76168422Y-49020314D02*
X76096994Y-48877457D01*
X76096994Y-48877457D02*
X75954137Y-48806028D01*
X75954137Y-48806028D02*
X75739851Y-48806028D01*
X75739851Y-48806028D02*
X75596994Y-48877457D01*
X73811279Y-48234600D02*
X75096993Y-50163171D01*
X72668422Y-48806028D02*
X72668422Y-50020314D01*
X72668422Y-50020314D02*
X72739850Y-50163171D01*
X72739850Y-50163171D02*
X72811279Y-50234600D01*
X72811279Y-50234600D02*
X72954136Y-50306028D01*
X72954136Y-50306028D02*
X73168422Y-50306028D01*
X73168422Y-50306028D02*
X73311279Y-50234600D01*
X72668422Y-49734600D02*
X72811279Y-49806028D01*
X72811279Y-49806028D02*
X73096993Y-49806028D01*
X73096993Y-49806028D02*
X73239850Y-49734600D01*
X73239850Y-49734600D02*
X73311279Y-49663171D01*
X73311279Y-49663171D02*
X73382707Y-49520314D01*
X73382707Y-49520314D02*
X73382707Y-49091742D01*
X73382707Y-49091742D02*
X73311279Y-48948885D01*
X73311279Y-48948885D02*
X73239850Y-48877457D01*
X73239850Y-48877457D02*
X73096993Y-48806028D01*
X73096993Y-48806028D02*
X72811279Y-48806028D01*
X72811279Y-48806028D02*
X72668422Y-48877457D01*
X71382707Y-49734600D02*
X71525564Y-49806028D01*
X71525564Y-49806028D02*
X71811279Y-49806028D01*
X71811279Y-49806028D02*
X71954136Y-49734600D01*
X71954136Y-49734600D02*
X72025564Y-49591742D01*
X72025564Y-49591742D02*
X72025564Y-49020314D01*
X72025564Y-49020314D02*
X71954136Y-48877457D01*
X71954136Y-48877457D02*
X71811279Y-48806028D01*
X71811279Y-48806028D02*
X71525564Y-48806028D01*
X71525564Y-48806028D02*
X71382707Y-48877457D01*
X71382707Y-48877457D02*
X71311279Y-49020314D01*
X71311279Y-49020314D02*
X71311279Y-49163171D01*
X71311279Y-49163171D02*
X72025564Y-49306028D01*
X70025565Y-49734600D02*
X70168422Y-49806028D01*
X70168422Y-49806028D02*
X70454136Y-49806028D01*
X70454136Y-49806028D02*
X70596993Y-49734600D01*
X70596993Y-49734600D02*
X70668422Y-49663171D01*
X70668422Y-49663171D02*
X70739850Y-49520314D01*
X70739850Y-49520314D02*
X70739850Y-49091742D01*
X70739850Y-49091742D02*
X70668422Y-48948885D01*
X70668422Y-48948885D02*
X70596993Y-48877457D01*
X70596993Y-48877457D02*
X70454136Y-48806028D01*
X70454136Y-48806028D02*
X70168422Y-48806028D01*
X70168422Y-48806028D02*
X70025565Y-48877457D01*
X69382708Y-49806028D02*
X69382708Y-48306028D01*
X69239851Y-49234600D02*
X68811279Y-49806028D01*
X68811279Y-48806028D02*
X69382708Y-49377457D01*
X67954136Y-49806028D02*
X68096993Y-49734600D01*
X68096993Y-49734600D02*
X68168422Y-49663171D01*
X68168422Y-49663171D02*
X68239850Y-49520314D01*
X68239850Y-49520314D02*
X68239850Y-49091742D01*
X68239850Y-49091742D02*
X68168422Y-48948885D01*
X68168422Y-48948885D02*
X68096993Y-48877457D01*
X68096993Y-48877457D02*
X67954136Y-48806028D01*
X67954136Y-48806028D02*
X67739850Y-48806028D01*
X67739850Y-48806028D02*
X67596993Y-48877457D01*
X67596993Y-48877457D02*
X67525565Y-48948885D01*
X67525565Y-48948885D02*
X67454136Y-49091742D01*
X67454136Y-49091742D02*
X67454136Y-49520314D01*
X67454136Y-49520314D02*
X67525565Y-49663171D01*
X67525565Y-49663171D02*
X67596993Y-49734600D01*
X67596993Y-49734600D02*
X67739850Y-49806028D01*
X67739850Y-49806028D02*
X67954136Y-49806028D01*
D12*
D13*
X109326884Y-43047228D02*
X109498313Y-42961514D01*
X109498313Y-42961514D02*
X109755455Y-42961514D01*
X109755455Y-42961514D02*
X110012598Y-43047228D01*
X110012598Y-43047228D02*
X110184027Y-43218657D01*
X110184027Y-43218657D02*
X110269741Y-43390085D01*
X110269741Y-43390085D02*
X110355455Y-43732942D01*
X110355455Y-43732942D02*
X110355455Y-43990085D01*
X110355455Y-43990085D02*
X110269741Y-44332942D01*
X110269741Y-44332942D02*
X110184027Y-44504371D01*
X110184027Y-44504371D02*
X110012598Y-44675800D01*
X110012598Y-44675800D02*
X109755455Y-44761514D01*
X109755455Y-44761514D02*
X109584027Y-44761514D01*
X109584027Y-44761514D02*
X109326884Y-44675800D01*
X109326884Y-44675800D02*
X109241170Y-44590085D01*
X109241170Y-44590085D02*
X109241170Y-43990085D01*
X109241170Y-43990085D02*
X109584027Y-43990085D01*
X107784027Y-44675800D02*
X107955455Y-44761514D01*
X107955455Y-44761514D02*
X108298313Y-44761514D01*
X108298313Y-44761514D02*
X108469741Y-44675800D01*
X108469741Y-44675800D02*
X108555455Y-44504371D01*
X108555455Y-44504371D02*
X108555455Y-43818657D01*
X108555455Y-43818657D02*
X108469741Y-43647228D01*
X108469741Y-43647228D02*
X108298313Y-43561514D01*
X108298313Y-43561514D02*
X107955455Y-43561514D01*
X107955455Y-43561514D02*
X107784027Y-43647228D01*
X107784027Y-43647228D02*
X107698313Y-43818657D01*
X107698313Y-43818657D02*
X107698313Y-43990085D01*
X107698313Y-43990085D02*
X108555455Y-44161514D01*
X106155456Y-44675800D02*
X106326884Y-44761514D01*
X106326884Y-44761514D02*
X106669741Y-44761514D01*
X106669741Y-44761514D02*
X106841170Y-44675800D01*
X106841170Y-44675800D02*
X106926884Y-44590085D01*
X106926884Y-44590085D02*
X107012598Y-44418657D01*
X107012598Y-44418657D02*
X107012598Y-43904371D01*
X107012598Y-43904371D02*
X106926884Y-43732942D01*
X106926884Y-43732942D02*
X106841170Y-43647228D01*
X106841170Y-43647228D02*
X106669741Y-43561514D01*
X106669741Y-43561514D02*
X106326884Y-43561514D01*
X106326884Y-43561514D02*
X106155456Y-43647228D01*
X105384027Y-44761514D02*
X105384027Y-42961514D01*
X105212599Y-44075800D02*
X104698313Y-44761514D01*
X104698313Y-43561514D02*
X105384027Y-44247228D01*
X103669741Y-44761514D02*
X103841170Y-44675800D01*
X103841170Y-44675800D02*
X103926884Y-44590085D01*
X103926884Y-44590085D02*
X104012598Y-44418657D01*
X104012598Y-44418657D02*
X104012598Y-43904371D01*
X104012598Y-43904371D02*
X103926884Y-43732942D01*
X103926884Y-43732942D02*
X103841170Y-43647228D01*
X103841170Y-43647228D02*
X103669741Y-43561514D01*
X103669741Y-43561514D02*
X103412598Y-43561514D01*
X103412598Y-43561514D02*
X103241170Y-43647228D01*
X103241170Y-43647228D02*
X103155456Y-43732942D01*
X103155456Y-43732942D02*
X103069741Y-43904371D01*
X103069741Y-43904371D02*
X103069741Y-44418657D01*
X103069741Y-44418657D02*
X103155456Y-44590085D01*
X103155456Y-44590085D02*
X103241170Y-44675800D01*
X103241170Y-44675800D02*
X103412598Y-44761514D01*
X103412598Y-44761514D02*
X103669741Y-44761514D01*
X100926884Y-44761514D02*
X100926884Y-42961514D01*
X99898313Y-44761514D02*
X100669741Y-43732942D01*
X99898313Y-42961514D02*
X100926884Y-43990085D01*
X98441170Y-44675800D02*
X98612598Y-44761514D01*
X98612598Y-44761514D02*
X98955456Y-44761514D01*
X98955456Y-44761514D02*
X99126884Y-44675800D01*
X99126884Y-44675800D02*
X99212598Y-44504371D01*
X99212598Y-44504371D02*
X99212598Y-43818657D01*
X99212598Y-43818657D02*
X99126884Y-43647228D01*
X99126884Y-43647228D02*
X98955456Y-43561514D01*
X98955456Y-43561514D02*
X98612598Y-43561514D01*
X98612598Y-43561514D02*
X98441170Y-43647228D01*
X98441170Y-43647228D02*
X98355456Y-43818657D01*
X98355456Y-43818657D02*
X98355456Y-43990085D01*
X98355456Y-43990085D02*
X99212598Y-44161514D01*
X97755456Y-43561514D02*
X97326884Y-44761514D01*
X96898313Y-43561514D02*
X97326884Y-44761514D01*
X97326884Y-44761514D02*
X97498313Y-45190085D01*
X97498313Y-45190085D02*
X97584027Y-45275800D01*
X97584027Y-45275800D02*
X97755456Y-45361514D01*
X96212598Y-44761514D02*
X96212598Y-42961514D01*
X96212598Y-43647228D02*
X96041170Y-43561514D01*
X96041170Y-43561514D02*
X95698312Y-43561514D01*
X95698312Y-43561514D02*
X95526884Y-43647228D01*
X95526884Y-43647228D02*
X95441170Y-43732942D01*
X95441170Y-43732942D02*
X95355455Y-43904371D01*
X95355455Y-43904371D02*
X95355455Y-44418657D01*
X95355455Y-44418657D02*
X95441170Y-44590085D01*
X95441170Y-44590085D02*
X95526884Y-44675800D01*
X95526884Y-44675800D02*
X95698312Y-44761514D01*
X95698312Y-44761514D02*
X96041170Y-44761514D01*
X96041170Y-44761514D02*
X96212598Y-44675800D01*
X94326884Y-44761514D02*
X94498313Y-44675800D01*
X94498313Y-44675800D02*
X94584027Y-44590085D01*
X94584027Y-44590085D02*
X94669741Y-44418657D01*
X94669741Y-44418657D02*
X94669741Y-43904371D01*
X94669741Y-43904371D02*
X94584027Y-43732942D01*
X94584027Y-43732942D02*
X94498313Y-43647228D01*
X94498313Y-43647228D02*
X94326884Y-43561514D01*
X94326884Y-43561514D02*
X94069741Y-43561514D01*
X94069741Y-43561514D02*
X93898313Y-43647228D01*
X93898313Y-43647228D02*
X93812599Y-43732942D01*
X93812599Y-43732942D02*
X93726884Y-43904371D01*
X93726884Y-43904371D02*
X93726884Y-44418657D01*
X93726884Y-44418657D02*
X93812599Y-44590085D01*
X93812599Y-44590085D02*
X93898313Y-44675800D01*
X93898313Y-44675800D02*
X94069741Y-44761514D01*
X94069741Y-44761514D02*
X94326884Y-44761514D01*
X92184028Y-44761514D02*
X92184028Y-43818657D01*
X92184028Y-43818657D02*
X92269742Y-43647228D01*
X92269742Y-43647228D02*
X92441170Y-43561514D01*
X92441170Y-43561514D02*
X92784028Y-43561514D01*
X92784028Y-43561514D02*
X92955456Y-43647228D01*
X92184028Y-44675800D02*
X92355456Y-44761514D01*
X92355456Y-44761514D02*
X92784028Y-44761514D01*
X92784028Y-44761514D02*
X92955456Y-44675800D01*
X92955456Y-44675800D02*
X93041170Y-44504371D01*
X93041170Y-44504371D02*
X93041170Y-44332942D01*
X93041170Y-44332942D02*
X92955456Y-44161514D01*
X92955456Y-44161514D02*
X92784028Y-44075800D01*
X92784028Y-44075800D02*
X92355456Y-44075800D01*
X92355456Y-44075800D02*
X92184028Y-43990085D01*
X91326885Y-44761514D02*
X91326885Y-43561514D01*
X91326885Y-43904371D02*
X91241171Y-43732942D01*
X91241171Y-43732942D02*
X91155457Y-43647228D01*
X91155457Y-43647228D02*
X90984028Y-43561514D01*
X90984028Y-43561514D02*
X90812599Y-43561514D01*
X89441171Y-44761514D02*
X89441171Y-42961514D01*
X89441171Y-44675800D02*
X89612599Y-44761514D01*
X89612599Y-44761514D02*
X89955456Y-44761514D01*
X89955456Y-44761514D02*
X90126885Y-44675800D01*
X90126885Y-44675800D02*
X90212599Y-44590085D01*
X90212599Y-44590085D02*
X90298313Y-44418657D01*
X90298313Y-44418657D02*
X90298313Y-43904371D01*
X90298313Y-43904371D02*
X90212599Y-43732942D01*
X90212599Y-43732942D02*
X90126885Y-43647228D01*
X90126885Y-43647228D02*
X89955456Y-43561514D01*
X89955456Y-43561514D02*
X89612599Y-43561514D01*
X89612599Y-43561514D02*
X89441171Y-43647228D01*
D14*
D15*
X37941898Y-114513580D02*
X38065256Y-114615034D01*
X38065256Y-114615034D02*
X38152414Y-114810794D01*
X38152414Y-114810794D02*
X38174319Y-115035606D01*
X38174319Y-115035606D02*
X38101918Y-115224218D01*
X38101918Y-115224218D02*
X38000464Y-115347576D01*
X38000464Y-115347576D02*
X37768503Y-115529040D01*
X37768503Y-115529040D02*
X37572744Y-115616198D01*
X37572744Y-115616198D02*
X37282678Y-115667155D01*
X37282678Y-115667155D02*
X37123119Y-115660007D01*
X37123119Y-115660007D02*
X36934507Y-115587606D01*
X36934507Y-115587606D02*
X36782096Y-115420899D01*
X36782096Y-115420899D02*
X36723991Y-115290392D01*
X36723991Y-115290392D02*
X36702086Y-115065580D01*
X36702086Y-115065580D02*
X36738287Y-114971274D01*
X36738287Y-114971274D02*
X37195060Y-114767906D01*
X37195060Y-114767906D02*
X37311270Y-115028919D01*
X36179139Y-113891022D02*
X36171991Y-114050581D01*
X36171991Y-114050581D02*
X36288202Y-114311594D01*
X36288202Y-114311594D02*
X36411560Y-114413048D01*
X36411560Y-114413048D02*
X36571119Y-114420196D01*
X36571119Y-114420196D02*
X37093145Y-114187775D01*
X37093145Y-114187775D02*
X37194599Y-114064416D01*
X37194599Y-114064416D02*
X37201747Y-113904857D01*
X37201747Y-113904857D02*
X37085537Y-113643844D01*
X37085537Y-113643844D02*
X36962178Y-113542390D01*
X36962178Y-113542390D02*
X36802619Y-113535242D01*
X36802619Y-113535242D02*
X36672112Y-113593347D01*
X36672112Y-113593347D02*
X36832132Y-114303985D01*
X35627139Y-112651210D02*
X35619991Y-112810769D01*
X35619991Y-112810769D02*
X35736202Y-113071782D01*
X35736202Y-113071782D02*
X35859560Y-113173236D01*
X35859560Y-113173236D02*
X35953866Y-113209437D01*
X35953866Y-113209437D02*
X36113425Y-113216585D01*
X36113425Y-113216585D02*
X36504945Y-113042269D01*
X36504945Y-113042269D02*
X36606399Y-112918911D01*
X36606399Y-112918911D02*
X36642599Y-112824605D01*
X36642599Y-112824605D02*
X36649747Y-112665046D01*
X36649747Y-112665046D02*
X36533537Y-112404033D01*
X36533537Y-112404033D02*
X36410178Y-112302579D01*
X35300413Y-112092984D02*
X36670731Y-111482879D01*
X35764334Y-111730056D02*
X35067992Y-111570958D01*
X35981537Y-111164221D02*
X35691932Y-111918668D01*
X34719360Y-110787919D02*
X34842719Y-110889372D01*
X34842719Y-110889372D02*
X34937025Y-110925573D01*
X34937025Y-110925573D02*
X35096584Y-110932721D01*
X35096584Y-110932721D02*
X35488103Y-110758405D01*
X35488103Y-110758405D02*
X35589557Y-110635047D01*
X35589557Y-110635047D02*
X35625758Y-110540741D01*
X35625758Y-110540741D02*
X35632906Y-110381182D01*
X35632906Y-110381182D02*
X35545748Y-110185422D01*
X35545748Y-110185422D02*
X35422389Y-110083968D01*
X35422389Y-110083968D02*
X35328084Y-110047768D01*
X35328084Y-110047768D02*
X35168524Y-110040620D01*
X35168524Y-110040620D02*
X34777005Y-110214935D01*
X34777005Y-110214935D02*
X34675551Y-110338294D01*
X34675551Y-110338294D02*
X34639351Y-110432600D01*
X34639351Y-110432600D02*
X34632202Y-110592159D01*
X34632202Y-110592159D02*
X34719360Y-110787919D01*
X34761327Y-108423584D02*
X33702519Y-108504055D01*
X33702519Y-108504055D02*
X34470801Y-107771052D01*
X34578942Y-106784645D02*
X34520837Y-106654138D01*
X34520837Y-106654138D02*
X34397479Y-106552685D01*
X34397479Y-106552685D02*
X34303173Y-106516484D01*
X34303173Y-106516484D02*
X34143614Y-106509336D01*
X34143614Y-106509336D02*
X33853548Y-106560293D01*
X33853548Y-106560293D02*
X33527282Y-106705556D01*
X33527282Y-106705556D02*
X33295322Y-106887020D01*
X33295322Y-106887020D02*
X33193868Y-107010378D01*
X33193868Y-107010378D02*
X33157667Y-107104684D01*
X33157667Y-107104684D02*
X33150519Y-107264243D01*
X33150519Y-107264243D02*
X33208624Y-107394750D01*
X33208624Y-107394750D02*
X33331983Y-107496204D01*
X33331983Y-107496204D02*
X33426289Y-107532404D01*
X33426289Y-107532404D02*
X33585848Y-107539552D01*
X33585848Y-107539552D02*
X33875913Y-107488595D01*
X33875913Y-107488595D02*
X34202180Y-107343332D01*
X34202180Y-107343332D02*
X34434140Y-107161868D01*
X34434140Y-107161868D02*
X34535594Y-107038510D01*
X34535594Y-107038510D02*
X34571794Y-106944204D01*
X34571794Y-106944204D02*
X34578942Y-106784645D01*
X32874289Y-106292593D02*
X32779983Y-106256392D01*
X32779983Y-106256392D02*
X32743783Y-106350698D01*
X32743783Y-106350698D02*
X32838088Y-106386899D01*
X32838088Y-106386899D02*
X32874289Y-106292593D01*
X32874289Y-106292593D02*
X32743783Y-106350698D01*
X32133678Y-104980380D02*
X32482309Y-105763419D01*
X32307993Y-105371899D02*
X33678311Y-104761794D01*
X33678311Y-104761794D02*
X33540657Y-104979459D01*
X33540657Y-104979459D02*
X33468256Y-105168070D01*
X33468256Y-105168070D02*
X33461108Y-105327630D01*
X31908405Y-104298795D02*
X31843152Y-104327848D01*
X31843152Y-104327848D02*
X31741698Y-104451206D01*
X31741698Y-104451206D02*
X31705497Y-104545512D01*
X31116836Y-102696516D02*
X32487154Y-102086411D01*
X32487154Y-102086411D02*
X32341891Y-101760145D01*
X32341891Y-101760145D02*
X32189480Y-101593438D01*
X32189480Y-101593438D02*
X32000868Y-101521037D01*
X32000868Y-101521037D02*
X31841309Y-101513889D01*
X31841309Y-101513889D02*
X31551244Y-101564846D01*
X31551244Y-101564846D02*
X31355484Y-101652004D01*
X31355484Y-101652004D02*
X31123523Y-101833468D01*
X31123523Y-101833468D02*
X31022070Y-101956826D01*
X31022070Y-101956826D02*
X30949668Y-102145438D01*
X30949668Y-102145438D02*
X30971573Y-102370250D01*
X30971573Y-102370250D02*
X31116836Y-102696516D01*
X30245258Y-100738919D02*
X30963043Y-100419340D01*
X30963043Y-100419340D02*
X31122602Y-100426488D01*
X31122602Y-100426488D02*
X31245961Y-100527942D01*
X31245961Y-100527942D02*
X31362171Y-100788955D01*
X31362171Y-100788955D02*
X31355023Y-100948514D01*
X30310511Y-100709866D02*
X30303363Y-100869426D01*
X30303363Y-100869426D02*
X30448626Y-101195692D01*
X30448626Y-101195692D02*
X30571984Y-101297146D01*
X30571984Y-101297146D02*
X30731543Y-101304294D01*
X30731543Y-101304294D02*
X30862050Y-101246188D01*
X30862050Y-101246188D02*
X30963504Y-101122830D01*
X30963504Y-101122830D02*
X30970652Y-100963271D01*
X30970652Y-100963271D02*
X30825389Y-100637005D01*
X30825389Y-100637005D02*
X30832537Y-100477445D01*
X30868277Y-99679650D02*
X29954731Y-100086386D01*
X30737770Y-99737755D02*
X30773971Y-99643449D01*
X30773971Y-99643449D02*
X30781119Y-99483890D01*
X30781119Y-99483890D02*
X30693961Y-99288130D01*
X30693961Y-99288130D02*
X30570603Y-99186676D01*
X30570603Y-99186676D02*
X30411043Y-99179528D01*
X30411043Y-99179528D02*
X29693258Y-99499107D01*
X29235564Y-98295496D02*
X29228416Y-98455055D01*
X29228416Y-98455055D02*
X29344626Y-98716068D01*
X29344626Y-98716068D02*
X29467985Y-98817522D01*
X29467985Y-98817522D02*
X29627544Y-98824670D01*
X29627544Y-98824670D02*
X30149570Y-98592249D01*
X30149570Y-98592249D02*
X30251024Y-98468891D01*
X30251024Y-98468891D02*
X30258172Y-98309331D01*
X30258172Y-98309331D02*
X30141961Y-98048318D01*
X30141961Y-98048318D02*
X30018603Y-97946865D01*
X30018603Y-97946865D02*
X29859044Y-97939717D01*
X29859044Y-97939717D02*
X29728537Y-97997822D01*
X29728537Y-97997822D02*
X29888557Y-98708460D01*
X29132728Y-96308386D02*
X28929360Y-95851613D01*
X28124416Y-95975432D02*
X28414943Y-96627965D01*
X28414943Y-96627965D02*
X29785261Y-96017860D01*
X29785261Y-96017860D02*
X29494735Y-95365327D01*
X28834594Y-95111923D02*
X27775785Y-95192393D01*
X27775785Y-95192393D02*
X28544067Y-94459390D01*
X27136628Y-93756822D02*
X27854413Y-93437243D01*
X27854413Y-93437243D02*
X28013972Y-93444391D01*
X28013972Y-93444391D02*
X28137331Y-93545845D01*
X28137331Y-93545845D02*
X28253541Y-93806858D01*
X28253541Y-93806858D02*
X28246393Y-93966417D01*
X27201881Y-93727769D02*
X27194733Y-93887328D01*
X27194733Y-93887328D02*
X27339996Y-94213594D01*
X27339996Y-94213594D02*
X27463354Y-94315048D01*
X27463354Y-94315048D02*
X27622913Y-94322196D01*
X27622913Y-94322196D02*
X27753420Y-94264091D01*
X27753420Y-94264091D02*
X27854874Y-94140733D01*
X27854874Y-94140733D02*
X27862022Y-93981174D01*
X27862022Y-93981174D02*
X27716759Y-93654907D01*
X27716759Y-93654907D02*
X27723907Y-93495348D01*
X27759647Y-92697552D02*
X26846101Y-93104289D01*
X27629140Y-92755658D02*
X27665341Y-92661352D01*
X27665341Y-92661352D02*
X27672489Y-92501793D01*
X27672489Y-92501793D02*
X27585331Y-92306033D01*
X27585331Y-92306033D02*
X27461973Y-92204579D01*
X27461973Y-92204579D02*
X27302413Y-92197431D01*
X27302413Y-92197431D02*
X26584628Y-92517010D01*
X26388407Y-91900678D02*
X26265049Y-91799224D01*
X26265049Y-91799224D02*
X26148838Y-91538211D01*
X26148838Y-91538211D02*
X26155986Y-91378652D01*
X26155986Y-91378652D02*
X26257440Y-91255293D01*
X26257440Y-91255293D02*
X26322694Y-91226241D01*
X26322694Y-91226241D02*
X26482253Y-91233389D01*
X26482253Y-91233389D02*
X26605611Y-91334843D01*
X26605611Y-91334843D02*
X26692769Y-91530603D01*
X26692769Y-91530603D02*
X26816127Y-91632056D01*
X26816127Y-91632056D02*
X26975687Y-91639204D01*
X26975687Y-91639204D02*
X27040940Y-91610152D01*
X27040940Y-91610152D02*
X27142394Y-91486793D01*
X27142394Y-91486793D02*
X27149542Y-91327234D01*
X27149542Y-91327234D02*
X27062384Y-91131474D01*
X27062384Y-91131474D02*
X26939025Y-91030021D01*
%TA.AperFunction,NonConductor*%
G36*
X100872360Y-23530037D02*
G01*
X100918149Y-23530161D01*
X100921722Y-23530222D01*
X100995954Y-23532576D01*
X101005252Y-23533221D01*
X101057209Y-23538798D01*
X101067731Y-23540388D01*
X101078501Y-23542493D01*
X101090380Y-23545431D01*
X101120266Y-23554410D01*
X101134724Y-23559755D01*
X101142890Y-23563366D01*
X101161844Y-23571748D01*
X101179846Y-23581563D01*
X101207229Y-23599580D01*
X101219127Y-23608476D01*
X101246996Y-23632048D01*
X101257367Y-23641902D01*
X101281421Y-23667557D01*
X101292199Y-23680764D01*
X101312058Y-23708844D01*
X101320084Y-23721819D01*
X101332080Y-23744181D01*
X101338593Y-23758411D01*
X101349123Y-23785878D01*
X101353310Y-23798912D01*
X101356833Y-23812392D01*
X101359379Y-23824618D01*
X101365692Y-23865054D01*
X101366935Y-23876447D01*
X101370887Y-23939679D01*
X101371123Y-23946259D01*
X101371915Y-24031314D01*
X101371920Y-24032469D01*
X101371920Y-25476677D01*
X101406028Y-25603973D01*
X101412974Y-25616003D01*
X101471920Y-25718100D01*
X101565106Y-25811286D01*
X101679234Y-25877178D01*
X101806528Y-25911286D01*
X101938312Y-25911286D01*
X108456524Y-25911286D01*
X119921646Y-25911286D01*
X119922360Y-25911287D01*
X119968149Y-25911411D01*
X119971722Y-25911472D01*
X120045954Y-25913826D01*
X120055252Y-25914471D01*
X120107209Y-25920048D01*
X120117731Y-25921638D01*
X120128501Y-25923743D01*
X120140380Y-25926681D01*
X120170266Y-25935660D01*
X120184724Y-25941005D01*
X120192890Y-25944616D01*
X120211844Y-25952998D01*
X120229846Y-25962813D01*
X120257229Y-25980830D01*
X120269127Y-25989726D01*
X120296996Y-26013298D01*
X120307367Y-26023152D01*
X120331421Y-26048807D01*
X120342199Y-26062014D01*
X120362058Y-26090094D01*
X120370084Y-26103069D01*
X120382080Y-26125431D01*
X120388593Y-26139661D01*
X120399123Y-26167128D01*
X120403310Y-26180162D01*
X120406833Y-26193642D01*
X120409379Y-26205868D01*
X120415692Y-26246304D01*
X120416935Y-26257697D01*
X120420887Y-26320929D01*
X120421123Y-26327509D01*
X120421915Y-26412564D01*
X120421920Y-26413719D01*
X120421920Y-30239177D01*
X120434624Y-30286588D01*
X120456028Y-30366472D01*
X120488974Y-30423535D01*
X120521920Y-30480599D01*
X120615106Y-30573785D01*
X120729234Y-30639677D01*
X120856528Y-30673785D01*
X120856530Y-30673785D01*
X121039668Y-30673785D01*
X121039671Y-30673783D01*
X158021648Y-30673778D01*
X158022364Y-30673779D01*
X158068147Y-30673903D01*
X158071720Y-30673964D01*
X158145952Y-30676318D01*
X158155250Y-30676963D01*
X158207207Y-30682540D01*
X158217738Y-30684132D01*
X158228484Y-30686232D01*
X158240380Y-30689173D01*
X158256861Y-30694126D01*
X158270267Y-30698154D01*
X158284728Y-30703500D01*
X158311842Y-30715489D01*
X158329842Y-30725303D01*
X158357218Y-30743316D01*
X158369135Y-30752226D01*
X158396990Y-30775787D01*
X158407367Y-30785646D01*
X158431418Y-30811297D01*
X158442199Y-30824510D01*
X158462054Y-30852583D01*
X158470078Y-30865553D01*
X158478604Y-30881445D01*
X158482071Y-30887907D01*
X158488585Y-30902140D01*
X158499125Y-30929634D01*
X158503310Y-30942660D01*
X158506830Y-30956126D01*
X158509377Y-30968359D01*
X158515692Y-31008808D01*
X158516932Y-31020181D01*
X158520885Y-31083423D01*
X158521121Y-31089983D01*
X158521913Y-31175058D01*
X158521918Y-31176212D01*
X158521919Y-87322148D01*
X158521919Y-87322484D01*
X158521793Y-87368999D01*
X158521731Y-87372594D01*
X158519377Y-87446819D01*
X158518731Y-87456122D01*
X158513156Y-87508061D01*
X158511564Y-87518597D01*
X158509464Y-87529349D01*
X158506518Y-87541263D01*
X158497543Y-87571131D01*
X158492196Y-87585596D01*
X158480211Y-87612699D01*
X158470392Y-87630708D01*
X158452380Y-87658083D01*
X158443471Y-87669999D01*
X158419912Y-87697855D01*
X158410043Y-87708242D01*
X158384397Y-87732286D01*
X158371190Y-87743062D01*
X158343112Y-87762921D01*
X158330129Y-87770953D01*
X158307787Y-87782939D01*
X158293553Y-87789454D01*
X158266061Y-87799993D01*
X158253031Y-87804179D01*
X158239567Y-87807698D01*
X158227339Y-87810244D01*
X158186897Y-87816558D01*
X158175504Y-87817801D01*
X158112274Y-87821753D01*
X158105694Y-87821989D01*
X158021349Y-87822774D01*
X158020638Y-87822781D01*
X158019485Y-87822786D01*
X147112664Y-87822786D01*
X147080597Y-87818567D01*
X147063225Y-87813916D01*
X147063221Y-87813916D01*
X147048696Y-87813918D01*
X147048644Y-87813903D01*
X146912786Y-87813950D01*
X146911231Y-87813951D01*
X146911226Y-87813951D01*
X146911224Y-87813952D01*
X146741518Y-87843143D01*
X146579201Y-87900656D01*
X146428977Y-87984822D01*
X146428976Y-87984822D01*
X146295166Y-88093223D01*
X146181652Y-88222715D01*
X146181644Y-88222725D01*
X146091702Y-88369567D01*
X146091702Y-88369568D01*
X146084938Y-88386526D01*
X146077076Y-88401350D01*
X146077091Y-88401358D01*
X146073447Y-88408623D01*
X146056513Y-88457440D01*
X146054545Y-88462723D01*
X146035398Y-88510746D01*
X146033400Y-88518624D01*
X146033378Y-88518618D01*
X146029630Y-88534932D01*
X139691052Y-106807131D01*
X139650484Y-106864017D01*
X139585600Y-106889939D01*
X139574118Y-106890492D01*
X138621895Y-106892161D01*
X120709862Y-106892161D01*
X120657802Y-106880703D01*
X120407195Y-106764776D01*
X117133164Y-105250258D01*
X117123225Y-105245103D01*
X117090604Y-105226269D01*
X117090597Y-105226266D01*
X117078798Y-105223105D01*
X117058836Y-105215875D01*
X117047745Y-105210745D01*
X117047741Y-105210743D01*
X117010617Y-105204314D01*
X116999693Y-105201909D01*
X116985082Y-105197995D01*
X116963310Y-105192161D01*
X116963308Y-105192161D01*
X116951093Y-105192161D01*
X116929937Y-105190343D01*
X116925490Y-105189573D01*
X116917891Y-105188257D01*
X116917890Y-105188257D01*
X116917885Y-105188257D01*
X116884048Y-105191322D01*
X116880375Y-105191655D01*
X116869189Y-105192161D01*
X69865256Y-105192161D01*
X69858178Y-105191959D01*
X69810202Y-105189216D01*
X69810201Y-105189216D01*
X69810199Y-105189216D01*
X69808475Y-105189573D01*
X69783279Y-105192161D01*
X69781520Y-105192161D01*
X69735102Y-105204599D01*
X69728214Y-105206235D01*
X54203418Y-108429122D01*
X54197356Y-108430224D01*
X54147575Y-108438002D01*
X54145272Y-108438679D01*
X54126021Y-108444861D01*
X54123683Y-108445676D01*
X54078709Y-108468322D01*
X54073142Y-108470955D01*
X39131137Y-115086215D01*
X39061867Y-115095355D01*
X38998653Y-115065594D01*
X38967658Y-115023265D01*
X36037984Y-108443110D01*
X35796176Y-107900000D01*
X39394551Y-107900000D01*
X39414317Y-108151151D01*
X39473126Y-108396110D01*
X39569533Y-108628859D01*
X39701160Y-108843653D01*
X39701161Y-108843656D01*
X39701164Y-108843659D01*
X39864776Y-109035224D01*
X40013066Y-109161875D01*
X40056343Y-109198838D01*
X40056346Y-109198839D01*
X40271140Y-109330466D01*
X40442761Y-109401553D01*
X40503889Y-109426873D01*
X40748852Y-109485683D01*
X41000000Y-109505449D01*
X41251148Y-109485683D01*
X41496111Y-109426873D01*
X41728859Y-109330466D01*
X41943659Y-109198836D01*
X42135224Y-109035224D01*
X42298836Y-108843659D01*
X42430466Y-108628859D01*
X42526873Y-108396111D01*
X42585683Y-108151148D01*
X42605449Y-107900000D01*
X42585683Y-107648852D01*
X42526873Y-107403889D01*
X42484048Y-107300500D01*
X42430466Y-107171140D01*
X42298839Y-106956346D01*
X42298838Y-106956343D01*
X42244021Y-106892161D01*
X42135224Y-106764776D01*
X42008571Y-106656604D01*
X41943656Y-106601161D01*
X41943653Y-106601160D01*
X41728859Y-106469533D01*
X41496110Y-106373126D01*
X41251151Y-106314317D01*
X41000000Y-106294551D01*
X40748848Y-106314317D01*
X40503889Y-106373126D01*
X40271140Y-106469533D01*
X40056346Y-106601160D01*
X40056343Y-106601161D01*
X39864776Y-106764776D01*
X39701161Y-106956343D01*
X39701160Y-106956346D01*
X39569533Y-107171140D01*
X39473126Y-107403889D01*
X39414317Y-107648848D01*
X39394551Y-107900000D01*
X35796176Y-107900000D01*
X27766107Y-89864168D01*
X25657149Y-90803136D01*
X25587899Y-90812420D01*
X25524623Y-90782792D01*
X25493329Y-90740055D01*
X25218615Y-90119554D01*
X25217500Y-90116953D01*
X25193412Y-90058898D01*
X25188850Y-90045904D01*
X25182401Y-90023640D01*
X25178634Y-90005830D01*
X25175518Y-89982856D01*
X25174429Y-89969131D01*
X25172959Y-89906543D01*
X25172926Y-89903549D01*
X25172965Y-89864168D01*
X25177239Y-85442036D01*
X61666971Y-85442036D01*
X61686737Y-85693187D01*
X61745546Y-85938146D01*
X61841953Y-86170895D01*
X61973580Y-86385689D01*
X61973581Y-86385692D01*
X61973584Y-86385695D01*
X62137196Y-86577260D01*
X62285486Y-86703911D01*
X62328763Y-86740874D01*
X62328766Y-86740875D01*
X62543560Y-86872502D01*
X62776309Y-86968909D01*
X63021272Y-87027719D01*
X63272420Y-87047485D01*
X63523568Y-87027719D01*
X63768531Y-86968909D01*
X64001279Y-86872502D01*
X64216079Y-86740872D01*
X64407644Y-86577260D01*
X64571256Y-86385695D01*
X64702886Y-86170895D01*
X64799293Y-85938147D01*
X64858103Y-85693184D01*
X64877869Y-85442036D01*
X64858103Y-85190888D01*
X64799293Y-84945925D01*
X64756468Y-84842536D01*
X64702886Y-84713176D01*
X64571259Y-84498382D01*
X64571258Y-84498379D01*
X64511882Y-84428859D01*
X64407644Y-84306812D01*
X64278029Y-84196110D01*
X64216076Y-84143197D01*
X64216073Y-84143196D01*
X64001279Y-84011569D01*
X63768530Y-83915162D01*
X63523571Y-83856353D01*
X63272420Y-83836587D01*
X63021268Y-83856353D01*
X62776309Y-83915162D01*
X62543560Y-84011569D01*
X62328766Y-84143196D01*
X62328763Y-84143197D01*
X62137196Y-84306812D01*
X61973581Y-84498379D01*
X61973580Y-84498382D01*
X61841953Y-84713176D01*
X61745546Y-84945925D01*
X61686737Y-85190884D01*
X61666971Y-85442036D01*
X25177239Y-85442036D01*
X25178923Y-83700000D01*
X152394551Y-83700000D01*
X152414317Y-83951151D01*
X152473126Y-84196110D01*
X152569533Y-84428859D01*
X152701160Y-84643653D01*
X152701161Y-84643656D01*
X152701164Y-84643659D01*
X152864776Y-84835224D01*
X152967378Y-84922854D01*
X153056343Y-84998838D01*
X153056346Y-84998839D01*
X153271140Y-85130466D01*
X153417013Y-85190888D01*
X153503889Y-85226873D01*
X153748852Y-85285683D01*
X154000000Y-85305449D01*
X154251148Y-85285683D01*
X154496111Y-85226873D01*
X154728859Y-85130466D01*
X154943659Y-84998836D01*
X155135224Y-84835224D01*
X155298836Y-84643659D01*
X155430466Y-84428859D01*
X155526873Y-84196111D01*
X155585683Y-83951148D01*
X155605449Y-83700000D01*
X155585683Y-83448852D01*
X155526873Y-83203889D01*
X155430466Y-82971141D01*
X155430466Y-82971140D01*
X155298839Y-82756346D01*
X155298838Y-82756343D01*
X155261875Y-82713066D01*
X155135224Y-82564776D01*
X155008571Y-82456604D01*
X154943656Y-82401161D01*
X154943653Y-82401160D01*
X154728859Y-82269533D01*
X154496110Y-82173126D01*
X154251151Y-82114317D01*
X154000000Y-82094551D01*
X153748848Y-82114317D01*
X153503889Y-82173126D01*
X153271140Y-82269533D01*
X153056346Y-82401160D01*
X153056343Y-82401161D01*
X152864776Y-82564776D01*
X152701161Y-82756343D01*
X152701160Y-82756346D01*
X152569533Y-82971140D01*
X152473126Y-83203889D01*
X152414317Y-83448848D01*
X152394551Y-83700000D01*
X25178923Y-83700000D01*
X25193350Y-68773286D01*
X137866969Y-68773286D01*
X137886735Y-69024437D01*
X137945544Y-69269396D01*
X138041951Y-69502145D01*
X138173578Y-69716939D01*
X138173579Y-69716942D01*
X138173582Y-69716945D01*
X138337194Y-69908510D01*
X138485484Y-70035161D01*
X138528761Y-70072124D01*
X138528764Y-70072125D01*
X138743558Y-70203752D01*
X138976307Y-70300159D01*
X139221270Y-70358969D01*
X139472418Y-70378735D01*
X139723566Y-70358969D01*
X139968529Y-70300159D01*
X140201277Y-70203752D01*
X140416077Y-70072122D01*
X140607642Y-69908510D01*
X140771254Y-69716945D01*
X140902884Y-69502145D01*
X140999291Y-69269397D01*
X141058101Y-69024434D01*
X141077867Y-68773286D01*
X141058101Y-68522138D01*
X140999291Y-68277175D01*
X140902884Y-68044427D01*
X140902884Y-68044426D01*
X140771257Y-67829632D01*
X140771256Y-67829629D01*
X140734293Y-67786352D01*
X140607642Y-67638062D01*
X140480989Y-67529890D01*
X140416074Y-67474447D01*
X140416071Y-67474446D01*
X140201277Y-67342819D01*
X139968528Y-67246412D01*
X139723569Y-67187603D01*
X139472418Y-67167837D01*
X139221266Y-67187603D01*
X138976307Y-67246412D01*
X138743558Y-67342819D01*
X138528764Y-67474446D01*
X138528761Y-67474447D01*
X138337194Y-67638062D01*
X138173579Y-67829629D01*
X138173578Y-67829632D01*
X138041951Y-68044426D01*
X137945544Y-68277175D01*
X137886735Y-68522134D01*
X137866969Y-68773286D01*
X25193350Y-68773286D01*
X25215214Y-46151411D01*
X61666969Y-46151411D01*
X61686735Y-46402562D01*
X61745544Y-46647521D01*
X61841951Y-46880270D01*
X61973578Y-47095064D01*
X61973579Y-47095067D01*
X61973582Y-47095070D01*
X62137194Y-47286635D01*
X62285484Y-47413286D01*
X62328761Y-47450249D01*
X62328764Y-47450250D01*
X62543558Y-47581877D01*
X62776307Y-47678284D01*
X63021270Y-47737094D01*
X63272418Y-47756860D01*
X63523566Y-47737094D01*
X63768529Y-47678284D01*
X64001277Y-47581877D01*
X64216077Y-47450247D01*
X64407642Y-47286635D01*
X64571254Y-47095070D01*
X64702884Y-46880270D01*
X64799291Y-46647522D01*
X64858101Y-46402559D01*
X64877867Y-46151411D01*
X64858101Y-45900263D01*
X64799291Y-45655300D01*
X64702884Y-45422552D01*
X64702884Y-45422551D01*
X64618265Y-45284467D01*
X66847491Y-45284467D01*
X66847491Y-50912673D01*
X110845355Y-50912673D01*
X110845355Y-49723286D01*
X137866969Y-49723286D01*
X137886735Y-49974437D01*
X137945544Y-50219396D01*
X138041951Y-50452145D01*
X138173578Y-50666939D01*
X138173579Y-50666942D01*
X138173582Y-50666945D01*
X138337194Y-50858510D01*
X138400611Y-50912673D01*
X138528761Y-51022124D01*
X138528764Y-51022125D01*
X138743558Y-51153752D01*
X138976307Y-51250159D01*
X139221270Y-51308969D01*
X139472418Y-51328735D01*
X139723566Y-51308969D01*
X139968529Y-51250159D01*
X140201277Y-51153752D01*
X140416077Y-51022122D01*
X140607642Y-50858510D01*
X140771254Y-50666945D01*
X140902884Y-50452145D01*
X140999291Y-50219397D01*
X141058101Y-49974434D01*
X141077867Y-49723286D01*
X141058101Y-49472138D01*
X140999291Y-49227175D01*
X140902884Y-48994427D01*
X140902884Y-48994426D01*
X140771257Y-48779632D01*
X140771256Y-48779629D01*
X140734293Y-48736352D01*
X140607642Y-48588062D01*
X140480989Y-48479890D01*
X140416074Y-48424447D01*
X140416071Y-48424446D01*
X140201277Y-48292819D01*
X139968528Y-48196412D01*
X139723569Y-48137603D01*
X139472418Y-48117837D01*
X139221266Y-48137603D01*
X138976307Y-48196412D01*
X138743558Y-48292819D01*
X138528764Y-48424446D01*
X138528761Y-48424447D01*
X138337194Y-48588062D01*
X138173579Y-48779629D01*
X138173578Y-48779632D01*
X138041951Y-48994426D01*
X137945544Y-49227175D01*
X137886735Y-49472134D01*
X137866969Y-49723286D01*
X110845355Y-49723286D01*
X110845355Y-46168027D01*
X110865040Y-46100988D01*
X110917844Y-46055233D01*
X110969355Y-46044027D01*
X111039119Y-46044027D01*
X111039119Y-42279000D01*
X88758658Y-42279000D01*
X88758658Y-45160467D01*
X88738973Y-45227506D01*
X88686169Y-45273261D01*
X88634658Y-45284467D01*
X66847491Y-45284467D01*
X64618265Y-45284467D01*
X64571257Y-45207757D01*
X64571256Y-45207754D01*
X64530869Y-45160467D01*
X64407642Y-45016187D01*
X64280989Y-44908015D01*
X64216074Y-44852572D01*
X64216071Y-44852571D01*
X64001277Y-44720944D01*
X63768528Y-44624537D01*
X63523569Y-44565728D01*
X63272418Y-44545962D01*
X63021266Y-44565728D01*
X62776307Y-44624537D01*
X62543558Y-44720944D01*
X62328764Y-44852571D01*
X62328761Y-44852572D01*
X62137194Y-45016187D01*
X61973579Y-45207754D01*
X61973578Y-45207757D01*
X61841951Y-45422551D01*
X61745544Y-45655300D01*
X61686735Y-45900259D01*
X61666969Y-46151411D01*
X25215214Y-46151411D01*
X25219082Y-42149009D01*
X25219450Y-42143262D01*
X25219156Y-42074147D01*
X25219155Y-42073497D01*
X25219218Y-42009341D01*
X25219217Y-42009338D01*
X25219222Y-42004596D01*
X25218837Y-41998881D01*
X25188729Y-34900000D01*
X33394551Y-34900000D01*
X33414317Y-35151151D01*
X33473126Y-35396110D01*
X33569533Y-35628859D01*
X33701160Y-35843653D01*
X33701161Y-35843656D01*
X33701164Y-35843659D01*
X33864776Y-36035224D01*
X33981860Y-36135223D01*
X34056343Y-36198838D01*
X34056346Y-36198839D01*
X34271140Y-36330466D01*
X34503889Y-36426873D01*
X34748852Y-36485683D01*
X35000000Y-36505449D01*
X35251148Y-36485683D01*
X35496111Y-36426873D01*
X35728859Y-36330466D01*
X35943659Y-36198836D01*
X36135224Y-36035224D01*
X36298836Y-35843659D01*
X36430466Y-35628859D01*
X36526873Y-35396111D01*
X36585683Y-35151148D01*
X36597579Y-35000000D01*
X152394551Y-35000000D01*
X152414317Y-35251151D01*
X152473126Y-35496110D01*
X152569533Y-35728859D01*
X152701160Y-35943653D01*
X152701161Y-35943656D01*
X152701164Y-35943659D01*
X152864776Y-36135224D01*
X152939260Y-36198839D01*
X153056343Y-36298838D01*
X153056346Y-36298839D01*
X153271140Y-36430466D01*
X153503889Y-36526873D01*
X153748852Y-36585683D01*
X154000000Y-36605449D01*
X154251148Y-36585683D01*
X154496111Y-36526873D01*
X154728859Y-36430466D01*
X154943659Y-36298836D01*
X155135224Y-36135224D01*
X155298836Y-35943659D01*
X155430466Y-35728859D01*
X155526873Y-35496111D01*
X155585683Y-35251148D01*
X155605449Y-35000000D01*
X155585683Y-34748852D01*
X155526873Y-34503889D01*
X155430466Y-34271141D01*
X155430466Y-34271140D01*
X155298839Y-34056346D01*
X155298838Y-34056343D01*
X155213432Y-33956346D01*
X155135224Y-33864776D01*
X155008571Y-33756604D01*
X154943656Y-33701161D01*
X154943653Y-33701160D01*
X154728859Y-33569533D01*
X154496110Y-33473126D01*
X154251151Y-33414317D01*
X154000000Y-33394551D01*
X153748848Y-33414317D01*
X153503889Y-33473126D01*
X153271140Y-33569533D01*
X153056346Y-33701160D01*
X153056343Y-33701161D01*
X152864776Y-33864776D01*
X152701161Y-34056343D01*
X152701160Y-34056346D01*
X152569533Y-34271140D01*
X152473126Y-34503889D01*
X152414317Y-34748848D01*
X152394551Y-35000000D01*
X36597579Y-35000000D01*
X36605449Y-34900000D01*
X36585683Y-34648852D01*
X36526873Y-34403889D01*
X36430466Y-34171141D01*
X36430466Y-34171140D01*
X36298839Y-33956346D01*
X36298838Y-33956343D01*
X36220632Y-33864776D01*
X36135224Y-33764776D01*
X36008571Y-33656604D01*
X35943656Y-33601161D01*
X35943653Y-33601160D01*
X35728859Y-33469533D01*
X35496110Y-33373126D01*
X35251151Y-33314317D01*
X35000000Y-33294551D01*
X34748848Y-33314317D01*
X34503889Y-33373126D01*
X34271140Y-33469533D01*
X34056346Y-33601160D01*
X34056343Y-33601161D01*
X33864776Y-33764776D01*
X33701161Y-33956343D01*
X33701160Y-33956346D01*
X33569533Y-34171140D01*
X33473126Y-34403889D01*
X33414317Y-34648848D01*
X33394551Y-34900000D01*
X25188729Y-34900000D01*
X25172924Y-31173411D01*
X25172924Y-31172561D01*
X25172928Y-31170924D01*
X25173045Y-31127554D01*
X25173107Y-31123969D01*
X25173763Y-31103296D01*
X25175460Y-31049753D01*
X25176106Y-31040453D01*
X25179503Y-31008808D01*
X25181907Y-30986407D01*
X25186021Y-30965402D01*
X25186947Y-30962182D01*
X25194808Y-30934817D01*
X25200917Y-30918157D01*
X25206476Y-30905811D01*
X25220454Y-30874765D01*
X25229918Y-30857543D01*
X25242471Y-30838464D01*
X25251364Y-30826572D01*
X25259009Y-30817533D01*
X25274930Y-30798709D01*
X25284776Y-30788345D01*
X25310453Y-30764270D01*
X25323650Y-30753503D01*
X25351733Y-30733641D01*
X25364691Y-30725625D01*
X25387058Y-30713626D01*
X25401276Y-30707119D01*
X25428788Y-30696572D01*
X25441786Y-30692396D01*
X25455288Y-30688867D01*
X25467491Y-30686326D01*
X25507948Y-30680010D01*
X25519325Y-30678768D01*
X25582579Y-30674815D01*
X25589133Y-30674580D01*
X25672681Y-30673805D01*
X25674210Y-30673791D01*
X25675360Y-30673786D01*
X43788310Y-30673786D01*
X43788312Y-30673786D01*
X43915606Y-30639678D01*
X44029734Y-30573786D01*
X44122920Y-30480600D01*
X44188812Y-30366472D01*
X44222920Y-30239178D01*
X44222920Y-28792808D01*
X44223045Y-28746304D01*
X44223107Y-28742720D01*
X44225460Y-28668505D01*
X44226106Y-28659200D01*
X44228033Y-28641252D01*
X44231681Y-28607256D01*
X44233274Y-28596718D01*
X44235374Y-28585969D01*
X44238318Y-28574062D01*
X44247295Y-28544186D01*
X44252639Y-28529730D01*
X44264634Y-28502605D01*
X44274448Y-28484607D01*
X44292458Y-28457235D01*
X44301368Y-28445318D01*
X44309950Y-28435170D01*
X44324930Y-28417459D01*
X44334776Y-28407095D01*
X44360453Y-28383020D01*
X44373650Y-28372253D01*
X44401733Y-28352391D01*
X44414691Y-28344375D01*
X44437058Y-28332376D01*
X44451276Y-28325869D01*
X44478788Y-28315322D01*
X44491786Y-28311146D01*
X44505288Y-28307617D01*
X44517491Y-28305076D01*
X44557948Y-28298760D01*
X44569325Y-28297518D01*
X44632579Y-28293565D01*
X44639133Y-28293330D01*
X44722681Y-28292555D01*
X44724210Y-28292541D01*
X44725360Y-28292536D01*
X62838310Y-28292536D01*
X62838312Y-28292536D01*
X62965606Y-28258428D01*
X63079734Y-28192536D01*
X63172920Y-28099350D01*
X63238812Y-27985222D01*
X63272920Y-27857928D01*
X63272920Y-26411558D01*
X63273045Y-26365054D01*
X63273107Y-26361470D01*
X63274288Y-26324215D01*
X63275460Y-26287249D01*
X63276106Y-26277950D01*
X63278033Y-26260002D01*
X63281681Y-26226006D01*
X63283274Y-26215468D01*
X63285374Y-26204719D01*
X63288318Y-26192812D01*
X63290500Y-26185552D01*
X63297297Y-26162930D01*
X63302639Y-26148480D01*
X63314634Y-26121355D01*
X63324448Y-26103357D01*
X63324638Y-26103069D01*
X63342458Y-26075985D01*
X63351368Y-26064068D01*
X63364275Y-26048807D01*
X63374930Y-26036209D01*
X63384776Y-26025845D01*
X63410453Y-26001770D01*
X63423650Y-25991003D01*
X63451733Y-25971141D01*
X63464691Y-25963125D01*
X63487058Y-25951126D01*
X63501276Y-25944619D01*
X63528788Y-25934072D01*
X63541786Y-25929896D01*
X63555288Y-25926367D01*
X63567491Y-25923826D01*
X63607948Y-25917510D01*
X63619325Y-25916268D01*
X63682579Y-25912315D01*
X63689133Y-25912080D01*
X63772681Y-25911305D01*
X63774210Y-25911291D01*
X63775360Y-25911286D01*
X81888310Y-25911286D01*
X81888312Y-25911286D01*
X82015606Y-25877178D01*
X82129734Y-25811286D01*
X82222920Y-25718100D01*
X82288812Y-25603972D01*
X82322920Y-25476678D01*
X82322920Y-24030308D01*
X82323045Y-23983804D01*
X82323107Y-23980220D01*
X82324288Y-23942965D01*
X82325460Y-23905999D01*
X82326106Y-23896700D01*
X82328033Y-23878752D01*
X82331681Y-23844756D01*
X82333274Y-23834218D01*
X82335374Y-23823469D01*
X82338318Y-23811562D01*
X82340500Y-23804302D01*
X82347297Y-23781680D01*
X82352639Y-23767230D01*
X82364634Y-23740105D01*
X82374448Y-23722107D01*
X82374638Y-23721819D01*
X82392458Y-23694735D01*
X82401368Y-23682818D01*
X82414275Y-23667557D01*
X82424930Y-23654959D01*
X82434776Y-23644595D01*
X82460453Y-23620520D01*
X82473650Y-23609753D01*
X82501733Y-23589891D01*
X82514691Y-23581875D01*
X82537058Y-23569876D01*
X82551276Y-23563369D01*
X82578788Y-23552822D01*
X82591786Y-23548646D01*
X82605288Y-23545117D01*
X82617491Y-23542576D01*
X82657948Y-23536260D01*
X82669325Y-23535018D01*
X82732579Y-23531065D01*
X82739133Y-23530830D01*
X82822681Y-23530055D01*
X82824210Y-23530041D01*
X82825360Y-23530036D01*
X100871646Y-23530036D01*
X100872360Y-23530037D01*
G37*
%TD.AperFunction*%
M02*
